<svg xmlns="http://www.w3.org/2000/svg" width="20" height="27" viewBox="0 0 20 27">
    <path fill="#9092A5" fill-rule="nonzero" d="M15.79 6.656v-.909C15.79 2.58 13.196 0 10.01 0S4.233 2.579 4.233 5.747v.91h-4.2V23.34c0 2 1.635 3.626 3.646 3.626h12.664c2.012 0 3.646-1.626 3.646-3.626V6.656h-4.2zM5.656 10.888A1.221 1.221 0 0 1 4.432 9.67c0-.672.549-1.217 1.225-1.217a1.218 1.218 0 0 1 0 2.436zm7.468-4.232H6.898v-.909A3.108 3.108 0 0 1 10.01 2.65a3.108 3.108 0 0 1 3.114 3.097v.91zm1.24 4.232a1.221 1.221 0 0 1-1.224-1.218c0-.672.549-1.217 1.225-1.217s1.224.545 1.224 1.217a1.221 1.221 0 0 1-1.224 1.218z"/>
</svg>
