<?xml version="1.0" encoding="UTF-8"?>
<svg width="21px" height="24px" viewBox="0 0 21 24" version="1.1" xmlns="http://www.w3.org/2000/svg" xmlns:xlink="http://www.w3.org/1999/xlink">
    <!-- Generator: sketchtool 47.1 (45422) - http://www.bohemiancoding.com/sketch -->
    <title>414AD9AD-B245-46E2-B424-075666CBACF3</title>
    <desc>Created with sketchtool.</desc>
    <defs></defs>
    <g id="Page-1" stroke="none" stroke-width="1" fill="none" fill-rule="evenodd">
        <g id="Login1" transform="translate(-310.000000, -569.000000)" fill-rule="nonzero" fill="#287FDE">
            <g id="arrows-(7)" transform="translate(320.500000, 581.000000) rotate(-270.000000) translate(-320.500000, -581.000000) translate(308.500000, 570.500000)">
                <path d="M23.7940996,10.5389842 L14.1851009,1.20053626 C14.0479544,1.0670326 13.8897916,1 13.7110461,1 C13.5325172,1 13.3745712,1.0670326 13.2371357,1.20053626 L12.2060448,2.20251565 C12.0686094,2.33608951 12,2.48952747 12,2.66346127 C12,2.83739506 12.0686094,2.99083303 12.2060448,3.12440688 L20.3096811,11.0001404 L12.2061171,18.8760845 C12.0686816,19.0096583 12.0000722,19.163377 12.0000722,19.3368195 C12.0000722,19.5106831 12.0686816,19.6644018 12.2061171,19.7979757 L13.237208,20.7996743 C13.3745712,20.9333886 13.5325172,21 13.7111183,21 C13.8900805,21 14.0480266,20.9332482 14.1851009,20.7996743 L23.7940996,11.4611562 C23.9314628,11.3276525 24,11.1738636 24,11.0002106 C24,10.8265575 23.9314628,10.6728388 23.7940996,10.5389842 Z" id="Shape"></path>
                <path d="M12,10.5002211 C12,10.3178854 11.9316089,10.1564071 11.7936712,10.0159334 L2.18555386,0.210563074 C2.04819393,0.0703842266 1.89003503,0 1.71136602,0 C1.53269701,0 1.37446588,0.0703842266 1.23710596,0.210563074 L0.206256545,1.26271514 C0.0686077442,1.40296768 0,1.56407755 0,1.74670803 C0,1.92933852 0.0686077442,2.09044838 0.206256545,2.23070093 L8.30948111,10.5002211 L0.206256545,18.7698887 C0.0686077442,18.9101412 0,19.0715459 0,19.2536605 C0,19.4362173 0.0686077442,19.5976219 0.206256545,19.7378745 L1.23703374,20.789658 C1.37446588,20.930058 1.53262479,21 1.7112938,21 C1.88996281,21 2.04812171,20.9299106 2.18555386,20.789658 L11.7936712,10.984214 C11.9316089,10.8440352 12,10.6825568 12,10.5002211 Z" id="Shape"></path>
            </g>
        </g>
    </g>
</svg>