<?xml version="1.0" encoding="UTF-8"?>
<svg width="24px" height="28px" viewBox="0 0 24 28" version="1.1" xmlns="http://www.w3.org/2000/svg" xmlns:xlink="http://www.w3.org/1999/xlink">
    <!-- Generator: sketchtool 47.1 (45422) - http://www.bohemiancoding.com/sketch -->
    <title>731B96F7-B95F-4026-87EB-5BEBCE90A6D0</title>
    <desc>Created with sketchtool.</desc>
    <defs></defs>
    <g id="Page-1" stroke="none" stroke-width="1" fill="none" fill-rule="evenodd">
        <g id="Cart-New-Copy" transform="translate(-317.000000, -37.000000)" fill-rule="nonzero" fill="#EE4C40">
            <g id="Group-3">
                <g id="White-header-with-arrow">
                    <path d="M340.068251,42.9377401 L340.067039,42.939268 C340.064194,42.8759949 340.051813,42.8126693 340.026683,42.7519251 C339.940809,42.5446151 339.738451,42.4093762 339.514019,42.4093762 L335.40122,42.4093762 L335.40122,39.2800753 C335.40122,38.2672856 334.577143,37.4432086 333.564248,37.4432086 L327.805034,37.4432086 C326.792192,37.4432086 325.968168,38.2672856 325.968168,39.2800753 L325.968168,40.0303425 L325.2179,40.0303425 C324.205058,40.0303425 323.381034,40.8544195 323.381034,41.8672092 L323.381034,42.4093762 L321.854842,42.4093762 C321.707697,42.4093762 321.566558,42.467855 321.462507,42.5719052 L318.875637,45.1587757 L318.875848,45.1593025 C318.781597,45.2536062 318.720642,45.3815747 318.71374,45.524716 C318.558903,48.7611228 318.401379,51.7701997 318.249018,54.6801261 C318.096657,57.5898945 317.939133,60.5987607 317.784296,63.8358523 C317.777026,63.9873704 317.832185,64.1353059 317.936868,64.2452566 C318.041655,64.3550493 318.186746,64.4172686 318.338475,64.4172686 L337.856487,64.4172686 C338.004054,64.4172686 338.14493,64.3581576 338.248875,64.2540021 L338.248822,64.2547924 L340.835693,61.6679218 C340.946908,61.5567067 341.00565,61.4035555 340.997431,61.2465583 C340.991373,61.1281256 340.374869,49.3363751 340.068251,42.9377401 Z M338.174433,43.5192091 L336.697343,44.9962994 L332.814086,44.9962994 L332.814086,43.5192091 L338.174433,43.5192091 Z M327.077948,39.2800753 C327.077948,38.8791003 327.404112,38.5529361 327.805087,38.5529361 L333.564301,38.5529361 C333.965276,38.5529361 334.29144,38.879153 334.29144,39.2800753 L334.29144,42.4093762 L332.814139,42.4093762 L332.814139,41.8672619 C332.814139,40.8543669 331.990062,40.0303952 330.977272,40.0303952 L327.078053,40.0303952 L327.078053,39.2800753 L327.077948,39.2800753 Z M332.814086,49.1304348 C332.814086,49.4364212 332.565156,49.6852986 332.259223,49.6852986 C331.953289,49.6852986 331.704359,49.4363686 331.704359,49.1304348 C331.704359,48.8245011 331.953289,48.5755711 332.259223,48.5755711 C332.565156,48.5755711 332.814086,48.8245011 332.814086,49.1304348 Z M327.077948,41.1401227 L330.977167,41.1401227 C331.378142,41.1401227 331.704306,41.4663396 331.704306,41.8672619 L331.704306,42.4094289 L327.077948,42.4094289 L327.077948,41.1401227 L327.077948,41.1401227 Z M324.490814,41.8672619 C324.490814,41.466287 324.816978,41.1401227 325.217953,41.1401227 L325.96822,41.1401227 L325.96822,42.4094289 L324.490814,42.4094289 L324.490814,41.8672619 Z M324.490814,43.5192091 L331.704306,43.5192091 L331.704306,44.9962994 L324.490814,44.9962994 L324.490814,43.5192091 Z M323.93595,48.5755711 C324.241937,48.5755711 324.490814,48.8245011 324.490814,49.1304348 C324.490814,49.4363686 324.241884,49.6852986 323.93595,49.6852986 C323.630016,49.6852986 323.381086,49.4363686 323.381086,49.1304348 C323.381086,48.8245011 323.629964,48.5755711 323.93595,48.5755711 Z M322.084754,43.5192091 L323.381086,43.5192091 L323.381086,44.9962994 L320.607558,44.9962994 L322.084754,43.5192091 Z M319.357271,54.7380781 C319.50136,51.9856757 319.650086,49.1449755 319.796863,46.106027 L323.381086,46.106027 L323.381086,47.5612009 C322.735238,47.7902692 322.271306,48.4070889 322.271306,49.1304348 C322.271306,50.0483413 323.018044,50.7950788 323.93595,50.7950788 C324.853857,50.7950788 325.600594,50.0483413 325.600594,49.1304348 C325.600594,48.4070889 325.136662,47.7902692 324.490814,47.5612009 L324.490814,46.106027 L331.704306,46.106027 L331.704306,47.5612009 C331.058458,47.7902692 330.594526,48.4070889 330.594526,49.1304348 C330.594526,50.0483413 331.341264,50.7950788 332.25917,50.7950788 C333.177077,50.7950788 333.923814,50.0483413 333.923814,49.1304348 C333.923814,48.4070889 333.459882,47.7902692 332.814034,47.5612009 L332.814034,46.106027 L336.398258,46.106027 C336.545034,49.1450282 336.69376,51.9857284 336.83785,54.7380781 C336.925673,56.4158403 337.015235,58.1268458 337.105008,59.8951184 L337.161011,61.0048459 C337.198838,61.7606977 337.236717,62.5274022 337.274386,63.3073304 L318.920734,63.3073304 C319.066457,60.2927216 319.214129,57.4716198 319.357271,54.7380781 Z M338.350238,62.5838791 L338.350238,62.5840371 C338.215052,59.8177789 338.078601,57.2113628 337.946049,54.6801261 C337.797482,51.8440094 337.64412,48.913115 337.493076,45.7699055 L339.020215,44.2427658 C339.313136,50.2488552 339.79182,59.4392999 339.876324,61.0577403 L338.350238,62.5838791 Z" id="Shape"></path>
                </g>
            </g>
        </g>
    </g>
</svg>