<?xml version="1.0" encoding="UTF-8"?>
<svg width="47px" height="47px" viewBox="0 0 47 47" version="1.1" xmlns="http://www.w3.org/2000/svg" xmlns:xlink="http://www.w3.org/1999/xlink">
    <!-- Generator: sketchtool 47.1 (45422) - http://www.bohemiancoding.com/sketch -->
    <title>15A4628E-D7D9-41D7-8997-EC6A0EE90DF0</title>
    <desc>Created with sketchtool.</desc>
    <defs></defs>
    <g id="Page-1" stroke="none" stroke-width="1" fill="none" fill-rule="evenodd">
        <g id="Cart-New-Copy" transform="translate(-299.000000, -340.000000)">
            <g id="Group-20" transform="translate(240.000000, 341.000000)">
                <g id="Group-30" transform="translate(60.000000, 0.000000)">
                    <circle id="Oval-15-Copy" stroke="#FF4D4C" stroke-width="2" cx="22.5" cy="22.5" r="22.5"></circle>
                    <g id="interface-(1)" transform="translate(11.000000, 9.000000)" fill-rule="nonzero" fill="#FF4E49">
                        <path d="M15.9951368,7.875 L15.156231,7.875 C14.8486322,7.875 14.5969605,8.128125 14.5969605,8.4375 C14.5969605,8.746875 14.8486322,9 15.156231,9 L15.9951368,9 C16.3027356,9 16.5544073,8.746875 16.5544073,8.4375 C16.5544073,8.128125 16.3027356,7.875 15.9951368,7.875 Z" id="Shape"></path>
                        <path d="M20.1896657,3.375 L16.8340426,3.375 C16.8340426,1.51875 15.3240122,0 13.4784195,0 L9.28389058,0 C7.43829787,0 5.92826748,1.51875 5.92826748,3.375 L2.85227964,3.375 C1.31428571,3.375 0.0559270517,4.640625 0.0559270517,6.1875 L0.0559270517,7.3125 C0.0559270517,8.15625 0.699088146,8.859375 1.5100304,8.971875 L2.93617021,24.4125 C3.07598784,25.875 4.27841945,26.971875 5.7325228,26.971875 L17.3094225,26.971875 C18.7635258,26.971875 19.9659574,25.875 20.1057751,24.4125 L21.5319149,8.971875 C22.3428571,8.859375 22.9860182,8.15625 22.9860182,7.3125 L22.9860182,6.1875 C22.9860182,4.640625 21.7276596,3.375 20.1896657,3.375 Z M9.28389058,1.125 L13.4784195,1.125 C14.7088146,1.125 15.7155015,2.1375 15.7155015,3.375 L7.04680851,3.375 C7.04680851,2.1375 8.05349544,1.125 9.28389058,1.125 Z M21.8674772,7.3125 C21.8674772,7.621875 21.6158055,7.875 21.3082067,7.875 L21.0285714,7.875 C20.7489362,7.875 20.4972644,8.1 20.4693009,8.38125 L18.987234,24.328125 C18.9033435,25.2 18.1762918,25.875 17.3094225,25.875 L5.7325228,25.875 C4.8656535,25.875 4.13860182,25.2 4.05471125,24.328125 L2.62857143,9 L12.6395137,9 C12.9471125,9 13.1987842,8.746875 13.1987842,8.4375 C13.1987842,8.128125 12.9471125,7.875 12.6395137,7.875 L2.01337386,7.875 L1.7337386,7.875 C1.42613982,7.875 1.17446809,7.621875 1.17446809,7.3125 L1.17446809,6.1875 C1.17446809,5.259375 1.92948328,4.5 2.85227964,4.5 L20.1896657,4.5 C21.112462,4.5 21.8674772,5.259375 21.8674772,6.1875 L21.8674772,7.3125 Z" id="Shape"></path>
                        <path d="M7.04680851,11.25 C6.73920973,11.25 6.48753799,11.503125 6.48753799,11.8125 L6.48753799,22.5 C6.48753799,22.809375 6.73920973,23.0625 7.04680851,23.0625 C7.35440729,23.0625 7.60607903,22.809375 7.60607903,22.5 L7.60607903,11.8125 C7.60607903,11.503125 7.35440729,11.25 7.04680851,11.25 Z" id="Shape"></path>
                        <path d="M11.5209726,11.25 C11.2133739,11.25 10.9617021,11.503125 10.9617021,11.8125 L10.9617021,22.5 C10.9617021,22.809375 11.2133739,23.0625 11.5209726,23.0625 C11.8285714,23.0625 12.0802432,22.809375 12.0802432,22.5 L12.0802432,11.8125 C12.0802432,11.503125 11.8285714,11.25 11.5209726,11.25 Z" id="Shape"></path>
                        <path d="M15.9951368,11.25 C15.687538,11.25 15.4358663,11.503125 15.4358663,11.8125 L15.4358663,22.5 C15.4358663,22.809375 15.687538,23.0625 15.9951368,23.0625 C16.3027356,23.0625 16.5544073,22.809375 16.5544073,22.5 L16.5544073,11.8125 C16.5544073,11.503125 16.3027356,11.25 15.9951368,11.25 Z" id="Shape"></path>
                    </g>
                </g>
            </g>
        </g>
    </g>
</svg>