<?xml version="1.0" encoding="UTF-8"?>
<svg width="21px" height="21px" viewBox="0 0 21 21" version="1.1" xmlns="http://www.w3.org/2000/svg" xmlns:xlink="http://www.w3.org/1999/xlink">
    <!-- Generator: sketchtool 45.2 (43514) - http://www.bohemiancoding.com/sketch -->
    <title>A1777734-4D33-4497-B918-FAB6EF8CEF98</title>
    <desc>Created with sketchtool.</desc>
    <defs></defs>
    <g id="Page-1" stroke="none" stroke-width="1" fill="none" fill-rule="evenodd">
        <g id="Allergens" transform="translate(-201.000000, -220.000000)">
            <g id="Group-14" transform="translate(191.000000, 212.000000)">
                <g id="Group-8-Copy-2">
                    <g id="Group-6" transform="translate(10.000000, 8.000000)">
                        <g id="Group-5">
                            <g id="006-boiled-egg" fill="#7ADF2C">
                                <circle id="Oval-20" cx="10.5" cy="10.5" r="10.5"></circle>
                            </g>
                            <g id="Group-49" transform="translate(4.565217, 3.652174)" fill-rule="nonzero" fill="#FFFFFF">
                                <path d="M11.0199323,5.96625181 C10.7655283,4.84454792 10.3211801,3.74564706 9.73490129,2.78832521 C8.89292007,1.41310996 7.7570691,0.00730131007 5.71658942,0.00730131007 C4.80811962,0.00730131007 4.02278083,0.277610633 3.31577845,0.833674754 C2.75403386,1.27545319 2.25507201,1.87828653 1.69787179,2.78829816 C1.11156592,3.74567411 0.6671907,4.84460202 0.412786699,5.96627886 C0.166714056,7.05122199 0.102064874,8.13272978 0.225845066,9.09394681 C0.344377584,10.0139939 0.622910067,10.8235965 1.0537874,11.5002489 C1.4317011,12.09375 1.92793091,12.5881946 2.52870846,12.96976 C3.74386965,13.7415738 5.0475921,13.8568333 5.71658942,13.8568333 C6.38555968,13.8568333 7.68925508,13.7415738 8.90428102,12.9697329 C9.50497742,12.5881405 10.0011531,12.093723 10.3790127,11.5001948 C10.809836,10.8235424 11.0883684,10.0139669 11.206901,9.09386566 C11.3306541,8.13267568 11.2660049,7.05116789 11.0199323,5.96625181 Z M10.3110905,8.97852503 C10.1223095,10.4437893 9.48604251,11.530112 8.41995315,12.2073324 C7.3596254,12.8809012 6.17616666,12.9536112 5.71658942,12.9536112 C5.25695807,12.9536112 4.07344523,12.8809012 3.01300929,12.2073324 C1.94678467,11.5300849 1.31046359,10.4437622 1.12173667,8.97855208 C0.890757852,7.18452373 1.40665292,4.99332219 2.46822496,3.25996669 C2.96018089,2.45647744 3.40690945,1.91112507 3.87419591,1.54365262 C4.41584245,1.11761721 5.01848644,0.910550477 5.71661647,0.910550477 C6.41450304,0.910550477 7.01706588,1.11764426 7.55868537,1.54362557 C8.02594478,1.91115212 8.47270039,2.45653154 8.96462927,3.25999374 C10.0260931,4.99329514 10.5420423,7.18452373 10.3110905,8.97852503 Z" id="Shape"></path>
                                <path d="M8.28059081,3.83189018 L7.57475158,4.39550121 C8.41013263,5.44168187 8.86576059,8.05199406 8.17025441,9.18887293 L8.94074282,9.66024392 C9.85754397,8.16168127 9.33526514,5.15273519 8.28059081,3.83189018 Z" id="Shape"></path>
                            </g>
                        </g>
                    </g>
                </g>
            </g>
        </g>
    </g>
</svg>