<?xml version="1.0" encoding="UTF-8"?>
<svg width="47px" height="47px" viewBox="0 0 47 47" version="1.1" xmlns="http://www.w3.org/2000/svg" xmlns:xlink="http://www.w3.org/1999/xlink">
    <!-- Generator: sketchtool 47.1 (45422) - http://www.bohemiancoding.com/sketch -->
    <title>44882C5A-11A1-4A47-9806-51A45C02C149</title>
    <desc>Created with sketchtool.</desc>
    <defs></defs>
    <g id="Page-1" stroke="none" stroke-width="1" fill="none" fill-rule="evenodd">
        <g id="Cart-New" transform="translate(-88.000000, -868.000000)">
            <g id="Group-28-Copy" transform="translate(66.000000, 869.000000)">
                <g id="Group-17">
                    <g id="Group-13" transform="translate(23.000000, 0.000000)">
                        <g id="interface-(1)-copy" transform="translate(13.000000, 11.000000)" fill-rule="nonzero">
                            <path d="M13.5714286,6.38888889 L13.0285714,6.38888889 C12.8295238,6.38888889 12.6666667,6.62847222 12.6666667,6.9212963 C12.6666667,7.21412037 12.8295238,7.4537037 13.0285714,7.4537037 L13.5714286,7.4537037 C13.7704762,7.4537037 13.9333333,7.21412037 13.9333333,6.9212963 C13.9333333,6.62847222 13.7704762,6.38888889 13.5714286,6.38888889 Z" id="Shape" fill="#FFFFFF"></path>
                            <path d="M16.6829268,2.87799791 L13.902439,2.87799791 C13.902439,1.29509906 12.6512195,0 11.1219512,0 L7.64634146,0 C6.11707317,0 4.86585366,1.29509906 4.86585366,2.87799791 L2.31707317,2.87799791 C1.04268293,2.87799791 0,3.95724713 0,5.27632951 L0,6.23566215 C0,6.95516163 0.532926829,7.55474453 1.20487805,7.65067779 L2.38658537,20.8175182 C2.50243902,22.0646507 3.49878049,23 4.70365854,23 L14.2963415,23 C15.5012195,23 16.497561,22.0646507 16.6134146,20.8175182 L17.795122,7.65067779 C18.4670732,7.55474453 19,6.95516163 19,6.23566215 L19,5.27632951 C19,3.95724713 17.9573171,2.87799791 16.6829268,2.87799791 Z M7.64634146,0.959332638 L11.1219512,0.959332638 C12.1414634,0.959332638 12.9756098,1.82273201 12.9756098,2.87799791 L5.79268293,2.87799791 C5.79268293,1.82273201 6.62682927,0.959332638 7.64634146,0.959332638 Z M18.0731707,6.23566215 C18.0731707,6.49947862 17.8646341,6.71532847 17.6097561,6.71532847 L17.3780488,6.71532847 C17.1463415,6.71532847 16.9378049,6.90719499 16.9146341,7.14702815 L15.6865854,20.7455683 C15.6170732,21.4890511 15.0146341,22.0646507 14.2963415,22.0646507 L4.70365854,22.0646507 C3.98536585,22.0646507 3.38292683,21.4890511 3.31341463,20.7455683 L2.13170732,7.67466111 L10.4268293,7.67466111 C10.6817073,7.67466111 10.8902439,7.45881126 10.8902439,7.19499479 C10.8902439,6.93117831 10.6817073,6.71532847 10.4268293,6.71532847 L1.62195122,6.71532847 L1.3902439,6.71532847 C1.13536585,6.71532847 0.926829268,6.49947862 0.926829268,6.23566215 L0.926829268,5.27632951 C0.926829268,4.48488008 1.55243902,3.83733055 2.31707317,3.83733055 L16.6829268,3.83733055 C17.447561,3.83733055 18.0731707,4.48488008 18.0731707,5.27632951 L18.0731707,6.23566215 Z" id="Shape" fill="#F04C41"></path>
                            <path d="M5.59027356,10.2222222 C5.30228977,10.2222222 5.06666667,10.4412698 5.06666667,10.7089947 L5.06666667,19.957672 C5.06666667,20.2253968 5.30228977,20.4444444 5.59027356,20.4444444 C5.87825735,20.4444444 6.11388045,20.2253968 6.11388045,19.957672 L6.11388045,10.7089947 C6.11388045,10.4412698 5.87825735,10.2222222 5.59027356,10.2222222 Z" id="Shape" fill="#F04C41"></path>
                            <path d="M9.39027356,10.2222222 C9.10228977,10.2222222 8.86666667,10.4412698 8.86666667,10.7089947 L8.86666667,19.957672 C8.86666667,20.2253968 9.10228977,20.4444444 9.39027356,20.4444444 C9.67825735,20.4444444 9.91388045,20.2253968 9.91388045,19.957672 L9.91388045,10.7089947 C9.91388045,10.4412698 9.67825735,10.2222222 9.39027356,10.2222222 Z" id="Shape" fill="#F04C41"></path>
                            <path d="M13.1902736,10.2222222 C12.9022898,10.2222222 12.6666667,10.4412698 12.6666667,10.7089947 L12.6666667,19.957672 C12.6666667,20.2253968 12.9022898,20.4444444 13.1902736,20.4444444 C13.4782573,20.4444444 13.7138804,20.2253968 13.7138804,19.957672 L13.7138804,10.7089947 C13.7138804,10.4412698 13.4782573,10.2222222 13.1902736,10.2222222 Z" id="Shape" fill="#F04C41"></path>
                        </g>
                        <circle id="Oval-21-Copy" stroke="#F04C41" cx="22.5" cy="22.5" r="22.5"></circle>
                    </g>
                </g>
            </g>
        </g>
    </g>
</svg>