<?xml version="1.0" encoding="UTF-8"?>
<svg width="22px" height="18px" viewBox="0 0 22 18" version="1.1" xmlns="http://www.w3.org/2000/svg" xmlns:xlink="http://www.w3.org/1999/xlink">
    <!-- Generator: sketchtool 45.2 (43514) - http://www.bohemiancoding.com/sketch -->
    <title>8265C9BF-5068-4B7D-AC02-F15A3D7C0B6D</title>
    <desc>Created with sketchtool.</desc>
    <defs></defs>
    <g id="Page-1" stroke="none" stroke-width="1" fill="none" fill-rule="evenodd">
        <g id="FFFFFF" transform="translate(-23.000000, -987.000000)" fill-rule="nonzero" fill="#EE4C40">
            <g id="Group-33" transform="translate(11.000000, 987.000000)">
                <path d="M33.1746943,0.703175766 L31.092011,0.0847386931 C30.9724869,0.0492310107 30.8430063,0.0666367374 30.7371192,0.131757363 C30.6312792,0.196877988 30.558989,0.303633112 30.5389346,0.424823385 C30.2226888,2.33615783 29.6404038,3.79178715 29.2578133,4.59927362 C27.9319117,4.13860206 26.4740758,4.37578409 25.2616112,5.88256304 C24.7155185,6.56120072 22.5175107,11.9423088 19.8590069,13.0945679 C16.9605584,14.3508436 14.1384108,13.7361662 12.6125788,13.2052683 C12.434779,13.1433967 12.2367832,13.2017407 12.1228271,13.349527 C12.008871,13.4973132 12.0049073,13.7008441 12.1134841,13.8524828 C13.0539168,15.1655244 15.1065894,17.2268266 18.9962909,17.8694461 C24.2603076,18.739129 29.192554,15.101657 31.247633,11.7706651 C32.3976223,9.90672063 32.854296,7.73745652 31.4795561,6.13111682 C32.57311,4.47242069 33.236509,2.13527254 33.469659,1.21406865 C33.5254809,0.993456871 33.3960004,0.76889979 33.1746943,0.703175766 Z" id="XMLID_1303_" transform="translate(22.758621, 9.033333) scale(-1, 1) translate(-22.758621, -9.033333) "></path>
            </g>
        </g>
    </g>
</svg>