<?xml version="1.0" encoding="UTF-8"?>
<svg width="46px" height="46px" viewBox="0 0 46 46" version="1.1" xmlns="http://www.w3.org/2000/svg" xmlns:xlink="http://www.w3.org/1999/xlink">
    <!-- Generator: sketchtool 47.1 (45422) - http://www.bohemiancoding.com/sketch -->
    <title>87547D1E-E345-4696-A63D-17B0A0D542D2</title>
    <desc>Created with sketchtool.</desc>
    <defs></defs>
    <g id="Page-1" stroke="none" stroke-width="1" fill="none" fill-rule="evenodd">
        <g id="Cart-New" transform="translate(-224.000000, -869.000000)">
            <g id="Group-28-Copy" transform="translate(66.000000, 869.000000)">
                <g id="Group-25" transform="translate(136.000000, 1.000000)">
                    <g id="Group-21" transform="translate(23.000000, 0.000000)">
                        <circle id="Oval-21-Copy" stroke="#3F76E0" cx="22" cy="22" r="22"></circle>
                        <path d="M27.7955416,12 L15.2044584,12 C14.5396006,12 14,12.5869826 14,13.3047022 L14,32.6952978 C14,33.4154899 14.5418832,34 15.2044584,34 L27.7955416,34 C28.4603994,34 29,33.4129896 29,32.6952978 L29,13.3047022 C29.0000256,12.5869826 28.4603994,12 27.7955416,12 Z M28.0915526,32.6977703 C28.0915526,32.8852081 27.9686037,33.0183897 27.7955673,33.0183897 L15.2044584,33.0183897 C15.031422,33.0183897 14.9084731,32.8852081 14.9084731,32.6977703 L14.9084731,13.3047022 C14.9084731,13.1172644 15.031422,12.9840828 15.2044584,12.9840828 L27.7955416,12.9840828 C27.968578,12.9840828 28.0915269,13.1172644 28.0915269,13.3047022 L28.0915269,32.6977703 L28.0915526,32.6977703 Z M26.0013695,27.4493194 C26.0013695,27.7156827 25.8055591,27.9277899 25.5596613,27.9277899 L19.9016511,27.9277899 C19.6557533,27.9277899 19.4599429,27.7156827 19.4599429,27.4493194 C19.4599429,27.1829562 19.6557533,26.970849 19.9016511,26.970849 L25.5573787,26.970849 C25.7805282,26.9437348 26.0013695,27.1829562 26.0013695,27.4493194 Z M26.0013695,30.4065129 C26.0013695,30.6728761 25.8055591,30.8849833 25.5596613,30.8849833 L19.9016511,30.8849833 C19.6557533,30.8849833 19.4599429,30.6728761 19.4599429,30.4065129 C19.4599429,30.1401496 19.6557533,29.9280424 19.9016511,29.9280424 L25.5573787,29.9280424 C25.7805282,29.9009005 26.0013695,30.1401496 26.0013695,30.4065129 Z M26.0013695,24.5192957 C26.0013695,24.785659 25.8055591,24.9977662 25.5596613,24.9977662 L19.9016511,24.9977662 C19.6557533,24.9977662 19.4599429,24.785659 19.4599429,24.5192957 C19.4599429,24.2529325 19.6557533,24.0408253 19.9016511,24.0408253 L25.5573787,24.0408253 C25.7805282,24.0407975 26.0013695,24.2529325 26.0013695,24.5192957 Z M26.0013695,21.6163584 C26.0013695,21.8827217 25.8055591,22.0948288 25.5596613,22.0948288 L19.9016511,22.0948288 C19.6557533,22.0948288 19.4599429,21.8827217 19.4599429,21.6163584 C19.4599429,21.3499951 19.6557533,21.137888 19.9016511,21.137888 L25.5573787,21.137888 C25.7805282,21.137888 26.0013695,21.3499951 26.0013695,21.6163584 Z M19.4348863,18.7134489 C19.4348863,18.4470856 19.6306967,18.2349784 19.8765946,18.2349784 L25.4822604,18.2349784 C25.7281582,18.2349784 25.9239686,18.4470856 25.9239686,18.7134489 C25.9239686,18.9798121 25.7281582,19.1919193 25.4822604,19.1919193 L19.8788771,19.1919193 C19.6329792,19.1919193 19.4348863,18.9798121 19.4348863,18.7134489 Z M19.4348863,15.7833974 C19.4348863,15.5170341 19.6306967,15.3049269 19.8765946,15.3049269 L25.4822604,15.3049269 C25.7281582,15.3049269 25.9239686,15.5170341 25.9239686,15.7833974 C25.9239686,16.0497606 25.7281582,16.2618678 25.4822604,16.2618678 L19.8788771,16.2618678 C19.6329792,16.2890097 19.4348863,16.0497884 19.4348863,15.7833974 Z M17.8114681,15.7833974 C17.8114681,16.0769026 17.5906011,16.3161239 17.3196723,16.3161239 C17.0487179,16.3161239 16.8278766,16.0768748 16.8278766,15.7833974 C16.8278766,15.4898922 17.0487436,15.2506708 17.3196723,15.2506708 C17.5906267,15.2506708 17.8114681,15.48992 17.8114681,15.7833974 Z M17.8114681,18.7134489 C17.8114681,19.0069541 17.5906011,19.2461754 17.3196723,19.2461754 C17.0487179,19.2461754 16.8278766,19.0069263 16.8278766,18.7134489 C16.8278766,18.4199714 17.0487436,18.1807223 17.3196723,18.1807223 C17.5906267,18.1535804 17.8114681,18.3928295 17.8114681,18.7134489 Z M17.8114681,21.5621023 C17.8114681,21.8556075 17.5906011,22.0948288 17.3196723,22.0948288 C17.0487179,22.0948288 16.8278766,21.8555797 16.8278766,21.5621023 C16.8278766,21.2686249 17.0487436,21.0293758 17.3196723,21.0293758 C17.5906267,21.0047063 17.8114681,21.2439554 17.8114681,21.5621023 Z M17.8114681,24.4674844 C17.8114681,24.7609896 17.5906011,25.0002109 17.3196723,25.0002109 C17.0487179,25.0002109 16.8278766,24.7609618 16.8278766,24.4674844 C16.8278766,24.1739791 17.0487436,23.9347578 17.3196723,23.9347578 C17.5906267,23.9347578 17.8114681,24.1740069 17.8114681,24.4674844 Z M17.8114681,27.4764614 C17.8114681,27.7699666 17.5906011,28.0091879 17.3196723,28.0091879 C17.0487179,28.0091879 16.8278766,27.7699388 16.8278766,27.4764614 C16.8278766,27.1829562 17.0487436,26.9437348 17.3196723,26.9437348 C17.5906267,26.9437348 17.8114681,27.1829562 17.8114681,27.4764614 Z M17.8114681,30.4065129 C17.8114681,30.7000181 17.5906011,30.9392394 17.3196723,30.9392394 C17.0487179,30.9392394 16.8278766,30.6999903 16.8278766,30.4065129 C16.8278766,30.1130076 17.0487436,29.8737863 17.3196723,29.8737863 C17.5906267,29.8466444 17.8114681,30.1130076 17.8114681,30.4065129 Z" id="Shape-Copy-2" fill="#3F76E0" fill-rule="nonzero"></path>
                    </g>
                </g>
            </g>
        </g>
    </g>
</svg>