<?xml version="1.0" encoding="UTF-8"?>
<svg width="33px" height="28px" viewBox="0 0 33 28" version="1.1" xmlns="http://www.w3.org/2000/svg" xmlns:xlink="http://www.w3.org/1999/xlink">
    <!-- Generator: sketchtool 47.1 (45422) - http://www.bohemiancoding.com/sketch -->
    <title>9256A516-4E80-4B02-BABD-321DE097CD40</title>
    <desc>Created with sketchtool.</desc>
    <defs></defs>
    <g id="Page-1" stroke="none" stroke-width="1" fill="none" fill-rule="evenodd">
        <g id="Info-Restaurant" transform="translate(-313.000000, -130.000000)" fill-rule="nonzero" fill="#E4493C">
            <path d="M343.606126,143.964517 L329.488122,158 L315.40172,143.940862 C313.853243,142.395382 313,140.345255 313,138.161081 C313,135.976908 313.845342,133.926781 315.393819,132.389186 C316.934396,130.851591 318.988499,130 321.169007,130 C323.357416,130 325.419419,130.851591 326.967897,132.397071 L328.753386,134.179104 C329.172106,134.597015 329.84364,134.597015 330.262361,134.179104 L332.032049,132.412841 C333.580526,130.867361 335.642529,130.01577 337.823038,130.01577 C340.003547,130.01577 342.057649,130.867361 343.606126,132.404956 C345.154603,133.950436 345.999946,136.000563 345.999946,138.184737 C346.007846,140.36891 345.154603,142.419037 343.606126,143.964517 Z" id="Shape"></path>
        </g>
    </g>
</svg>