<?xml version="1.0" encoding="UTF-8"?>
<svg width="16px" height="23px" viewBox="0 0 16 23" version="1.1" xmlns="http://www.w3.org/2000/svg" xmlns:xlink="http://www.w3.org/1999/xlink">
    <!-- Generator: sketchtool 47.1 (45422) - http://www.bohemiancoding.com/sketch -->
    <title>AAC766DA-8BEB-4BF4-A654-8B60583B00E7</title>
    <desc>Created with sketchtool.</desc>
    <defs></defs>
    <g id="Page-1" stroke="none" stroke-width="1" fill="none" fill-rule="evenodd">
        <g id="Thank-you!" transform="translate(-140.000000, -202.000000)" fill-rule="nonzero" fill="#3F76E0">
            <g id="Group" transform="translate(125.000000, 194.000000)">
                <g id="Group-17-Copy">
                    <g id="Group-10" transform="translate(15.000000, 8.000000)">
                        <g id="Group-2">
                            <g id="menu-(1)">
                                <path d="M12.0755579,3.83018429 L12.0755579,0 L0.0280568239,3.84108277 L0.0280568239,3.84108277 L0.0280568239,22.0671648 L15.7342038,22.0671648 L15.7342038,3.83018429 L12.0755579,3.83018429 Z M11.1438732,1.27521192 L11.1438732,3.83018429 L3.13006971,3.83018429 L11.1438732,1.27521192 Z M14.802474,21.1354351 L0.959786566,21.1354351 L0.959786566,4.761869 L14.8025191,4.761869 L14.8025191,21.1354351 L14.802474,21.1354351 Z" id="Shape"></path>
                                <polygon id="Shape" points="2.95686498 9.23943185 3.64463997 10.6369589 3.98492466 10.6369589 4.67625741 9.23943185 4.67625741 10.8490739 5.24698634 10.8490739 5.24698634 8.29171467 4.47882383 8.29171467 3.81644861 9.69671755 3.15812653 8.29171467 2.38613605 8.29171467 2.38613605 10.8490739 2.95686498 10.8490739"></polygon>
                                <polygon id="Shape" points="7.76039139 10.3442312 6.44712487 10.3442312 6.44712487 9.81371856 7.59218555 9.81371856 7.59218555 9.32707002 6.44712487 9.32707002 6.44712487 8.80025023 7.72022014 8.80025023 7.72022014 8.29171467 5.87635089 8.29171467 5.87635089 10.8490739 7.76039139 10.8490739"></polygon>
                                <polygon id="Shape" points="8.83965589 9.24668249 10.0579435 10.8490739 10.6287175 10.8490739 10.6287175 8.29171467 10.0579435 8.29171467 10.0579435 9.93815035 8.80304241 8.29171467 8.26892695 8.29171467 8.26892695 10.8490739 8.83965589 10.8490739"></polygon>
                                <path d="M12.318612,10.8746538 C12.6380454,10.8746538 12.9003295,10.7753516 13.1051488,10.5764769 C13.3099681,10.3777373 13.4124228,10.0929808 13.4124228,9.72234248 L13.4124228,8.29171467 L12.8416488,8.29171467 L12.8416488,9.70401322 C12.8416488,9.90883254 12.7949025,10.0705083 12.7008693,10.1886802 C12.6070613,10.3069872 12.4796572,10.3661182 12.3185669,10.3661182 C12.1577919,10.3661182 12.0297123,10.3069872 11.9344632,10.1886802 C11.8395293,10.0705083 11.7918823,9.90883254 11.7918823,9.70401322 L11.7918823,8.29171467 L11.2211533,8.29171467 L11.2211533,9.72234248 C11.2211533,10.0905939 11.3241484,10.374765 11.5301837,10.5747205 C11.736264,10.774631 11.9991335,10.8746538 12.318612,10.8746538 Z" id="Shape"></path>
                                <rect id="Rectangle-path" x="2.66692946" y="12.8525923" width="10.4102075" height="1"></rect>
                                <rect id="Rectangle-path" x="2.66692946" y="15.6124741" width="10.4102075" height="1"></rect>
                                <rect id="Rectangle-path" x="2.66692946" y="18.3723559" width="10.4102075" height="1"></rect>
                            </g>
                        </g>
                    </g>
                </g>
            </g>
        </g>
    </g>
</svg>