<?xml version="1.0" encoding="UTF-8"?>
<svg width="47px" height="47px" viewBox="0 0 47 47" version="1.1" xmlns="http://www.w3.org/2000/svg" xmlns:xlink="http://www.w3.org/1999/xlink">
    <!-- Generator: Sketch 47.1 (45422) - http://www.bohemiancoding.com/sketch -->
    <title>Group 6</title>
    <desc>Created with Sketch.</desc>
    <defs></defs>
    <g id="Page-1" stroke="none" stroke-width="1" fill="none" fill-rule="evenodd">
        <g id="Porucki" transform="translate(-171.000000, -201.000000)" stroke="#FF4D4C" stroke-width="2">
            <g id="Group-6" transform="translate(172.000000, 202.000000)">
                <circle id="Oval-15-Copy-2" cx="22.5" cy="22.5" r="22.5"></circle>
                <path d="M32.302836,23.1019442 L21.8216826,33.2552251 L11.3639901,23.0848319 C10.2144064,21.9668302 9.5809623,20.4837667 9.5809623,18.9037336 C9.5809623,17.3237006 10.2085412,15.840637 11.3581249,14.7283394 C12.5018433,13.6160418 14.0268013,13 15.6456028,13 C17.2702696,13 18.8010928,13.6160418 19.9506765,14.7340435 L21.2762168,16.0231679 C21.5870737,16.3254847 22.0856176,16.3254847 22.3964744,16.0231679 L23.7102844,14.7454517 C24.8598681,13.6274499 26.3906912,13.0114082 28.0094928,13.0114082 C29.6282943,13.0114082 31.1532523,13.6274499 32.302836,14.7397476 C33.4524197,15.8577493 34.0799985,17.3408128 34.0799985,18.9208459 C34.0858637,20.5008789 33.4524197,21.9839424 32.302836,23.1019442 Z" id="Shape" fill-rule="nonzero"></path>
            </g>
        </g>
    </g>
</svg>