<?xml version="1.0" encoding="UTF-8"?>
<svg width="24px" height="23px" viewBox="0 0 24 23" version="1.1" xmlns="http://www.w3.org/2000/svg" xmlns:xlink="http://www.w3.org/1999/xlink">
    <!-- Generator: sketchtool 47.1 (45422) - http://www.bohemiancoding.com/sketch -->
    <title>4681BFDE-C05B-451A-895C-62F1BE07AE70</title>
    <desc>Created with sketchtool.</desc>
    <defs></defs>
    <g id="Page-1" stroke="none" stroke-width="1" fill="none" fill-rule="evenodd">
        <g id="Cart-step-Modal-V2" transform="translate(-64.000000, -273.000000)" fill-rule="nonzero" fill="#FFFFFF">
            <g id="Group-36" transform="translate(49.000000, 268.000000)">
                <g id="wallet-copy" transform="translate(15.119896, 5.866758)">
                    <path d="M20.1686657,5.49230617 L3.44344873,5.49230617 C1.54461045,5.49230617 0,6.94610724 0,8.73326728 L0,17.9932244 C0,19.7803844 1.54461045,21.2342289 3.44344873,21.2342289 L20.1687119,21.2342289 C22.067504,21.2342289 23.6121606,19.7804278 23.6121606,17.9932244 L23.6121606,8.73326728 C23.6121145,6.94610724 22.067504,5.49230617 20.1686657,5.49230617 Z M22.6282917,17.9932678 C22.6282917,19.2692774 21.5253939,20.3082462 20.1687119,20.3082462 L3.44344873,20.3082462 C2.08672062,20.3082462 0.983868848,19.2692774 0.983868848,17.9932678 L0.983868848,8.73326728 C0.983868848,7.45725767 2.08676673,6.41828886 3.44344873,6.41828886 L20.1687119,6.41828886 C21.52544,6.41828886 22.6282917,7.45725767 22.6282917,8.73326728 L22.6282917,17.9932678 Z" id="Shape"></path>
                    <path d="M19.184843,11.9742718 C18.3711935,11.9742718 17.7090859,12.5974534 17.7090859,13.3632675 C17.7090859,14.1290817 18.3711935,14.7522633 19.184843,14.7522633 C19.9984925,14.7522633 20.6606002,14.1290817 20.6606002,13.3632675 C20.6606002,12.5974534 19.9984925,11.9742718 19.184843,11.9742718 Z M19.184843,13.8262806 C18.9142722,13.8262806 18.6929086,13.6188428 18.6929086,13.3632675 C18.6929086,13.1076923 18.9142722,12.9002545 19.184843,12.9002545 C19.4554139,12.9002545 19.6767774,13.1076923 19.6767774,13.3632675 C19.6767774,13.6188428 19.4554139,13.8262806 19.184843,13.8262806 Z" id="Shape"></path>
                    <path d="M23.12018,10.122263 L19.184843,10.122263 C17.2860508,10.122263 15.7413943,11.5760641 15.7413943,13.3632675 C15.7413943,15.1504276 17.2860047,16.6042721 19.184843,16.6042721 L23.12018,16.6042721 C23.3917194,16.6042721 23.6121145,16.3968342 23.6121145,16.141259 L23.6121145,10.5852761 C23.6121145,10.3297008 23.3917194,10.122263 23.12018,10.122263 Z M22.6282917,15.678246 L19.184843,15.678246 C17.8281149,15.678246 16.7252631,14.6392771 16.7252631,13.3632675 C16.7252631,12.0872579 17.828161,11.0482891 19.184843,11.0482891 L19.184843,11.0482891 L22.6282917,11.0482891 L22.6282917,15.678246 L22.6282917,15.678246 Z" id="Shape"></path>
                    <path d="M20.1165531,5.74788138 L18.0337524,1.82718048 C17.6136689,1.03636444 16.8885649,0.453941169 15.9932876,0.187253988 C15.0980103,-0.0785216652 14.1495596,0.00481807896 13.3211987,0.423383263 L3.2102791,5.547866 C2.97120644,5.66823116 2.88169255,5.94976323 3.0105446,6.17478054 C3.13944276,6.39979785 3.43851417,6.48404912 3.67661836,6.36277243 L13.7894749,1.24011276 C14.3797777,0.940089676 15.0595945,0.879885392 15.6971216,1.07065528 C16.3366317,1.26047022 16.8541152,1.67716894 17.1542012,2.24205615 L19.2370018,6.16271364 C19.3235642,6.32474868 19.4967351,6.41828886 19.6767774,6.41828886 C19.7505653,6.41828886 19.8253216,6.40253244 19.896158,6.36919654 C20.1391506,6.25438736 20.2375652,5.97658821 20.1165531,5.74788138 Z" id="Shape"></path>
                    <path d="M18.1429585,2.03275185 C18.0130918,1.80682302 17.7140204,1.72348327 17.4759162,1.84384843 L10.1669983,5.54782259 C9.92792567,5.66914269 9.83841178,5.94971983 9.96726382,6.17473714 C10.0558093,6.33030466 10.225014,6.41828886 10.400168,6.41828886 C10.4788904,6.41828886 10.5595497,6.40070938 10.6343061,6.36364056 L17.943224,2.6596664 C18.1822966,2.5383463 18.2718566,2.25776916 18.1429585,2.03275185 Z" id="Shape"></path>
                    <path d="M8.85454293,2.7143147 L5.41109419,2.7143147 C2.42812781,2.7143147 0,4.99873522 0,7.80728459 L0,8.73326728 C0,8.9888425 0.220395108,9.19628033 0.491934424,9.19628033 C0.76347374,9.19628033 0.983868848,8.9888425 0.983868848,8.73326728 L0.983868848,7.80728459 C0.983868848,5.50988565 2.97023798,3.64029739 5.41114031,3.64029739 L8.85454293,3.64029739 C9.12608224,3.64029739 9.34647735,3.43285955 9.34647735,3.17728434 C9.34647735,2.92170912 9.12608224,2.7143147 8.85454293,2.7143147 Z" id="Shape"></path>
                    <path d="M18.2010203,2.7143147 C17.929481,2.7143147 17.7090859,2.92175253 17.7090859,3.17732775 C17.7090859,3.43290296 17.929481,3.64034079 18.2010203,3.64034079 C20.6419226,3.64034079 22.6282917,5.50992905 22.6282917,7.807328 L22.6282917,8.73331069 C22.6282917,8.9888859 22.8486868,9.19632373 23.1202262,9.19632373 C23.3917655,9.19632373 23.6121606,8.9888859 23.6121606,8.73331069 L23.6121606,7.807328 C23.6121145,4.99873522 21.1839867,2.7143147 18.2010203,2.7143147 Z" id="Shape"></path>
                </g>
            </g>
        </g>
    </g>
</svg>