<?xml version="1.0" encoding="UTF-8"?>
<svg width="21px" height="21px" viewBox="0 0 21 21" version="1.1" xmlns="http://www.w3.org/2000/svg" xmlns:xlink="http://www.w3.org/1999/xlink">
    <!-- Generator: sketchtool 47.1 (45422) - http://www.bohemiancoding.com/sketch -->
    <title>7A4D69E5-8BA9-4F27-8B76-56CAE68C1C31</title>
    <desc>Created with sketchtool.</desc>
    <defs></defs>
    <g id="Page-1" stroke="none" stroke-width="1" fill="none" fill-rule="evenodd">
        <g id="Quick-view" transform="translate(-33.000000, -376.000000)" fill-rule="nonzero" fill="#F04C41">
            <g id="Group-36" transform="translate(17.000000, 107.000000)">
                <g id="002-black-and-white-credit-cards" transform="translate(16.000000, 269.608455)">
                    <path d="M19.7618383,9.31067384 L10.3284102,0.519711125 C9.95673672,0.173385616 9.46978222,0 8.98282771,0 C8.49587321,0 8.00844036,0.173385616 7.63724518,0.519711125 L2.47112668,5.33261055 C1.72777963,6.02526157 1.72777963,7.16987406 2.47112668,7.86252508 L3.32736299,8.6822067 L5.30244663,8.6822067 L3.45890767,6.94211044 C3.32975471,6.82131995 3.31062094,6.6702204 3.31062094,6.5971221 C3.31062094,6.52402379 3.32975471,6.3782729 3.45890767,6.25792813 L4.14102665,5.64194119 L7.38276601,8.6822067 L10.4924823,8.6822067 L5.69564565,4.19022666 L8.62454783,1.45037736 C8.75370079,1.33003259 8.90437925,1.3073008 8.98282771,1.3073008 C9.06127618,1.3073008 9.21195464,1.32245532 9.3411076,1.44235437 L18.775014,10.2319799 C18.9046453,10.3527704 18.9242574,10.4918355 18.9242574,10.5653795 C18.9242574,10.6384778 18.8907733,10.7784343 18.761142,10.8992248 L18.2263531,11.3855068 L18.2263531,13.2258904 L19.7494013,11.8196395 C20.49227,11.1256513 20.5056637,10.0033249 19.7618383,9.31067384 Z" id="Shape"></path>
                    <path d="M15.3357184,9.50634552 L1.99326072,9.50634552 C0.942338282,9.50634552 0.0435293318,10.2952724 0.0435293318,11.2745222 L0.0435293318,15.9768827 L17.2151332,15.9768827 L17.2151332,11.2745222 C17.2151332,10.2952724 16.3866409,9.50634552 15.3357184,9.50634552 Z M4.70642962,14.3758516 C4.33379941,14.3758516 3.99656667,14.2376779 3.74782763,14.0148172 C3.49908859,14.2376779 3.16137752,14.3758516 2.78970399,14.3758516 C2.02530979,14.3758516 1.40489723,13.7986424 1.40489723,13.0850425 C1.40489723,12.372334 2.02483145,11.7946791 2.78970399,11.7946791 C3.16185586,11.7946791 3.49956694,11.932407 3.74782763,12.1552677 C3.99656667,11.932407 4.33379941,11.7946791 4.70642962,11.7946791 C5.47130217,11.7946791 6.09123639,12.372334 6.09123639,13.0850425 C6.09123639,13.7986424 5.47130217,14.3758516 4.70642962,14.3758516 Z" id="Shape"></path>
                    <path d="M0.0435293318,18.0811334 C0.0435293318,19.0603832 0.941859938,19.8595617 1.99326072,19.8595617 L15.3357184,19.8595617 C16.3866409,19.8595617 17.2156116,19.0603832 17.2156116,18.0811334 L17.2156116,17.9768346 L0.0435293318,17.9768346 L0.0435293318,18.0811334 Z" id="Shape"></path>
                </g>
            </g>
        </g>
    </g>
</svg>