<?xml version="1.0" encoding="UTF-8"?>
<svg width="31px" height="14px" viewBox="0 0 31 14" version="1.1" xmlns="http://www.w3.org/2000/svg" xmlns:xlink="http://www.w3.org/1999/xlink">
    <!-- Generator: sketchtool 47.1 (45422) - http://www.bohemiancoding.com/sketch -->
    <title>42A1608A-D3F1-4E94-8C9F-C1145FADDC41</title>
    <desc>Created with sketchtool.</desc>
    <defs></defs>
    <g id="Page-1" stroke="none" stroke-width="1" fill="none" fill-rule="evenodd">
        <g id="Quick-view" transform="translate(-28.000000, -293.000000)" fill-rule="nonzero" fill="#F04C41">
            <g id="Group-36" transform="translate(17.000000, 107.000000)">
                <g id="Group-33" transform="translate(11.000000, 182.000000)">
                    <g id="Group-23" transform="translate(0.000000, 4.000000)">
                        <path d="M30.3476337,9.43338192 L30.0297949,6.35231824 C29.8764853,4.86578727 29.027788,3.54601621 27.7295364,2.741051 C27.949088,2.58533095 28.0731189,2.32342492 28.0283172,2.04909905 C27.9636121,1.65260848 27.5713854,1.38053416 27.1516476,1.4420523 L25.3795579,1.70047206 C21.7271013,0.446867498 15.6073978,-0.238910849 7.24745328,3.6641136 C6.44532526,4.03852446 5.58502413,4.28365282 4.69037243,4.39252612 C2.81838177,4.62029576 1.47748008,5.32459492 0.705091811,6.48588596 C-0.557349185,8.38394204 0.253385689,10.7564214 0.288504726,10.8565064 C0.392785979,11.1535656 0.6867254,11.3540988 1.01785872,11.3540988 L3.56979083,11.3540988 C3.90991524,12.5628176 5.07745031,13.4561743 6.46192419,13.4561743 C7.84639808,13.4561743 9.01393314,12.5628176 9.35405755,11.3540988 L22.5415248,11.3540988 C22.8816492,12.5628176 24.0491843,13.4561743 25.4336582,13.4561743 C26.8181321,13.4561743 27.9856671,12.5628176 28.3257915,11.3540988 L28.5039995,11.3540988 C29.0254826,11.3540988 29.5255255,11.1447047 29.8759473,10.7797358 C30.2263692,10.414549 30.3982758,9.92392915 30.3476337,9.43338192 Z M26.8893691,10.6277199 C26.8893691,11.3863468 26.2363241,12.0034892 25.4336582,12.0034892 C24.6309922,12.0034892 23.9779472,11.3863468 23.9779472,10.6277199 C23.9779472,9.86909303 24.6309922,9.25187799 25.4336582,9.25187799 C26.2363241,9.25187799 26.8893691,9.86909303 26.8893691,10.6277199 Z M7.91771201,10.6277199 C7.91771201,11.3863468 7.26466699,12.0034892 6.46200104,12.0034892 C5.65933509,12.0034892 5.00629007,11.3863468 5.00629007,10.6277199 C5.00629007,9.86909303 5.65933509,9.25187799 6.46200104,9.25187799 C7.26466699,9.25187799 7.91771201,9.86909303 7.91771201,10.6277199 Z M28.3258684,9.90141366 C27.985744,8.69262219 26.8182089,7.79926552 25.433735,7.79926552 C24.0492611,7.79926552 22.8817261,8.69269482 22.5416017,9.90141366 L9.3541344,9.90141366 C9.01400999,8.69262219 7.84647492,7.79926552 6.46200104,7.79926552 C5.07752715,7.79926552 3.90999209,8.69269482 3.56986767,9.90141366 L1.62425767,9.90141366 C1.50345433,9.26531466 1.41461931,8.14222733 2.01072077,7.25228429 C2.52805415,6.47985761 3.49563356,6.00238389 4.88663943,5.83315454 C5.95012379,5.70372677 6.97341721,5.41211482 7.92816319,4.96638068 C15.837708,1.27376715 21.5336776,1.91618501 24.8898126,3.07776658 C24.9636625,3.11851236 25.0448897,3.14749197 25.1304971,3.16318019 C25.6879446,3.36683646 26.1765372,3.58305782 26.5948149,3.79252454 C27.668981,4.33049957 28.381275,5.34013787 28.500234,6.49322165 L28.8180728,9.57435796 C28.8298304,9.68867856 28.77281,9.767047 28.7377678,9.80358021 C28.7026488,9.84011341 28.625725,9.90141366 28.5040764,9.90141366 L28.3258684,9.90141366 Z" id="Shape"></path>
                    </g>
                </g>
            </g>
        </g>
    </g>
</svg>