<?xml version="1.0" encoding="UTF-8"?>
<svg width="23px" height="24px" viewBox="0 0 23 24" version="1.1" xmlns="http://www.w3.org/2000/svg" xmlns:xlink="http://www.w3.org/1999/xlink">
    <!-- Generator: sketchtool 47.1 (45422) - http://www.bohemiancoding.com/sketch -->
    <title>2DD685AF-DE42-4AF8-9CAF-6D65819BAC7D</title>
    <desc>Created with sketchtool.</desc>
    <defs></defs>
    <g id="Page-1" stroke="none" stroke-width="1" fill="none" fill-rule="evenodd">
        <g id="Quick-view" transform="translate(-191.000000, -316.000000)">
            <g id="Group-36" transform="translate(17.000000, 107.000000)">
                <g id="Group-33" transform="translate(11.000000, 182.000000)">
                    <g id="Group-32" transform="translate(164.000000, 28.231747)">
                        <path d="M5.40020823,7.09114523 L5.40020823,13.7359818 L10.0162291,13.7359818 L10.0162291,12.9914623 L6.28432514,12.9914623 L6.28432514,10.6927583 L9.73703433,10.6927583 L9.73703433,9.94823883 L6.28432514,9.94823883 L6.28432514,7.83566474 L9.98830967,7.83566474 L9.98830967,7.09114523 L5.40020823,7.09114523 Z M16.2877719,11.3349064 L16.2877719,7.09114523 L15.403655,7.09114523 L15.403655,11.3349064 C15.403655,11.930525 15.2563036,12.3818854 14.9615965,12.6890013 C14.6668894,12.9961171 14.2372439,13.1496727 13.6726471,13.1496727 C13.0770285,13.1496727 12.6210149,12.9961171 12.3045925,12.6890013 C11.9881702,12.3818854 11.8299614,11.930525 11.8299614,11.3349064 L11.8299614,7.09114523 L10.9458444,7.09114523 L10.9458444,11.3349064 C10.9458444,12.2221299 11.1862598,12.8689248 11.6670977,13.2753104 C12.1479356,13.681696 12.8164454,13.8848857 13.6726471,13.8848857 C14.5102358,13.8848857 15.1554795,13.6723896 15.6083978,13.2473909 C16.0613161,12.8223922 16.2877719,12.1849038 16.2877719,11.3349064 Z" id="EU" fill="#F04C41"></path>
                        <circle id="Oval" stroke="#F04C41" cx="10.7031457" cy="10.7031457" r="10.7031457"></circle>
                    </g>
                </g>
            </g>
        </g>
    </g>
</svg>