<?xml version="1.0" encoding="UTF-8"?>
<svg width="17px" height="18px" viewBox="0 0 17 18" version="1.1" xmlns="http://www.w3.org/2000/svg" xmlns:xlink="http://www.w3.org/1999/xlink">
    <!-- Generator: sketchtool 47.1 (45422) - http://www.bohemiancoding.com/sketch -->
    <title>2875B168-915F-4FF2-8685-B92DD6D50515</title>
    <desc>Created with sketchtool.</desc>
    <defs></defs>
    <g id="Page-1" stroke="none" stroke-width="1" fill="none" fill-rule="evenodd">
        <g id="Quick-view" transform="translate(-192.000000, -378.000000)" fill="#E9483F">
            <g id="Group-36" transform="translate(17.000000, 107.000000)">
                <g id="Group-29" transform="translate(175.000000, 271.000000)">
                    <path d="M7.18463887,4.64678684 C7.18463887,5.27973185 7.08668456,5.84673657 6.89077301,6.34781803 C6.69486146,6.84889949 6.43302207,7.27085649 6.10524698,7.6137017 C5.77747189,7.95654691 5.3969571,8.2183863 4.96369117,8.39922773 C4.53042525,8.58006916 4.07267725,8.67048852 3.59043344,8.67048852 C3.08558445,8.67048852 2.61465029,8.58006916 2.17761684,8.39922773 C1.74058339,8.2183863 1.36195232,7.95654691 1.04171229,7.6137017 C0.721472263,7.27085649 0.470935292,6.84889949 0.290093863,6.34781803 C0.109252434,5.84673657 0.0188330762,5.27973185 0.0188330762,4.64678684 C0.0188330762,3.99877172 0.109252434,3.42234832 0.290093863,2.91749933 C0.470935292,2.41265034 0.721472263,1.98692586 1.04171229,1.64031312 C1.36195232,1.29370038 1.74058339,1.02997726 2.17761684,0.849135827 C2.61465029,0.668294398 3.08558445,0.57787504 3.59043344,0.57787504 C4.10281749,0.57787504 4.57751912,0.668294398 5.01455257,0.849135827 C5.45158602,1.02997726 5.83210082,1.29370038 6.15610838,1.64031312 C6.48011594,1.98692586 6.73253665,2.41265034 6.91337808,2.91749933 C7.09421951,3.42234832 7.18463887,3.99877172 7.18463887,4.64678684 Z M5.62488934,4.64678684 C5.62488934,4.14947291 5.57214471,3.72751591 5.46665388,3.38090317 C5.36116305,3.03429043 5.21611533,2.7498462 5.03150637,2.52756195 C4.84689741,2.30527769 4.6302677,2.14516008 4.38161073,2.0472043 C4.13295377,1.94924853 3.86923064,1.90027138 3.59043344,1.90027138 C3.31163624,1.90027138 3.05168058,1.94924853 2.81055868,2.0472043 C2.56943677,2.14516008 2.35845827,2.30527769 2.17761684,2.52756195 C1.99677541,2.7498462 1.85361143,3.03429043 1.74812059,3.38090317 C1.64262976,3.72751591 1.58988513,4.14947291 1.58988513,4.64678684 C1.58988513,5.13656571 1.64262976,5.55287151 1.74812059,5.89571672 C1.85361143,6.23856193 1.99677541,6.51735495 2.17761684,6.73210414 C2.35845827,6.94685334 2.56943677,7.10131974 2.81055868,7.19550799 C3.05168058,7.28969623 3.31163624,7.33678965 3.59043344,7.33678965 C3.86923064,7.33678965 4.13295377,7.28969623 4.38161073,7.19550799 C4.6302677,7.10131974 4.84689741,6.94685334 5.03150637,6.73210414 C5.21611533,6.51735495 5.36116305,6.23856193 5.46665388,5.89571672 C5.57214471,5.55287151 5.62488934,5.13656571 5.62488934,4.64678684 Z M12.915023,1.07518648 C12.9903736,0.984765768 13.0789092,0.90564883 13.1806325,0.837833294 C13.2823558,0.770017758 13.4198686,0.736110499 13.593175,0.736110499 L15.0512017,0.736110499 L3.20614732,16.6048665 C3.13833179,16.7028223 3.0516799,16.7819392 2.94618907,16.8422197 C2.84069824,16.9025002 2.71260414,16.93264 2.56190295,16.93264 L1.08127116,16.93264 L12.915023,1.07518648 Z M16.1475474,13.1123839 C16.1475474,13.7453289 16.0495931,14.3104499 15.8536815,14.8077638 C15.65777,15.3050778 15.3959306,15.725151 15.0681555,16.0679962 C14.7403804,16.4108414 14.3598656,16.6726808 13.9265997,16.8535223 C13.4933338,17.0343637 13.0355858,17.124783 12.5533419,17.124783 C12.0409579,17.124783 11.56814,17.0343637 11.1348741,16.8535223 C10.7016082,16.6726808 10.3248608,16.4108414 10.0046208,16.0679962 C9.68438077,15.725151 9.43384379,15.3050778 9.25300237,14.8077638 C9.07216094,14.3104499 8.98174158,13.7453289 8.98174158,13.1123839 C8.98174158,12.4643688 9.07216094,11.8860616 9.25300237,11.3774451 C9.43384379,10.8688286 9.68438077,10.4412204 10.0046208,10.0946076 C10.3248608,9.74799491 10.7016082,9.48427178 11.1348741,9.30343035 C11.56814,9.12258892 12.0409579,9.03216957 12.5533419,9.03216957 C13.0581909,9.03216957 13.5310088,9.12258892 13.9718098,9.30343035 C14.4126108,9.48427178 14.7931256,9.74799491 15.1133656,10.0946076 C15.4336056,10.4412204 15.6860264,10.8688286 15.8706353,11.3774451 C16.0552443,11.8860616 16.1475474,12.4643688 16.1475474,13.1123839 Z M14.5877978,13.1123839 C14.5877978,12.61507 14.5350532,12.1912292 14.4295624,11.840849 C14.3240716,11.4904687 14.1790238,11.2060245 13.9944149,10.9875077 C13.8098059,10.768991 13.5931762,10.6107571 13.3445192,10.5128014 C13.0958623,10.4148456 12.8321391,10.3658684 12.5533419,10.3658684 C12.2745447,10.3658684 12.0127053,10.4148456 11.7678159,10.5128014 C11.5229265,10.6107571 11.3100642,10.768991 11.1292228,10.9875077 C10.9483814,11.2060245 10.8071011,11.4904687 10.7053778,11.840849 C10.6036545,12.1912292 10.5527936,12.61507 10.5527936,13.1123839 C10.5527936,13.6021628 10.6036545,14.0165848 10.7053778,14.3556625 C10.8071011,14.6947402 10.9483814,14.9716495 11.1292228,15.1863987 C11.3100642,15.4011479 11.5229265,15.5556143 11.7678159,15.6498025 C12.0127053,15.7439908 12.2745447,15.7910842 12.5533419,15.7910842 C12.8321391,15.7910842 13.0958623,15.7439908 13.3445192,15.6498025 C13.5931762,15.5556143 13.8098059,15.4011479 13.9944149,15.1863987 C14.1790238,14.9716495 14.3240716,14.6947402 14.4295624,14.3556625 C14.5350532,14.0165848 14.5877978,13.6021628 14.5877978,13.1123839 Z" id="%"></path>
                </g>
            </g>
        </g>
    </g>
</svg>