<?xml version="1.0" encoding="UTF-8"?>
<svg width="54px" height="54px" viewBox="0 0 54 54" version="1.1" xmlns="http://www.w3.org/2000/svg" xmlns:xlink="http://www.w3.org/1999/xlink">
    <!-- Generator: sketchtool 47.1 (45422) - http://www.bohemiancoding.com/sketch -->
    <title>A5D05CAB-5327-4DEB-B9A4-ED6D66B09BC3</title>
    <desc>Created with sketchtool.</desc>
    <defs></defs>
    <g id="Page-1" stroke="none" stroke-width="1" fill="none" fill-rule="evenodd">
        <g id="Thank-you!" transform="translate(-76.000000, -512.000000)">
            <g id="Group-3" transform="translate(77.000000, 513.000000)">
                <g id="restaurant" transform="translate(10.678328, 15.299866)" fill-rule="nonzero" fill="#3F76E0">
                    <ellipse id="Oval" cx="12.6541774" cy="9.7255319" rx="1" ry="1"></ellipse>
                    <path d="M15.4583292,4.55095096 C12.6594188,4.55095096 10.3794076,6.90551426 10.3794076,9.80055685 C10.3794076,11.1758359 10.9087895,12.476197 11.8732081,13.4608325 C12.8376266,14.4454681 14.1112881,14.9859474 15.4583292,14.9859474 L15.4583292,14.9859474 C18.2939295,14.9859474 20.6001478,12.6581405 20.6001478,9.80055685 C20.6001478,8.39852143 20.0655244,7.07675522 19.0958645,6.08676838 C18.1262045,5.09678154 16.8368188,4.55095096 15.4583292,4.55095096 Z M15.4583292,14.1832553 C13.0892141,14.1832553 11.1656184,12.2193355 11.1656184,9.80055685 C11.1656184,7.34967051 13.0892141,5.35364299 15.4583292,5.35364299 C17.8588928,5.35364299 19.813937,7.34967051 19.813937,9.80055685 C19.813937,12.2193355 17.8588928,14.1832553 15.4583292,14.1832553 Z" id="Shape"></path>
                    <path d="M5.02075472,0.606116749 L5.02075472,0.606116749 C4.72285176,0.606116749 4.47581028,0.853158226 4.47581028,1.15106118 L4.47581028,6.29533664 L3.32779401,6.29533664 L3.32779401,1.15106118 C3.32779401,0.853158226 3.08075253,0.606116749 2.78284958,0.606116749 C2.48494662,0.606116749 2.23790514,0.853158226 2.23790514,1.15106118 L2.23790514,6.29533664 L1.08988887,6.29533664 L1.08988887,1.15106118 C1.08988887,0.853158226 0.842847391,0.606116749 0.544944434,0.606116749 C0.247041477,0.606116749 0,0.853158226 0,1.15106118 L0,6.29533664 L0,6.32440034 L0,8.13361586 C0,9.17990918 0.980899981,10.080884 2.23790514,10.277064 L2.23790514,13.1907002 L1.09715479,13.1907002 L1.09715479,20.456626 C1.09715479,21.1832186 1.8310133,21.7790245 2.73925402,21.7790245 L2.82644513,21.7790245 C3.73468585,21.7790245 4.46854436,21.1832186 4.46854436,20.456626 L4.46854436,13.1907002 L3.32779401,13.1907002 L3.32779401,10.269798 C4.60659695,10.0590862 5.56569915,9.17990918 5.56569915,8.13361586 L5.56569915,6.32440034 L5.56569915,6.29533664 L5.56569915,1.15106118 C5.56569915,0.853158226 5.3259236,0.606116749 5.02075472,0.606116749 Z M3.37865549,14.2733232 L3.37865549,20.4493601 C3.37865549,20.5002216 3.17520957,20.6818697 2.82644513,20.6818697 L2.73925402,20.6818697 C2.39048958,20.6818697 2.18704366,20.5002216 2.18704366,20.4493601 L2.18704366,14.2733232 L3.37865549,14.2733232 Z M4.47581028,8.13361586 C4.47581028,8.6494966 3.73468585,9.22350473 2.73925402,9.22350473 C1.80921552,9.22350473 1.08988887,8.63496474 1.08988887,8.13361586 L1.08988887,7.38522551 L4.47581028,7.38522551 L4.47581028,8.13361586 L4.47581028,8.13361586 Z" id="Shape"></path>
                    <path d="M29.6716887,0.678776007 C29.4973065,0.584318972 29.2793287,0.598850823 29.1122124,0.70783971 C26.118651,2.7059693 25.4937814,5.6632011 25.4937814,7.79211735 L25.4937814,13.6484535 C25.4937814,13.9463565 25.7408228,14.193398 26.0387258,14.193398 L26.5909362,14.193398 L26.5909362,21.2268141 C26.5909362,21.5247171 26.8379776,21.7717586 27.1358806,21.7717586 L29.4173813,21.7717586 C29.7152843,21.7717586 29.9623257,21.5247171 29.9623257,21.2340801 L29.9623257,1.15832711 C29.9623257,0.954881187 29.8460709,0.773233042 29.6716887,0.678776007 Z M28.8724369,20.6818697 L27.680825,20.6818697 L27.680825,14.193398 L28.8724369,14.193398 L28.8724369,20.6818697 Z M28.8724369,13.1035091 L26.5836702,13.1035091 L26.5836702,7.78485143 C26.5836702,6.15001812 27.0050939,3.94844261 28.8724369,2.26274783 L28.8724369,13.1035091 Z" id="Shape"></path>
                    <path d="M15.4897777,1.74152885 C13.3932156,1.74152885 11.4224472,2.57097729 9.93912953,4.07468703 C8.45057045,5.58909932 7.62766982,7.60653196 7.62766982,9.76844917 C7.62766982,11.90361 8.45057045,13.9156913 9.93912953,15.4354549 C11.4276886,16.9605698 13.398457,17.7953695 15.4897777,17.7953695 C17.602064,17.7953695 19.5833152,16.9552185 21.0666328,15.4354549 C22.5394677,13.9263939 23.3518855,11.9089612 23.3518855,9.76844917 C23.3518855,7.60118068 22.5394677,5.57839676 21.0666328,4.07468703 C19.593798,2.57097729 17.6125468,1.74152885 15.4897777,1.74152885 Z M15.4897777,16.9926774 C11.5901722,16.9926774 8.41388061,13.7498016 8.41388061,9.76844917 C8.41388061,5.78709669 11.5901722,2.54422089 15.4897777,2.54422089 C19.4575214,2.54422089 22.5656747,5.71753005 22.5656747,9.76844917 C22.5656747,13.7498016 19.3893832,16.9926774 15.4897777,16.9926774 Z" id="Shape"></path>
                    <path d="M14.5725318,6.40249392 C13.7339069,6.69681433 13.0315586,7.42458844 12.6856259,8.35571119 C12.6122462,8.56441112 12.7118329,8.79451617 12.9162477,8.87478537 C12.9581789,8.89083921 13.0053516,8.90154177 13.0525242,8.90154177 C13.2097664,8.90154177 13.3617671,8.79986745 13.4194226,8.63932904 C13.6814929,7.92760877 14.2056334,7.37642691 14.8241192,7.16237571 C15.028534,7.09280906 15.1386035,6.86270401 15.0704653,6.65400409 C15.002327,6.44530416 14.7769466,6.33292727 14.5725318,6.40249392 Z" id="Shape"></path>
                </g>
                <circle id="Oval-22" stroke="#3F76E0" stroke-width="2" cx="25.5601931" cy="25.5601931" r="25.5601931"></circle>
            </g>
        </g>
    </g>
</svg>