<?xml version="1.0" encoding="UTF-8"?>
<svg width="31px" height="31px" viewBox="0 0 31 31" version="1.1" xmlns="http://www.w3.org/2000/svg" xmlns:xlink="http://www.w3.org/1999/xlink">
    <!-- Generator: sketchtool 47.1 (45422) - http://www.bohemiancoding.com/sketch -->
    <title>ED3A0168-AC35-4206-B55D-56AF48BB3B8F</title>
    <desc>Created with sketchtool.</desc>
    <defs></defs>
    <g id="Page-1" stroke="none" stroke-width="1" fill="none" fill-rule="evenodd">
        <g id="Registration3" transform="translate(-28.000000, -1279.000000)" fill-rule="nonzero" fill="#FFFFFF">
            <g id="Group-6" transform="translate(14.000000, 1269.000000)">
                <g id="Group-5">
                    <path d="M29.5,10.5502965 C21.2440263,10.5502965 14.5502965,17.2440263 14.5502965,25.5 C14.5502965,33.7559737 21.2440263,40.4497035 29.5,40.4497035 C37.7559737,40.4497035 44.4497035,33.7559737 44.4497035,25.5 C44.4497035,17.2440263 37.7559737,10.5502965 29.5,10.5502965 Z M29.5,35.042894 C28.3314315,35.042894 27.5316224,34.1421744 27.5316224,32.9748517 C27.5316224,31.7738922 28.3650683,30.9068094 29.5,30.9068094 C30.6997137,30.9068094 31.4683776,31.7738922 31.4683776,32.9748517 C31.4683776,34.1434202 30.6997137,35.042894 29.5,35.042894 Z M30.274893,27.1457132 C29.9771447,28.1610472 29.0390508,28.1784885 28.7263528,27.1457132 C28.3663142,25.9547201 27.0868687,21.4336807 27.0868687,18.4973097 C27.0868687,14.6228449 31.93431,14.6041578 31.93431,18.4973097 C31.9330642,21.451122 30.5850993,26.0892675 30.274893,27.1457132 Z" id="Shape"></path>
                </g>
            </g>
        </g>
    </g>
</svg>