<?xml version="1.0" encoding="UTF-8"?>
<svg width="12px" height="12px" viewBox="0 0 12 12" version="1.1" xmlns="http://www.w3.org/2000/svg" xmlns:xlink="http://www.w3.org/1999/xlink">
    <!-- Generator: sketchtool 47.1 (45422) - http://www.bohemiancoding.com/sketch -->
    <title>743581D6-E348-4DEB-97B4-B86BDE1AF84C</title>
    <desc>Created with sketchtool.</desc>
    <defs></defs>
    <g id="Page-1" stroke="none" stroke-width="1" fill="none" fill-rule="evenodd">
        <g id="Portfeil2" transform="translate(-83.000000, -289.000000)" fill-rule="nonzero" fill="#B8B8B8">
            <g id="pen" transform="translate(83.000000, 289.000000)">
                <path d="M11.1296094,1.80265306 L9.60852256,0.281566245 C9.4198501,0.0928937817 9.18472144,0 8.93507522,0 C8.68542899,0 8.43287926,0.0943455378 8.26160926,0.281566245 L7.2427184,1.30045711 C7.03952837,1.2380502 6.80439971,1.28448779 6.64764727,1.42527091 L6.20932859,1.8635896 C6.03660683,2.03631135 6.00613856,2.30190828 6.09901373,2.52253799 L1.17581081,7.44575952 C1.15984149,7.46172884 1.14387218,7.47769816 1.14387218,7.49219711 C1.14387218,7.49219711 1.14387218,7.49219711 1.14387218,7.50816643 C1.12790286,7.52413574 1.12790286,7.54010506 1.11193354,7.55460401 L1.11193354,7.55460401 L0.235296171,10.2208659 L0.235296171,10.2208659 L0.140950633,10.5024321 L0.046605095,10.7839984 C0.046605095,10.7999677 0.046605095,10.815937 0.0306357773,10.815937 C-0.00130285809,10.9726894 0.0306357773,11.0975032 0.077073362,11.1758795 C0.0930426797,11.2078181 0.109011997,11.2382864 0.123510947,11.2542557 C0.217856485,11.3645705 0.358639607,11.4269774 0.515392047,11.4269774 L0.515392047,11.4269774 C0.531361365,11.4269774 0.547330683,11.4269774 0.561829632,11.4269774 C0.593768267,11.4269774 0.608267217,11.4269774 0.624236534,11.4269774 L0.624236534,11.4269774 L0.624236534,11.4269774 C0.640205852,11.4269774 0.65617517,11.4269774 0.65617517,11.4110081 L1.04805627,11.2861943 L3.86960019,10.361649 L3.86960019,10.361649 C3.91603778,10.3456797 3.94797641,10.3297103 3.97991505,10.2992421 L8.91763553,5.3615216 C8.98004243,5.39346024 9.04244933,5.39346024 9.12082555,5.39346024 C9.27757799,5.39346024 9.41836112,5.33105334 9.52867597,5.22073848 L9.96699466,4.7824198 C10.1397164,4.60969804 10.1701847,4.37456938 10.0918085,4.17137935 L11.1106993,3.15248849 C11.5055212,2.79107566 11.5055212,2.17856485 11.1296094,1.80265306 Z M3.80868227,9.67223232 L3.01040251,8.8725008 L7.69702501,4.16990898 L8.49675653,4.9696405 L3.80868227,9.67223232 Z M7.28917459,3.76205857 L2.60255209,8.46465038 L1.80282057,7.6504013 L6.48944307,2.9637788 L7.28917459,3.76205857 Z M1.23821771,10.612747 L0.846336614,10.2208659 L1.51980257,8.18308414 L2.39791031,9.06119188 L2.39791031,9.06119188 L2.39791031,9.06119188 L3.27601805,9.93929962 L1.23821771,10.612747 Z M9.23261078,4.73451184 C9.21664146,4.71854252 9.21664146,4.70257321 9.20067214,4.70257321 L6.77100932,2.25694107 C6.73907068,2.22500243 6.72457173,2.21050348 6.6926331,2.19453416 L7.03807661,1.8345917 L7.07001525,1.86653033 L7.07001525,1.86653033 L9.53161671,4.32813179 C9.54758603,4.34410111 9.56355534,4.36007043 9.57805429,4.36007043 L9.23261078,4.73451184 Z M10.721759,2.75913702 L9.73478812,3.74610786 L7.68105569,1.67783926 L8.66802653,0.690868419 C8.80880965,0.550085297 9.05990763,0.550085297 9.20069075,0.690868419 L10.7217776,2.21050348 C10.8625421,2.36725592 10.8625421,2.60238458 10.721759,2.75913702 Z" id="Shape"></path>
            </g>
        </g>
    </g>
</svg>