<?xml version="1.0" encoding="UTF-8"?>
<svg width="47px" height="47px" viewBox="0 0 47 47" version="1.1" xmlns="http://www.w3.org/2000/svg" xmlns:xlink="http://www.w3.org/1999/xlink">
    <!-- Generator: sketchtool 47.1 (45422) - http://www.bohemiancoding.com/sketch -->
    <title>4EE4EB22-1A95-4870-ADA5-A5B39FDDEF4F</title>
    <desc>Created with sketchtool.</desc>
    <defs></defs>
    <g id="Page-1" stroke="none" stroke-width="1" fill="none" fill-rule="evenodd">
        <g id="Portfeil-hronologiq-2" transform="translate(-288.000000, -94.000000)">
            <g id="Group-16" transform="translate(289.000000, 95.000000)">
                <g id="Group-9" transform="translate(8.000000, 10.000000)">
                    <g id="wallet-copy" transform="translate(3.000000, 0.000000)" fill-rule="nonzero" fill="#287FDE">
                        <path d="M20.8795898,6.04698104 L4.09022352,6.04698104 C2.18410227,6.04698104 0.633567502,7.498744 0.633567502,9.28339858 L0.633567502,18.5303739 C0.633567502,20.3150285 2.18410227,21.7668348 4.09022352,21.7668348 L20.8796361,21.7668348 C22.785711,21.7668348 24.3362921,20.3150719 24.3362921,18.5303739 L24.3362921,9.28339858 C24.3362458,7.498744 22.785711,6.04698104 20.8795898,6.04698104 Z M23.3486496,18.5304173 C23.3486496,19.804638 22.2415216,20.8421503 20.8796361,20.8421503 L4.09022352,20.8421503 C2.72829169,20.8421503 1.62120996,19.804638 1.62120996,18.5304173 L1.62120996,9.28339858 C1.62120996,8.00917783 2.72833799,6.97166558 4.09022352,6.97166558 L20.8796361,6.97166558 C22.2415679,6.97166558 23.3486496,8.00917783 23.3486496,9.28339858 L23.3486496,18.5304173 Z" id="Shape"></path>
                        <path d="M19.8919936,12.5198595 C19.0752234,12.5198595 18.4105762,13.1421674 18.4105762,13.9069079 C18.4105762,14.6716484 19.0752234,15.2939564 19.8919936,15.2939564 C20.7087638,15.2939564 21.373411,14.6716484 21.373411,13.9069079 C21.373411,13.1421674 20.7087638,12.5198595 19.8919936,12.5198595 Z M19.8919936,14.3692719 C19.620385,14.3692719 19.3981724,14.1621249 19.3981724,13.9069079 C19.3981724,13.651691 19.620385,13.444544 19.8919936,13.444544 C20.1636022,13.444544 20.3858148,13.651691 20.3858148,13.9069079 C20.3858148,14.1621249 20.1636022,14.3692719 19.8919936,14.3692719 Z" id="Shape"></path>
                        <path d="M23.8424246,10.6704471 L19.8919936,10.6704471 C17.9859187,10.6704471 16.4353376,12.12221 16.4353376,13.9069079 C16.4353376,15.6915625 17.9858724,17.1433688 19.8919936,17.1433688 L23.8424246,17.1433688 C24.1150054,17.1433688 24.3362458,16.9362218 24.3362458,16.6810049 L24.3362458,11.132811 C24.3362458,10.8775941 24.1150054,10.6704471 23.8424246,10.6704471 Z M23.3486496,16.2186409 L19.8919936,16.2186409 C18.5300618,16.2186409 17.42298,15.1811287 17.42298,13.9069079 C17.42298,12.6326872 18.5301081,11.5951749 19.8919936,11.5951749 L19.8919936,11.5951749 L23.3486496,11.5951749 L23.3486496,16.2186409 L23.3486496,16.2186409 Z" id="Shape"></path>
                        <path d="M20.8272772,6.30219796 L18.736488,2.38699358 C18.3147933,1.5972862 17.5869081,1.01567944 16.688197,0.749366132 C15.7894859,0.483963076 14.8373975,0.567185984 14.0058594,0.985164372 L3.85615957,6.10246298 C3.61616995,6.2226594 3.52631273,6.50379679 3.65565898,6.72849864 C3.78505153,6.95320049 4.08527003,7.03733365 4.32428746,6.91622698 L14.4759316,1.80074887 C15.0684986,1.5011464 15.7509228,1.44102652 16.3908951,1.63152896 C17.032858,1.8210778 17.5523263,2.23719234 17.8535633,2.80128762 L19.9443524,6.71644866 C20.0312468,6.87825653 20.2050819,6.97166558 20.3858148,6.97166558 C20.4598857,6.97166558 20.5349288,6.95593125 20.6060368,6.92264208 C20.8499614,6.80799386 20.9487534,6.53058416 20.8272772,6.30219796 Z" id="Shape"></path>
                        <path d="M18.8461129,2.59227675 C18.7157482,2.36666465 18.4155297,2.28344174 18.1765123,2.40363816 L10.8395612,6.10241964 C10.5995715,6.22356965 10.5097143,6.50375344 10.6390606,6.7284553 C10.7279456,6.88380473 10.8977994,6.97166558 11.0736251,6.97166558 C11.1526495,6.97166558 11.2336182,6.95411074 11.3086612,6.91709389 L18.6456123,3.21831241 C18.885602,3.0971624 18.9755055,2.81697861 18.8461129,2.59227675 Z" id="Shape"></path>
                        <path d="M9.52207186,3.2728841 L6.06541584,3.2728841 C3.07100835,3.2728841 0.633567502,5.55410204 0.633567502,8.35871405 L0.633567502,9.28339858 C0.633567502,9.5386155 0.85480793,9.74576252 1.12738873,9.74576252 C1.39996953,9.74576252 1.62120996,9.5386155 1.62120996,9.28339858 L1.62120996,8.35871405 C1.62120996,6.06453588 3.61519777,4.19756863 6.06546214,4.19756863 L9.52207186,4.19756863 C9.79465266,4.19756863 10.0158931,3.99042161 10.0158931,3.73520469 C10.0158931,3.47998778 9.79465266,3.2728841 9.52207186,3.2728841 Z" id="Shape"></path>
                        <path d="M18.9043974,3.2728841 C18.6318166,3.2728841 18.4105762,3.48003112 18.4105762,3.73524804 C18.4105762,3.99046496 18.6318166,4.19761198 18.9043974,4.19761198 C21.3546618,4.19761198 23.3486496,6.06457922 23.3486496,8.35875739 L23.3486496,9.28344193 C23.3486496,9.53865885 23.56989,9.74580587 23.8424708,9.74580587 C24.1150516,9.74580587 24.3362921,9.53865885 24.3362921,9.28344193 L24.3362921,8.35875739 C24.3362458,5.55410204 21.8988049,3.2728841 18.9043974,3.2728841 Z" id="Shape"></path>
                    </g>
                    <circle id="Oval-24" stroke="#287FDE" fill="#FFFFFF" cx="5.5" cy="20.5" r="5.5"></circle>
                </g>
                <g id="Group-11" stroke="#287FDE">
                    <g id="Group-10" stroke-width="2">
                        <g id="Group-31">
                            <circle id="Oval-15" cx="22.5" cy="22.5" r="22.5"></circle>
                        </g>
                    </g>
                    <g id="Group-6" transform="translate(9.000000, 27.000000)" stroke-linecap="square">
                        <g id="Group-7" transform="translate(4.207107, 3.792893) rotate(-45.000000) translate(-4.207107, -3.792893) translate(1.707107, 1.292893)">
                            <path d="M0.598322409,4.68082624 L4.64871704,0.449070623" id="Line"></path>
                            <path d="M4.83282588,4.84358607 L0.414213562,0.286310792 L4.83282588,4.84358607 Z" id="Line-Copy"></path>
                        </g>
                    </g>
                </g>
            </g>
        </g>
    </g>
</svg>