<?xml version="1.0" encoding="UTF-8"?>
<svg width="30px" height="29px" viewBox="0 0 30 29" version="1.1" xmlns="http://www.w3.org/2000/svg" xmlns:xlink="http://www.w3.org/1999/xlink">
    <!-- Generator: sketchtool 47.1 (45422) - http://www.bohemiancoding.com/sketch -->
    <title>0DE0294E-69CB-4EA2-AA28-9E0E1269B54D</title>
    <desc>Created with sketchtool.</desc>
    <defs></defs>
    <g id="Page-1" stroke="none" stroke-width="1" fill="none" fill-rule="evenodd">
        <g id="Detail-view-Copy" transform="translate(-188.000000, -256.000000)" stroke-width="0.5" stroke="#DAAC5E" fill-rule="nonzero">
            <g id="Group-43" transform="translate(20.000000, 92.000000)">
                <g id="Group-39" transform="translate(19.000000, 141.000000)">
                    <g id="Group-36">
                        <g id="Group-27" transform="translate(0.000000, 24.000000)">
                            <path d="M163.029571,0.610088707 C163.212602,0.236714418 163.589538,0 164.00151,0 C164.413482,0 164.791022,0.236714418 164.97345,0.610088707 L168.459504,7.74507614 C168.617165,8.06781307 168.922822,8.29171562 169.276199,8.34357316 L177.072253,9.48748949 C177.481204,9.54727818 177.81948,9.83646023 177.946938,10.2324078 C178.074395,10.6283554 177.96808,11.0639587 177.672693,11.3543609 L172.03194,16.9086085 C171.776421,17.1599651 171.659837,17.5223578 171.719639,17.8774294 L173.050997,25.7201197 C173.11986,26.1313195 172.953743,26.5461798 172.619091,26.7914355 C172.285043,27.035471 171.843472,27.0678057 171.477409,26.8750176 L164.504092,23.1717792 C164.18877,23.0040048 163.81123,23.0040048 163.495304,23.1717792 L156.521986,26.8744076 C156.157132,27.0678057 155.714353,27.0360811 155.380305,26.7914355 C155.046257,26.5467899 154.879536,26.1313195 154.949003,25.7201197 L156.280361,17.8774294 C156.340767,17.5223578 156.223579,17.1599651 155.96806,16.9086085 L150.327307,11.3543609 C150.03192,11.0633486 149.925605,10.6283554 150.053062,10.2324078 C150.18052,9.83646023 150.5194,9.54727818 150.928351,9.48748949 L158.725613,8.34357316 C159.078386,8.29171562 159.384043,8.06781307 159.541704,7.74446605 L163.029571,0.610088707 Z" id="Shape-Copy-4"></path>
                        </g>
                    </g>
                </g>
            </g>
        </g>
    </g>
</svg>