<?xml version="1.0" encoding="UTF-8"?>
<svg width="14px" height="18px" viewBox="0 0 14 18" version="1.1" xmlns="http://www.w3.org/2000/svg" xmlns:xlink="http://www.w3.org/1999/xlink">
    <!-- Generator: sketchtool 47.1 (45422) - http://www.bohemiancoding.com/sketch -->
    <title>3A29A165-801A-4EFC-B363-A719D5DBD15D</title>
    <desc>Created with sketchtool.</desc>
    <defs></defs>
    <g id="Page-1" stroke="none" stroke-width="1" fill="none" fill-rule="evenodd" opacity="0.699999988">
        <g id="Registration1" transform="translate(-60.000000, -228.000000)" fill-rule="nonzero" fill="#000000">
            <g id="003-man-user" transform="translate(60.000000, 228.000000)">
                <path d="M7.50004967,9 C9.43293739,9 11,6.98530142 11,4.50002629 C11,2.01469858 10.4855103,0 7.50004967,0 C4.51458901,0 4,2.01469858 4,4.50002629 C4,6.98530142 5.56706261,9 7.50004967,9 Z" id="Shape"></path>
                <path d="M0.00692820323,15.5 C0.00092820323,14.5270717 -0.00507179677,15.2258786 0.00692820323,15.5 L0.00692820323,15.5 Z" id="Shape"></path>
                <path d="M13.9921631,15.3039185 C13.9235243,11.0018286 13.3578985,9.77596656 9.02955188,9 C9.02955188,9 8.4202708,9.77121212 7.00015779,9.77121212 C5.58004478,9.77121212 4.97065851,9 4.97065851,9 C0.689543761,9.76750261 0.0895197163,10.9751829 0.0106245492,15.1641588 C0.00415514547,15.5062173 0.00115712912,15.5241902 0,15.4844828 C0.00026298389,15.5588819 0.000578564559,15.6964995 0.000578564559,15.9364681 C0.000578564559,15.9364681 1.03105464,18 7.00015779,18 C12.9691557,18 13.999737,15.9364681 13.999737,15.9364681 C13.999737,15.7822884 13.9998422,15.6750784 14,15.6021421 C13.9988429,15.626698 13.9965286,15.5791014 13.9921631,15.3039185 Z" id="Shape"></path>
            </g>
        </g>
    </g>
</svg>