<?xml version="1.0" encoding="UTF-8"?>
<svg width="12px" height="12px" viewBox="0 0 12 12" version="1.1" xmlns="http://www.w3.org/2000/svg" xmlns:xlink="http://www.w3.org/1999/xlink">
    <!-- Generator: sketchtool 47.1 (45422) - http://www.bohemiancoding.com/sketch -->
    <title>00FDA463-5295-4D18-9CFC-3089B205CFD6</title>
    <desc>Created with sketchtool.</desc>
    <defs></defs>
    <g id="Page-1" stroke="none" stroke-width="1" fill="none" fill-rule="evenodd">
        <g id="Registration1" transform="translate(-304.000000, -444.000000)" fill="#FA5046">
            <g id="Group-3" transform="translate(125.000000, 439.000000)">
                <g id="Group-7" transform="translate(179.000000, 5.000000)">
                    <path d="M12,6 C12,5.89579106 11.9599088,5.80360762 11.8797251,5.72344689 L6.27491409,0.120240481 C6.19473041,0.0400797595 6.10252057,0 5.99828179,0 C5.89404301,0 5.80183316,0.0400797595 5.72164948,0.120240481 L5.12027491,0.721442886 C5.04009124,0.801603607 5,0.893787054 5,0.997995992 C5,1.10220493 5.04009124,1.19438838 5.12027491,1.2745491 L9.84707904,6 L5.12027491,10.7254509 C5.04009124,10.8056116 5,10.8977951 5,11.002004 C5,11.1062129 5.04009124,11.1983964 5.12027491,11.2785571 L5.72164948,11.8797595 C5.80183316,11.9599202 5.89404301,12 5.99828179,12 C6.10252057,12 6.19473041,11.9599202 6.27491409,11.8797595 L11.8797251,6.27655311 C11.9599088,6.19639238 12,6.10420894 12,6 Z" id="-copy-3"></path>
                    <path d="M7,6 C7,5.89579106 6.95990876,5.80360762 6.87972509,5.72344689 L1.27491409,0.120240481 C1.19473041,0.0400797595 1.10252057,0 0.998281787,0 C0.894043007,0 0.801833162,0.0400797595 0.721649485,0.120240481 L0.120274914,0.721442886 C0.0400912371,0.801603607 -4.56854779e-16,0.893787054 -4.4408921e-16,0.997995992 C-4.31323641e-16,1.10220493 0.0400912371,1.19438838 0.120274914,1.2745491 L4.84707904,6 L0.120274914,10.7254509 C0.0400912371,10.8056116 7.68633702e-16,10.8977951 7.81399271e-16,11.002004 C7.9416484e-16,11.1062129 0.0400912371,11.1983964 0.120274914,11.2785571 L0.721649485,11.8797595 C0.801833162,11.9599202 0.894043007,12 0.998281787,12 C1.10252057,12 1.19473041,11.9599202 1.27491409,11.8797595 L6.87972509,6.27655311 C6.95990876,6.19639238 7,6.10420894 7,6 Z" id="-copy-5"></path>
                </g>
            </g>
        </g>
    </g>
</svg>