<?xml version="1.0" encoding="UTF-8"?>
<svg width="47px" height="47px" viewBox="0 0 47 47" version="1.1" xmlns="http://www.w3.org/2000/svg" xmlns:xlink="http://www.w3.org/1999/xlink">
    <!-- Generator: Sketch 47.1 (45422) - http://www.bohemiancoding.com/sketch -->
    <title>Group 5</title>
    <desc>Created with Sketch.</desc>
    <defs></defs>
    <g id="Page-1" stroke="none" stroke-width="1" fill="none" fill-rule="evenodd">
        <g id="Porucki" transform="translate(-299.000000, -201.000000)">
            <g id="Group-5" transform="translate(300.000000, 202.000000)">
                <g id="Group-30" stroke-width="2" stroke="#FF4D4C">
                    <circle id="Oval-15-Copy" cx="22.5" cy="22.5" r="22.5"></circle>
                </g>
                <g id="002-eye" transform="translate(6.000000, 12.000000)" fill-rule="nonzero" fill="#FF4D4C">
                    <path d="M16.5,20 C12.7891051,20 8.79527192,18.3838249 4.95029862,15.3260617 C2.07597502,13.0403046 0.301900281,10.7757474 0.22776898,10.6803066 C-0.0759229934,10.2898141 -0.0759229934,9.71018589 0.22776898,9.31961026 C0.301900281,9.22433574 2.07590037,6.95961225 4.95029862,4.67385521 C8.79534657,1.61634133 12.7891797,0 16.5,0 C20.2108949,0 24.2048027,1.61625819 28.0497014,4.67385521 C30.924025,6.95961225 32.6980997,9.2242526 32.772231,9.31961026 C33.075923,9.71010276 33.075923,10.289731 32.772231,10.6803066 C32.6980997,10.7755811 30.9240996,13.0403046 28.0497014,15.3260617 C24.2048027,18.3837418 20.2109696,20 16.5,20 Z M2.21259162,10.0000831 C2.93001538,10.8147385 4.28401276,12.2472648 6.07174916,13.6639952 C8.52263596,15.6061488 12.3213239,17.9215856 16.5,17.9215856 C20.6786761,17.9215856 24.4774387,15.6061488 26.9282508,13.6639952 C28.7157633,12.2475142 30.0698353,10.8148216 30.7874084,10.0000831 C30.0700593,9.18542782 28.7159872,7.75290147 26.9282508,6.33617106 C24.4774387,4.39393436 20.6786761,2.07858069 16.5,2.07858069 C12.3213239,2.07858069 8.52263596,4.39393436 6.07174916,6.33617106 C4.28423672,7.75265206 2.93016469,9.18517841 2.21259162,10.0000831 Z" id="Shape"></path>
                    <path d="M16.500029,15 C14.018684,15 12,12.981271 12,10.5 C12,8.01872903 14.018684,6 16.500029,6 C17.5913006,6 18.6440171,6.39565161 19.4641256,7.11414194 C19.7656566,7.37827742 19.7959664,7.8368129 19.5318292,8.13834194 C19.267692,8.43987097 18.8090955,8.47012258 18.5076226,8.20604516 C17.95229,7.71952258 17.2392532,7.4516129 16.499971,7.4516129 C14.8190504,7.4516129 13.4515642,8.81914839 13.4515642,10.5 C13.4515642,12.1808516 14.8190504,13.5483871 16.499971,13.5483871 C18.1809496,13.5483871 19.5483777,12.1808516 19.5483777,10.5 C19.5483777,10.0991806 19.8733669,9.77419355 20.2741889,9.77419355 C20.6750108,9.77419355 21,10.0991806 21,10.5 C21.0001161,12.981271 18.9813741,15 16.500029,15 Z" id="Shape"></path>
                    <path d="M16,10 C15.4486,10 15,9.5514 15,9 C15,8.4486 15.4486,8 16,8 C16.55144,8 17,8.4486 17,9 C17,9.5514 16.55144,10 16,10 Z" id="Shape"></path>
                </g>
            </g>
        </g>
    </g>
</svg>