<?xml version="1.0" encoding="UTF-8"?>
<svg width="47px" height="47px" viewBox="0 0 47 47" version="1.1" xmlns="http://www.w3.org/2000/svg" xmlns:xlink="http://www.w3.org/1999/xlink">
    <!-- Generator: sketchtool 47.1 (45422) - http://www.bohemiancoding.com/sketch -->
    <title>588971D4-903C-47BF-8901-DA3A9D63A4C4</title>
    <desc>Created with sketchtool.</desc>
    <defs></defs>
    <g id="Page-1" stroke="none" stroke-width="1" fill="none" fill-rule="evenodd">
        <g id="Spisuk-fakturi" transform="translate(-235.000000, -307.000000)">
            <g id="Group" transform="translate(236.000000, 308.000000)">
                <g id="Group-31" stroke-width="2" stroke="#287FDE">
                    <circle id="Oval-15" cx="22.5" cy="22.5" r="22.5"></circle>
                </g>
                <g id="002-envelope" transform="translate(9.000000, 15.000000)" fill-rule="nonzero" fill="#287FDE">
                    <path d="M25.9820732,1.34686334 C25.9810068,0.603771644 25.3837674,0 24.6502309,0 C24.6496215,0 24.6490122,0 24.6485043,0 L1.32996456,0.0324514402 C0.974241238,0.0329142975 0.639947643,0.173674348 0.388732328,0.428760153 C0.137567795,0.683897387 -0.000455900725,1.02286322 1.13138148e-06,1.38301764 L0.0180285089,14.6530852 C0.018485541,15.0133425 0.157474083,15.3518969 0.409349555,15.6063141 C0.660767994,15.8602685 0.994655339,16 1.34976929,16 C1.35037866,16 1.35103882,16 1.35154663,16 L24.6700356,15.9675486 C25.4042323,15.96652 26.0008623,15.3607426 25.9999991,14.6169824 L25.9820732,1.34686334 Z M23.1873219,1.35077191 L13.0010411,8.52218019 L2.79500637,1.37916049 L23.1873219,1.35077191 Z M17.3086195,9.87562638 L23.3501269,14.6206852 L2.63275997,14.6494852 L8.71108386,9.87562638 C9.00165472,9.64733487 9.05456888,9.22376901 8.82920127,8.92939176 C8.60378288,8.63511737 8.18554772,8.58152878 7.8948753,8.80976886 L1.34880444,13.9510336 L1.33255441,1.99517214 L12.6234818,9.89753496 C12.7374352,9.97730071 12.8697206,10.0171064 13.0020567,10.0171064 C13.1349515,10.0171064 13.2679479,9.97683785 13.3821551,9.89645496 L24.651145,1.96287499 L24.6682075,13.9491307 L18.1247265,8.80982029 C17.834308,8.58163164 17.4158697,8.6351688 17.1905021,8.92944319 C16.9650837,9.22371758 17.0179471,9.6473863 17.3086195,9.87562638 Z" id="Shape"></path>
                </g>
            </g>
        </g>
    </g>
</svg>