<?xml version="1.0" encoding="UTF-8"?>
<svg width="54px" height="54px" viewBox="0 0 54 54" version="1.1" xmlns="http://www.w3.org/2000/svg" xmlns:xlink="http://www.w3.org/1999/xlink">
    <!-- Generator: sketchtool 47.1 (45422) - http://www.bohemiancoding.com/sketch -->
    <title>62CDAA59-F85E-4CC3-9366-0BF117473536</title>
    <desc>Created with sketchtool.</desc>
    <defs></defs>
    <g id="Page-1" stroke="none" stroke-width="1" fill="none" fill-rule="evenodd">
        <g id="Thank-you!" transform="translate(-228.000000, -512.000000)">
            <g id="Group-8" transform="translate(229.000000, 513.000000)">
                <circle id="Oval-22-Copy-2" stroke="#3F76E0" stroke-width="2" cx="26.135675" cy="25.5601931" r="25.5601931"></circle>
                <g id="location-pin" transform="translate(17.336394, 12.865575)" fill-rule="nonzero" fill="#3F76E0">
                    <path d="M8.65289865,0 C3.90891684,0 0.0493520154,3.85951325 0.0493520154,8.60349507 C0.0493520154,10.5098649 1.1717107,13.4091024 3.58150206,17.7274811 C5.22589883,20.6740595 6.86271489,23.1629069 6.93176645,23.2677477 L8.11482245,25.060974 C8.23410271,25.2418283 8.4362036,25.3506399 8.65289865,25.3506399 C8.86959371,25.3506399 9.07169459,25.2418283 9.19097486,25.060974 L10.3739793,23.2678508 C10.4423604,23.1641961 12.0672639,20.6968532 13.7242952,17.7274811 C16.1340866,13.4093087 17.2564453,10.5100712 17.2564453,8.60349507 C17.2564453,3.85951325 13.3968805,0 8.65289865,0 Z M12.598533,17.0992099 C10.9645532,20.0270685 9.36533135,22.4556827 9.29793001,22.5577387 L8.65289865,23.535445 L8.00807357,22.5579966 C7.94031124,22.4551154 6.32881581,20.0047389 4.70726433,17.0992099 C2.47198418,13.0934971 1.33858962,10.2351026 1.33858962,8.60349507 C1.33858962,4.57039886 4.61975088,1.2892376 8.65289865,1.2892376 C12.6860464,1.2892376 15.9672077,4.57039886 15.9672077,8.60349507 C15.9672077,10.2353089 14.8338131,13.0936002 12.598533,17.0992099 Z" id="Shape"></path>
                    <path d="M8.65289865,3.77958052 C6.0225961,3.77958052 3.88271953,5.91950866 3.88271953,8.54975964 C3.88271953,11.1800106 6.0225961,13.3199388 8.65289865,13.3199388 C11.2832012,13.3199388 13.4230778,11.1800106 13.4230778,8.54975964 C13.4230778,5.91950866 11.2832012,3.77958052 8.65289865,3.77958052 Z M8.65289865,12.0307012 C6.73348171,12.0307012 5.17195713,10.4691766 5.17195713,8.54975964 C5.17195713,6.6303427 6.73348171,5.06881812 8.65289865,5.06881812 C10.5723672,5.06881812 12.1338402,6.6303427 12.1338402,8.54975964 C12.1338402,10.4691766 10.5723672,12.0307012 8.65289865,12.0307012 Z" id="Shape"></path>
                </g>
            </g>
        </g>
    </g>
</svg>