<?xml version="1.0" encoding="UTF-8"?>
<svg width="54px" height="54px" viewBox="0 0 54 54" version="1.1" xmlns="http://www.w3.org/2000/svg" xmlns:xlink="http://www.w3.org/1999/xlink">
    <!-- Generator: sketchtool 47.1 (45422) - http://www.bohemiancoding.com/sketch -->
    <title>AD9031A7-2E63-4FCD-8D73-07E438B6C2B5</title>
    <desc>Created with sketchtool.</desc>
    <defs></defs>
    <g id="Page-1" stroke="none" stroke-width="1" fill="none" fill-rule="evenodd">
        <g id="Thank-you!" transform="translate(-227.000000, -398.000000)">
            <g id="Group-6" transform="translate(191.000000, 399.000000)">
                <g id="Group-4" transform="translate(37.000000, 0.000000)">
                    <g id="003-favorite" transform="translate(15.000000, 14.000000)" fill-rule="nonzero" fill="#3F76E0">
                        <path d="M17.0989901,0 L4.78771723,0 C2.1435294,0 0,2.1626408 0,4.83040384 L0,17.2514423 C0,19.9192053 2.1435294,22.0818461 4.78771723,22.0818461 L17.0989901,22.0818461 C19.7431779,22.0818461 21.8867073,19.9192053 21.8867073,17.2514423 L21.8867073,4.83040384 C21.8867073,2.1626408 19.7431779,0 17.0989901,0 Z M20.5187881,17.2514423 C20.5187881,19.1569935 18.9877018,20.7017307 17.0989901,20.7017307 L4.78771723,20.7017307 C2.89900553,20.7017307 1.36791921,19.1569935 1.36791921,17.2514423 L1.36791921,4.83040384 C1.36791921,2.92485265 2.89900553,1.38011538 4.78771723,1.38011538 L17.0989901,1.38011538 C18.9877018,1.38011538 20.5187881,2.92485265 20.5187881,4.83040384 L20.5187881,17.2514423 Z" id="Shape"></path>
                        <rect id="Rectangle-path" x="8.89147486" y="5.52046153" width="8.20751525" height="1.38011538"></rect>
                        <rect id="Rectangle-path" x="8.89147486" y="10.3508654" width="8.20751525" height="1.38011538"></rect>
                        <rect id="Rectangle-path" x="8.89147486" y="15.1812692" width="8.20751525" height="1.38011538"></rect>
                        <ellipse id="Oval" cx="6.15563644" cy="6.21051922" rx="1.36791921" ry="1.38011538"></ellipse>
                        <ellipse id="Oval" cx="6.15563644" cy="11.0409231" rx="1.36791921" ry="1.38011538"></ellipse>
                        <ellipse id="Oval" cx="6.15563644" cy="15.8713269" rx="1.36791921" ry="1.38011538"></ellipse>
                    </g>
                    <circle id="Oval-22-Copy" stroke="#3F76E0" stroke-width="2" cx="25.5601931" cy="25.5601931" r="25.5601931"></circle>
                </g>
            </g>
        </g>
    </g>
</svg>