<?xml version="1.0" encoding="UTF-8"?>
<svg width="25px" height="26px" viewBox="0 0 25 26" version="1.1" xmlns="http://www.w3.org/2000/svg" xmlns:xlink="http://www.w3.org/1999/xlink">
    <!-- Generator: sketchtool 47.1 (45422) - http://www.bohemiancoding.com/sketch -->
    <title>DE05A18A-EC87-4578-B0B8-1AA4BFF7FF13</title>
    <desc>Created with sketchtool.</desc>
    <defs></defs>
    <g id="Page-1" stroke="none" stroke-width="1" fill="none" fill-rule="evenodd">
        <g id="Cart-step-2" transform="translate(-22.000000, -1037.000000)" stroke="#F54A44">
            <g id="Group-16" transform="translate(0.000000, 1018.000000)">
                <g id="Group-13" transform="translate(23.000000, 20.000000)">
                    <g id="Group-10" transform="translate(11.738122, 12.119061) rotate(-180.000000) translate(-11.738122, -12.119061) translate(0.238122, 0.619061)">
                        <circle id="Oval-16" stroke-width="1.5" cx="11.4980474" cy="11.4980474" r="11.4980474"></circle>
                        <path d="M13.523992,7.04407219 C13.3528847,6.86698211 13.0681047,6.86698211 12.8910146,7.04407219 C12.7199073,7.21517951 12.7199073,7.49995951 12.8910146,7.67066797 L16.100573,10.8802264 L5.50946909,10.8802264 C5.26257999,10.8806252 5.06634503,11.0768602 5.06634503,11.3237493 C5.06634503,11.5706384 5.26257999,11.773255 5.50946909,11.773255 L16.100573,11.773255 L12.8910146,14.9768306 C12.7199073,15.1539207 12.7199073,15.4390995 12.8910146,15.609808 C13.0681047,15.7868981 13.3532836,15.7868981 13.523992,15.609808 L17.4933626,11.6404374 C17.6704527,11.4693301 17.6704527,11.1845501 17.4933626,11.0138416 L13.523992,7.04407219 Z" id="Shape" stroke-width="0.5" fill="#F54A44" fill-rule="nonzero"></path>
                    </g>
                </g>
            </g>
        </g>
    </g>
</svg>