<?xml version="1.0" encoding="UTF-8"?>
<svg width="149px" height="33px" viewBox="0 0 149 33" version="1.1" xmlns="http://www.w3.org/2000/svg" xmlns:xlink="http://www.w3.org/1999/xlink">
    <!-- Generator: sketchtool 45.2 (43514) - http://www.bohemiancoding.com/sketch -->
    <title>4C93B8D8-CB90-44C3-BCED-A0F1004974FF</title>
    <desc>Created with sketchtool.</desc>
    <defs></defs>
    <g id="Page-1" stroke="none" stroke-width="1" fill="none" fill-rule="evenodd">
        <g id="Desktop-HD" transform="translate(-680.000000, -10.000000)">
            <g id="Group-12-Copy" transform="translate(680.000000, 10.000000)">
                <g id="Group-14">
                    <path d="M68.1674592,21.7662425 L68.1674592,8.93143195 L68.1674592,8.93143195 C68.1674592,8.3791472 67.719744,7.93143195 67.1674592,7.93143195 L64.7933461,7.93143195 L64.7933461,7.93143195 C64.3738799,7.93143195 63.998995,8.19321917 63.8545267,8.5870222 L60.6121248,17.4254183 L60.6121248,17.4254183 C60.6041766,17.4470842 60.5835516,17.4614869 60.5604738,17.4614869 L60.5604738,17.4614869 L60.5604738,17.4614869 C60.537396,17.4614869 60.516771,17.4470842 60.5088228,17.4254183 L57.2664209,8.5870222 L57.2664209,8.5870222 C57.1219526,8.19321917 56.7470677,7.93143195 56.3276015,7.93143195 L53.9534884,7.93143195 L53.9534884,7.93143195 C53.4012036,7.93143195 52.9534884,8.3791472 52.9534884,8.93143195 L52.9534884,21.7662425 L52.9534884,21.7662425 C52.9534884,22.3185272 53.4012036,22.7662425 53.9534884,22.7662425 L55.0558322,22.7662425 L55.0558322,22.7662425 C55.6081169,22.7662425 56.0558322,22.3185272 56.0558322,21.7662425 L56.0558322,13.5419005 L56.0558322,13.5419005 C56.0558322,13.5206822 56.073033,13.5034814 56.0942513,13.5034814 L56.0942513,13.5034814 L56.0942513,13.5034814 C56.1173622,13.5034814 56.1380504,13.517813 56.1461727,13.5394496 L59.3085088,21.9634817 L59.3085088,21.9634817 C59.4549632,22.3536163 59.8279984,22.6120345 60.2447164,22.6120345 L60.8769146,22.6120345 L60.8769146,22.6120345 C61.2932946,22.6120345 61.6661014,22.3540293 61.8127972,21.9643466 L64.9860384,13.5349427 L64.9860384,13.5349427 C64.9931641,13.5160139 65.0112731,13.5034814 65.0314987,13.5034814 L65.0314987,13.5034814 L65.0314987,13.5034814 C65.0500647,13.5034814 65.0651154,13.5185321 65.0651154,13.5370981 L65.0651154,21.7662425 L65.0651154,21.7662425 C65.0651154,22.3185272 65.5128307,22.7662425 66.0651154,22.7662425 L67.1674592,22.7662425 L67.1674592,22.7662425 C67.719744,22.7662425 68.1674592,22.3185272 68.1674592,21.7662425 Z M78.297428,20.7232044 L78.297428,21.7662425 L78.297428,21.7662425 C78.297428,22.3185272 77.8497128,22.7662425 77.297428,22.7662425 L69.798301,22.7662425 L69.798301,22.7662425 C69.2460163,22.7662425 68.798301,22.3185272 68.798301,21.7662425 L68.798301,8.93143195 L68.798301,8.93143195 C68.798301,8.3791472 69.2460163,7.93143195 69.798301,7.93143195 L77.297428,7.93143195 L77.297428,7.93143195 C77.8497128,7.93143195 78.297428,8.3791472 78.297428,8.93143195 L78.297428,9.97447001 L78.297428,9.97447001 C78.297428,10.5267548 77.8497128,10.97447 77.297428,10.97447 L73.3232551,10.97447 L73.3232551,10.97447 C72.7709704,10.97447 72.3232551,11.4221853 72.3232551,11.97447 L72.3232551,12.9249833 L72.3232551,12.9249833 C72.3232551,13.477268 72.7709704,13.9249833 73.3232551,13.9249833 L76.9420512,13.9249833 L76.9420512,13.9249833 C77.494336,13.9249833 77.9420512,14.3726985 77.9420512,14.9249833 L77.9420512,15.7007274 L77.9420512,15.7007274 C77.9420512,16.2530122 77.494336,16.7007274 76.9420512,16.7007274 L73.3232551,16.7007274 L73.3232551,16.7007274 C72.7709704,16.7007274 72.3232551,17.1484427 72.3232551,17.7007274 L72.3232551,18.7232044 L72.3232551,18.7232044 C72.3232551,19.2754892 72.7709704,19.7232044 73.3232551,19.7232044 L77.297428,19.7232044 L77.297428,19.7232044 C77.8497128,19.7232044 78.297428,20.1709197 78.297428,20.7232044 Z M84.5843821,22.7662425 L83.059428,22.7662425 L83.059428,22.7662425 C82.5071433,22.7662425 82.059428,22.3185272 82.059428,21.7662425 L82.059428,11.97447 L82.059428,11.97447 C82.059428,11.4221853 81.6117128,10.97447 81.059428,10.97447 L79.2175162,10.97447 L79.2175162,10.97447 C78.6652314,10.97447 78.2175162,10.5267548 78.2175162,9.97447001 L78.2175162,8.93143195 L78.2175162,8.93143195 C78.2175162,8.3791472 78.6652314,7.93143195 79.2175162,7.93143195 L88.4262939,7.93143195 L88.4262939,7.93143195 C88.9785787,7.93143195 89.4262939,8.3791472 89.4262939,8.93143195 L89.4262939,9.97447001 L89.4262939,9.97447001 C89.4262939,10.5267548 88.9785787,10.97447 88.4262939,10.97447 L86.5843821,10.97447 L86.5843821,10.97447 C86.0320974,10.97447 85.5843821,11.4221853 85.5843821,11.97447 L85.5843821,21.7662425 L85.5843821,21.7662425 C85.5843821,22.3185272 85.1366669,22.7662425 84.5843821,22.7662425 Z M96.5241302,22.0252848 L96.0475405,20.2482709 L96.0475405,20.2482709 C95.9303187,19.8111974 95.5341942,19.5073132 95.0816745,19.5073132 L92.0803254,19.5073132 L92.0803254,19.5073132 C91.6288267,19.5073132 91.2333297,19.809854 91.1151748,20.2456182 L90.6319093,22.0279374 L90.6319093,22.0279374 C90.5137543,22.4637017 90.1182573,22.7662425 89.6667587,22.7662425 L88.2016903,22.7662425 L88.2016903,22.7662425 C87.6494056,22.7662425 87.2016903,22.3185272 87.2016903,21.7662425 C87.2016903,21.6646256 87.2171788,21.5636024 87.2476221,21.466653 L91.2779149,8.63184247 L91.2779149,8.63184247 C91.4087985,8.21503253 91.7951067,7.93143195 92.2319831,7.93143195 L95.0762683,7.93143195 L95.0762683,7.93143195 C95.5131447,7.93143195 95.8994529,8.21503253 96.0303365,8.63184247 L100.060629,21.466653 L100.060629,21.466653 C100.226088,21.9935703 99.9330679,22.554852 99.4061506,22.7203107 C99.3092012,22.750754 99.2081779,22.7662425 99.1065611,22.7662425 L97.4899962,22.7662425 L97.4899962,22.7662425 C97.0374764,22.7662425 96.641352,22.4623582 96.5241302,22.0252848 Z M93.5336377,11.1143613 L92.3384851,15.5321054 L92.3384851,15.5321054 C92.1942577,16.0652254 92.5095174,16.6143239 93.0426374,16.7585513 C93.1277751,16.781584 93.2155859,16.7932522 93.3037842,16.7932522 L93.8529087,16.7932522 L93.8529087,16.7932522 C94.4051934,16.7932522 94.8529087,16.345537 94.8529087,15.7932522 C94.8529087,15.7055783 94.8413788,15.6182851 94.8186156,15.5336178 L93.6304839,11.114377 L93.6304839,11.114377 C93.6245992,11.0924887 93.6047554,11.0772753 93.5820899,11.0772753 L93.5820899,11.0772753 L93.5820899,11.0772753 C93.5594168,11.0772753 93.5395587,11.092475 93.5336377,11.1143613 Z M107.621422,13.540736 L105.487254,22.0105779 L105.487254,22.0105779 C105.375305,22.4548669 104.975739,22.7662425 104.517563,22.7662425 L102.758864,22.7662425 L102.758864,22.7662425 C102.297918,22.7662425 101.896688,22.4511681 101.787385,22.003369 L98.6545596,9.16855844 L98.6545596,9.16855844 C98.5235983,8.63202552 98.852379,8.09091451 99.3889119,7.95995317 C99.4665309,7.9410073 99.5461407,7.93143195 99.6260384,7.93143195 L101.162349,7.93143195 L101.162349,7.93143195 C101.6438,7.93143195 102.056906,8.27449772 102.145337,8.74775717 L103.858679,17.9171871 L103.858679,17.9171871 C103.86277,17.9390814 103.881881,17.9549526 103.904154,17.9549526 L103.904154,17.9549526 L103.904154,17.9549526 C103.926644,17.9549526 103.946158,17.9394315 103.951218,17.9175187 L106.078355,8.70642185 L106.078355,8.70642185 C106.18312,8.25276327 106.587114,7.93143195 107.052712,7.93143195 L108.285744,7.93143195 L108.285744,7.93143195 C108.751342,7.93143195 109.155336,8.25276327 109.2601,8.70642185 L111.387238,17.9175187 L111.387238,17.9175187 C111.392298,17.9394315 111.411812,17.9549526 111.434301,17.9549526 L111.434301,17.9549526 L111.434301,17.9549526 C111.456575,17.9549526 111.475686,17.9390814 111.479777,17.9171871 L113.193119,8.74775717 L113.193119,8.74775717 C113.281549,8.27449772 113.694656,7.93143195 114.176106,7.93143195 L115.712417,7.93143195 L115.712417,7.93143195 C116.264702,7.93143195 116.712417,8.3791472 116.712417,8.93143195 C116.712417,9.01132968 116.702842,9.09093949 116.683896,9.16855844 L113.551071,22.003369 L113.551071,22.003369 C113.441768,22.4511681 113.040538,22.7662425 112.579592,22.7662425 L110.820892,22.7662425 L110.820892,22.7662425 C110.362717,22.7662425 109.96315,22.4548669 109.851202,22.0105779 L107.717034,13.540736 L107.717034,13.540736 C107.711515,13.5188323 107.691816,13.5034814 107.669228,13.5034814 L107.669228,13.5034814 L107.669228,13.5034814 C107.64664,13.5034814 107.626941,13.5188323 107.621422,13.540736 Z M122.947359,7.6744186 C127.144647,7.6744186 129.785962,10.6249319 129.785962,15.3539775 C129.785962,20.0830231 127.144647,23.0232558 122.947359,23.0232558 C118.740465,23.0232558 116.099151,20.0830231 116.099151,15.3539775 C116.099151,10.6249319 118.75007,7.6744186 122.947359,7.6744186 Z M122.947359,10.7380177 C120.978379,10.7380177 119.691338,12.5268306 119.691338,15.3539775 C119.691338,18.1708438 120.968774,19.9596567 122.947359,19.9596567 C124.916338,19.9596567 126.203379,18.1708438 126.203379,15.3539775 C126.203379,12.5268306 124.916338,10.7380177 122.947359,10.7380177 Z M138.301225,19.7232044 L134.567171,19.7232044 L134.567171,19.7232044 C134.014886,19.7232044 133.567171,19.2754892 133.567171,18.7232044 L133.567171,8.93143195 L133.567171,8.93143195 C133.567171,8.3791472 133.119456,7.93143195 132.567171,7.93143195 L131.042217,7.93143195 L131.042217,7.93143195 C130.489932,7.93143195 130.042217,8.3791472 130.042217,8.93143195 L130.042217,21.7662425 L130.042217,21.7662425 C130.042217,22.3185272 130.489932,22.7662425 131.042217,22.7662425 L138.301225,22.7662425 L138.301225,22.7662425 C138.853509,22.7662425 139.301225,22.3185272 139.301225,21.7662425 L139.301225,20.7232044 L139.301225,20.7232044 C139.301225,20.1709197 138.853509,19.7232044 138.301225,19.7232044 Z M142.976781,21.7662425 L142.976781,18.2353152 L142.976781,18.2353152 C142.976781,17.6830304 143.424497,17.2353152 143.976781,17.2353152 L147.345853,17.2353152 L147.345853,17.2353152 C147.898138,17.2353152 148.345853,16.7875999 148.345853,16.2353152 L148.345853,15.3464851 L148.345853,15.3464851 C148.345853,14.7942004 147.898138,14.3464851 147.345853,14.3464851 L143.976781,14.3464851 L143.976781,14.3464851 C143.424497,14.3464851 142.976781,13.8987699 142.976781,13.3464851 L142.976781,11.97447 L142.976781,11.97447 C142.976781,11.4221853 143.424497,10.97447 143.976781,10.97447 L147.883721,10.97447 L147.883721,10.97447 C148.436006,10.97447 148.883721,10.5267548 148.883721,9.97447001 L148.883721,8.93143195 L148.883721,8.93143195 C148.883721,8.3791472 148.436006,7.93143195 147.883721,7.93143195 L140.451827,7.93143195 L140.451827,7.93143195 C139.899543,7.93143195 139.451827,8.3791472 139.451827,8.93143195 L139.451827,21.7662425 L139.451827,21.7662425 C139.451827,22.3185272 139.899543,22.7662425 140.451827,22.7662425 L141.976781,22.7662425 L141.976781,22.7662425 C142.529066,22.7662425 142.976781,22.3185272 142.976781,21.7662425 Z" id="METAWOLF-Copy-6" fill="#FFFFFF"></path>
                    <path d="M54.1973787,32.9170194 L54.1973787,30.5538757 L56.5165616,30.5538757 L56.5165616,30.1137177 L54.1973787,30.1137177 L54.1973787,28.1582614 L56.7197529,28.1582614 L56.7197529,27.7108876 L53.7209302,27.7108876 L53.7209302,32.9170194 L54.1973787,32.9170194 Z M63.2136335,27.627907 C64.6219591,27.627907 65.5117966,28.6669686 65.5117966,30.3157574 C65.5117966,31.9645462 64.6254624,33 63.2136335,33 C61.8053079,33 60.9189736,31.9645462 60.9189736,30.3157574 C60.9189736,28.6669686 61.8053079,27.627907 63.2136335,27.627907 Z M63.2136335,28.0861043 C62.1065915,28.0861043 61.4094353,28.9483812 61.4094353,30.3157574 C61.4094353,31.6795258 62.1065915,32.5418027 63.2136335,32.5418027 C64.3206755,32.5418027 65.021335,31.6795258 65.021335,30.3157574 C65.021335,28.9483812 64.3206755,28.0861043 63.2136335,28.0861043 Z M70.4151802,28.1510457 L70.4151802,30.3482281 L71.7078969,30.3482281 C72.4400861,30.3482281 72.8709917,29.9441486 72.8709917,29.2478329 C72.8709917,28.558733 72.4260729,28.1510457 71.6903804,28.1510457 L70.4151802,28.1510457 Z M70.4151802,30.7847783 L70.4151802,32.9170194 L69.9387317,32.9170194 L69.9387317,27.7108876 L71.7464332,27.7108876 C72.7343631,27.7108876 73.3649567,28.3061833 73.3649567,29.2334015 C73.3649567,29.9694035 72.9585741,30.5250129 72.2824377,30.7054055 L73.5050886,32.9170194 L72.9480643,32.9170194 L71.7849695,30.7847783 L70.4151802,30.7847783 Z M80.8747935,32.4696456 L78.2998698,32.4696456 L78.2998698,30.4708951 L80.7451715,30.4708951 L80.7451715,30.030737 L78.2998698,30.030737 L78.2998698,28.1582614 L80.8747935,28.1582614 L80.8747935,27.7108876 L77.8234214,27.7108876 L77.8234214,32.9170194 L80.8747935,32.9170194 L80.8747935,32.4696456 Z M85.0564977,32.9170194 L85.5995089,32.9170194 L87.0884103,30.7162291 L87.1059268,30.7162291 L88.5738084,32.9170194 L89.1483492,32.9170194 L87.4002038,30.3301888 L87.4002038,30.3157574 L89.1763756,27.7108876 L88.6263579,27.7108876 L87.1409598,29.9225014 L87.1234433,29.9225014 L85.648555,27.7108876 L85.0705109,27.7108876 L86.8151531,30.2941103 L86.8151531,30.3121496 L85.0564977,32.9170194 Z M100.591156,32.9170194 L100.591156,28.1582614 L102.283249,28.1582614 L102.283249,27.7108876 L98.4191117,27.7108876 L98.4191117,28.1582614 L100.111204,28.1582614 L100.111204,32.9170194 L100.591156,32.9170194 Z M107.050004,28.1510457 L107.050004,30.3482281 L108.342721,30.3482281 C109.07491,30.3482281 109.505815,29.9441486 109.505815,29.2478329 C109.505815,28.558733 109.060897,28.1510457 108.325204,28.1510457 L107.050004,28.1510457 Z M107.050004,30.7847783 L107.050004,32.9170194 L106.573555,32.9170194 L106.573555,27.7108876 L108.381257,27.7108876 C109.369187,27.7108876 109.99978,28.3061833 109.99978,29.2334015 C109.99978,29.9694035 109.593398,30.5250129 108.917261,30.7054055 L110.139912,32.9170194 L109.582888,32.9170194 L108.419793,30.7847783 L107.050004,30.7847783 Z M117.817907,32.9170194 L117.25738,31.3223484 L115.134381,31.3223484 L114.573854,32.9170194 L114.065876,32.9170194 L115.957656,27.7108876 L116.434105,27.7108876 L118.322382,32.9170194 L117.817907,32.9170194 Z M116.185371,28.3206147 L115.278017,30.8966217 L117.113745,30.8966217 L116.20639,28.3206147 L116.185371,28.3206147 Z M122.563642,27.7108876 L124.227709,27.7108876 C125.741133,27.7108876 126.623964,28.6669686 126.623964,30.3121496 C126.623964,31.9609384 125.744637,32.9170194 124.227709,32.9170194 L122.563642,32.9170194 L122.563642,27.7108876 Z M123.043594,28.1582614 L123.043594,32.4696456 L124.199682,32.4696456 C125.443353,32.4696456 126.137006,31.6975651 126.137006,30.3157574 C126.137006,28.9303419 125.443353,28.1582614 124.199682,28.1582614 L123.043594,28.1582614 Z M131.523844,32.9170194 L131.523844,27.7108876 L131.047396,27.7108876 L131.047396,32.9170194 L131.523844,32.9170194 Z M136.626916,32.9170194 L136.626916,28.5659487 L136.651439,28.5659487 L139.625739,32.9170194 L140.088174,32.9170194 L140.088174,27.7108876 L139.615229,27.7108876 L139.615229,32.0583504 L139.590706,32.0583504 L136.626916,27.7108876 L136.153971,27.7108876 L136.153971,32.9170194 L136.626916,32.9170194 Z M148.883721,30.8028176 L148.883721,30.301326 L146.837795,30.301326 L146.837795,30.7342684 L148.407272,30.7342684 L148.407272,30.9182689 C148.407272,31.8996049 147.762666,32.5418027 146.785246,32.5418027 C145.702727,32.5418027 145.005571,31.6578787 145.005571,30.2832867 C145.005571,28.926734 145.688714,28.0861043 146.785246,28.0861043 C147.555971,28.0861043 148.148028,28.5334781 148.354723,29.2766958 L148.852191,29.2766958 C148.663013,28.2809284 147.846745,27.627907 146.785246,27.627907 C145.404947,27.627907 144.515109,28.6705765 144.515109,30.2832867 C144.515109,31.9248598 145.415456,33 146.785246,33 C148.098982,33 148.883721,32.1774095 148.883721,30.8028176 Z" id="FOREX-TRADING-Copy-3" fill="#FFFFFF"></path>
                    <rect id="Rectangle-4" fill="#00FFC6" opacity="0.900000036" x="0" y="5.37209302" width="6.13953488" height="22.255814" rx="3.06976744"></rect>
                    <rect id="Rectangle-4-Copy" fill="#00FFC6" opacity="0.900000036" x="7.6744186" y="0" width="6.13953488" height="13.0465116" rx="3.06976744"></rect>
                    <rect id="Rectangle-4-Copy-2" fill="#00FFC6" opacity="0.900000036" x="15.3488372" y="5.37209302" width="6.13953488" height="13.0465116" rx="3.06976744"></rect>
                    <rect id="Rectangle-4" fill="#FF006D" transform="translate(42.976744, 11.127907) scale(-1, -1) translate(-42.976744, -11.127907) " x="39.9069767" y="0" width="6.13953488" height="22.255814" rx="3.06976744"></rect>
                    <rect id="Rectangle-4-Copy" fill="#FF006D" transform="translate(35.302326, 19.569767) scale(-1, -1) translate(-35.302326, -19.569767) " x="32.2325581" y="13.0465116" width="6.13953488" height="13.0465116" rx="3.06976744"></rect>
                    <rect id="Rectangle-4-Copy-2" fill="#FF006D" transform="translate(28.395349, 14.197674) scale(-1, -1) translate(-28.395349, -14.197674) " x="25.3255814" y="7.6744186" width="6.13953488" height="13.0465116" rx="3.06976744"></rect>
                </g>
            </g>
        </g>
    </g>
</svg>