<?xml version="1.0" encoding="UTF-8"?>
<svg width="940px" height="220px" viewBox="0 0 940 220" version="1.1" xmlns="http://www.w3.org/2000/svg" xmlns:xlink="http://www.w3.org/1999/xlink">
    <!-- Generator: sketchtool 44.1 (41455) - http://www.bohemiancoding.com/sketch -->
    <title>B220EC7D-FF72-488A-B2AA-A7A460AE8C45</title>
    <desc>Created with sketchtool.</desc>
    <defs>
        <linearGradient x1="123.550528%" y1="50%" x2="0%" y2="50%" id="linearGradient-1">
            <stop stop-color="#EE0074" offset="0%"></stop>
            <stop stop-color="#0086B2" offset="100%"></stop>
        </linearGradient>
        <rect id="path-2" x="0" y="0" width="940" height="220"></rect>
        <filter x="-13.8%" y="-15.4%" width="127.5%" height="148.2%" filterUnits="objectBoundingBox" id="filter-4">
            <feOffset dx="0" dy="10" in="SourceAlpha" result="shadowOffsetOuter1"></feOffset>
            <feGaussianBlur stdDeviation="7.5" in="shadowOffsetOuter1" result="shadowBlurOuter1"></feGaussianBlur>
            <feColorMatrix values="0 0 0 0 0   0 0 0 0 0   0 0 0 0 0  0 0 0 0.2 0" type="matrix" in="shadowBlurOuter1" result="shadowMatrixOuter1"></feColorMatrix>
            <feMerge>
                <feMergeNode in="shadowMatrixOuter1"></feMergeNode>
                <feMergeNode in="SourceGraphic"></feMergeNode>
            </feMerge>
        </filter>
    </defs>
    <g id="Page-1" stroke="none" stroke-width="1" fill="none" fill-rule="evenodd">
        <g id="Fonio---index" transform="translate(-490.000000, -462.000000)">
            <g id="Group-59" transform="translate(490.000000, 462.000000)">
                <g id="Group-8">
                    <g id="Group-7">
                        <mask id="mask-3" fill="white">
                            <use xlink:href="#path-2"></use>
                        </mask>
                        <use id="Mask" fill="url(#linearGradient-1)" xlink:href="#path-2"></use>
                        <g opacity="0.100000001" style="mix-blend-mode: multiply;" mask="url(#mask-3)" id="Group-35">
                            <g transform="translate(181.000000, -33.000000)" opacity="0.429999977">
                                <g>
                                    <ellipse id="Oval-3" fill="#000000" cx="125.960221" cy="207.974419" rx="8.96022147" ry="8.9744186"></ellipse>
                                    <ellipse id="Oval-3-Copy-39" fill="#000000" cx="141.5" cy="203.467289" rx="4.5" ry="4.50713008"></ellipse>
                                    <ellipse id="Oval-3-Copy" fill="#000000" cx="184.035211" cy="154.047943" rx="8.03521127" ry="8.04794275"></ellipse>
                                    <ellipse id="Oval-3-Copy-33" fill="#000000" cx="173.5" cy="140.59034" rx="3.5" ry="3.50554562"></ellipse>
                                    <ellipse id="Oval-3-Copy-32" fill="#000000" cx="149.538375" cy="178.553488" rx="9.53837518" ry="9.55348837"></ellipse>
                                    <ellipse id="Oval-3-Copy-40" fill="#000000" cx="131.708895" cy="183.553488" rx="4.54628496" ry="4.55348837"></ellipse>
                                    <ellipse id="Oval-3-Copy-2" fill="#000000" cx="198.544014" cy="197.853488" rx="9.13204225" ry="9.14651163"></ellipse>
                                    <ellipse id="Oval-3-Copy-3" fill="#000000" cx="120.105634" cy="144.118477" rx="8.1056338" ry="8.11847687"></ellipse>
                                    <ellipse id="Oval-3-Copy-34" fill="#000000" cx="120.105634" cy="128.618477" rx="4.61117065" ry="4.61847687"></ellipse>
                                    <ellipse id="Oval-3-Copy-4" fill="#000000" cx="204.532047" cy="107.553488" rx="9.53837518" ry="9.55348837"></ellipse>
                                    <ellipse id="Oval-3-Copy-25" fill="#000000" cx="218" cy="120.019014" rx="5" ry="5.00792231"></ellipse>
                                    <ellipse id="Oval-3-Copy-5" fill="#000000" cx="136.618902" cy="96.6325581" rx="8.61890182" ry="8.63255814"></ellipse>
                                    <ellipse id="Oval-3-Copy-35" fill="#000000" cx="138.5" cy="110.505546" rx="3.5" ry="3.50554562"></ellipse>
                                    <ellipse id="Oval-3-Copy-6" fill="#000000" cx="238" cy="160.007922" rx="5" ry="5.00792231"></ellipse>
                                    <ellipse id="Oval-3-Copy-30" fill="#000000" cx="257.5" cy="166.513468" rx="8.5" ry="8.51346793"></ellipse>
                                    <ellipse id="Oval-3-Copy-19" fill="#000000" cx="294.5" cy="200.510299" rx="6.5" ry="6.510299"></ellipse>
                                    <ellipse id="Oval-3-Copy-29" fill="#000000" cx="281.035211" cy="202.05745" rx="9.03521127" ry="9.04952722"></ellipse>
                                    <ellipse id="Oval-3-Copy-7" fill="#000000" cx="245.094892" cy="51.1093023" rx="9.09489181" ry="9.10930233"></ellipse>
                                    <ellipse id="Oval-3-Copy-36" fill="#000000" cx="253" cy="65.0079223" rx="5" ry="5.00792231"></ellipse>
                                    <ellipse id="Oval-3-Copy-8" fill="#000000" cx="174.535211" cy="46.5534884" rx="11.5352113" ry="11.5534884"></ellipse>
                                    <ellipse id="Oval-3-Copy-37" fill="#000000" cx="165.524138" cy="63.5534884" rx="4.54628496" ry="4.55348837"></ellipse>
                                    <ellipse id="Oval-3-Copy-9" fill="#000000" cx="267.535211" cy="114" rx="8.9857624" ry="9"></ellipse>
                                    <ellipse id="Oval-3-Copy-26" fill="#000000" cx="264.040748" cy="103.553488" rx="6.54312105" ry="6.55348837"></ellipse>
                                    <ellipse id="Oval-3-Copy-15" fill="#000000" cx="320.535211" cy="78.5534884" rx="11.5352113" ry="11.5534884"></ellipse>
                                    <ellipse id="Oval-3-Copy-27" fill="#000000" cx="310.582287" cy="82.5" rx="7.48813533" ry="7.5"></ellipse>
                                    <ellipse id="Oval-3-Copy-16" fill="#000000" cx="306.5" cy="152.599847" rx="4.5" ry="4.50713008"></ellipse>
                                    <ellipse id="Oval-3-Copy-28" fill="#000000" cx="303.929577" cy="168.5" rx="8.48655338" ry="8.5"></ellipse>
                                    <ellipse id="Oval-3-Copy-17" fill="#000000" cx="285.859155" cy="23.1069767" rx="11.5352113" ry="11.5534884"></ellipse>
                                    <ellipse id="Oval-3-Copy-10" fill="#000000" cx="244.535211" cy="225" rx="7.98734436" ry="8"></ellipse>
                                    <ellipse id="Oval-3-Copy-31" fill="#000000" cx="244.535211" cy="208.053488" rx="5.04549398" ry="5.05348837"></ellipse>
                                    <ellipse id="Oval-3-Copy-11" fill="#000000" cx="169.225352" cy="252.893023" rx="11.5352113" ry="11.5534884"></ellipse>
                                    <ellipse id="Oval-3-Copy-14" fill="#000000" cx="67.0407481" cy="180.053488" rx="8.04074811" ry="8.05348837"></ellipse>
                                    <ellipse id="Oval-3-Copy-41" fill="#000000" cx="75.5383752" cy="192.5" rx="3.49446316" ry="3.5"></ellipse>
                                    <ellipse id="Oval-3-Copy-21" fill="#000000" cx="75.0407481" cy="233.053488" rx="8.04074811" ry="8.05348837"></ellipse>
                                    <ellipse id="Oval-3-Copy-42" fill="#000000" cx="82.0407481" cy="221.053488" rx="3" ry="3.00475339"></ellipse>
                                    <ellipse id="Oval-3-Copy-22" fill="#000000" cx="74.0296744" cy="119.053488" rx="8.04074811" ry="8.05348837"></ellipse>
                                    <ellipse id="Oval-3-Copy-24" fill="#000000" cx="104.535211" cy="46.5534884" rx="11.5352113" ry="11.5534884"></ellipse>
                                    <ellipse id="Oval-3-Copy-38" fill="#000000" cx="118" cy="59.4607718" rx="4" ry="4.00633785"></ellipse>
                                    <ellipse id="Oval-3-Copy-12" fill="#000000" cx="225.619718" cy="264.446512" rx="11.5352113" ry="11.5534884"></ellipse>
                                    <ellipse id="Oval-3-Copy-20" fill="#000000" cx="279.450704" cy="264.446512" rx="11.5352113" ry="11.5534884"></ellipse>
                                    <ellipse id="Oval-3-Copy-13" fill="#000000" cx="104.605634" cy="255.474419" rx="11.5352113" ry="11.5534884"></ellipse>
                                </g>
                            </g>
                        </g>
                    </g>
                </g>
                <g id="Group-34" filter="url(#filter-4)" transform="translate(691.000000, 52.000000)">
                    <g id="Group-33" transform="translate(29.038627, 77.901515)">
                        <path d="M16.585834,0.141105395 C21.3379949,-0.131619318 26.1635025,1.65769195 29.5753103,4.98849074 C32.025329,7.33629479 33.7702723,10.4204556 34.501374,13.7393968 C34.7533556,14.7947228 34.8290684,15.8796929 34.978128,16.9516196 C35.0621219,17.6749329 34.9899581,18.4006178 34.8586437,19.1132594 C34.5203022,23.1531424 32.7150252,27.05192 29.8426711,29.9072292 C28.1414992,31.6230234 26.0818746,32.9830897 23.831785,33.8581803 C19.3067626,35.6439343 14.0340762,35.4055966 9.69478671,33.2000837 C5.87838867,31.3028683 2.82385063,27.940054 1.27528738,23.9630162 C-0.591506206,19.2543648 -0.262628755,13.7310964 2.1637297,9.28449785 C4.13581139,5.59678542 7.48018748,2.67270219 11.3935925,1.21658937 C13.054542,0.592879812 14.8136814,0.232408886 16.585834,0.141105395 Z" id="Shape" fill="#EB0977" fill-rule="nonzero"></path>
                        <path d="M13.7655324,10.3623533 C14.3097181,10.2485204 14.9095054,10.2615638 15.4111027,10.5307312 C16.3444995,10.9789484 16.9868752,11.8907975 17.2637001,12.8737922 C17.5653683,11.9548285 18.113103,11.064323 18.9920813,10.6042483 C19.5693913,10.2627495 20.300493,10.20109 20.9345876,10.413341 C21.9851027,10.8330999 22.5103602,12.0662899 22.299784,13.1453312 C22.205143,13.9196322 21.6976306,14.5362272 21.2433539,15.1350358 C22.1507244,14.9619149 23.1692981,14.9156703 23.9761125,15.4445191 C24.7273254,15.898665 25.3223807,16.7535977 25.1934323,17.6666326 C25.0479218,18.538166 24.3830688,19.2804515 23.5632412,19.5840059 C22.8203094,19.9183902 21.9673575,19.8828174 21.1983994,19.6622661 C21.4906035,20.0452664 21.8147489,20.4104804 22.0312401,20.8468399 C22.5647787,21.8962372 22.4204512,23.3559073 21.4527471,24.1064931 C20.774881,24.6721005 19.7977127,24.5867258 19.0287546,24.2713137 C18.9968133,24.2523416 18.9317476,24.215583 18.8998063,24.1966109 C18.0941748,23.6962203 17.5701003,22.8650028 17.2672492,21.9827977 C17.0117185,22.735755 16.6118603,23.4697402 15.9683015,23.9559017 C15.252579,24.5274378 14.2079791,24.7124163 13.3727723,24.299772 C12.6594158,23.9037282 12.2418124,23.0938544 12.1909429,22.2946524 C12.1424394,21.536952 12.4724999,20.8124529 12.9066654,20.2112728 L12.9409728,20.1673997 C13.0782022,19.993093 13.2260788,19.8270867 13.3727723,19.6587088 C12.5399316,19.8958607 11.6171819,19.9183902 10.8292956,19.5211607 C9.72909407,19.0575287 8.95776998,17.6761187 9.53862907,16.5366037 C9.54927619,16.5128885 9.57057041,16.4654581 9.58121752,16.4429287 C9.85094435,16.0184268 10.203482,15.6366122 10.6494777,15.3947172 C11.4574752,14.9049985 12.4559377,14.9642864 13.345563,15.1516365 C12.7635209,14.4959114 12.2347144,13.7144958 12.1909429,12.8097612 C12.1246942,11.7769646 12.7457757,10.6694651 13.7655324,10.3623533 Z" id="Shape" fill="#FEFEFE" fill-rule="nonzero"></path>
                        <ellipse id="Oval-5" fill="#EB0977" cx="17.3311318" cy="17.4899544" rx="1.83366924" ry="1.83792742"></ellipse>
                    </g>
                    <g id="Group-29" fill-rule="nonzero">
                        <path d="M20.6026595,1.13069646 C23.1994018,0.475563431 25.8512682,-0.0256527992 28.5425091,0.0374925526 C35.8818989,-0.181542886 43.1976641,2.71919671 48.5624273,7.71557268 C53.3011374,12.0449759 56.4884958,18.0437843 57.4925432,24.3879188 C58.2682191,28.7271885 57.8902248,33.2282681 56.6538683,37.4451936 C54.6753043,44.1642537 50.1314975,50.0683441 44.1918679,53.7524807 C37.4076572,58.0562311 28.7885991,59.2421798 21.0751524,57.0715583 C14.4031588,55.2304766 8.44974816,50.8833138 4.6599613,45.0798613 C2.21284178,41.4016446 0.661490071,37.1452532 0.0866236997,32.7665177 C-0.0157497636,31.0537001 0.0216559249,29.3369358 0.0196872045,27.6241181 C-0.0610303339,25.1436898 0.454774424,22.6810211 1.20485691,20.3288567 C3.71497549,12.1160144 10.1133169,5.22330457 18.0787599,2.06603698 C18.9056225,1.71873754 19.7659533,1.45628968 20.6026595,1.13069646 Z" id="Shape" fill="#FBA81E"></path>
                        <path d="M28.0424541,14.3261017 C28.3279185,13.6828084 28.3515432,12.8915182 28.8929413,12.3922753 C29.2512484,13.4440401 29.7079916,14.4642322 29.9698314,15.5475696 C30.2237963,16.4631772 30.6510087,17.3176127 30.8833177,18.2391402 C29.5012759,18.217434 28.1192342,18.2233539 26.7371924,18.2253272 C27.1171555,16.907168 27.6998967,15.6561007 28.0424541,14.3261017 Z" id="Shape" fill="#FEFEFE"></path>
                        <path d="M34.8699766,19.9914237 C36.704824,18.9080863 38.6833881,18.1108762 40.5753284,17.1538295 C39.7012166,19.0777894 38.9176658,21.0609481 37.825026,22.8803236 C36.8150724,21.9449831 36.0354591,20.7471947 34.8699766,19.9914237 Z" id="Shape" fill="#FEFEFE"></path>
                        <path d="M17.1751172,17.1992152 C19.000121,18.1483688 20.9353732,18.8784869 22.6757221,19.9894504 C21.6618311,20.8951916 20.6892832,21.8601315 19.8191088,22.909923 C18.8268736,21.0629214 17.8562945,19.1843472 17.1751172,17.1992152 Z" id="Shape" fill="#FEFEFE"></path>
                        <path d="M27.2431536,19.6382044 C29.2847167,19.1902671 31.3814039,19.7348957 33.2674381,20.5222393 C34.4270145,21.3056364 35.6377776,22.1186328 36.3957349,23.3322075 C38.4313919,25.8935408 38.7365435,29.5539979 37.6813094,32.5889214 C37.4352193,33.4867694 36.8603529,34.2346471 36.3130487,34.9687119 C35.5354041,36.1250611 34.3620467,36.9242445 33.2221576,37.683962 C31.4995272,38.3785609 29.6371176,38.9764684 27.7569896,38.6548218 C26.6348189,38.5758901 25.5874597,38.1417658 24.5538814,37.7332943 C22.8233762,36.8551793 21.4590529,35.4008629 20.4746927,33.7413241 C19.0690263,30.9629286 18.9942149,27.5511063 20.3211325,24.7273251 C21.2464311,22.9632018 22.7150965,21.5148053 24.4259146,20.5143462 C25.3216824,20.0960082 26.2902929,19.8769728 27.2431536,19.6382044 Z" id="Shape" fill="#FEFEFE"></path>
                        <path d="M39.585062,27.0321305 C40.7918877,27.326151 41.8943711,27.9378716 43.1031655,28.2259723 C43.9812148,28.4509276 44.7923276,28.8633457 45.6211589,29.216565 C44.670267,29.325096 43.817811,29.77698 42.9102309,30.0453477 C41.7998726,30.3551546 40.768263,30.8938634 39.6480611,31.1760442 C39.4472516,29.8065794 39.4826886,28.4094884 39.585062,27.0321305 Z" id="Shape" fill="#FEFEFE"></path>
                        <path d="M14.3834716,28.2555716 C15.6493588,27.9358983 16.8069665,27.2945783 18.084666,27.0242373 C17.9685115,28.4035686 17.98623,29.7848731 18.084666,31.1642044 C16.1297266,30.5465639 14.2200678,29.7927663 12.2533161,29.2145917 C12.7848706,28.5949779 13.6668574,28.5476189 14.3834716,28.2555716 Z" id="Shape" fill="#FEFEFE"></path>
                        <path d="M19.8466708,35.2055069 C20.5514728,36.3618562 21.6460813,37.2083986 22.5812235,38.1674186 C22.5753174,38.2147776 22.5654738,38.3075223 22.5595676,38.3548814 C20.8507183,39.3770467 18.9666528,40.0558593 17.2085854,40.9813333 C17.901575,38.9883082 18.852467,37.076188 19.8466708,35.2055069 Z" id="Shape" fill="#FEFEFE"></path>
                        <path d="M34.8561955,38.2088577 C36.0768022,37.5201787 36.775698,36.225699 37.8584942,35.3633703 C38.9216033,37.1491998 39.691373,39.0948659 40.5083919,40.9951464 C38.6459824,40.0242866 36.6713558,39.2685157 34.8561955,38.2088577 Z" id="Shape" fill="#FEFEFE"></path>
                        <path d="M26.7391611,39.9946872 C28.1113593,39.9966605 29.4815887,40.0085003 30.8537869,39.9749543 C30.6825082,41.0267191 30.0800797,41.9383801 29.881239,42.9802784 C29.6587736,43.9629779 29.2000617,44.8687191 28.9008162,45.8257658 C28.3653242,45.3284961 28.3279185,44.5312861 28.0404853,43.8919394 C27.6959593,42.5639137 27.113218,41.3148197 26.7391611,39.9946872 Z" id="Shape" fill="#FEFEFE"></path>
                    </g>
                    <g id="Group-30" transform="translate(84.553648, 49.651515)" fill-rule="nonzero">
                        <path d="M17.3824919,0.147988585 C20.3664243,-0.00248720311 23.3937819,0.540966677 26.1010337,1.82063268 C30.2363545,3.73950988 33.6098731,7.26760749 35.3133821,11.5082888 C37.2327765,16.1469226 37.1025009,21.5851922 34.985832,26.1342867 C33.206639,30.0242724 30.0117842,33.2364952 26.1407367,35.040961 C21.6642178,37.1613017 16.3154724,37.3329187 11.7148814,35.4986064 C6.64653883,33.5536136 2.58442046,29.1935465 0.969002581,24.0027536 C-0.0620360167,20.7843128 -0.169978686,17.2773564 0.651378175,13.9979791 C1.69358326,9.72496417 4.35368765,5.87726095 7.96914671,3.38383983 C10.7223051,1.45128302 14.0251027,0.314631194 17.3824919,0.147988585 Z" id="Shape" fill="#37B54A"></path>
                        <path d="M16.8440193,10.7708331 C16.9544434,10.55569 17.3043265,10.5581772 17.4159913,10.7708331 C19.0872416,13.0366751 20.7411218,15.3174404 22.4148536,17.5820388 C22.6282575,17.8270283 22.5823508,18.2100576 22.3739098,18.4438547 C21.0537833,20.2669746 19.6989167,22.0652224 18.3862346,23.8933167 C18.1504978,24.2290891 17.8217069,24.5971952 17.3725661,24.5611307 C13.9221229,24.5573999 10.4716796,24.5611307 7.02123637,24.5561563 C7.01131061,24.3509621 7.04853222,24.148255 7.19741866,23.9965356 C7.85251899,23.1546174 8.41704675,22.2355958 9.12673878,21.4384472 C9.38729005,21.2407146 9.57215738,20.9683658 9.68878509,20.6636835 C9.9704286,20.1388836 10.3674591,19.6862126 10.7148608,19.2061824 C12.0548388,17.3581905 13.4146683,15.5238782 14.7571277,13.6771299 C15.4109873,12.6785179 16.1541787,11.7445731 16.8440193,10.7708331 Z" id="Shape" fill="#FEFEFE"></path>
                        <path d="M16.9147403,13.4594996 C17.0288866,13.261767 17.3130115,13.3239471 17.3961398,13.5167053 C18.3862346,14.8423846 19.3552372,16.1854743 20.3316841,17.5211023 C19.5140494,17.3644085 18.8018759,16.8794039 18.0016113,16.6692353 C17.794411,16.610786 17.7869667,16.8993015 17.7075606,17.0186873 C17.4842309,17.7723098 17.368844,18.5545352 17.1541993,19.3118886 C16.8688337,18.5172272 16.7224287,17.6753089 16.5437649,16.8508011 C16.4531924,16.7736978 16.3551754,16.7102741 16.2497142,16.6617736 C15.4730233,16.916712 14.7558869,17.3221261 13.9717517,17.5584104 C14.9357914,16.1792562 15.8973496,14.8001021 16.9147403,13.4594996 Z" id="Shape" fill="#37B54A"></path>
                        <path d="M24.0885853,18.0272482 C24.5402075,17.4576786 24.8975349,16.8047878 25.4322854,16.3073472 C25.6829109,16.5498495 25.8925927,16.8309035 26.0898672,17.119419 C27.7710432,19.4412231 29.4894409,21.735668 31.1656541,24.0599593 C31.2760782,24.2054607 31.4894821,24.5076559 31.1718577,24.5561563 C27.8541715,24.5623743 24.5364853,24.5598871 21.2187992,24.5586435 C20.6753636,24.5399895 20.1294467,24.6021696 19.5897334,24.5275535 C19.4209954,24.3484749 19.6641766,24.1644218 19.7411012,24.007728 C21.2039105,22.0241836 22.6654791,20.0381519 24.0885853,18.0272482 Z" id="Shape" fill="#FEFEFE"></path>
                        <path d="M25.0861244,18.2809429 C25.1829006,18.1279799 25.3293056,17.9899401 25.5265802,18.0546074 C25.824353,18.3480974 26.0439605,18.7087418 26.294586,19.0407834 C26.5973218,19.4785312 26.9745008,19.8739965 27.1792196,20.3739243 C26.7697819,20.2421025 26.3752329,20.0655111 25.9732395,19.9162789 C25.5861347,20.2110125 25.6208749,20.7271071 25.5588389,21.1611241 C25.5104508,21.1847525 25.4136746,21.2320094 25.3652865,21.2556378 C25.2672696,20.9061858 25.1953078,20.5517593 25.1096981,20.2010637 C25.0848837,20.0655111 24.9409602,19.9933822 24.8243324,19.9548306 C24.4012468,20.0431263 24.0339936,20.3055262 23.6022229,20.3689499 C24.0575673,19.6451738 24.6096878,18.9910394 25.0861244,18.2809429 Z" id="Shape" fill="#37B54A"></path>
                        <path d="M9.48778839,20.7569536 C9.53741721,20.7333251 9.63915628,20.6873119 9.68878509,20.6636835 C9.57215738,20.9683658 9.38729005,21.2407146 9.12673878,21.4384472 C9.13294238,21.3700491 9.14783102,21.2320094 9.15403462,21.1636113 C9.30540251,21.0641232 9.40217869,20.9136474 9.48778839,20.7569536 Z" id="Shape" fill="#BCC7CB"></path>
                    </g>
                    <g id="Group-31" transform="translate(120.424893, 2.568182)" fill-rule="nonzero">
                        <path d="M14.3744664,0.839459971 C18.6960973,-0.372502048 23.430513,-0.0319287469 27.5304878,1.80264384 C31.9357374,3.73300266 35.5618725,7.36888872 37.4930681,11.7803773 C39.6180469,16.5217962 39.7242295,22.113318 37.8023248,26.9385499 C36.0795125,31.3447169 32.6949429,35.0577641 28.4874582,37.1996509 C23.6335872,39.6994057 17.7218722,40.0093806 12.6330721,38.0364501 C8.28755017,36.3814768 4.5751418,33.1167624 2.38910799,29.0019451 C0.292002088,25.1372364 -0.406148359,20.5488094 0.378275432,16.2264553 C1.16933563,11.6832606 3.66595349,7.47531787 7.22837896,4.56315008 C8.80120839,3.26338401 10.586403,2.2270301 12.4777801,1.46739199 C12.6569632,1.40486486 12.8388009,1.29976607 13.0365659,1.33834664 C13.0989482,1.31040899 13.22504,1.25320332 13.2874223,1.22526566 C13.60597,1.00708589 14.0107911,0.959192772 14.3744664,0.839459971 Z" id="Shape" fill="#0188B1"></path>
                        <path d="M13.0616538,1.27332421 L13.2354767,1.16273853 L13.3752518,1.28361125 C13.2910283,1.33761821 13.1207894,1.44820388 13.0365659,1.50221084 L13.0616538,1.27332421 Z" id="Shape" fill="#5C2F90"></path>
                        <path d="M14.532413,12.1435667 C16.3587533,11.3746161 18.5832783,11.4637505 20.2649449,12.5506583 C21.3586254,13.2012065 22.1523402,14.2495337 22.6805985,15.3923167 C23.2393844,15.0198147 23.8525887,14.6672681 24.5494119,14.6872236 C26.0943684,14.5994195 27.559688,15.8872123 27.6751615,17.4330958 C27.7401984,18.108921 27.5862336,18.795389 27.2238856,19.3714368 C28.7489328,19.7838498 30.0417057,20.9692045 30.5301456,22.4804986 C30.8646207,23.7031035 30.7929475,25.092004 30.1120517,26.1868939 C29.3090459,27.5664819 27.7547985,28.5230139 26.1434778,28.4618172 C21.8072468,28.4551653 17.4710158,28.4777815 13.1361121,28.4591564 C10.412529,28.4791119 7.94112951,26.0086251 7.97696613,23.2733958 C7.87211083,21.2126612 9.08259222,19.1319712 10.9806058,18.2991631 C11.0204243,17.4663549 11.019097,16.6149217 11.2659715,15.8100512 C11.8154663,14.2189353 13.027275,12.8845798 14.532413,12.1435667 Z" id="Shape" fill="#FEFEFE"></path>
                    </g>
                    <g id="Group-32" transform="translate(152.879828, 63.348485)" fill-rule="nonzero">
                        <path d="M20.7212459,0.267056204 C27.027984,-0.410735565 33.567668,1.69291769 38.2985032,5.91427979 C43.1903682,10.1887408 46.1123547,16.6168305 46.0670162,23.1151981 C46.1217351,29.1263053 43.6609503,35.1014926 39.4053874,39.3494042 C35.4281088,43.3911671 29.9030686,45.8868151 24.2295058,46.1241984 C19.6815878,46.3834459 15.0664439,45.2386963 11.1704619,42.8820424 C7.21663432,40.5113329 3.99916607,36.9287193 2.09025998,32.7339066 C-0.184480687,27.8066416 -0.615977886,22.0672758 0.881755147,16.8510903 C2.21064145,12.1393443 5.10917698,7.88987101 8.99734197,4.91320946 C12.3711498,2.31604883 16.4781902,0.673106572 20.7212459,0.267056204 Z" id="Shape" fill="#5C2F90"></path>
                        <path d="M20.2068888,13.1544702 C21.6170717,12.3548633 23.3071023,12.1752641 24.886132,12.4751167 C25.8538739,12.6984444 26.7418826,13.3325077 27.1389851,14.2586149 C27.3422265,14.8442644 27.3000148,15.6001428 26.7153049,15.9530943 C26.8841516,15.3643213 26.2353424,15.1691047 25.7960282,15.1128824 C25.0190206,15.1019502 24.2592103,15.5204945 23.858981,16.1857924 C22.6520396,17.8021852 22.720829,19.9808016 23.1523262,21.8580037 C24.2607737,25.4093827 27.2124647,28.054957 30.4236793,29.746313 C31.1475315,30.2117092 32.0073991,30.4069257 32.7187442,30.8973096 C25.731929,30.9441615 18.7435504,30.8535811 11.7567353,30.8660749 C11.3596328,29.023231 11.6254101,27.1007386 12.1569646,25.3109936 C12.862056,22.5482893 14.1237163,19.949567 15.7230701,17.5929131 C16.9206311,15.8562669 18.3792793,14.2445593 20.2068888,13.1544702 Z" id="Shape" fill="#FEFEFE"></path>
                    </g>
                </g>
                <g id="Group-36" transform="translate(47.000000, 57.000000)" fill="#FFFFFF">
                    <path d="M19.8213058,47.9175258 C13.5349056,47.9175258 8.68119313,46.4742412 5.26002291,43.5876289 C1.83885269,40.7010165 0.0855292554,36.6705108 0,31.4959908 L9.94272623,31.4959908 C9.98549086,33.0355174 10.2741478,34.361201 10.8087056,35.4730813 C11.3432635,36.5849616 12.0488692,37.4936964 12.9255441,38.1993127 C13.802219,38.9049291 14.8285546,39.4180969 16.0045819,39.7388316 C17.1806092,40.0595663 18.4528378,40.2199313 19.8213058,40.2199313 C22.1733604,40.2199313 24.0763578,39.5036345 25.5303551,38.0710195 C26.9843524,36.6384044 27.7113402,34.87439 27.7113402,32.7789233 C27.7113402,31.4959844 27.4761383,30.4375758 27.0057274,29.6036655 C26.5353165,28.7697553 25.8938567,28.1069135 25.0813288,27.6151203 C24.2688008,27.1233271 23.3493751,26.7919062 22.3230241,26.6208477 C21.296673,26.4497891 20.2275733,26.3642612 19.115693,26.3642612 L15.6517755,26.3642612 L15.6517755,19.5647194 C16.0366571,19.607484 16.507061,19.628866 17.0630011,19.628866 L18.3459336,19.628866 C23.8625705,19.628866 26.6208477,17.5548126 26.6208477,13.4066438 C26.6208477,11.6105294 25.9900789,10.2206998 24.7285223,9.2371134 C23.4669658,8.25352696 21.8098614,7.76174112 19.7571592,7.76174112 C17.2768108,7.76174112 15.2989764,8.36043693 13.8235968,9.55784651 C12.3482171,10.7552561 11.5036284,12.4658155 11.2898053,14.6895762 L1.79610538,14.6895762 C1.83887001,12.1236985 2.35203785,9.92135322 3.33562428,8.08247423 C4.31921072,6.24359523 5.6342033,4.72547372 7.28064147,3.52806415 C8.92707963,2.33065457 10.830077,1.44330186 12.9896907,0.865979381 C15.1493044,0.288656907 17.4264867,0 19.8213058,0 C22.1305957,0 24.279486,0.3100389 26.2680412,0.930126002 C28.2565964,1.5502131 29.9671559,2.41618383 31.3997709,3.52806415 C32.8323859,4.63994447 33.9656316,5.97631904 34.7995418,7.53722795 C35.6334521,9.09813686 36.0504009,10.8407693 36.0504009,12.7651775 C36.0504009,15.0744674 35.4089411,17.0629928 34.1260023,18.7308133 C32.8430635,20.3986338 31.175268,21.4677334 29.1225659,21.9381443 C30.3199754,22.1519675 31.4532211,22.5582253 32.5223368,23.1569301 C33.5914525,23.7556349 34.5108782,24.5146957 35.2806415,25.4341352 C36.0504048,26.3535747 36.6597916,27.4333653 37.1088202,28.6735395 C37.5578488,29.9137137 37.7823597,31.2607793 37.7823597,32.7147766 C37.7823597,34.9385373 37.3226468,36.9805176 36.4032073,38.8407789 C35.4837678,40.7010402 34.2222302,42.3046897 32.6185567,43.6517755 C31.0148832,44.9988613 29.1225768,46.0465789 26.9415808,46.7949599 C24.7605847,47.5433409 22.3871835,47.9175258 19.8213058,47.9175258 Z M53.4982818,47.7250859 C51.9159906,47.7250859 50.440633,47.532648 49.0721649,47.1477663 C47.7036969,46.7628847 46.5063052,46.1641889 45.4799542,45.3516609 C44.4536031,44.539133 43.6517784,43.5127973 43.0744559,42.2726231 C42.4971334,41.0324489 42.2084765,39.5570914 42.2084765,37.8465063 C42.2084765,35.9648627 42.5398974,34.4146682 43.2027491,33.1958763 C43.8656009,31.9770844 44.7208806,31.0042037 45.768614,30.277205 C46.8163474,29.5502064 48.013739,29.0049655 49.3608247,28.6414662 C50.7079105,28.2779669 52.0656671,27.98931 53.4341352,27.7754868 C54.8026033,27.5616637 56.1496688,27.3906077 57.4753723,27.2623139 C58.8010757,27.13402 59.9770854,26.941582 61.0034364,26.6849943 C62.0297875,26.4284065 62.8423032,26.0542216 63.441008,25.5624284 C64.0397128,25.0706352 64.3176787,24.3543384 64.2749141,23.4135166 C64.2749141,22.4726948 64.1145491,21.702943 63.7938144,21.1042383 C63.4730797,20.5055335 63.0454399,20.0458206 62.510882,19.7250859 C61.9763242,19.4043512 61.3562464,19.1905313 60.65063,19.0836197 C59.9450137,18.9767081 59.1859529,18.9232532 58.373425,18.9232532 C56.5773106,18.9232532 55.1660991,19.308129 54.139748,20.0778923 C53.1133969,20.8476556 52.5147011,22.1305752 52.3436426,23.9266896 L43.2348225,23.9266896 C43.3631163,21.8312228 43.8976662,20.0672084 44.838488,18.6345934 C45.7793098,17.2019783 46.9767014,16.0580417 48.4306987,15.2027491 C49.8846961,14.3474566 51.5097276,13.7380698 53.3058419,13.3745704 C55.1019563,13.0110711 56.9408077,12.8293242 58.8224513,12.8293242 C60.4902718,12.8293242 62.1794493,12.9469251 63.8900344,13.1821306 C65.6006195,13.417336 67.161505,13.8770489 68.5727377,14.5612829 C69.9839704,15.245517 71.138598,16.2077067 72.0366552,17.4478809 C72.9347124,18.6880551 73.3837342,20.2917046 73.3837342,22.2588774 L73.3837342,39.5143184 C73.3837342,41.0110804 73.4692622,42.443674 73.6403207,43.812142 C73.8113792,45.1806101 74.1107271,46.2069458 74.5383734,46.8911798 L65.30126,46.8911798 C65.1302015,46.3780043 64.9912186,45.8541455 64.884307,45.3195876 C64.7773954,44.7850298 64.7025584,44.239789 64.6597938,43.6838488 C63.2057965,45.1806108 61.495237,46.2283284 59.5280641,46.8270332 C57.5608913,47.425738 55.5509839,47.7250859 53.4982818,47.7250859 Z M56.8980527,41.6953036 C58.6941671,41.6953036 60.0839966,41.3959556 61.067583,40.7972509 C62.0511695,40.1985461 62.7781573,39.4822493 63.2485682,38.6483391 C63.7189791,37.8144288 64.007636,36.9698401 64.1145475,36.1145475 C64.2214591,35.259255 64.2749141,34.5750312 64.2749141,34.0618557 L64.2749141,30.6620848 C63.8900324,31.0042018 63.4196286,31.2714767 62.8636884,31.4639175 C62.3077483,31.6563584 61.6876705,31.8167233 61.0034364,31.9450172 C60.3192024,32.0733111 59.6135966,32.180221 58.8865979,32.2657503 C58.1595993,32.3512795 57.4326115,32.4581895 56.7056128,32.5864834 C55.9786142,32.7147773 55.2943904,32.8858332 54.652921,33.0996564 C54.0114515,33.3134795 53.4448287,33.6021364 52.9530355,33.9656357 C52.4612423,34.3291351 52.0656754,34.7888479 51.766323,35.3447881 C51.4669706,35.9007282 51.3172967,36.606334 51.3172967,37.4616266 C51.3172967,38.3169191 51.4669706,39.0118339 51.766323,39.5463918 C52.0656754,40.0809496 52.4719333,40.5085895 52.9851088,40.8293242 C53.4982844,41.1500589 54.0969802,41.3745698 54.7812142,41.5028637 C55.4654482,41.6311576 56.171054,41.6953036 56.8980527,41.6953036 Z M121.30126,46.8911798 L80.4398625,46.8911798 L80.4398625,13.7273769 L89.4845361,13.7273769 L89.4845361,40.0274914 L98.5292096,40.0274914 L98.5292096,13.7273769 L107.573883,13.7273769 L107.573883,40.0274914 L116.618557,40.0274914 L116.618557,13.7273769 L125.66323,13.7273769 L125.66323,40.0274914 L129.832761,40.0274914 L129.832761,56 L121.30126,56 L121.30126,46.8911798 Z M150.038946,47.7250859 C147.430304,47.7250859 145.078285,47.318828 142.982818,46.5063001 C140.887351,45.6937722 139.091264,44.5284536 137.594502,43.0103093 C136.09774,41.492165 134.943112,39.6640046 134.130584,37.5257732 C133.318056,35.3875418 132.911798,32.9927586 132.911798,30.3413517 C132.911798,27.6899447 133.318056,25.2844705 134.130584,23.1248568 C134.943112,20.9652431 136.09774,19.1263917 137.594502,17.6082474 C139.091264,16.0901031 140.887351,14.9140935 142.982818,14.0801833 C145.078285,13.246273 147.430304,12.8293242 150.038946,12.8293242 C152.647588,12.8293242 155.010299,13.246273 157.127148,14.0801833 C159.243997,14.9140935 161.050775,16.0901031 162.547537,17.6082474 C164.044299,19.1263917 165.198927,20.9652431 166.011455,23.1248568 C166.823983,25.2844705 167.230241,27.6899447 167.230241,30.3413517 C167.230241,32.9927586 166.823983,35.3875418 166.011455,37.5257732 C165.198927,39.6640046 164.044299,41.492165 162.547537,43.0103093 C161.050775,44.5284536 159.243997,45.6937722 157.127148,46.5063001 C155.010299,47.318828 152.647588,47.7250859 150.038946,47.7250859 Z M150.038946,40.9255441 C151.578473,40.9255441 152.872083,40.6261962 153.919817,40.0274914 C154.96755,39.4287866 155.801448,38.6269619 156.421535,37.6219931 C157.041622,36.6170244 157.479953,35.4837787 157.736541,34.2222222 C157.993128,32.9606657 158.12142,31.6670551 158.12142,30.3413517 C158.12142,29.0156482 157.993128,27.7113466 157.736541,26.4284078 C157.479953,25.145469 157.041622,24.0122233 156.421535,23.0286369 C155.801448,22.0450504 154.96755,21.2432257 153.919817,20.6231386 C152.872083,20.0030515 151.578473,19.6930126 150.038946,19.6930126 C148.49942,19.6930126 147.2165,20.0030515 146.190149,20.6231386 C145.163798,21.2432257 144.340591,22.0450504 143.720504,23.0286369 C143.100417,24.0122233 142.662086,25.145469 142.405498,26.4284078 C142.148911,27.7113466 142.020619,29.0156482 142.020619,30.3413517 C142.020619,31.6670551 142.148911,32.9606657 142.405498,34.2222222 C142.662086,35.4837787 143.100417,36.6170244 143.720504,37.6219931 C144.340591,38.6269619 145.163798,39.4287866 146.190149,40.0274914 C147.2165,40.6261962 148.49942,40.9255441 150.038946,40.9255441 Z" id="Защо"></path>
                    <path d="M43.6003942,93.7745954 C42.6694075,94.0538914 41.2962228,94.391369 39.4807988,94.7870384 C37.6653747,95.1827077 35.780155,95.3805394 33.825083,95.3805394 C28.8908536,95.3805394 25.3531573,94.2400978 23.211888,91.9591805 C21.0706186,89.6782631 20,86.5827789 20,82.6726349 L20,70.9422614 L29.8451349,70.9422614 L29.8451349,80.647749 C29.8451349,83.301061 30.3571698,85.1397321 31.3812552,86.1638174 C32.4053405,87.1879028 34.0810914,87.6999378 36.4085581,87.6999378 C37.8515874,87.6999378 39.2014979,87.5835662 40.4583299,87.3508195 C41.7151619,87.1180728 42.7625062,86.8853297 43.6003942,86.652583 L43.6003942,70.9422614 L53.5153527,70.9422614 L53.5153527,107.041089 L43.6003942,107.041089 L43.6003942,93.7745954 Z M71.8091494,107.948797 C70.086824,107.948797 68.4808961,107.739328 66.9913174,107.320384 C65.5017387,106.90144 64.198377,106.249759 63.0811929,105.365322 C61.9640089,104.480884 61.091222,103.363717 60.462806,102.013786 C59.83439,100.663856 59.5201867,99.0579277 59.5201867,97.1959544 C59.5201867,95.1477837 59.8809386,93.4603956 60.6024533,92.1337396 C61.323968,90.8070836 62.2549407,89.7481022 63.3953994,88.9567635 C64.5358581,88.1654248 65.8392198,87.5719297 67.3055239,87.1762604 C68.7718279,86.780591 70.249747,86.4663877 71.7393257,86.2336411 C73.2289044,86.0008944 74.6951864,85.8146999 76.1382158,85.6750519 C77.5812451,85.5354039 78.8613326,85.325935 79.9785166,85.046639 C81.0957006,84.767343 81.9801247,84.3600424 82.6318154,83.8247251 C83.283506,83.2894078 83.5860722,82.5097181 83.5395228,81.4856328 C83.5395228,80.4615474 83.3649654,79.623672 83.0158454,78.9719813 C82.6667254,78.3202907 82.2012391,77.8198928 81.6193724,77.4707728 C81.0375057,77.1216528 80.3625505,76.8889096 79.5944865,76.7725363 C78.8264225,76.656163 78.0001842,76.5979772 77.1157469,76.5979772 C75.1606749,76.5979772 73.6245699,77.0169149 72.5073859,77.8548029 C71.3902019,78.6926909 70.738521,80.08915 70.5523237,82.044222 L60.6373651,82.044222 C60.7770131,79.7633046 61.3588711,77.8431734 62.3829564,76.2837707 C63.4070418,74.7243681 64.7104036,73.4791921 66.2930809,72.5482054 C67.8757583,71.6172187 69.6446064,70.9539007 71.5996784,70.5582313 C73.5547504,70.162562 75.5563418,69.9647303 77.6045124,69.9647303 C79.4199365,69.9647303 81.2586076,70.092739 83.1205809,70.3487604 C84.9825543,70.6047817 86.6815795,71.1051795 88.2177075,71.8499689 C89.7538355,72.5947582 91.0106486,73.6421025 91.9881846,74.9920332 C92.9657207,76.3419639 93.4544813,78.0875377 93.4544813,80.2288071 L93.4544813,99.0113693 C93.4544813,100.640596 93.5475786,102.199975 93.7337759,103.689554 C93.9199733,105.179133 94.2458137,106.2963 94.7113071,107.041089 L84.6567012,107.041089 C84.4705039,106.482497 84.3192208,105.912276 84.2028475,105.33041 C84.0864742,104.748543 84.0050141,104.155048 83.9584647,103.549907 C82.3757874,105.179133 80.513842,106.319575 78.3725726,106.971266 C76.2313033,107.622956 74.0435174,107.948797 71.8091494,107.948797 Z M75.5098029,101.385373 C77.4648749,101.385373 78.9777056,101.059533 80.0483402,100.407842 C81.1189749,99.7561517 81.9103017,98.976462 82.4223444,98.06875 C82.9343871,97.161038 83.2485904,96.2417024 83.3649637,95.3107158 C83.481337,94.3797291 83.5395228,93.6349509 83.5395228,93.0763589 L83.5395228,89.3757054 C83.1205788,89.7481001 82.6085438,90.039029 82.0034025,90.248501 C81.3982612,90.457973 80.7233059,90.6325304 79.9785166,90.7721784 C79.2337273,90.9118264 78.4656748,91.028198 77.6743361,91.1212967 C76.8829974,91.2143953 76.0916706,91.3307669 75.300332,91.4704149 C74.5089933,91.6100629 73.7642151,91.7962575 73.0659751,92.0290041 C72.3677351,92.2617508 71.7509657,92.5759541 71.2156483,92.9716234 C70.680331,93.3672928 70.2497561,93.8676906 69.9239108,94.472832 C69.5980655,95.0779733 69.4351452,95.8460258 69.4351452,96.7770124 C69.4351452,97.7079991 69.5980655,98.4644144 69.9239108,99.0462811 C70.2497561,99.6281478 70.6919682,100.093634 71.2505602,100.442754 C71.8091522,100.791874 72.4608331,101.036254 73.2056224,101.175902 C73.9504117,101.31555 74.7184642,101.385373 75.5098029,101.385373 Z M101.135083,70.9422614 L111.050041,70.9422614 L111.050041,85.6750519 L124.316535,70.9422614 L135.977085,70.9422614 L120.895176,86.8620539 L137.932147,107.041089 L125.922479,107.041089 L113.144751,92.0290041 L111.050041,94.3331846 L111.050041,107.041089 L101.135083,107.041089 L101.135083,70.9422614 Z M151.966701,107.948797 C150.244376,107.948797 148.638448,107.739328 147.148869,107.320384 C145.659291,106.90144 144.355929,106.249759 143.238745,105.365322 C142.121561,104.480884 141.248774,103.363717 140.620358,102.013786 C139.991942,100.663856 139.677739,99.0579277 139.677739,97.1959544 C139.677739,95.1477837 140.038491,93.4603956 140.760005,92.1337396 C141.48152,90.8070836 142.412493,89.7481022 143.552951,88.9567635 C144.69341,88.1654248 145.996772,87.5719297 147.463076,87.1762604 C148.92938,86.780591 150.407299,86.4663877 151.896878,86.2336411 C153.386456,86.0008944 154.852738,85.8146999 156.295768,85.6750519 C157.738797,85.5354039 159.018884,85.325935 160.136068,85.046639 C161.253252,84.767343 162.137677,84.3600424 162.789367,83.8247251 C163.441058,83.2894078 163.743624,82.5097181 163.697075,81.4856328 C163.697075,80.4615474 163.522517,79.623672 163.173397,78.9719813 C162.824277,78.3202907 162.358791,77.8198928 161.776924,77.4707728 C161.195058,77.1216528 160.520102,76.8889096 159.752038,76.7725363 C158.983974,76.656163 158.157736,76.5979772 157.273299,76.5979772 C155.318227,76.5979772 153.782122,77.0169149 152.664938,77.8548029 C151.547754,78.6926909 150.896073,80.08915 150.709876,82.044222 L140.794917,82.044222 C140.934565,79.7633046 141.516423,77.8431734 142.540508,76.2837707 C143.564594,74.7243681 144.867955,73.4791921 146.450633,72.5482054 C148.03331,71.6172187 149.802158,70.9539007 151.75723,70.5582313 C153.712302,70.162562 155.713894,69.9647303 157.762064,69.9647303 C159.577488,69.9647303 161.416159,70.092739 163.278133,70.3487604 C165.140106,70.6047817 166.839131,71.1051795 168.375259,71.8499689 C169.911387,72.5947582 171.168201,73.6421025 172.145737,74.9920332 C173.123273,76.3419639 173.612033,78.0875377 173.612033,80.2288071 L173.612033,99.0113693 C173.612033,100.640596 173.70513,102.199975 173.891328,103.689554 C174.077525,105.179133 174.403366,106.2963 174.868859,107.041089 L164.814253,107.041089 C164.628056,106.482497 164.476773,105.912276 164.360399,105.33041 C164.244026,104.748543 164.162566,104.155048 164.116017,103.549907 C162.533339,105.179133 160.671394,106.319575 158.530124,106.971266 C156.388855,107.622956 154.201069,107.948797 151.966701,107.948797 Z M155.667355,101.385373 C157.622427,101.385373 159.135257,101.059533 160.205892,100.407842 C161.276527,99.7561517 162.067854,98.976462 162.579896,98.06875 C163.091939,97.161038 163.406142,96.2417024 163.522516,95.3107158 C163.638889,94.3797291 163.697075,93.6349509 163.697075,93.0763589 L163.697075,89.3757054 C163.278131,89.7481001 162.766096,90.039029 162.160954,90.248501 C161.555813,90.457973 160.880858,90.6325304 160.136068,90.7721784 C159.391279,90.9118264 158.623227,91.028198 157.831888,91.1212967 C157.040549,91.2143953 156.249222,91.3307669 155.457884,91.4704149 C154.666545,91.6100629 153.921767,91.7962575 153.223527,92.0290041 C152.525287,92.2617508 151.908518,92.5759541 151.3732,92.9716234 C150.837883,93.3672928 150.407308,93.8676906 150.081463,94.472832 C149.755617,95.0779733 149.592697,95.8460258 149.592697,96.7770124 C149.592697,97.7079991 149.755617,98.4644144 150.081463,99.0462811 C150.407308,99.6281478 150.84952,100.093634 151.408112,100.442754 C151.966704,100.791874 152.618385,101.036254 153.363174,101.175902 C154.107964,101.31555 154.876016,101.385373 155.667355,101.385373 Z M190.090415,78.4133921 L178.220394,78.4133921 L178.220394,70.9422614 L211.875394,70.9422614 L211.875394,78.4133921 L200.005373,78.4133921 L200.005373,107.041089 L190.090415,107.041089 L190.090415,78.4133921 Z M233.031961,107.948797 C230.192451,107.948797 227.632276,107.494947 225.351359,106.587235 C223.070442,105.679523 221.138673,104.387799 219.555996,102.712023 C217.973319,101.036247 216.751417,99.0346555 215.890254,96.7071888 C215.029091,94.3797221 214.598517,91.8195472 214.598517,89.0265871 C214.598517,86.3267258 215.040729,83.8130995 215.925166,81.4856328 C216.809603,79.1581661 218.066416,77.1449376 219.695643,75.4458869 C221.32487,73.7468362 223.268275,72.408563 225.525918,71.431027 C227.783561,70.453491 230.28555,69.9647303 233.031961,69.9647303 C235.918019,69.9647303 238.466557,70.5000396 240.67765,71.5706743 C242.888744,72.6413089 244.727415,74.0726795 246.193719,75.8648288 C247.660023,77.6569782 248.765553,79.7400296 249.510342,82.1140456 C250.255132,84.4880617 250.627521,86.9551393 250.627521,89.5153527 L250.627521,90.457972 C250.627521,90.7605427 250.604246,91.074746 250.557697,91.4005913 L224.513475,91.4005913 C224.653123,94.6124953 225.467724,96.9399271 226.957303,98.3829564 C228.446882,99.8259858 230.588119,100.54749 233.381079,100.54749 C235.3827,100.54749 237.105,100.047092 238.548029,99.0462811 C239.991058,98.0454704 240.875482,96.986489 241.201328,95.869305 L249.929284,95.869305 C248.532804,100.198393 246.391567,103.293877 243.505508,105.155851 C240.61945,107.017824 237.128302,107.948797 233.031961,107.948797 Z M240.642739,85.1164627 C240.177245,82.6027986 239.351007,80.6943046 238.163999,79.3909232 C236.976991,78.0875419 235.173231,77.435861 232.752666,77.435861 C231.123439,77.435861 229.796803,77.7035156 228.772718,78.238833 C227.748633,78.7741503 226.922394,79.4374684 226.293978,80.2288071 C225.665562,81.0201457 225.22335,81.8580212 224.967329,82.7424585 C224.711308,83.6268958 224.560024,84.4182226 224.513475,85.1164627 L240.642739,85.1164627 Z M266.128371,96.2882469 L266.128371,107.041089 L277.090685,107.041089 L277.090685,96.2882469 L266.128371,96.2882469 Z M254.886763,73.2464419 L265.15084,73.2464419 C265.15084,71.9896099 265.290486,70.8142569 265.569782,69.7203475 C265.849078,68.6264382 266.279653,67.6721911 266.86152,66.8575778 C267.443386,66.0429645 268.188165,65.3912836 269.095877,64.9025156 C270.003589,64.4137476 271.085844,64.1693672 272.342676,64.1693672 C274.20465,64.1693672 275.659295,64.6814022 276.706655,65.7054876 C277.754015,66.7295729 278.277687,68.3122265 278.277687,70.4534959 C278.324236,71.7103279 278.10313,72.7576722 277.614362,73.5955602 C277.125594,74.4334482 276.48555,75.2015007 275.694212,75.8997407 C274.902873,76.5979807 274.041723,77.2962102 273.110737,77.9944502 C272.17975,78.6926902 271.295326,79.5189285 270.457438,80.4731898 C269.61955,81.4274512 268.886409,82.5795299 268.257993,83.9294606 C267.629577,85.2793913 267.24555,86.9551421 267.105902,88.9567635 L267.105902,92.0988278 L276.532095,92.0988278 L276.532095,89.445529 C276.718293,88.049049 277.172142,86.8853331 277.893657,85.9543465 C278.615171,85.0233598 279.44141,84.1971215 280.372396,83.4756068 C281.303383,82.7540922 282.292541,82.0325883 283.339901,81.3110737 C284.387261,80.589559 285.341508,79.7167721 286.202671,78.6926867 C287.063834,77.6686014 287.785338,76.4350625 288.367204,74.9920332 C288.949071,73.5490038 289.24,71.7103327 289.24,69.4759647 C289.24,68.1260341 288.949071,66.6713892 288.367204,65.1119865 C287.785338,63.5525838 286.819453,62.097939 285.469523,60.7480083 C284.119592,59.3980776 282.339107,58.2692732 280.128013,57.3615612 C277.91692,56.4538492 275.158913,56 271.853911,56 C269.293697,56 266.977903,56.4305749 264.906457,57.2917376 C262.835012,58.1529002 261.066164,59.3515276 259.59986,60.8876556 C258.133556,62.4237836 256.993114,64.2391804 256.178501,66.3339004 C255.363888,68.4286204 254.933313,70.7327779 254.886763,73.2464419 Z" id="чакате?"></path>
                </g>
                <path d="M395.021487,57 L415.8412,57 L415.8412,82.8526528 L411.315176,82.8526528 L411.315176,60.9104853 L399.547512,60.9104853 L399.547512,82.8526528 L395.021487,82.8526528 L395.021487,57 Z M420.801723,64.1330148 L424.712209,64.1330148 L424.712209,66.6675886 L424.784625,66.6675886 C425.363959,65.5813373 426.172601,64.8028688 427.210574,64.3321599 C428.248548,63.861451 429.370991,63.6261001 430.577936,63.6261001 C432.050411,63.6261001 433.335789,63.8855896 434.434109,64.4045763 C435.53243,64.9235631 436.443661,65.6356505 437.167828,66.5408599 C437.891996,67.4460694 438.435113,68.5021313 438.797197,69.7090772 C439.159281,70.9160231 439.34032,72.2074359 439.34032,73.5833543 C439.34032,74.8385781 439.177385,76.0575752 438.85151,77.2403822 C438.525634,78.4231892 438.030794,79.4671818 437.366973,80.3723912 C436.703153,81.2776007 435.864338,82.0017574 434.850504,82.5448831 C433.836669,83.0880088 432.641811,83.3595675 431.265892,83.3595675 C430.662419,83.3595675 430.058955,83.3052558 429.455482,83.1966306 C428.852009,83.0880055 428.272684,82.913001 427.717489,82.6716118 C427.162294,82.4302226 426.649349,82.122456 426.178641,81.7483027 C425.707932,81.3741495 425.31568,80.9336208 425.001874,80.4267035 L424.929458,80.4267035 L424.929458,89.7684184 L420.801723,89.7684184 L420.801723,64.1330148 Z M435.212586,73.5109379 C435.212586,72.6660757 435.103962,71.8453648 434.886712,71.0487805 C434.669462,70.2521962 434.343591,69.5461434 433.909091,68.930601 C433.47459,68.3150585 432.931473,67.8202181 432.279722,67.4460649 C431.627971,67.0719116 430.879676,66.8848378 430.034814,66.8848378 C428.296811,66.8848378 426.987295,67.4883017 426.106224,68.6952477 C425.225154,69.9021936 424.784625,71.5074076 424.784625,73.5109379 C424.784625,74.4523557 424.899283,75.3273784 425.128603,76.1360322 C425.357923,76.944686 425.701897,77.6386695 426.160536,78.2180035 C426.619176,78.7973376 427.168328,79.2559701 427.808009,79.593915 C428.447691,79.9318599 429.189951,80.1008298 430.034814,80.1008298 C430.976231,80.1008298 431.772804,79.9077213 432.424555,79.5214986 C433.076305,79.1352759 433.613388,78.6344009 434.035819,78.0188584 C434.45825,77.403316 434.759982,76.7032979 434.941024,75.918783 C435.122066,75.1342681 435.212586,74.3316611 435.212586,73.5109379 Z M451.39765,83.3595675 C449.901037,83.3595675 448.567382,83.1121473 447.396644,82.6172995 C446.225906,82.1224516 445.236226,81.4405374 444.427572,80.5715363 C443.618918,79.7025353 443.003385,78.6645773 442.580954,77.4576314 C442.158523,76.2506854 441.94731,74.9230648 441.94731,73.4747297 C441.94731,72.0505335 442.158523,70.7349821 442.580954,69.5280362 C443.003385,68.3210903 443.618918,67.2831323 444.427572,66.4141313 C445.236226,65.5451302 446.225906,64.863216 447.396644,64.3683681 C448.567382,63.8735203 449.901037,63.6261001 451.39765,63.6261001 C452.894263,63.6261001 454.227918,63.8735203 455.398656,64.3683681 C456.569393,64.863216 457.559074,65.5451302 458.367728,66.4141313 C459.176382,67.2831323 459.791915,68.3210903 460.214346,69.5280362 C460.636777,70.7349821 460.847989,72.0505335 460.847989,73.4747297 C460.847989,74.9230648 460.636777,76.2506854 460.214346,77.4576314 C459.791915,78.6645773 459.176382,79.7025353 458.367728,80.5715363 C457.559074,81.4405374 456.569393,82.1224516 455.398656,82.6172995 C454.227918,83.1121473 452.894263,83.3595675 451.39765,83.3595675 Z M451.39765,80.1008298 C452.314929,80.1008298 453.111501,79.9077213 453.787391,79.5214986 C454.463281,79.1352759 455.018467,78.6283662 455.452968,78.0007543 C455.887468,77.3731424 456.207304,76.6670897 456.412485,75.8825748 C456.617666,75.0980599 456.720255,74.2954529 456.720255,73.4747297 C456.720255,72.6781454 456.617666,71.881573 456.412485,71.0849887 C456.207304,70.2884044 455.887468,69.5823516 455.452968,68.9668092 C455.018467,68.3512667 454.463281,67.8503917 453.787391,67.464169 C453.111501,67.0779463 452.314929,66.8848378 451.39765,66.8848378 C450.480371,66.8848378 449.683799,67.0779463 449.007909,67.464169 C448.332019,67.8503917 447.776832,68.3512667 447.342332,68.9668092 C446.907831,69.5823516 446.587995,70.2884044 446.382815,71.0849887 C446.177634,71.881573 446.075045,72.6781454 446.075045,73.4747297 C446.075045,74.2954529 446.177634,75.0980599 446.382815,75.8825748 C446.587995,76.6670897 446.907831,77.3731424 447.342332,78.0007543 C447.776832,78.6283662 448.332019,79.1352759 449.007909,79.5214986 C449.683799,79.9077213 450.480371,80.1008298 451.39765,80.1008298 Z M468.524127,71.7729444 L472.941527,71.7729444 C473.738111,71.7729444 474.395887,71.5738013 474.914874,71.1755092 C475.433861,70.777217 475.69335,70.2159956 475.69335,69.491828 C475.69335,68.6469659 475.457999,68.0555712 474.98729,67.7176264 C474.516581,67.3796815 473.834667,67.2107116 472.941527,67.2107116 L468.524127,67.2107116 L468.524127,71.7729444 Z M464.396393,64.1330148 L474.245022,64.1330148 C475.934747,64.1330148 477.286506,64.5131971 478.30034,65.273573 C479.314175,66.033949 479.821085,67.1986343 479.821085,68.7676641 C479.821085,69.7090819 479.585734,70.5177236 479.115025,71.1936133 C478.644316,71.869503 477.98654,72.388482 477.141678,72.7505658 L477.141678,72.8229821 C478.300346,73.0643713 479.175369,73.6074889 479.766772,74.452351 C480.358176,75.2972132 480.653873,76.3593097 480.653873,77.6386724 C480.653873,78.3628399 480.521111,79.0447542 480.255583,79.6844355 C479.990055,80.3241169 479.579699,80.8793037 479.024504,81.3500126 C478.469309,81.8207215 477.757222,82.1888345 476.888221,82.4543626 C476.01922,82.7198907 474.981262,82.8526528 473.774316,82.8526528 L464.396393,82.8526528 L464.396393,64.1330148 Z M468.524127,79.774956 L473.412234,79.774956 C474.426068,79.774956 475.198502,79.5396051 475.729558,79.0688962 C476.260615,78.5981872 476.526139,77.9404116 476.526139,77.0955494 C476.526139,76.2506873 476.260615,75.6049809 475.729558,75.1584109 C475.198502,74.7118409 474.426068,74.4885592 473.412234,74.4885592 L468.524127,74.4885592 L468.524127,79.774956 Z M496.98377,71.8453608 C496.935492,71.19361 496.796695,70.5660075 496.567376,69.9625346 C496.338056,69.3590616 496.024255,68.834048 495.625963,68.387478 C495.22767,67.940908 494.744899,67.5788297 494.177635,67.3012321 C493.61037,67.0236345 492.976733,66.8848378 492.276704,66.8848378 C491.552537,66.8848378 490.894761,67.0115652 490.303358,67.2650239 C489.711954,67.5184825 489.205044,67.8684916 488.782613,68.3150616 C488.360182,68.7616316 488.022242,69.2866452 487.768784,69.8901182 C487.515325,70.4935911 487.376529,71.1453322 487.35239,71.8453608 L496.98377,71.8453608 Z M487.35239,74.5609756 C487.35239,75.2851432 487.454978,75.9851613 487.660159,76.661051 C487.86534,77.3369408 488.173107,77.9283354 488.583468,78.4352527 C488.99383,78.94217 489.512809,79.3464908 490.140421,79.6482273 C490.768033,79.9499638 491.516328,80.1008298 492.385329,80.1008298 C493.592275,80.1008298 494.563852,79.8413403 495.300089,79.3223535 C496.036326,78.8033668 496.585478,78.0248983 496.947562,76.9869248 L500.858047,76.9869248 C500.640797,78.0007594 500.266649,78.9059553 499.735593,79.7025396 C499.204537,80.4991239 498.564865,81.1689689 497.816559,81.7120945 C497.068252,82.2552202 496.229437,82.6655757 495.300089,82.9431732 C494.37074,83.2207708 493.399164,83.3595675 492.385329,83.3595675 C490.912855,83.3595675 489.609373,83.1181819 488.474844,82.6354036 C487.340315,82.1526252 486.380807,81.4767456 485.596292,80.6077445 C484.811777,79.7387435 484.220383,78.7007855 483.82209,77.4938396 C483.423798,76.2868936 483.224655,74.959273 483.224655,73.5109379 C483.224655,72.1832974 483.435867,70.9220578 483.858299,69.7271813 C484.28073,68.5323048 484.884194,67.4822776 485.668708,66.5770681 C486.453223,65.6718587 487.400662,64.9537366 488.511052,64.4226804 C489.621442,63.8916242 490.876647,63.6261001 492.276704,63.6261001 C493.749178,63.6261001 495.070764,63.9338667 496.241502,64.5494091 C497.41224,65.1649515 498.383816,65.9796278 499.156262,66.9934624 C499.928707,68.007297 500.489929,69.1719824 500.839943,70.4875534 C501.189957,71.8031245 501.280477,73.1609183 501.111504,74.5609756 L487.35239,74.5609756 Z M504.370242,64.1330148 L508.280728,64.1330148 L508.280728,66.6675886 L508.353144,66.6675886 C508.932478,65.5813373 509.74112,64.8028688 510.779093,64.3321599 C511.817067,63.861451 512.93951,63.6261001 514.146455,63.6261001 C515.61893,63.6261001 516.904308,63.8855896 518.002628,64.4045763 C519.100949,64.9235631 520.01218,65.6356505 520.736347,66.5408599 C521.460515,67.4460694 522.003632,68.5021313 522.365716,69.7090772 C522.7278,70.9160231 522.908839,72.2074359 522.908839,73.5833543 C522.908839,74.8385781 522.745904,76.0575752 522.420029,77.2403822 C522.094153,78.4231892 521.599313,79.4671818 520.935492,80.3723912 C520.271672,81.2776007 519.432857,82.0017574 518.419023,82.5448831 C517.405188,83.0880088 516.21033,83.3595675 514.834411,83.3595675 C514.230938,83.3595675 513.627474,83.3052558 513.024001,83.1966306 C512.420528,83.0880055 511.841203,82.913001 511.286008,82.6716118 C510.730813,82.4302226 510.217868,82.122456 509.74716,81.7483027 C509.276451,81.3741495 508.884199,80.9336208 508.570393,80.4267035 L508.497977,80.4267035 L508.497977,89.7684184 L504.370242,89.7684184 L504.370242,64.1330148 Z M518.781105,73.5109379 C518.781105,72.6660757 518.672481,71.8453648 518.455231,71.0487805 C518.237981,70.2521962 517.91211,69.5461434 517.47761,68.930601 C517.043109,68.3150585 516.499992,67.8202181 515.848241,67.4460649 C515.19649,67.0719116 514.448195,66.8848378 513.603333,66.8848378 C511.86533,66.8848378 510.555814,67.4883017 509.674743,68.6952477 C508.793673,69.9021936 508.353144,71.5074076 508.353144,73.5109379 C508.353144,74.4523557 508.467802,75.3273784 508.697122,76.1360322 C508.926442,76.944686 509.270416,77.6386695 509.729055,78.2180035 C510.187695,78.7973376 510.736847,79.2559701 511.376528,79.593915 C512.01621,79.9318599 512.75847,80.1008298 513.603333,80.1008298 C514.54475,80.1008298 515.341323,79.9077213 515.993074,79.5214986 C516.644824,79.1352759 517.181907,78.6344009 517.604338,78.0188584 C518.026769,77.403316 518.328501,76.7032979 518.509543,75.918783 C518.690585,75.1342681 518.781105,74.3316611 518.781105,73.5109379 Z M539.238736,71.8453608 C539.190458,71.19361 539.051662,70.5660075 538.822342,69.9625346 C538.593022,69.3590616 538.279221,68.834048 537.880929,68.387478 C537.482637,67.940908 536.999865,67.5788297 536.432601,67.3012321 C535.865336,67.0236345 535.231699,66.8848378 534.53167,66.8848378 C533.807503,66.8848378 533.149727,67.0115652 532.558324,67.2650239 C531.96692,67.5184825 531.460011,67.8684916 531.037579,68.3150616 C530.615148,68.7616316 530.277209,69.2866452 530.02375,69.8901182 C529.770291,70.4935911 529.631495,71.1453322 529.607356,71.8453608 L539.238736,71.8453608 Z M529.607356,74.5609756 C529.607356,75.2851432 529.709945,75.9851613 529.915125,76.661051 C530.120306,77.3369408 530.428073,77.9283354 530.838434,78.4352527 C531.248796,78.94217 531.767775,79.3464908 532.395387,79.6482273 C533.022999,79.9499638 533.771294,80.1008298 534.640295,80.1008298 C535.847241,80.1008298 536.818818,79.8413403 537.555055,79.3223535 C538.291292,78.8033668 538.840444,78.0248983 539.202528,76.9869248 L543.113013,76.9869248 C542.895763,78.0007594 542.521615,78.9059553 541.990559,79.7025396 C541.459503,80.4991239 540.819831,81.1689689 540.071525,81.7120945 C539.323218,82.2552202 538.484403,82.6655757 537.555055,82.9431732 C536.625707,83.2207708 535.65413,83.3595675 534.640295,83.3595675 C533.167821,83.3595675 531.864339,83.1181819 530.72981,82.6354036 C529.595281,82.1526252 528.635773,81.4767456 527.851258,80.6077445 C527.066743,79.7387435 526.475349,78.7007855 526.077056,77.4938396 C525.678764,76.2868936 525.479621,74.959273 525.479621,73.5109379 C525.479621,72.1832974 525.690834,70.9220578 526.113265,69.7271813 C526.535696,68.5323048 527.13916,67.4822776 527.923674,66.5770681 C528.708189,65.6718587 529.655628,64.9537366 530.766018,64.4226804 C531.876408,63.8916242 533.131613,63.6261001 534.53167,63.6261001 C536.004144,63.6261001 537.32573,63.9338667 538.496468,64.5494091 C539.667206,65.1649515 540.638783,65.9796278 541.411228,66.9934624 C542.183673,68.007297 542.744895,69.1719824 543.094909,70.4875534 C543.444923,71.8031245 543.535443,73.1609183 543.366471,74.5609756 L529.607356,74.5609756 Z M561.398153,67.2107116 L555.206551,67.2107116 L555.206551,82.8526528 L551.078817,82.8526528 L551.078817,67.2107116 L544.633757,67.2107116 L544.633757,64.1330148 L561.398153,64.1330148 L561.398153,67.2107116 Z M576.786637,71.8453608 C576.738359,71.19361 576.599562,70.5660075 576.370242,69.9625346 C576.140923,69.3590616 575.827121,68.834048 575.428829,68.387478 C575.030537,67.940908 574.547766,67.5788297 573.980501,67.3012321 C573.413237,67.0236345 572.7796,66.8848378 572.079571,66.8848378 C571.355403,66.8848378 570.697628,67.0115652 570.106224,67.2650239 C569.514821,67.5184825 569.007911,67.8684916 568.58548,68.3150616 C568.163049,68.7616316 567.825109,69.2866452 567.57165,69.8901182 C567.318192,70.4935911 567.179395,71.1453322 567.155256,71.8453608 L576.786637,71.8453608 Z M567.155256,74.5609756 C567.155256,75.2851432 567.257845,75.9851613 567.463026,76.661051 C567.668207,77.3369408 567.975973,77.9283354 568.386335,78.4352527 C568.796696,78.94217 569.315675,79.3464908 569.943287,79.6482273 C570.570899,79.9499638 571.319194,80.1008298 572.188195,80.1008298 C573.395141,80.1008298 574.366718,79.8413403 575.102955,79.3223535 C575.839192,78.8033668 576.388345,78.0248983 576.750428,76.9869248 L580.660914,76.9869248 C580.443663,78.0007594 580.069516,78.9059553 579.538459,79.7025396 C579.007403,80.4991239 578.367732,81.1689689 577.619425,81.7120945 C576.871119,82.2552202 576.032304,82.6655757 575.102955,82.9431732 C574.173607,83.2207708 573.20203,83.3595675 572.188195,83.3595675 C570.715721,83.3595675 569.412239,83.1181819 568.27771,82.6354036 C567.143181,82.1526252 566.183673,81.4767456 565.399159,80.6077445 C564.614644,79.7387435 564.023249,78.7007855 563.624957,77.4938396 C563.226665,76.2868936 563.027522,74.959273 563.027522,73.5109379 C563.027522,72.1832974 563.238734,70.9220578 563.661165,69.7271813 C564.083596,68.5323048 564.68706,67.4822776 565.471575,66.5770681 C566.25609,65.6718587 567.203528,64.9537366 568.313918,64.4226804 C569.424309,63.8916242 570.679514,63.6261001 572.079571,63.6261001 C573.552045,63.6261001 574.873631,63.9338667 576.044368,64.5494091 C577.215106,65.1649515 578.186683,65.9796278 578.959128,66.9934624 C579.731574,68.007297 580.292795,69.1719824 580.642809,70.4875534 C580.992824,71.8031245 581.083343,73.1609183 580.914371,74.5609756 L567.155256,74.5609756 Z M407.187441,110.628363 C407.018469,109.469695 406.553801,108.594672 405.793426,108.003269 C405.03305,107.411865 404.073542,107.116168 402.914874,107.116168 C402.383818,107.116168 401.816562,107.206688 401.213089,107.387729 C400.609616,107.568771 400.054429,107.906711 399.547512,108.401559 C399.040594,108.896407 398.618169,109.584356 398.280225,110.465426 C397.94228,111.346497 397.77331,112.499113 397.77331,113.923309 C397.77331,114.695754 397.863829,115.468188 398.044871,116.240634 C398.225913,117.013079 398.515576,117.701028 398.913868,118.304501 C399.31216,118.907974 399.825105,119.39678 400.452716,119.770933 C401.080328,120.145086 401.840693,120.33216 402.733833,120.33216 C403.940779,120.33216 404.936494,119.958012 405.721009,119.209706 C406.505524,118.461399 406.99433,117.411372 407.187441,116.059593 L411.315176,116.059593 C410.928953,118.497623 410.005653,120.362327 408.545249,121.653759 C407.084844,122.945191 405.147725,123.590898 402.733833,123.590898 C401.261359,123.590898 399.963911,123.343477 398.841452,122.84863 C397.718992,122.353782 396.771554,121.677902 395.999108,120.820971 C395.226663,119.964039 394.641303,118.944185 394.243011,117.761378 C393.844718,116.578571 393.645575,115.299227 393.645575,113.923309 C393.645575,112.523252 393.838684,111.2077 394.224907,109.976616 C394.611129,108.745531 395.190455,107.6774 395.9629,106.77219 C396.735345,105.866981 397.694853,105.154893 398.841452,104.635906 C399.98805,104.11692 401.333775,103.85743 402.878666,103.85743 C403.964917,103.85743 404.99684,103.996227 405.974467,104.273824 C406.952093,104.551422 407.821081,104.967812 408.581457,105.523007 C409.341833,106.078202 409.9634,106.778221 410.446179,107.623083 C410.928957,108.467945 411.21862,109.469695 411.315176,110.628363 L407.187441,110.628363 Z M418.918897,112.004275 L423.336297,112.004275 C424.132881,112.004275 424.790657,111.805131 425.309644,111.406839 C425.828631,111.008547 426.08812,110.447326 426.08812,109.723158 C426.08812,108.878296 425.852769,108.286901 425.38206,107.948956 C424.911351,107.611012 424.229437,107.442042 423.336297,107.442042 L418.918897,107.442042 L418.918897,112.004275 Z M414.791163,104.364345 L424.639792,104.364345 C426.329516,104.364345 427.681276,104.744527 428.69511,105.504903 C429.708945,106.265279 430.215855,107.429964 430.215855,108.998994 C430.215855,109.940412 429.980504,110.749054 429.509795,111.424943 C429.039086,112.100833 428.38131,112.619812 427.536448,112.981896 L427.536448,113.054312 C428.695116,113.295701 429.570139,113.838819 430.161542,114.683681 C430.752946,115.528543 431.048643,116.59064 431.048643,117.870003 C431.048643,118.59417 430.915881,119.276084 430.650353,119.915766 C430.384825,120.555447 429.974469,121.110634 429.419274,121.581343 C428.864079,122.052052 428.151992,122.420165 427.282991,122.685693 C426.413989,122.951221 425.376032,123.083983 424.169086,123.083983 L414.791163,123.083983 L414.791163,104.364345 Z M418.918897,120.006286 L423.807004,120.006286 C424.820838,120.006286 425.593272,119.770935 426.124328,119.300226 C426.655384,118.829517 426.920909,118.171742 426.920909,117.32688 C426.920909,116.482017 426.655384,115.836311 426.124328,115.389741 C425.593272,114.943171 424.820838,114.719889 423.807004,114.719889 L418.918897,114.719889 L418.918897,120.006286 Z M443.105973,123.590898 C441.60936,123.590898 440.275704,123.343477 439.104967,122.84863 C437.934229,122.353782 436.944549,121.671868 436.135895,120.802866 C435.327241,119.933865 434.711708,118.895907 434.289277,117.688962 C433.866846,116.482016 433.655633,115.154395 433.655633,113.70606 C433.655633,112.281864 433.866846,110.966312 434.289277,109.759366 C434.711708,108.55242 435.327241,107.514462 436.135895,106.645461 C436.944549,105.77646 437.934229,105.094546 439.104967,104.599698 C440.275704,104.10485 441.60936,103.85743 443.105973,103.85743 C444.602586,103.85743 445.936241,104.10485 447.106978,104.599698 C448.277716,105.094546 449.267397,105.77646 450.076051,106.645461 C450.884704,107.514462 451.500238,108.55242 451.922669,109.759366 C452.3451,110.966312 452.556312,112.281864 452.556312,113.70606 C452.556312,115.154395 452.3451,116.482016 451.922669,117.688962 C451.500238,118.895907 450.884704,119.933865 450.076051,120.802866 C449.267397,121.671868 448.277716,122.353782 447.106978,122.84863 C445.936241,123.343477 444.602586,123.590898 443.105973,123.590898 Z M443.105973,120.33216 C444.023252,120.33216 444.819824,120.139051 445.495714,119.752829 C446.171603,119.366606 446.72679,118.859696 447.161291,118.232084 C447.595791,117.604473 447.915627,116.89842 448.120808,116.113905 C448.325989,115.32939 448.428578,114.526783 448.428578,113.70606 C448.428578,112.909476 448.325989,112.112903 448.120808,111.316319 C447.915627,110.519735 447.595791,109.813682 447.161291,109.198139 C446.72679,108.582597 446.171603,108.081722 445.495714,107.695499 C444.819824,107.309276 444.023252,107.116168 443.105973,107.116168 C442.188694,107.116168 441.392121,107.309276 440.716232,107.695499 C440.040342,108.081722 439.485155,108.582597 439.050655,109.198139 C438.616154,109.813682 438.296318,110.519735 438.091137,111.316319 C437.885957,112.112903 437.783368,112.909476 437.783368,113.70606 C437.783368,114.526783 437.885957,115.32939 438.091137,116.113905 C438.296318,116.89842 438.616154,117.604473 439.050655,118.232084 C439.485155,118.859696 440.040342,119.366606 440.716232,119.752829 C441.392121,120.139051 442.188694,120.33216 443.105973,120.33216 Z M471.27595,123.083983 L467.148216,123.083983 L467.148216,115.806135 L463.092898,115.806135 L458.675497,123.083983 L453.642558,123.083983 L459.001371,115.480262 C458.180648,115.263011 457.510803,114.94921 456.991816,114.538848 C456.47283,114.128487 456.068509,113.681923 455.778842,113.199145 C455.489175,112.716367 455.290032,112.209457 455.181406,111.678401 C455.072781,111.147345 455.01847,110.640435 455.01847,110.157657 C455.01847,109.578322 455.102954,108.95072 455.271927,108.27483 C455.440899,107.598941 455.76677,106.971338 456.249548,106.392004 C456.732327,105.81267 457.402172,105.329899 458.259103,104.943676 C459.116035,104.557453 460.244512,104.364345 461.64457,104.364345 L471.27595,104.364345 L471.27595,123.083983 Z M467.148216,107.442042 L461.825611,107.442042 C461.101443,107.442042 460.473841,107.659289 459.942784,108.093789 C459.411728,108.52829 459.146204,109.228308 459.146204,110.193865 C459.146204,111.159421 459.411728,111.823232 459.942784,112.185316 C460.473841,112.547399 461.101443,112.728439 461.825611,112.728439 L467.148216,112.728439 L467.148216,107.442042 Z M498.432098,110.628363 C498.263125,109.469695 497.798458,108.594672 497.038082,108.003269 C496.277706,107.411865 495.318199,107.116168 494.159531,107.116168 C493.628474,107.116168 493.061218,107.206688 492.457745,107.387729 C491.854272,107.568771 491.299086,107.906711 490.792168,108.401559 C490.285251,108.896407 489.862826,109.584356 489.524881,110.465426 C489.186937,111.346497 489.017967,112.499113 489.017967,113.923309 C489.017967,114.695754 489.108486,115.468188 489.289528,116.240634 C489.47057,117.013079 489.760233,117.701028 490.158525,118.304501 C490.556817,118.907974 491.069761,119.39678 491.697373,119.770933 C492.324985,120.145086 493.08535,120.33216 493.97849,120.33216 C495.185436,120.33216 496.181151,119.958012 496.965666,119.209706 C497.750181,118.461399 498.238987,117.411372 498.432098,116.059593 L502.559832,116.059593 C502.17361,118.497623 501.25031,120.362327 499.789905,121.653759 C498.329501,122.945191 496.392382,123.590898 493.97849,123.590898 C492.506016,123.590898 491.208568,123.343477 490.086108,122.84863 C488.963649,122.353782 488.01621,121.677902 487.243765,120.820971 C486.47132,119.964039 485.88596,118.944185 485.487667,117.761378 C485.089375,116.578571 484.890232,115.299227 484.890232,113.923309 C484.890232,112.523252 485.083341,111.2077 485.469563,109.976616 C485.855786,108.745531 486.435111,107.6774 487.207557,106.77219 C487.980002,105.866981 488.93951,105.154893 490.086108,104.635906 C491.232707,104.11692 492.578432,103.85743 494.123322,103.85743 C495.209574,103.85743 496.241497,103.996227 497.219123,104.273824 C498.19675,104.551422 499.065738,104.967812 499.826113,105.523007 C500.586489,106.078202 501.208057,106.778221 501.690836,107.623083 C502.173614,108.467945 502.463277,109.469695 502.559832,110.628363 L498.432098,110.628363 Z M505.347864,120.114911 C505.975475,120.114911 506.572905,119.897664 507.140169,119.463163 C507.707434,119.028663 508.111755,118.40106 508.353144,117.580337 C508.497977,117.121697 508.612636,116.6691 508.697122,116.22253 C508.781608,115.77596 508.854024,115.299223 508.914371,114.792306 C508.974718,114.285388 509.016961,113.718132 509.0411,113.09052 C509.065239,112.462909 509.089377,111.738752 509.113516,110.918029 C509.137655,110.097305 509.155759,109.161936 509.167828,108.111893 C509.179898,107.06185 509.185932,105.81268 509.185932,104.364345 L524.719249,104.364345 L524.719249,123.083983 L520.591515,123.083983 L520.591515,107.442042 L513.386083,107.442042 C513.386083,109.011071 513.367979,110.393004 513.331771,111.58788 C513.295563,112.782757 513.247286,113.838819 513.186938,114.756098 C513.126591,115.673376 513.048141,116.475983 512.951585,117.163943 C512.855029,117.851902 512.722267,118.4614 512.553295,118.992457 C512.384322,119.59593 512.17311,120.157151 511.919651,120.676138 C511.666193,121.195125 511.292045,121.641688 510.797197,122.015841 C510.302349,122.389994 509.638539,122.685692 508.805746,122.902942 C507.972954,123.120192 506.880684,123.228816 505.528905,123.228816 C505.142682,123.228816 504.816811,123.222781 504.551283,123.210712 C504.285755,123.198642 504.020231,123.168469 503.754703,123.120191 L503.754703,120.006286 C504.020231,120.054564 504.255582,120.084737 504.460763,120.096807 C504.665944,120.108876 504.961641,120.114911 505.347864,120.114911 Z M527.145198,104.364345 L531.671223,104.364345 L536.559329,118.340709 L536.631746,118.340709 L541.37502,104.364345 L545.683795,104.364345 L538.405948,124.097812 C538.068003,124.942675 537.736098,125.751316 537.410222,126.523762 C537.084347,127.296207 536.686061,127.978121 536.215352,128.569525 C535.744643,129.160928 535.159283,129.63163 534.459254,129.981644 C533.759225,130.331659 532.866099,130.506663 531.779847,130.506663 C530.814291,130.506663 529.860818,130.434248 528.9194,130.289414 L528.9194,126.813427 C529.257345,126.861705 529.583215,126.916017 529.897021,126.976364 C530.210827,127.036711 530.536698,127.066885 530.874643,127.066885 C531.357421,127.066885 531.755707,127.006538 532.069513,126.885844 C532.383319,126.765149 532.642808,126.590144 532.847989,126.360825 C533.05317,126.131505 533.228175,125.859946 533.373008,125.54614 C533.517842,125.232334 533.650604,124.870256 533.771298,124.459894 L534.242005,123.011567 L527.145198,104.364345 Z M553.034059,113.235353 L546.552792,104.364345 L551.549523,104.364345 L555.460008,110.121448 L559.551535,104.364345 L564.331017,104.364345 L557.958374,113.018104 L565.127597,123.083983 L560.167074,123.083983 L555.4238,116.168217 L550.825359,123.083983 L545.973461,123.083983 L553.034059,113.235353 Z M403.132123,163.822228 C401.63551,163.822228 400.301855,163.574808 399.131117,163.07996 C397.96038,162.585112 396.970699,161.903198 396.162045,161.034197 C395.353391,160.165196 394.737858,159.127238 394.315427,157.920292 C393.892996,156.713346 393.681784,155.385725 393.681784,153.93739 C393.681784,152.513194 393.892996,151.197642 394.315427,149.990697 C394.737858,148.783751 395.353391,147.745793 396.162045,146.876792 C396.970699,146.00779 397.96038,145.325876 399.131117,144.831028 C400.301855,144.336181 401.63551,144.08876 403.132123,144.08876 C404.628736,144.08876 405.962391,144.336181 407.133129,144.831028 C408.303866,145.325876 409.293547,146.00779 410.102201,146.876792 C410.910855,147.745793 411.526388,148.783751 411.948819,149.990697 C412.37125,151.197642 412.582463,152.513194 412.582463,153.93739 C412.582463,155.385725 412.37125,156.713346 411.948819,157.920292 C411.526388,159.127238 410.910855,160.165196 410.102201,161.034197 C409.293547,161.903198 408.303866,162.585112 407.133129,163.07996 C405.962391,163.574808 404.628736,163.822228 403.132123,163.822228 Z M403.132123,160.56349 C404.049402,160.56349 404.845974,160.370382 405.521864,159.984159 C406.197754,159.597936 406.752941,159.091027 407.187441,158.463415 C407.621942,157.835803 407.941778,157.12975 408.146958,156.345235 C408.352139,155.56072 408.454728,154.758113 408.454728,153.93739 C408.454728,153.140806 408.352139,152.344233 408.146958,151.547649 C407.941778,150.751065 407.621942,150.045012 407.187441,149.429469 C406.752941,148.813927 406.197754,148.313052 405.521864,147.926829 C404.845974,147.540607 404.049402,147.347498 403.132123,147.347498 C402.214844,147.347498 401.418272,147.540607 400.742382,147.926829 C400.066492,148.313052 399.511306,148.813927 399.076805,149.429469 C398.642304,150.045012 398.322469,150.751065 398.117288,151.547649 C397.912107,152.344233 397.809518,153.140806 397.809518,153.93739 C397.809518,154.758113 397.912107,155.56072 398.117288,156.345235 C398.322469,157.12975 398.642304,157.835803 399.076805,158.463415 C399.511306,159.091027 400.066492,159.597936 400.742382,159.984159 C401.418272,160.370382 402.214844,160.56349 403.132123,160.56349 Z M443.35943,163.315313 L416.130866,163.315313 L416.130866,144.595675 L420.2586,144.595675 L420.2586,160.237616 L427.934738,160.237616 L427.934738,144.595675 L432.062473,144.595675 L432.062473,160.237616 L439.702402,160.237616 L439.702402,144.595675 L443.830137,144.595675 L443.830137,160.237616 L447.161291,160.237616 L447.161291,169 L443.35943,169 L443.35943,163.315313 Z M462.549775,152.308021 C462.501497,151.65627 462.3627,151.028668 462.13338,150.425195 C461.904061,149.821722 461.590259,149.296708 461.191967,148.850138 C460.793675,148.403568 460.310904,148.04149 459.743639,147.763892 C459.176375,147.486295 458.542738,147.347498 457.842709,147.347498 C457.118541,147.347498 456.460766,147.474226 455.869362,147.727684 C455.277959,147.981143 454.771049,148.331152 454.348618,148.777722 C453.926187,149.224292 453.588247,149.749306 453.334788,150.352778 C453.08133,150.956251 452.942533,151.607992 452.918394,152.308021 L462.549775,152.308021 Z M452.918394,155.023636 C452.918394,155.747803 453.020983,156.447822 453.226164,157.123711 C453.431345,157.799601 453.739111,158.390996 454.149473,158.897913 C454.559834,159.40483 455.078813,159.809151 455.706425,160.110888 C456.334037,160.412624 457.082332,160.56349 457.951334,160.56349 C459.158279,160.56349 460.129856,160.304001 460.866093,159.785014 C461.60233,159.266027 462.151483,158.487559 462.513566,157.449585 L466.424052,157.449585 C466.206801,158.46342 465.832654,159.368616 465.301598,160.1652 C464.770541,160.961784 464.13087,161.631629 463.382563,162.174755 C462.634257,162.717881 461.795442,163.128236 460.866093,163.405834 C459.936745,163.683431 458.965168,163.822228 457.951334,163.822228 C456.478859,163.822228 455.175377,163.580842 454.040848,163.098064 C452.906319,162.615285 451.946811,161.939406 451.162297,161.070405 C450.377782,160.201404 449.786387,159.163446 449.388095,157.9565 C448.989803,156.749554 448.79066,155.421933 448.79066,153.973598 C448.79066,152.645958 449.001872,151.384718 449.424303,150.189842 C449.846734,148.994965 450.450198,147.944938 451.234713,147.039728 C452.019228,146.134519 452.966666,145.416397 454.077056,144.885341 C455.187447,144.354284 456.442652,144.08876 457.842709,144.08876 C459.315183,144.08876 460.636769,144.396527 461.807507,145.012069 C462.978244,145.627612 463.949821,146.442288 464.722266,147.456123 C465.494712,148.469957 466.055933,149.634643 466.405948,150.950214 C466.755962,152.265785 466.846481,153.623579 466.677509,155.023636 L452.918394,155.023636 Z M481.884952,169 L478.083091,169 L478.083091,160.237616 L480.436624,160.237616 C480.798708,160.141061 481.136648,159.960021 481.450453,159.694493 C482.029788,159.259993 482.440143,158.63239 482.681532,157.811667 C482.826366,157.353028 482.941024,156.90043 483.02551,156.45386 C483.109996,156.00729 483.182412,155.530553 483.242759,155.023636 C483.303107,154.516719 483.345349,153.949463 483.369488,153.321851 C483.393627,152.694239 483.417765,151.970082 483.441904,151.149359 C483.466043,150.328636 483.484147,149.393267 483.496217,148.343224 C483.508286,147.293181 483.514321,146.04401 483.514321,144.595675 L499.047637,144.595675 L499.047637,160.237616 L502.378791,160.237616 L502.378791,169 L498.576931,169 L498.576931,163.315313 L481.884952,163.315313 L481.884952,169 Z M494.919903,147.673372 L487.678263,147.673372 C487.678263,149.242402 487.666194,150.624334 487.642055,151.81921 C487.617916,153.014087 487.575674,154.070149 487.515326,154.987428 C487.454979,155.904707 487.376529,156.707314 487.279973,157.395273 C487.183418,158.083232 487.050655,158.692731 486.881683,159.223787 C486.785127,159.585871 486.676504,159.92381 486.555809,160.237616 L494.919903,160.237616 L494.919903,147.673372 Z M505.02199,144.595675 L509.149724,144.595675 L509.149724,152.344229 L518.455231,152.344229 L518.455231,144.595675 L522.582965,144.595675 L522.582965,163.315313 L518.455231,163.315313 L518.455231,155.421926 L509.149724,155.421926 L509.149724,163.315313 L505.02199,163.315313 L505.02199,144.595675 Z M539.890484,152.308021 C539.842206,151.65627 539.703409,151.028668 539.474089,150.425195 C539.24477,149.821722 538.930968,149.296708 538.532676,148.850138 C538.134384,148.403568 537.651613,148.04149 537.084348,147.763892 C536.517084,147.486295 535.883447,147.347498 535.183418,147.347498 C534.45925,147.347498 533.801475,147.474226 533.210071,147.727684 C532.618668,147.981143 532.111758,148.331152 531.689327,148.777722 C531.266896,149.224292 530.928956,149.749306 530.675497,150.352778 C530.422039,150.956251 530.283242,151.607992 530.259103,152.308021 L539.890484,152.308021 Z M530.259103,155.023636 C530.259103,155.747803 530.361692,156.447822 530.566873,157.123711 C530.772054,157.799601 531.07982,158.390996 531.490182,158.897913 C531.900544,159.40483 532.419522,159.809151 533.047134,160.110888 C533.674746,160.412624 534.423042,160.56349 535.292043,160.56349 C536.498989,160.56349 537.470565,160.304001 538.206802,159.785014 C538.943039,159.266027 539.492192,158.487559 539.854275,157.449585 L543.764761,157.449585 C543.54751,158.46342 543.173363,159.368616 542.642307,160.1652 C542.11125,160.961784 541.471579,161.631629 540.723272,162.174755 C539.974966,162.717881 539.136151,163.128236 538.206802,163.405834 C537.277454,163.683431 536.305877,163.822228 535.292043,163.822228 C533.819569,163.822228 532.516086,163.580842 531.381557,163.098064 C530.247028,162.615285 529.28752,161.939406 528.503006,161.070405 C527.718491,160.201404 527.127096,159.163446 526.728804,157.9565 C526.330512,156.749554 526.131369,155.421933 526.131369,153.973598 C526.131369,152.645958 526.342581,151.384718 526.765012,150.189842 C527.187443,148.994965 527.790907,147.944938 528.575422,147.039728 C529.359937,146.134519 530.307375,145.416397 531.417765,144.885341 C532.528156,144.354284 533.783361,144.08876 535.183418,144.08876 C536.655892,144.08876 537.977478,144.396527 539.148216,145.012069 C540.318953,145.627612 541.29053,146.442288 542.062975,147.456123 C542.835421,148.469957 543.396642,149.634643 543.746657,150.950214 C544.096671,152.265785 544.187191,153.623579 544.018218,155.023636 L530.259103,155.023636 Z M559.804992,150.859693 C559.63602,149.701025 559.171352,148.826002 558.410976,148.234599 C557.650601,147.643195 556.691093,147.347498 555.532425,147.347498 C555.001369,147.347498 554.434112,147.438018 553.83064,147.61906 C553.227167,147.800101 552.67198,148.138041 552.165062,148.632889 C551.658145,149.127737 551.23572,149.815686 550.897776,150.696756 C550.559831,151.577827 550.390861,152.730443 550.390861,154.154639 C550.390861,154.927085 550.48138,155.699518 550.662422,156.471964 C550.843464,157.244409 551.133127,157.932358 551.531419,158.535831 C551.929711,159.139304 552.442655,159.62811 553.070267,160.002263 C553.697879,160.376416 554.458244,160.56349 555.351384,160.56349 C556.55833,160.56349 557.554045,160.189342 558.33856,159.441036 C559.123075,158.692729 559.611881,157.642702 559.804992,156.290923 L563.932727,156.290923 C563.546504,158.728954 562.623204,160.593657 561.162799,161.885089 C559.702395,163.176521 557.765276,163.822228 555.351384,163.822228 C553.87891,163.822228 552.581462,163.574808 551.459003,163.07996 C550.336543,162.585112 549.389105,161.909232 548.616659,161.052301 C547.844214,160.195369 547.258854,159.175515 546.860562,157.992708 C546.462269,156.809901 546.263126,155.530558 546.263126,154.154639 C546.263126,152.754582 546.456235,151.439031 546.842457,150.207946 C547.22868,148.976861 547.808006,147.90873 548.580451,147.00352 C549.352896,146.098311 550.312404,145.386223 551.459003,144.867237 C552.605601,144.34825 553.951326,144.08876 555.496217,144.08876 C556.582468,144.08876 557.614391,144.227557 558.592017,144.505155 C559.569644,144.782752 560.438632,145.199142 561.199008,145.754337 C561.959384,146.309533 562.580951,147.009551 563.06373,147.854413 C563.546508,148.699275 563.836171,149.701025 563.932727,150.859693 L559.804992,150.859693 Z" id="Проверете-своя-слух-Copy" fill="#FFFFFF"></path>
            </g>
        </g>
    </g>
</svg>