<svg xmlns="http://www.w3.org/2000/svg" width="25" height="25" viewBox="0 0 25 25">
    <g fill="none" fill-rule="evenodd">
        <circle cx="12.5" cy="12.5" r="12.5" fill="#1C9AD6"/>
        <g fill="#FFF" fill-rule="nonzero">
            <path d="M10.826 13.114a.277.277 0 0 0-.28-.274h-.979a.277.277 0 0 0-.28.274v.956c0 .152.125.274.28.274h.979c.155 0 .28-.122.28-.274v-.956zM13.271 13.114a.277.277 0 0 0-.28-.274h-.978a.277.277 0 0 0-.28.274v.956c0 .152.125.274.28.274h.978c.155 0 .28-.122.28-.274v-.956zM15.717 13.114a.277.277 0 0 0-.28-.274h-.979a.277.277 0 0 0-.28.274v.956c0 .152.125.274.28.274h.979c.154 0 .28-.122.28-.274v-.956zM10.826 15.504a.277.277 0 0 0-.28-.274h-.979a.277.277 0 0 0-.28.274v.957c0 .151.125.274.28.274h.979c.155 0 .28-.123.28-.274v-.957zM13.271 15.504a.277.277 0 0 0-.28-.274h-.978a.277.277 0 0 0-.28.274v.957c0 .151.125.274.28.274h.978c.155 0 .28-.123.28-.274v-.957zM15.717 15.504a.277.277 0 0 0-.28-.274h-.979a.277.277 0 0 0-.28.274v.957c0 .151.125.274.28.274h.979c.154 0 .28-.123.28-.274v-.957z"/>
            <path d="M17.467 7.796v1.461c0 .66-.548 1.192-1.224 1.192h-.771c-.676 0-1.231-.532-1.231-1.192V7.791h-3.478v1.466c0 .66-.555 1.192-1.23 1.192H8.76c-.676 0-1.224-.532-1.224-1.192v-1.46c-.59.017-1.075.494-1.075 1.08v8.562a1.1 1.1 0 0 0 1.107 1.088h9.866c.61 0 1.107-.492 1.107-1.088V8.878c0-.587-.485-1.064-1.075-1.082zm-.359 9.11a.473.473 0 0 1-.479.467H8.353a.473.473 0 0 1-.478-.467v-4.422c0-.259.214-.469.478-.469h8.276c.265 0 .48.21.48.469v4.422z"/>
            <path d="M8.758 9.666h.763c.232 0 .42-.183.42-.41V6.862a.415.415 0 0 0-.42-.41h-.763a.415.415 0 0 0-.42.41v2.394c0 .227.188.41.42.41zM15.462 9.666h.763c.232 0 .42-.183.42-.41V6.862a.415.415 0 0 0-.42-.41h-.763a.415.415 0 0 0-.42.41v2.394c0 .227.188.41.42.41z"/>
        </g>
    </g>
</svg>
