<svg xmlns="http://www.w3.org/2000/svg" width="14" height="20" viewBox="0 0 14 20">
    <g fill="#FFF" fill-rule="nonzero">
        <path d="M11.961 2.172C10.604.772 8.841 0 7 0 3.14 0 0 3.127 0 6.97c0 .502.409.909.913.909a.911.911 0 0 0 .913-.91c0-2.84 2.321-5.15 5.174-5.15 2.961 0 5.174 2.719 5.174 5.15 0 2.72-2.93 7.074-4.065 8.529-.88 1.096-2.043 2.378-2.49 2.684H3.348a.911.911 0 0 0-.913.909c0 .502.409.909.913.909h2.434c.511 0 1.05-.29 2.43-1.816.694-.768 1.301-1.524 1.327-1.556l.008-.01C9.729 16.387 14 10.874 14 6.97c0-1.713-.743-3.462-2.039-4.798z"/>
        <path d="M4.565 13.333a.911.911 0 0 0-.913.91c0 .501.409.909.913.909 1.51 0 2.74-1.224 2.74-2.728a2.733 2.733 0 0 0-1.827-2.57V6.97A1.52 1.52 0 0 1 7 5.455c.84 0 1.522.68 1.522 1.515 0 .502.409.909.913.909a.911.911 0 0 0 .913-.91A3.344 3.344 0 0 0 7 3.637 3.344 3.344 0 0 0 3.652 6.97v3.636c0 .502.409.91.913.91s.913.407.913.908c0 .502-.41.91-.913.91z"/>
    </g>
</svg>
