<svg xmlns="http://www.w3.org/2000/svg" width="25" height="25" viewBox="0 0 25 25">
    <path fill="#1C9AD6" fill-rule="nonzero" d="M12.5 0C5.596 0 0 5.596 0 12.5 0 19.403 5.596 25 12.5 25 19.403 25 25 19.403 25 12.5 25 5.596 19.403 0 12.5 0zm0 4.39l7.397 4.613H5.103L12.5 4.391zm7.489 11.979c0 .74-.6 1.339-1.34 1.339H6.35c-.74 0-1.34-.6-1.34-1.34V9.298c0-.079.009-.155.022-.23l7.067 4.407a.766.766 0 0 0 .055.029c.05.026.101.047.154.06l.016.004a.762.762 0 0 0 .175.022.749.749 0 0 0 .175-.022l.017-.004a.75.75 0 0 0 .182-.075c.009-.005.018-.008.027-.014l7.067-4.407c.013.075.021.151.021.23v7.072z"/>
</svg>
