<?xml version="1.0" encoding="UTF-8"?>
<svg width="38px" height="38px" viewBox="0 0 38 38" version="1.1" xmlns="http://www.w3.org/2000/svg" xmlns:xlink="http://www.w3.org/1999/xlink">
    <!-- Generator: sketchtool 44.1 (41455) - http://www.bohemiancoding.com/sketch -->
    <title>C553D2F0-DE69-4B86-8E54-D00C0EB1B910</title>
    <desc>Created with sketchtool.</desc>
    <defs></defs>
    <g id="Page-1" stroke="none" stroke-width="1" fill="none" fill-rule="evenodd">
        <g id="Fonio---index" transform="translate(-1323.000000, -2213.000000)" fill="#39579A">
            <g id="Group-28" transform="translate(-15.000000, 2156.000000)">
                <path d="M1368.875,57 C1370.83768,57 1372.51584,57.6968246 1373.90951,59.0904948 C1375.30318,60.484165 1376,62.1623166 1376,64.125 L1376,87.875 C1376,89.8376834 1375.30318,91.515835 1373.90951,92.9095052 C1372.51584,94.3031754 1370.83768,95 1368.875,95 L1364.22396,95 L1364.13672,85.4257812 L1369.0599,85.4257812 L1369.80208,79.6861979 L1364.13672,79.6861979 L1364.13672,76.0247396 C1364.13672,75.1011239 1364.33051,74.4084224 1364.7181,73.9466146 C1365.10569,73.4848067 1365.86024,73.2539062 1366.98177,73.2539062 L1370,73.2291667 L1370,68.1080729 C1368.96093,67.9596347 1367.49307,67.8854167 1365.59635,67.8854167 C1363.35329,67.8854167 1361.55969,68.5451323 1360.21549,69.8645833 C1358.8713,71.1840344 1358.19922,73.047731 1358.19922,75.4557292 L1358.19922,79.6861979 L1353.2513,79.6861979 L1353.2513,85.4257812 L1358.19922,85.4257812 L1358.28646,95 L1345.125,95 C1343.16232,95 1341.48416,94.3031754 1340.09049,92.9095052 C1338.69682,91.515835 1338,89.8376834 1338,87.875 L1338,64.125 C1338,62.1623166 1338.69682,60.484165 1340.09049,59.0904948 C1341.48416,57.6968246 1343.16232,57 1345.125,57 L1368.875,57 Z" id=""></path>
            </g>
        </g>
    </g>
</svg>