<?xml version="1.0" encoding="UTF-8"?>
<svg width="38px" height="38px" viewBox="0 0 38 38" version="1.1" xmlns="http://www.w3.org/2000/svg" xmlns:xlink="http://www.w3.org/1999/xlink">
    <!-- Generator: sketchtool 44.1 (41455) - http://www.bohemiancoding.com/sketch -->
    <title>2CFA7655-0875-4798-A61C-34B334E71206</title>
    <desc>Created with sketchtool.</desc>
    <defs></defs>
    <g id="Page-1" stroke="none" stroke-width="1" fill="none" fill-rule="evenodd">
        <g id="Fonio---index" transform="translate(-1323.000000, -2261.000000)" fill="#DF4A32">
            <g id="Group-28" transform="translate(-15.000000, 2156.000000)">
                <path d="M1359.59312,124.156631 C1359.59312,123.854969 1359.55831,123.483699 1359.4887,123.042808 L1353.18864,123.042808 L1353.18864,125.340069 L1356.96519,125.340069 C1356.93039,125.618526 1356.83467,125.908581 1356.67804,126.210243 C1356.5214,126.511905 1356.30386,126.819364 1356.0254,127.132628 C1355.74695,127.445893 1355.36117,127.704042 1354.86807,127.907084 C1354.37497,128.110126 1353.81516,128.211645 1353.18864,128.211645 C1352.04,128.211645 1351.05961,127.799766 1350.24745,126.975997 C1349.43528,126.152228 1349.0292,125.160239 1349.0292,124 C1349.0292,122.839761 1349.43528,121.847772 1350.24745,121.024003 C1351.05961,120.200234 1352.04,119.788355 1353.18864,119.788355 C1354.25605,119.788355 1355.14362,120.13062 1355.85137,120.815161 L1357.66133,119.057408 C1356.40828,117.89717 1354.91739,117.317059 1353.18864,117.317059 C1351.33225,117.317059 1349.75435,117.969684 1348.45489,119.274952 C1347.15542,120.58022 1346.50569,122.155221 1346.50569,124 C1346.50569,125.844779 1347.15542,127.41978 1348.45489,128.725048 C1349.75435,130.030316 1351.33225,130.682941 1353.18864,130.682941 C1355.10303,130.682941 1356.64902,130.073825 1357.82667,128.855574 C1359.00431,127.637324 1359.59312,126.071025 1359.59312,124.156631 Z M1365.59732,124.957192 L1367.49431,124.957192 L1367.49431,123.042808 L1365.59732,123.042808 L1365.59732,121.128424 L1363.68294,121.128424 L1363.68294,123.042808 L1361.76856,123.042808 L1361.76856,124.957192 L1363.68294,124.957192 L1363.68294,126.871576 L1365.59732,126.871576 L1365.59732,124.957192 Z M1376,112.125 L1376,135.875 C1376,137.837683 1375.30318,139.515835 1373.90951,140.909505 C1372.51584,142.303175 1370.83768,143 1368.875,143 L1345.125,143 C1343.16232,143 1341.48416,142.303175 1340.09049,140.909505 C1338.69682,139.515835 1338,137.837683 1338,135.875 L1338,112.125 C1338,110.162317 1338.69682,108.484165 1340.09049,107.090495 C1341.48416,105.696825 1343.16232,105 1345.125,105 L1368.875,105 C1370.83768,105 1372.51584,105.696825 1373.90951,107.090495 C1375.30318,108.484165 1376,110.162317 1376,112.125 Z" id=""></path>
            </g>
        </g>
    </g>
</svg>