<?xml version="1.0" encoding="UTF-8"?>
<svg width="22px" height="22px" viewBox="0 0 22 22" version="1.1" xmlns="http://www.w3.org/2000/svg" xmlns:xlink="http://www.w3.org/1999/xlink">
    <!-- Generator: sketchtool 44.1 (41455) - http://www.bohemiancoding.com/sketch -->
    <title>E4243339-1334-4800-BF3B-B993D9F978E7</title>
    <desc>Created with sketchtool.</desc>
    <defs></defs>
    <g id="Page-1" stroke="none" stroke-width="1" fill="none" fill-rule="evenodd">
        <g id="Fonio---index" transform="translate(-1135.000000, -2250.000000)">
            <g id="Group-28" transform="translate(-15.000000, 2156.000000)">
                <g id="Group-26" transform="translate(1150.000000, 94.000000)">
                    <g id="Group-44">
                        <circle id="Oval-4" fill="#1C9AD6" cx="11" cy="11" r="11"></circle>
                        <path d="M15.4536283,6.63970866 L6.56599878,6.63970866 C5.803287,6.63970866 5.18276021,7.2394777 5.18276021,7.9766727 L5.18276021,14.211551 C5.18276021,14.948746 5.803287,15.5485151 6.56599878,15.5485151 L15.4536283,15.5485151 C16.2163401,15.5485151 16.8368364,14.948746 16.8368364,14.211551 L16.8368364,7.9766727 C16.8368364,7.2394777 16.2163401,6.63970866 15.4536283,6.63970866 Z M15.4536283,14.3681927 L6.56599878,14.3681927 C6.45388551,14.3681927 6.35555767,14.2950134 6.35555767,14.211551 L6.35555767,8.80113642 L10.3751964,12.2166797 C10.4576039,12.286728 10.5623975,12.3252822 10.6703019,12.3252822 L11.3491727,12.3253129 C11.4570162,12.3253129 11.5618707,12.286728 11.6443087,12.2166797 L15.6641304,8.80101363 L15.6641304,14.2116124 C15.6640694,14.2950134 15.5657111,14.3681927 15.4536283,14.3681927 Z M11.0098136,11.1533091 L7.10021421,7.82003104 L14.9194129,7.82003104 L11.0098136,11.1533091 Z" id="Shape" fill="#FFFFFF" fill-rule="nonzero"></path>
                    </g>
                </g>
            </g>
        </g>
    </g>
</svg>