<?xml version="1.0" encoding="UTF-8"?>
<svg width="37px" height="37px" viewBox="0 0 37 37" version="1.1" xmlns="http://www.w3.org/2000/svg" xmlns:xlink="http://www.w3.org/1999/xlink">
    <!-- Generator: sketchtool 44.1 (41455) - http://www.bohemiancoding.com/sketch -->
    <title>A7FA382E-9FA4-442C-8D08-A8D4731B2609</title>
    <desc>Created with sketchtool.</desc>
    <defs></defs>
    <g id="Page-1" stroke="none" stroke-width="1" fill="none" fill-rule="evenodd">
        <g id="Fonio---index" transform="translate(-1049.000000, -1184.000000)" fill-rule="nonzero" fill="#FFFFFF">
            <g id="Group-61" transform="translate(-3.000000, 1104.000000)">
                <g id="002-headphones" transform="translate(1052.000000, 80.000000)">
                    <path d="M18.5,0 C8.2991,0 0,8.26668164 0,18.4277344 C0,19.9215371 0.973607843,21.1922559 2.32156863,21.6457949 L2.32156863,28.9785156 C2.32156863,32.1264785 4.89263333,34.6875 8.05294118,34.6875 L8.30461373,34.6875 C8.75993137,36.0301953 10.0356333,37 11.5352941,37 C13.4154745,37 14.945098,35.4763516 14.945098,33.6035156 L14.945098,24.3535156 C14.945098,22.4806797 13.4154745,20.9570313 11.5352941,20.9570313 C10.0356333,20.9570313 8.75993137,21.9268359 8.30461373,23.2695313 L8.05294118,23.2695313 C6.71078431,23.2695313 5.4758549,23.7326816 4.49803922,24.505418 L4.49803922,21.6458672 C5.846,21.1923281 6.81960784,19.9216094 6.81960784,18.4278066 C6.81960784,12.0123535 12.0593882,6.79304102 18.5,6.79304102 C24.9405392,6.79304102 30.1803922,12.0123535 30.1803922,18.4278066 C30.1803922,19.9216094 31.154,21.1923281 32.5019608,21.6458672 L32.5019608,24.505418 C31.5241451,23.7326816 30.2892157,23.2695313 28.9470588,23.2695313 L28.6953863,23.2695313 C28.2400686,21.9268359 26.9643667,20.9570313 25.4647059,20.9570313 C23.5845255,20.9570313 22.054902,22.4806797 22.054902,24.3535156 L22.054902,33.6035156 C22.054902,35.4763516 23.5845255,37 25.4647059,37 C26.9643667,37 28.2400686,36.0301953 28.6953863,34.6875 L28.9470588,34.6875 C32.1073667,34.6875 34.6784314,32.1264785 34.6784314,28.9785156 L34.6784314,21.6457949 C36.0263922,21.1922559 37,19.9215371 37,18.4277344 C37,8.26668164 28.7009,0 18.5,0 Z M8.05294118,25.4375 L8.1254902,25.4375 L8.1254902,32.5195312 L8.05294118,32.5195312 C6.09273922,32.5195312 4.49803922,30.9310605 4.49803922,28.9785156 C4.49803922,27.0259707 6.09273922,25.4375 8.05294118,25.4375 Z M28.9470588,32.5195312 L28.8745098,32.5195312 L28.8745098,25.4375 L28.9470588,25.4375 C30.9072608,25.4375 32.5019608,27.0259707 32.5019608,28.9785156 C32.5019608,30.9310605 30.9072608,32.5195312 28.9470588,32.5195312 Z" id="Shape"></path>
                </g>
            </g>
        </g>
    </g>
</svg>