<svg xmlns="http://www.w3.org/2000/svg" width="25" height="23" viewBox="0 0 25 23">
    <g fill="#FFF" fill-rule="nonzero">
        <path d="M22.833 2.196C19.993-.639 15.4-.686 12.5 2.054 9.6-.686 5.008-.64 2.167 2.196a7.393 7.393 0 0 0 0 10.458L12.5 22.966l10.333-10.312a7.393 7.393 0 0 0 0-10.458zm-1.036 9.424L12.5 20.898 3.203 11.62A5.93 5.93 0 0 1 7.407 1.495c1.522 0 3.044.579 4.203 1.735l.89.888.89-.888a5.96 5.96 0 0 1 8.407 0 5.931 5.931 0 0 1 0 8.39z"/>
        <path d="M4.721 4.747a5.163 5.163 0 0 0-1.527 3.678H4.66c0-.999.39-1.938 1.097-2.644a3.726 3.726 0 0 1 2.65-1.095V3.224A5.184 5.184 0 0 0 4.72 4.747z"/>
    </g>
</svg>
