<?xml version="1.0" encoding="UTF-8"?>
<svg width="38px" height="38px" viewBox="0 0 38 38" version="1.1" xmlns="http://www.w3.org/2000/svg" xmlns:xlink="http://www.w3.org/1999/xlink">
    <!-- Generator: sketchtool 44.1 (41455) - http://www.bohemiancoding.com/sketch -->
    <title>D3480BF1-B082-44FD-8322-FF3D3A1A4B49</title>
    <desc>Created with sketchtool.</desc>
    <defs></defs>
    <g id="Page-1" stroke="none" stroke-width="1" fill="none" fill-rule="evenodd">
        <g id="Fonio---index" transform="translate(-1371.000000, -2261.000000)" fill="#007AB8">
            <g id="Group-28" transform="translate(-15.000000, 2156.000000)">
                <path d="M1395.6879,133.063477 L1399.7167,133.063477 L1399.7167,120.959633 L1395.6879,120.959633 L1395.6879,133.063477 Z M1399.97831,117.227323 C1399.96668,116.62271 1399.7574,116.122748 1399.35044,115.727423 C1398.94349,115.332099 1398.40284,115.13444 1397.72846,115.13444 C1397.05408,115.13444 1396.50471,115.332099 1396.08031,115.727423 C1395.65592,116.122748 1395.44373,116.62271 1395.44373,117.227323 C1395.44373,117.82031 1395.65011,118.317365 1396.06287,118.718503 C1396.47564,119.119641 1397.01339,119.320207 1397.67614,119.320207 L1397.69358,119.320207 C1398.37958,119.320207 1398.93187,119.119641 1399.35044,118.718503 C1399.76902,118.317365 1399.97831,117.82031 1399.97831,117.227323 Z M1405.96047,122.665942 L1405.96047,122.721143 L1405.92559,122.721143 C1405.93715,122.702617 1405.94877,122.684217 1405.96047,122.665942 L1405.96047,122.665942 Z M1405.96047,122.665942 L1405.96047,120.959633 L1401.93167,120.959633 C1401.96655,121.727027 1401.96655,125.761602 1401.93167,133.063477 L1405.96047,133.063477 L1405.96047,126.296486 C1405.96047,125.854653 1406.00116,125.529097 1406.08255,125.319807 C1406.25696,124.912856 1406.51857,124.566952 1406.86738,124.282086 C1407.2162,123.99722 1407.6464,123.854789 1408.158,123.854789 C1409.50675,123.854789 1410.18112,124.767509 1410.18112,126.592978 L1410.18112,133.063477 L1414.20992,133.063477 L1414.20992,126.122079 C1414.20992,124.331492 1413.78553,122.976945 1412.93675,122.058397 C1412.08796,121.139849 1410.96596,120.680582 1409.57069,120.680582 C1408.01093,120.680582 1406.80753,121.342362 1405.96047,122.665942 L1405.96047,122.665942 Z M1424,112.125 L1424,135.875 C1424,137.837683 1423.30318,139.515835 1421.90951,140.909505 C1420.51584,142.303175 1418.83768,143 1416.875,143 L1393.125,143 C1391.16232,143 1389.48416,142.303175 1388.09049,140.909505 C1386.69682,139.515835 1386,137.837683 1386,135.875 L1386,112.125 C1386,110.162317 1386.69682,108.484165 1388.09049,107.090495 C1389.48416,105.696825 1391.16232,105 1393.125,105 L1416.875,105 C1418.83768,105 1420.51584,105.696825 1421.90951,107.090495 C1423.30318,108.484165 1424,110.162317 1424,112.125 Z" id=""></path>
            </g>
        </g>
    </g>
</svg>