<?xml version="1.0" encoding="UTF-8"?>
<svg width="28px" height="37px" viewBox="0 0 28 37" version="1.1" xmlns="http://www.w3.org/2000/svg" xmlns:xlink="http://www.w3.org/1999/xlink">
    <!-- Generator: sketchtool 44.1 (41455) - http://www.bohemiancoding.com/sketch -->
    <title>4DECB66E-FFB9-4238-8301-B9CA96344B6D</title>
    <desc>Created with sketchtool.</desc>
    <defs></defs>
    <g id="Page-1" stroke="none" stroke-width="1" fill="none" fill-rule="evenodd">
        <g id="Fonio---index" transform="translate(-1255.000000, -1184.000000)" fill-rule="nonzero" fill="#FFFFFF">
            <path d="M1268.6613,1184 C1261.12882,1184 1255,1190.08713 1255,1197.56912 C1255,1199.52072 1255.40218,1201.38405 1256.19478,1203.10782 C1259.61048,1210.53134 1266.15934,1218.36902 1268.08556,1220.59408 C1268.22988,1220.76042 1268.44027,1220.85623 1268.66168,1220.85623 C1268.88309,1220.85623 1269.09349,1220.76042 1269.2378,1220.59408 C1271.16327,1218.3694 1277.71212,1210.5321 1281.12897,1203.10782 C1281.92194,1201.38405 1282.32374,1199.52072 1282.32374,1197.56912 C1282.32298,1190.08713 1276.19416,1184 1268.6613,1184 Z M1268.6613,1204.61696 C1264.74847,1204.61696 1261.56481,1201.45496 1261.56481,1197.56874 C1261.56481,1193.68215 1264.74847,1190.52015 1268.6613,1190.52015 C1272.57413,1190.52015 1275.7578,1193.68215 1275.7578,1197.56874 C1275.75818,1201.45496 1272.57451,1204.61696 1268.6613,1204.61696 Z" id="Shape"></path>
        </g>
    </g>
</svg>