<svg xmlns="http://www.w3.org/2000/svg" width="25" height="25" viewBox="0 0 25 25">
    <g fill="none" fill-rule="evenodd">
        <circle cx="12.5" cy="12.5" r="12.5" fill="#1C9AD6"/>
        <path fill="#FFF" fill-rule="nonzero" d="M12.559 5.645c-2.628 0-4.765 2.123-4.765 4.733 0 .68.14 1.33.416 1.932 1.192 2.59 3.476 5.324 4.148 6.1a.266.266 0 0 0 .402 0c.672-.776 2.956-3.51 4.148-6.1a4.588 4.588 0 0 0 .417-1.932c0-2.61-2.139-4.733-4.766-4.733zm0 7.192a2.47 2.47 0 0 1-2.476-2.459 2.47 2.47 0 0 1 2.476-2.459 2.47 2.47 0 0 1 2.475 2.459 2.47 2.47 0 0 1-2.475 2.459z"/>
    </g>
</svg>
