<svg xmlns="http://www.w3.org/2000/svg" width="33" height="36" viewBox="0 0 33 36">
    <path fill="#FFF" fill-rule="nonzero" d="M4.968 18.832c.07.727.502 1.41 1.227 1.793a8.218 8.218 0 0 0 1.854.71A18.15 18.15 0 0 1 5.87 25.88c-1.108 1.675-1.121 3.696-.035 5.545 1.6 2.726 5.135 4.558 8.797 4.558 2.514 0 4.75-1.094 6.294-3.08 2.207-2.838 2.696-7.028 1.308-11.204-1.288-3.871.434-5.937 1.573-6.825a5.303 5.303 0 0 0 3.58 1.366c2.853 0 5.167-2.184 5.167-4.878 0-2.695-2.314-4.878-5.167-4.878-2.854 0-5.166 2.184-5.166 4.878 0 .38.05.746.136 1.1-2.15 1.486-4.634 4.83-2.896 10.058 1.096 3.297.76 6.653-.879 8.76-.694.894-1.944 1.959-3.951 1.959-2.596 0-5.168-1.293-6.255-3.144-.4-.683-.732-1.717-.041-2.761a20.695 20.695 0 0 0 2.682-5.84 8.049 8.049 0 0 0 2.5-.789 2.282 2.282 0 0 0 1.256-1.725c3.414-2.914 4.99-8.164 5.08-8.47.184-.631-.13-1.278-.717-1.573.472-3.941-1.073-5.928-2.005-6.737a.966.966 0 0 0-.442-1L14.976.142c-.447-.276-1.01-.137-1.255.313l-.816 1.489c-.246.45-.03.93.484 1.072l1.937.54c.49.136 1.08-.086 1.357-.492.772.768 1.883 2.477 1.5 5.737-.526.095-.977.457-1.13.977-.465 1.577-1.81 4.834-3.804 6.787a2.54 2.54 0 0 0-2.013.105c-.422.213-.835.32-1.258.329H9.89a2.929 2.929 0 0 1-1.328-.364 2.53 2.53 0 0 0-1.986-.152c-1.95-1.961-3.266-5.15-3.723-6.705-.154-.519-.606-.882-1.13-.976-.384-3.26.727-4.97 1.5-5.737.278.406.865.628 1.356.49l1.937-.538c.512-.143.73-.623.484-1.072L6.186.455C5.94.005 5.377-.134 4.93.142L3.216 1.2a.967.967 0 0 0-.442 1C1.844 3.01.298 4.996.77 8.938c-.587.295-.9.942-.717 1.573.09.301 1.618 5.383 4.916 8.322zm22.42-9.377c1.112 0 2.017.853 2.017 1.906 0 1.052-.905 1.906-2.018 1.906-1.115 0-2.018-.854-2.018-1.906 0-1.053.903-1.906 2.018-1.906z"/>
</svg>
