<svg xmlns="http://www.w3.org/2000/svg" width="23" height="23" viewBox="0 0 23 23">
    <path fill="#29B34B" fill-rule="nonzero" d="M19.402 3.693c-4.309-4.237-11.29-4.237-15.595 0a10.717 10.717 0 0 0-.463 14.853c.554.526.972.902 1.251 1.129.28.226.757.572 1.43 1.04 4.227 2.442 9.756 1.883 13.387-1.687a10.72 10.72 0 0 0-.01-15.335zM15.24 16c-.243.244-.5.469-.729.721-.335.37-.756.487-1.233.46-.697-.036-1.343-.266-1.962-.563a10.641 10.641 0 0 1-3.544-2.727c-.729-.852-1.33-1.78-1.728-2.831-.192-.51-.33-1.028-.289-1.578a1.29 1.29 0 0 1 .408-.865c.275-.257.532-.523.803-.785.352-.342.793-.338 1.146 0 .22.212.43.424.646.636.21.207.422.41.628.617.367.366.367.79 0 1.154-.261.262-.523.523-.793.776-.069.067-.078.121-.041.207.174.415.43.784.715 1.127.573.694 1.224 1.312 2.003 1.79.165.103.348.175.523.27.087.05.15.032.22-.04.261-.267.531-.528.797-.79.353-.342.793-.342 1.142 0 .43.42.857.839 1.283 1.263.367.37.367.802.005 1.158zm-4.066-7.005l.137-.964c.95.13 1.811.554 2.49 1.221a4.234 4.234 0 0 1 1.219 2.313l-.977.166a3.292 3.292 0 0 0-.944-1.79 3.372 3.372 0 0 0-1.925-.946zm5.441 2.57a6.12 6.12 0 0 0-1.746-3.318 6.28 6.28 0 0 0-3.567-1.749l.138-.965a7.233 7.233 0 0 1 4.125 2.024 7.084 7.084 0 0 1 2.027 3.84l-.977.168z"/>
</svg>
