<svg xmlns="http://www.w3.org/2000/svg" width="35" height="34" viewBox="0 0 35 34">
    <g fill="#FFF" fill-rule="nonzero">
        <ellipse cx="5.409" cy="3.314" rx="3.356" ry="3.287"/>
        <path d="M1.664 18.117h.333v6.519c0 .896.749 1.63 1.664 1.63h3.495c.915 0 1.664-.734 1.664-1.63v-.38a4.053 4.053 0 0 1-.499-1.902v-8.529c0-1.656 1.026-3.096 2.496-3.72v-.653c0-.896-.749-1.63-1.664-1.63H1.664C.75 7.823 0 8.557 0 9.453v7.035c0 .897.721 1.63 1.664 1.63z"/>
        <ellipse cx="28.652" cy="3.314" rx="3.356" ry="3.287"/>
        <path d="M23.215 9.425v.652c1.47.625 2.497 2.064 2.497 3.721V22.3c0 .679-.167 1.33-.5 1.901v.38c0 .897.75 1.63 1.665 1.63h3.495c.915 0 1.664-.733 1.664-1.63v-6.518h.333c.915 0 1.664-.734 1.664-1.63V9.425c0-.896-.749-1.63-1.664-1.63h-7.49c-.914 0-1.664.734-1.664 1.63zM10.845 13.825v8.529c0 .896.749 1.63 1.664 1.63h.638v7.686c0 .897.75 1.63 1.664 1.63h4.466c.915 0 1.664-.733 1.664-1.63v-7.714h.638c.916 0 1.664-.733 1.664-1.63V13.826c0-.896-.748-1.63-1.664-1.63h-9.07c-.943 0-1.664.734-1.664 1.63z"/>
        <ellipse cx="17.03" cy="7.062" rx="3.855" ry="3.775"/>
    </g>
</svg>
