<?xml version="1.0" encoding="UTF-8"?>
<svg width="38px" height="38px" viewBox="0 0 38 38" version="1.1" xmlns="http://www.w3.org/2000/svg" xmlns:xlink="http://www.w3.org/1999/xlink">
    <!-- Generator: sketchtool 44.1 (41455) - http://www.bohemiancoding.com/sketch -->
    <title>7771F0EE-1FB0-4383-A205-07434B522FD1</title>
    <desc>Created with sketchtool.</desc>
    <defs></defs>
    <g id="Page-1" stroke="none" stroke-width="1" fill="none" fill-rule="evenodd">
        <g id="Fonio---index" transform="translate(-1371.000000, -2213.000000)" fill="#00ABF0">
            <g id="Group-28" transform="translate(-15.000000, 2156.000000)">
                <path d="M1413.83333,71.3053385 C1413.18923,71.5928834 1412.49338,71.7884109 1411.74577,71.8919271 C1412.52789,71.4318553 1413.06272,70.7590105 1413.35026,69.8733724 C1412.60264,70.3104406 1411.83204,70.6037319 1411.03841,70.7532552 C1410.3368,69.9941368 1409.45693,69.6145833 1408.39876,69.6145833 C1407.39811,69.6145833 1406.54411,69.9682582 1405.83675,70.6756185 C1405.12939,71.3829788 1404.77572,72.2369742 1404.77572,73.2376302 C1404.77572,73.5711822 1404.80447,73.8472211 1404.86198,74.0657552 C1403.37825,73.9852427 1401.98655,73.61144 1400.68685,72.9443359 C1399.38715,72.2772319 1398.28299,71.3858563 1397.37435,70.2701823 C1397.0408,70.845272 1396.87402,71.4548579 1396.87402,72.0989583 C1396.87402,73.4101628 1397.39735,74.4165547 1398.44401,75.1181641 C1397.90343,75.1066623 1397.32835,74.9571412 1396.71875,74.6695964 L1396.71875,74.7041016 C1396.71875,75.5667361 1397.00629,76.3344693 1397.58138,77.0073242 C1398.15647,77.6801791 1398.86382,78.0971129 1399.70345,78.258138 C1399.3699,78.3501524 1399.07661,78.3961589 1398.82357,78.3961589 C1398.67404,78.3961589 1398.44976,78.3731556 1398.15072,78.3271484 C1398.39225,79.0517614 1398.82069,79.6498457 1399.43604,80.1214193 C1400.05138,80.5929928 1400.7501,80.8345269 1401.53223,80.8460286 C1400.19802,81.8811901 1398.69706,82.398763 1397.0293,82.398763 C1396.73025,82.398763 1396.44271,82.3815106 1396.16667,82.3470052 C1397.86893,83.4281738 1399.72069,83.96875 1401.72201,83.96875 C1403.01021,83.96875 1404.21788,83.7645962 1405.34505,83.3562826 C1406.47223,82.9479689 1407.43836,82.4016419 1408.24349,81.7172852 C1409.04862,81.0329284 1409.74159,80.2450674 1410.32243,79.3536784 C1410.90327,78.4622894 1411.33458,77.5306581 1411.61637,76.5587565 C1411.89817,75.5868549 1412.03906,74.6178434 1412.03906,73.6516927 C1412.03906,73.4446604 1412.03331,73.2893885 1412.02181,73.1858724 C1412.74642,72.6682917 1413.35026,72.0414533 1413.83333,71.3053385 Z M1424,64.125 L1424,87.875 C1424,89.8376834 1423.30318,91.515835 1421.90951,92.9095052 C1420.51584,94.3031754 1418.83768,95 1416.875,95 L1393.125,95 C1391.16232,95 1389.48416,94.3031754 1388.09049,92.9095052 C1386.69682,91.515835 1386,89.8376834 1386,87.875 L1386,64.125 C1386,62.1623166 1386.69682,60.484165 1388.09049,59.0904948 C1389.48416,57.6968246 1391.16232,57 1393.125,57 L1416.875,57 C1418.83768,57 1420.51584,57.6968246 1421.90951,59.0904948 C1423.30318,60.484165 1424,62.1623166 1424,64.125 Z" id="ï‚"></path>
            </g>
        </g>
    </g>
</svg>