<svg xmlns="http://www.w3.org/2000/svg" width="22" height="25" viewBox="0 0 22 25">
    <g fill="#9092A5" fill-rule="nonzero">
        <path d="M21.646 1.514a.79.79 0 0 0-1.107.11l-6.62 8.044c.181.148.35.31.511.48l7.283-7.485a.779.779 0 0 0-.067-1.15zM18.43 2.012a.78.78 0 0 0-.248-1.124.79.79 0 0 0-1.076.28l-4.513 7.697c.257.11.502.243.737.388l5.1-7.241zM7.771 6.54c1.442 0 2.69.781 3.38 1.93.345.047.681.124 1.003.23a4.737 4.737 0 0 0-8.768 0c.325-.106.66-.183 1.006-.23a3.936 3.936 0 0 1 3.38-1.93z"/>
        <path d="M7.771 7.33c-.952 0-1.796.43-2.375 1.096.341.015.675.058.998.133a2.355 2.355 0 0 1 1.377-.448c.516 0 .989.169 1.378.448.323-.075.656-.118.998-.133A3.14 3.14 0 0 0 7.77 7.33zM.288 14.838A7.589 7.589 0 0 0 .1 16.49c0 2.718 1.434 5.096 3.587 6.447v.361c0 .528.43.956.962.956h6.355c.356 0 .85-.378.85-.956v-.36c2.152-1.352 3.587-3.73 3.587-6.448 0-.568-.067-1.12-.186-1.653H.288zM14.734 13.944h.438c0-2.619-2.143-4.75-4.775-4.75-.66 0-1.288.134-1.86.376.265.203.511.43.736.678.358-.108.73-.183 1.124-.183 2.15 0 3.9 1.74 3.9 3.879h.437z"/>
        <path d="M12.718 13.944h.875c0-1.753-1.434-3.18-3.196-3.18-.225 0-.444.025-.656.069.178.258.33.534.462.82.065-.005.127-.019.194-.019a2.319 2.319 0 0 1 2.321 2.31z"/>
        <path d="M10.665 13.284c.262.106.45.36.45.659h.874c0-.846-.672-1.534-1.514-1.575.088.296.151.602.19.916zM1.245 13.944c0-2.139 1.75-3.88 3.901-3.88 2.152 0 3.9 1.741 3.9 3.88h.876c0-2.619-2.142-4.75-4.776-4.75-2.633 0-4.776 2.131-4.776 4.75h.875z"/>
        <path d="M7.468 13.944h.876c0-1.753-1.434-3.18-3.197-3.18-1.763 0-3.197 1.427-3.197 3.18h.875a2.318 2.318 0 0 1 2.323-2.309c1.28 0 2.32 1.035 2.32 2.309z"/>
        <path d="M3.554 13.944h.875c0-.393.322-.714.718-.714.396 0 .718.32.718.714h.875a1.59 1.59 0 0 0-1.593-1.583 1.59 1.59 0 0 0-1.593 1.583z"/>
    </g>
</svg>
