<svg xmlns="http://www.w3.org/2000/svg" width="20" height="22" viewBox="0 0 20 22">
    <path fill="#9092A5" fill-rule="nonzero" d="M17.801 4.298h.036a2.146 2.146 0 0 0 2.138-2.149C19.975.964 19.015 0 17.837 0H2.163A2.146 2.146 0 0 0 .025 2.15c0 1.184.96 2.148 2.138 2.148h.036a7.889 7.889 0 0 0 3.38 5.784l-2.676 7.591-.028-.002A2.146 2.146 0 0 0 .738 19.82c0 1.185.959 2.149 2.137 2.149a2.146 2.146 0 0 0 2.138-2.15 2.14 2.14 0 0 0-.775-1.642l.41-1.164 4.64-1.866v3.24c0 .396.318.716.712.716.394 0 .712-.32.712-.716v-3.24l4.68 1.882L17 21.524c.321.895 1.661.41 1.341-.485l-3.917-10.958a7.888 7.888 0 0 0 3.378-5.783zm-8.513 9.306l-4.006 1.61 1.56-4.426c.76.338 1.582.559 2.446.638v2.178zm5.46 1.623l-4.036-1.623v-2.178a7.735 7.735 0 0 0 2.45-.64l1.587 4.441zM2.164 2.865a.715.715 0 0 1-.713-.716c0-.395.32-.716.713-.716h15.674a.715.715 0 1 1 0 1.433H2.163z"/>
</svg>
