<?xml version="1.0" encoding="UTF-8"?>
<svg width="20px" height="13px" viewBox="0 0 20 13" version="1.1" xmlns="http://www.w3.org/2000/svg" xmlns:xlink="http://www.w3.org/1999/xlink">
    <!-- Generator: sketchtool 45.2 (43514) - http://www.bohemiancoding.com/sketch -->
    <title>292D0F0A-C844-4973-BDB5-3523FDE924A8</title>
    <desc>Created with sketchtool.</desc>
    <defs></defs>
    <g id="Page-1" stroke="none" stroke-width="1" fill="none" fill-rule="evenodd" opacity="0.340000004">
        <g id="Allergens" transform="translate(-169.000000, -187.000000)" fill-rule="nonzero" fill="#000000">
            <g id="arrows-(2)" transform="translate(169.638281, 187.495525)">
                <path d="M0.331440431,3.74493527 L14.5854471,3.74493527 L14.5854471,5.23258609 C14.5854471,5.29975263 14.6181013,5.35777367 14.6836637,5.40692059 C14.7493713,5.45604037 14.8270884,5.48054598 14.9168512,5.48054598 C15.0135803,5.48054598 15.0930389,5.45734299 15.1549731,5.41082846 L18.4699217,2.93144662 C18.5318558,2.88495923 18.5629136,2.82552701 18.5629136,2.75328566 C18.5629136,2.68090862 18.5318558,2.62144926 18.4696677,2.57507042 L15.1654225,0.103395775 C15.0824807,0.0516707496 14.999539,0.0258896508 14.9165972,0.0258896508 C14.8200133,0.0258896508 14.7405184,0.0491197777 14.6784753,0.0955800315 C14.616396,0.142121699 14.5853745,0.201445365 14.5853745,0.273795269 L14.5853745,1.76144608 L0.331440431,1.76144608 C0.241677582,1.76144608 0.163996798,1.7859517 0.0983980787,1.83504434 C0.0327993596,1.88413698 0,1.94221229 0,2.0093517 L0,3.49700252 C0,3.56414192 0.0327630771,3.62224438 0.0983980787,3.67130988 C0.16403308,3.72037538 0.241677582,3.74493527 0.331440431,3.74493527 Z" id="Shape"></path>
                <path d="M18.2315821,8.72037259 L3.97772056,8.72037259 L3.97772056,7.2326675 C3.97772056,7.16552809 3.94488492,7.10742564 3.87932248,7.05836013 C3.81368748,7.00926749 3.73597041,6.98476188 3.64624385,6.98476188 C3.54947848,6.98476188 3.4701287,7.00799201 3.40797682,7.05445226 L0.0931734019,9.53369841 C0.0311666481,9.58032149 0,9.63959088 0,9.71204934 C0,9.77910733 0.0310215182,9.83601572 0.0931734019,9.88234028 L3.39767259,12.3618035 C3.48057806,12.41342 3.56344723,12.439174 3.64635269,12.439174 C3.73607926,12.439174 3.81379633,12.4146684 3.87939505,12.3657114 C3.94495748,12.3165102 3.97779313,12.2585434 3.97779313,12.1912955 L3.97779313,10.7036989 L18.2315821,10.7036989 C18.32149,10.7036989 18.3989531,10.6793019 18.4647695,10.630155 C18.530332,10.5810081 18.5629862,10.522987 18.5629862,10.4557391 L18.5629862,8.96814252 C18.5629862,8.90097597 18.5302231,8.84295493 18.4647695,8.79391657 C18.3989531,8.7448782 18.3214538,8.72037259 18.2315821,8.72037259 Z" id="Shape"></path>
            </g>
        </g>
    </g>
</svg>