<svg xmlns="http://www.w3.org/2000/svg" width="46" height="45" viewBox="0 0 46 45">
    <path fill="#4988FF" fill-rule="nonzero" d="M23 0C10.574 0 .5 10.074.5 22.5S10.574 45 23 45s22.5-10.074 22.5-22.5S35.426 0 23 0zm10.613 23.774h-.89a9.337 9.337 0 0 1-8.45 8.447v.892a.848.848 0 1 1-1.698 0v-.892a9.338 9.338 0 0 1-8.45-8.447h-.89a.848.848 0 1 1 0-1.699h.89a9.338 9.338 0 0 1 8.459-8.448c0-.015-.009-.027-.009-.042v-.85a.848.848 0 1 1 1.699 0v.85c0 .015-.008.027-.009.042a9.34 9.34 0 0 1 8.458 8.448h.89a.848.848 0 1 1 0 1.699zm-10.188-8.491a7.641 7.641 0 0 0-7.642 7.642c0 4.22 3.42 7.641 7.642 7.641 4.22 0 7.641-3.42 7.641-7.641s-3.42-7.642-7.641-7.642zm0 12.736a5.095 5.095 0 1 1 5.094-5.094 5.096 5.096 0 0 1-5.094 5.094zm0-8.49a3.396 3.396 0 1 0 0 6.792 3.396 3.396 0 0 0 0-6.793z"/>
</svg>
