<?xml version="1.0" encoding="UTF-8"?>
<svg width="17px" height="16px" viewBox="0 0 17 16" version="1.1" xmlns="http://www.w3.org/2000/svg" xmlns:xlink="http://www.w3.org/1999/xlink">
    <!-- Generator: sketchtool 45.2 (43514) - http://www.bohemiancoding.com/sketch -->
    <title>5CE048C5-E77B-4C40-BE88-CC2A8DBBFF0F</title>
    <desc>Created with sketchtool.</desc>
    <defs></defs>
    <g id="Page-1" stroke="none" stroke-width="1" fill="none" fill-rule="evenodd">
        <g id="City-view-Detail" transform="translate(-78.000000, -967.000000)" fill-rule="nonzero" fill="#EE4C40">
            <g id="Group-18" transform="translate(61.000000, 966.000000)">
                <g id="Group-13" transform="translate(0.000000, 1.000000)">
                    <g id="003-time-left" transform="translate(17.587719, 0.000000)">
                        <path d="M9.49443125,14.4476537 C9.36416726,14.4803282 9.2313564,14.5093456 9.09953034,14.5337831 C8.75492165,14.5982776 8.5270955,14.931858 8.59083521,15.2790071 C8.62231454,15.4497962 8.71868815,15.5920464 8.84952943,15.6849088 C8.98437779,15.7804372 9.15600297,15.8235703 9.33088814,15.7908275 C9.4878773,15.7615025 9.64608896,15.7270165 9.80134624,15.6880191 C10.1416422,15.6027783 10.3489576,15.2558001 10.2640619,14.91347 C10.1793699,14.5708324 9.83493099,14.3623446 9.49443125,14.4476537 Z" id="Shape"></path>
                        <path d="M14.1907264,5.88027716 C14.2352118,6.01521316 14.3201415,6.12536988 14.4274157,6.201485 C14.5864763,6.31423927 14.7946066,6.3521772 14.9932286,6.28607633 C15.3262236,6.17479173 15.506644,5.81339019 15.3964833,5.47840849 C15.3462929,5.32569976 15.2906014,5.17251254 15.2312762,5.02335836 C15.1010122,4.69558828 14.731614,4.53600972 14.4057843,4.66711774 C14.0802941,4.79815742 13.9216749,5.1700517 14.0520408,5.49792431 C14.1018915,5.62329038 14.1485842,5.75197175 14.1907264,5.88027716 Z" id="Shape"></path>
                        <path d="M11.5580424,13.5350584 C11.446014,13.6094988 11.330386,13.6815467 11.2139091,13.7490489 C10.9100164,13.9254774 10.8059342,14.3164432 10.981159,14.6221682 C11.0287345,14.7053241 11.0921007,14.7733047 11.1650771,14.8252558 C11.3609824,14.9639856 11.6270456,14.984766 11.8485555,14.8563239 C11.9870374,14.7759365 12.1247382,14.6904223 12.2581603,14.601627 C12.550677,14.4071182 12.6311921,14.0105472 12.4378336,13.7159985 C12.2445091,13.4213472 11.8506609,13.3404129 11.5580424,13.5350584 Z" id="Shape"></path>
                        <path d="M15.7913503,7.66547909 C15.7775292,7.31269049 15.4822959,7.03810188 15.1316766,7.05187574 C14.7814987,7.06578631 14.5084741,7.36303515 14.5222272,7.71568704 C14.5274907,7.85052051 14.5288491,7.98737049 14.5257589,8.12206725 C14.5208349,8.3433035 14.6283469,8.5405124 14.7954216,8.65904281 C14.8949534,8.72958686 15.015743,8.77227558 15.1467201,8.77528327 C15.4972375,8.7831101 15.7877167,8.50329221 15.7954932,8.15033272 C15.7989909,7.98938701 15.7976665,7.82632226 15.7913503,7.66547909 Z" id="Shape"></path>
                        <path d="M14.0870857,11.8535877 C13.806013,11.6413403 13.4083615,11.698965 13.197854,11.9813463 C13.1172371,12.0894865 13.0323414,12.1962937 12.9454081,12.2991363 C12.7182272,12.5677778 12.7503178,12.9712871 13.0172299,13.2001109 C13.0324432,13.2130987 13.0478263,13.2250269 13.0637867,13.2362374 C13.3291368,13.4245258 13.6979238,13.381256 13.9124722,13.1278579 C14.0162827,13.0051578 14.1174784,12.8775701 14.2138181,12.7484103 C14.4243594,12.466029 14.3673774,12.0655275 14.0870857,11.8535877 Z" id="Shape"></path>
                        <path d="M15.020599,9.54303084 C14.6859401,9.43741983 14.3295479,9.62492209 14.2246847,9.96174942 C14.184546,10.0904308 14.1400607,10.2197274 14.0920436,10.346358 C13.9866032,10.6251164 14.0876291,10.9318326 14.3192246,11.0961962 C14.3617064,11.1262389 14.4085009,11.1517018 14.4593365,11.1710467 C14.787,11.2968912 15.1539193,11.131434 15.2788178,10.8015107 C15.3358338,10.6509552 15.3887408,10.4971186 15.436588,10.3441364 C15.5413493,10.0072408 15.35519,9.64864184 15.020599,9.54303084 Z" id="Shape"></path>
                        <path d="M6.72370675,14.539525 C6.1559242,14.4369217 5.61126724,14.2622022 5.09479566,14.0185108 C5.08868317,14.015298 5.08321589,14.0116409 5.07679777,14.0087016 C4.95509127,13.9510427 4.83358853,13.8892825 4.71582119,13.8247539 C4.71541369,13.8242754 4.71466661,13.8239678 4.7140214,13.8236943 C4.49794482,13.7039335 4.28706386,13.5714242 4.08219352,13.4262688 C1.09481515,11.3082385 0.376529479,7.13889374 2.48106032,4.13219288 C2.93868219,3.47863508 3.49247392,2.93338836 4.10986953,2.5012377 C4.11747618,2.49590589 4.12508284,2.49060825 4.13262158,2.48524225 C6.30822711,0.976474559 9.26236032,0.874794061 11.5725086,2.42519094 L11.0763441,3.14672943 C10.9384055,3.34756123 11.0232673,3.49391278 11.2647446,3.47203866 L13.4199752,3.27783746 C13.6617582,3.25596333 13.8063526,3.04545907 13.7413225,2.81044895 L13.1625714,0.711695126 C13.097779,0.476411581 12.9318927,0.448248647 12.7938184,0.649046268 L12.2964992,1.37229367 C10.6011658,0.226875678 8.56777753,-0.209889054 6.5495347,0.142352696 C6.34626039,0.177761434 6.14583859,0.221099542 5.9481674,0.27154674 C5.94663928,0.271820167 5.94541678,0.271991058 5.94419428,0.272264485 C5.93655367,0.274144293 5.92881118,0.27663931 5.92137431,0.278724187 C4.18101214,0.728545037 2.66256736,1.75016915 1.57906032,3.20780608 C1.56992554,3.21870896 1.56051909,3.2293726 1.55189369,3.24123248 C1.51586395,3.29007329 1.48010587,3.34004199 1.44509488,3.3900107 C1.38784121,3.47190195 1.33140253,3.5558439 1.27740886,3.63978585 C1.27065116,3.64990263 1.2654895,3.6601903 1.25958076,3.67040962 C0.365459078,5.06491919 -0.065811159,6.67711048 0.00814998873,8.31842169 C0.00831978016,8.32382186 0.00801415559,8.32925621 0.00814998873,8.3347931 C0.0153151872,8.49512359 0.0279476697,8.65767568 0.0450966043,8.81769856 C0.0460134781,8.82802041 0.0482886832,8.83779541 0.0500205558,8.84811727 C0.0677467813,9.00902879 0.0899894589,9.17031627 0.117869212,9.33156958 C0.401217154,10.9768455 1.17234192,12.4573477 2.32784053,13.6093279 C2.33052324,13.612028 2.33330782,13.6149673 2.33602448,13.61777 C2.33697531,13.6188295 2.33802802,13.6193763 2.33894489,13.6203675 C2.64939155,13.9285534 2.98707275,14.2136006 3.35066412,14.4713393 C4.3021753,15.146156 5.3617078,15.5922172 6.49958206,15.7977315 C6.84483595,15.8601753 7.17463883,15.6288564 7.23657875,15.2815363 C7.2984847,14.933977 7.06885877,14.6017638 6.72370675,14.539525 Z" id="Shape"></path>
                        <path d="M7.50899212,2.80938942 C7.22499897,2.80938942 6.99496554,3.04111842 6.99496554,3.32654156 L6.99496554,8.47882053 L11.6767945,10.9147435 C11.7521479,10.9540144 11.8328328,10.9725048 11.9122273,10.9725048 C12.0981829,10.9725048 12.2777882,10.8705851 12.3691021,10.6927553 C12.4993321,10.4389471 12.4007851,10.1271383 12.1486109,9.99606445 L8.02244141,7.84905084 L8.02244141,3.32654156 C8.02240745,3.04111842 7.79264568,2.80938942 7.50899212,2.80938942 Z" id="Shape"></path>
                    </g>
                </g>
            </g>
        </g>
    </g>
</svg>