<?xml version="1.0" encoding="UTF-8"?>
<svg width="15px" height="15px" viewBox="0 0 15 15" version="1.1" xmlns="http://www.w3.org/2000/svg" xmlns:xlink="http://www.w3.org/1999/xlink">
    <!-- Generator: sketchtool 45.2 (43514) - http://www.bohemiancoding.com/sketch -->
    <title>A4AF0F5F-7FB0-4310-B136-016971A45A7B</title>
    <desc>Created with sketchtool.</desc>
    <defs></defs>
    <g id="Page-1" stroke="none" stroke-width="1" fill="none" fill-rule="evenodd">
        <g id="FFFFFF" transform="translate(-142.000000, -315.000000)" fill-rule="nonzero" fill="#FDAF51">
            <g id="Group-27" transform="translate(142.000000, 315.000000)">
                <path d="M7.35331295,0 C3.29867707,0 0,3.16551249 0,7.05646641 C0,10.9474203 3.29867707,14.1129328 7.35331295,14.1129328 C11.4080011,14.1129328 14.7066782,10.9474203 14.7066782,7.05646641 C14.7066782,3.16551249 11.4080011,0 7.35331295,0 Z M6.35925195,9.68330164 C6.34490624,9.69304357 6.33109621,9.703613 6.31655452,9.71304148 C6.3134711,9.71521053 6.31059673,9.71768049 6.30750026,9.71983701 C6.30733041,9.71961133 6.30717362,9.71937311 6.30701684,9.71914742 C5.90261938,9.97831784 5.42193358,10.1144666 4.90560562,10.1144666 C4.38057615,10.1144666 3.89229941,9.97382928 3.48372105,9.70605788 C2.81884052,9.23202591 2.43063098,8.388578 2.43063098,7.30163201 C2.43063098,5.52087765 3.66091278,3.83783095 4.58729548,3.49702643 C4.69444408,3.46810156 4.80095249,3.45220353 4.90560562,3.45220353 C4.99640952,3.45220353 5.08978728,3.46625849 5.18441932,3.49079511 C5.53893343,3.62043674 6.00792578,3.97622401 6.45270811,4.59931878 C7.03372242,5.41336537 7.38055412,6.42354195 7.38055412,7.30161948 C7.38056719,8.37122558 7.00479582,9.20524501 6.35925195,9.68330164 Z M9.97387433,10.2319716 C8.90127775,10.8061185 7.89402078,10.8122244 7.13156852,10.4205161 C7.13156852,10.4205161 7.13159465,10.4204911 7.13159465,10.4204911 C7.18219659,10.3792038 7.23143975,10.3362616 7.27955928,10.2919528 C7.28316531,10.2886428 7.28673214,10.2852826 7.29031203,10.2819601 C7.33588383,10.2396197 7.38030588,10.1959879 7.42356512,10.1510145 C7.42679225,10.1476669 7.43004552,10.1443694 7.43325958,10.1410093 C7.61737592,9.94793856 7.78006516,9.73129663 7.91870115,9.49331522 C7.92332627,9.48537875 7.92774235,9.47725421 7.93231521,9.46926758 C7.96079758,9.41952983 7.9882478,9.3689395 8.01461359,9.31740884 C8.02114625,9.30467036 8.02754825,9.29185665 8.03393718,9.27900533 C8.05805575,9.2305339 8.08119441,9.18129767 8.10343157,9.1313217 C8.10966372,9.11734197 8.11598733,9.10345001 8.12207576,9.08935743 C8.14471794,9.03678612 8.16622344,8.98336224 8.18677517,8.92921116 C8.19096914,8.91819037 8.19545054,8.90739526 8.19955305,8.89631178 C8.24819519,8.76465155 8.29076197,8.62856546 8.32673077,8.4881538 C8.33054584,8.4732588 8.33377297,8.45798767 8.33744432,8.44299237 C8.35057496,8.38934281 8.3630262,8.33527949 8.37427543,8.28043883 C8.37908346,8.25701808 8.38334276,8.23327134 8.38779803,8.20963745 C8.39676083,8.16208129 8.40514876,8.11419914 8.41268744,8.06579041 C8.41682914,8.03922265 8.42070954,8.01254205 8.42440702,7.98572354 C8.43092661,7.93843068 8.43663615,7.89069899 8.44179695,7.84265385 C8.44471051,7.81552189 8.44774167,7.78849023 8.45021101,7.76112005 C8.45484919,7.70973984 8.45832457,7.65777035 8.46139491,7.60557518 C8.46281903,7.5814523 8.46473963,7.55760527 8.46581099,7.53330686 C8.46920797,7.4568509 8.47128535,7.37973044 8.47128535,7.30161948 C8.47128535,7.23625953 8.46961299,7.17069899 8.46675169,7.10503814 C8.46654265,7.10011075 8.46643812,7.09518337 8.46620295,7.09025598 C8.46326325,7.02744123 8.45884718,6.96452617 8.45337281,6.90156097 C8.45270648,6.89395048 8.45215774,6.88635252 8.45146528,6.87874203 C8.44583413,6.81731898 8.43889645,6.75585832 8.43093968,6.69439766 C8.42977687,6.68545815 8.42867938,6.67653119 8.42746431,6.66757915 C8.41925929,6.60677045 8.40990453,6.54599937 8.39950454,6.48527845 C8.39792364,6.47601296 8.39631661,6.46677254 8.39468344,6.45750705 C8.38394376,6.3967109 8.37215885,6.33600251 8.35928952,6.27539442 C8.35744731,6.26670567 8.35552671,6.25802946 8.35364531,6.24934072 C8.34030563,6.18795528 8.32599911,6.12668269 8.31055592,6.06559816 C8.30873984,6.05841396 8.30681924,6.05124229 8.30497703,6.04405809 C8.2888675,5.98135618 8.27183034,5.9188298 8.2535781,5.85657925 C8.25227157,5.85211577 8.25087358,5.8476899 8.24955399,5.84322641 C8.23034798,5.77823007 8.21016208,5.71348448 8.18872191,5.6491025 C9.75137211,5.14292341 11.6214229,5.434592 12.1116987,6.27805245 C12.6470758,7.19909727 11.6219455,9.34978163 9.97387433,10.2319716 Z" id="Shape"></path>
            </g>
        </g>
    </g>
</svg>