<?xml version="1.0" encoding="UTF-8"?>
<svg width="21px" height="21px" viewBox="0 0 21 21" version="1.1" xmlns="http://www.w3.org/2000/svg" xmlns:xlink="http://www.w3.org/1999/xlink">
    <!-- Generator: sketchtool 45.2 (43514) - http://www.bohemiancoding.com/sketch -->
    <title>7F11CA88-9F6D-4FC3-9BFE-CF2AFBA751B3</title>
    <desc>Created with sketchtool.</desc>
    <defs></defs>
    <g id="Page-1" stroke="none" stroke-width="1" fill="none" fill-rule="evenodd">
        <g id="Allergens" transform="translate(-22.000000, -220.000000)">
            <g id="Group-13" transform="translate(11.000000, 212.000000)">
                <g id="Group-11">
                    <g id="Group-10" transform="translate(11.000000, 8.000000)">
                        <g id="Group-48">
                            <circle id="Oval-17" fill="#3F76E0" cx="10.1343224" cy="10.1343224" r="10.1343224"></circle>
                            <g id="005-fish" transform="translate(4.269182, 5.563841)" fill-rule="nonzero" fill="#FFFFFF">
                                <path d="M11.7414906,4.57387064 C11.364786,3.61869409 10.7349403,2.79105401 9.91998041,2.18041911 C9.10020421,1.5661924 8.13302775,1.20374612 7.12021898,1.13076707 L5.0313094,0.0746116882 C5.02720059,0.0725164657 5.02298293,0.0705572967 5.01873806,0.068734181 C4.924317,0.0283263193 4.82780071,0.0078638869 4.73185585,0.0078638869 C4.34440296,0.0078638869 4.05218745,0.334147167 4.05218745,0.766824211 C4.05218745,1.04597859 4.17983276,1.28518769 4.32766839,1.562138 C4.3462805,1.5970221 4.3651375,1.63236877 4.38413055,1.66847735 C3.51123911,2.10335846 2.75502706,2.78446902 2.22137118,3.61651723 L0.793898838,2.74134009 C0.784892103,2.73581632 0.775477207,2.73097282 0.765762994,2.72678238 C0.691695519,2.69508193 0.615668876,2.67902763 0.539805496,2.67902763 C0.23205269,2.67900042 0,2.93483525 0,3.27409802 C0,3.66976854 0.44290826,4.34742335 0.658498488,4.65378841 C0.44290826,4.96012626 0,5.63778106 0,6.03345158 C0,6.37271436 0.23205269,6.62854918 0.539805496,6.62854918 C0.615668876,6.62854918 0.69172273,6.61246767 0.765817415,6.58076723 C0.775504418,6.57660399 0.784919314,6.57173328 0.793926049,6.56623672 L2.22126234,5.69116842 C2.75344884,6.5241418 3.48517128,7.18702121 4.35634845,7.62538528 C4.341954,7.65354834 4.3276956,7.68124881 4.31360047,7.70862276 C4.17335662,7.98078399 4.05224187,8.21585707 4.05224187,8.48646729 C4.05224187,8.91908992 4.34440296,9.24537319 4.73188306,9.24540041 C4.73191027,9.24540041 4.73193748,9.24540041 4.73196469,9.24540041 C4.82785513,9.24540041 4.92437142,9.22491076 5.01879249,9.1845029 C5.02325504,9.18259815 5.02766317,9.18053014 5.03196246,9.17832608 L6.97994792,8.18568042 C9.0851567,8.08959951 10.9506394,6.73910618 11.7415178,4.73359733 C11.7617082,4.68227799 11.7617082,4.62518998 11.7414906,4.57387064 Z M8.76943117,7.30859853 C8.16766695,6.68212701 7.81022744,5.67911409 7.81022744,4.60712209 C7.81022744,4.11300333 7.88358744,3.63736062 8.02826663,3.19344556 C8.06551805,3.07913349 8.00304233,2.95627726 7.88873026,2.91902584 C7.7744726,2.88185605 7.65156196,2.94422293 7.61431053,3.058535 C7.45542737,3.54609599 7.37485654,4.06709891 7.37485654,4.60712209 C7.37485654,5.72025664 7.73207836,6.77366375 8.34001941,7.48263805 C7.88739693,7.64152122 7.40840731,7.73466338 6.91551303,7.75259522 C6.88386701,7.75373807 6.85281962,7.76179243 6.82460214,7.77618688 L4.84146048,8.78676437 C4.80358321,8.80222004 4.76676716,8.81005671 4.73188306,8.81005671 C4.73188306,8.81005671 4.73188306,8.81005671 4.73185585,8.81005671 C4.59030589,8.81005671 4.48755835,8.6739761 4.48755835,8.4864945 C4.48755835,8.32143451 4.57689102,8.14804805 4.70056357,7.90804984 C4.74510745,7.82160151 4.79558327,7.72361584 4.84597745,7.61719487 C4.87092964,7.56443336 4.87367792,7.50380796 4.85354202,7.44900565 C4.83340611,7.39420333 4.7921003,7.3497955 4.73890342,7.32571405 C3.79412135,6.8983703 3.01336527,6.19160006 2.48106992,5.28175651 C2.45151912,5.23125349 2.40289364,5.19476396 2.34613215,5.18053278 C2.32863569,5.17615186 2.31089432,5.17400221 2.29318017,5.17400221 C2.25337094,5.17400221 2.21394266,5.18494091 2.1793851,5.20611082 L0.582363002,6.18520555 C0.567233863,6.19051163 0.552948255,6.19317828 0.539778286,6.19317828 C0.478282146,6.19317828 0.435343691,6.1274917 0.435343691,6.03345158 C0.435343691,5.79203842 0.825000647,5.15710438 1.10170607,4.78333846 C1.15868523,4.70638665 1.15868523,4.60119016 1.10170607,4.52423835 C0.825027858,4.15047243 0.435370901,3.51551118 0.435370901,3.27409802 C0.435370901,3.18003069 0.478309356,3.11437132 0.539832707,3.11437132 C0.553002677,3.11437132 0.567288284,3.11703797 0.582417423,3.12231684 L2.1793851,4.10141158 C2.22926228,4.13202359 2.28937067,4.14119359 2.34613215,4.1269624 C2.40289364,4.11273122 2.45151912,4.07624169 2.48106992,4.02573867 C3.01162379,3.1189155 3.82375378,2.38841755 4.76788279,1.96877443 C4.82173273,1.94485624 4.86355555,1.90014909 4.88385472,1.84482977 C4.90412667,1.78953767 4.90116071,1.72836806 4.87555546,1.67530723 C4.81922935,1.55846456 4.76214134,1.45147216 4.71174716,1.35710552 C4.58159847,1.11324339 4.48755835,0.937027022 4.48755835,0.766769789 C4.48755835,0.579260984 4.59027868,0.443180367 4.73185585,0.443180367 C4.76682158,0.443180367 4.80380089,0.451044254 4.84175979,0.466554342 L6.96318614,1.53914498 C6.98947166,1.552451 7.01817893,1.56026047 7.04762089,1.562138 C7.46946808,1.58894053 7.88301601,1.67062699 8.2796389,1.8036328 C8.17449683,1.93364544 8.07651117,2.07484166 7.98712408,2.22602421 C7.92595447,2.32950643 7.96023993,2.46300203 8.06372215,2.52419885 C8.09847019,2.54477013 8.13664677,2.55453876 8.17427915,2.55453876 C8.24870036,2.55453876 8.32124404,2.51633497 8.36189679,2.44760079 C8.46589602,2.27171094 8.58238494,2.11173935 8.70886019,1.97070638 C9.04276246,2.11924949 9.36139954,2.30586035 9.65889392,2.52877025 C10.3864803,3.07393625 10.9540135,3.80731853 11.304215,4.65367956 C10.8075384,5.85421482 9.89013029,6.791133 8.76943117,7.30859853 Z" id="Shape"></path>
                                <path d="M9.36213423,3.3486825 C9.00480356,3.3486825 8.71411185,3.63940142 8.71411185,3.99673208 C8.71411185,4.35406275 9.00483077,4.64478167 9.36213423,4.64478167 C9.71943768,4.64478167 10.0101566,4.35406275 10.0101566,3.99673208 C10.0101566,3.63940142 9.71943768,3.3486825 9.36213423,3.3486825 Z M9.36213423,4.20941077 C9.24485619,4.20941077 9.14948275,4.11401012 9.14948275,3.99673208 C9.14948275,3.87945405 9.2448834,3.7840534 9.36213423,3.7840534 C9.47938505,3.7840534 9.5747857,3.87945405 9.5747857,3.99673208 C9.5747857,4.11401012 9.47938505,4.20941077 9.36213423,4.20941077 Z" id="Shape"></path>
                            </g>
                        </g>
                    </g>
                </g>
            </g>
        </g>
    </g>
</svg>