<?xml version="1.0" encoding="UTF-8"?>
<svg width="14px" height="16px" viewBox="0 0 14 16" version="1.1" xmlns="http://www.w3.org/2000/svg" xmlns:xlink="http://www.w3.org/1999/xlink">
    <!-- Generator: sketchtool 45.2 (43514) - http://www.bohemiancoding.com/sketch -->
    <title>1896C4FE-2D7B-4A3F-B0B0-EF3D1D8FDE94</title>
    <desc>Created with sketchtool.</desc>
    <defs></defs>
    <g id="Page-1" stroke="none" stroke-width="1" fill="none" fill-rule="evenodd">
        <g id="FFFFFF" transform="translate(-18.000000, -314.000000)" fill-rule="nonzero" fill="#FDAF51">
            <g id="fire" transform="translate(18.000000, 314.000000)">
                <path d="M3.93731897,15.980015 C2.86484052,13.7639251 3.43597414,12.4940824 4.26025431,11.2977079 C5.16292241,9.98750562 5.39555172,8.69057678 5.39555172,8.69057678 C5.39555172,8.69057678 6.10514655,9.60662172 5.82128448,11.0393408 C7.07488793,9.65357303 7.31146983,7.44569288 7.1221681,6.60011985 C9.95578017,8.5665618 11.1668103,12.8244494 9.53475431,15.980015 C18.2152069,11.1028315 11.6939526,3.80506367 10.558625,2.98301124 C10.9370776,3.80503371 11.0088578,5.19664419 10.2443491,5.872 C8.95019397,0.998741573 5.75034914,0 5.75034914,0 C6.12880172,2.51316854 4.37853017,5.26130337 2.69074569,7.31475655 C2.6314569,6.31262921 2.5684569,5.6211236 2.03778448,4.66214232 C1.91866379,6.48260674 0.517668103,7.9665618 0.138280172,9.7905618 C-0.375616379,12.2606742 0.523219828,14.0692734 3.93731897,15.980015 Z" id="Shape"></path>
            </g>
        </g>
    </g>
</svg>