<?xml version="1.0" encoding="UTF-8"?>
<svg width="85px" height="28px" viewBox="0 0 85 28" version="1.1" xmlns="http://www.w3.org/2000/svg" xmlns:xlink="http://www.w3.org/1999/xlink">
    <!-- Generator: sketchtool 45.2 (43514) - http://www.bohemiancoding.com/sketch -->
    <title>B1CC9760-6A1A-4C3C-A7BA-66F7F770330A</title>
    <desc>Created with sketchtool.</desc>
    <defs></defs>
    <g id="Page-1" stroke="none" stroke-width="1" fill="none" fill-rule="evenodd">
        <g id="Detail-view-2" transform="translate(-261.000000, -82.000000)">
            <g id="Group-4" transform="translate(261.000000, 82.000000)">
                <rect id="Rectangle-48" fill="#FC6A03" x="0" y="0" width="85" height="28" rx="14"></rect>
                <g id="Group-7" transform="translate(6.000000, 4.000000)" fill="#FFFFFF">
                    <g id="003-time-left" fill-rule="nonzero">
                        <path d="M11.153186,17.0904382 C11.0001638,17.1290896 10.8441498,17.1634149 10.6892927,17.1923225 C10.284478,17.2686144 10.0168488,17.6632138 10.0917243,18.073864 C10.1287034,18.275894 10.2419142,18.4441647 10.3956146,18.5540138 C10.554022,18.6670164 10.7556315,18.7180393 10.9610706,18.6793072 C11.145487,18.644618 11.3313395,18.6038239 11.5137215,18.5576929 C11.91347,18.4568598 12.157005,18.0464118 12.0572774,17.6414623 C11.957789,17.2361489 11.5531738,16.9895243 11.153186,17.0904382 Z" id="Shape"></path>
                        <path d="M16.6699623,6.95590548 C16.7222196,7.11552416 16.8219872,7.2458309 16.9480031,7.33586909 C17.1348529,7.46924853 17.3793453,7.51412612 17.6126682,7.43593399 C18.0038401,7.30429306 18.2157814,6.87678345 18.0863748,6.48052644 C18.0274158,6.29988403 17.9619944,6.11867559 17.8923047,5.94223792 C17.7392825,5.5545117 17.3053474,5.3657428 16.9225925,5.52083329 C16.5402365,5.67584292 16.3539053,6.11576461 16.5070472,6.50361212 C16.5656073,6.65191033 16.6204575,6.80413027 16.6699623,6.95590548 Z" id="Shape"></path>
                        <path d="M13.5773268,16.0109098 C13.4457262,16.0989669 13.309897,16.1841939 13.1730707,16.2640437 C12.8160854,16.4727447 12.6938193,16.9352265 12.8996572,17.2968752 C12.9555446,17.395242 13.0299814,17.4756578 13.1157073,17.5371118 C13.3458389,17.7012182 13.6583855,17.7257998 13.918595,17.5738629 C14.0812708,17.4787709 14.2430291,17.3776144 14.3997612,17.2725766 C14.7433829,17.042488 14.8379646,16.5733756 14.6108248,16.2249476 C14.3837249,15.8763983 13.9210682,15.7806594 13.5773268,16.0109098 Z" id="Shape"></path>
                        <path d="M18.5502282,9.06765898 C18.5339925,8.65033781 18.1871795,8.32552107 17.7753042,8.34181447 C17.3639474,8.35826958 17.0432231,8.70989158 17.059379,9.12705104 C17.0655621,9.28654843 17.0671578,9.4484312 17.0635277,9.60776687 C17.0577435,9.86947196 17.1840386,10.1027546 17.3803027,10.2429667 C17.4972235,10.3264148 17.639116,10.3769122 17.7929759,10.3804701 C18.2047316,10.3897286 18.5459599,10.058726 18.5550949,9.64120269 C18.5592037,9.45081658 18.557648,9.2579238 18.5502282,9.06765898 Z" id="Shape"></path>
                        <path d="M16.5482148,14.0218621 C16.2180363,13.7707902 15.7509118,13.8389556 15.503627,14.1729905 C15.4089256,14.3009118 15.3091979,14.4272564 15.2070768,14.548911 C14.9402055,14.8666929 14.9779025,15.3440126 15.2914464,15.6146932 C15.3093176,15.6300567 15.3273882,15.6441669 15.3461371,15.657428 C15.6578459,15.8801583 16.091063,15.8289736 16.3430948,15.5292236 C16.4650419,15.384079 16.5839173,15.2331528 16.6970883,15.0803669 C16.9444129,14.746332 16.8774757,14.2725702 16.5482148,14.0218621 Z" id="Shape"></path>
                        <path d="M17.6448205,11.2886551 C17.2516939,11.1637255 16.833037,11.385526 16.7098534,11.7839662 C16.6627021,11.9361861 16.6104448,12.0891338 16.5540389,12.238928 C16.4301771,12.5686772 16.548853,12.9314984 16.8209102,13.1259275 C16.8708139,13.1614657 16.9257838,13.1915862 16.9855007,13.2144698 C17.3704097,13.363334 17.8014328,13.1676111 17.9481522,12.7773378 C18.0151293,12.5992425 18.0772796,12.4172659 18.1334861,12.2363 C18.2565501,11.8377789 18.0378672,11.4135846 17.6448205,11.2886551 Z" id="Shape"></path>
                        <path d="M7.89839327,17.1991148 C7.23141447,17.0777431 6.5916015,16.8710636 5.98489811,16.5827959 C5.97771772,16.5789954 5.97129525,16.5746694 5.96375584,16.5711924 C5.82078622,16.5029865 5.67805595,16.429929 5.5397137,16.3535967 C5.539235,16.3530307 5.5383574,16.3526668 5.53759947,16.3523434 C5.28377255,16.2106757 5.03604896,16.0539276 4.7953861,15.8822203 C1.28608831,13.3767569 0.442312257,8.44474992 2.91452184,4.88805924 C3.45209399,4.11495175 4.10263766,3.46996776 4.82789733,2.95876752 C4.83683293,2.95246039 4.84576853,2.9461937 4.85462435,2.93984615 C7.41032595,1.15509262 10.8805704,1.03481258 13.5943204,2.86881018 L13.0114719,3.72233346 C12.8494344,3.95990169 12.9491222,4.13302408 13.2327876,4.10714871 L15.7645546,3.87742395 C16.048579,3.85154859 16.2184352,3.60253859 16.1420438,3.32454011 L15.4621802,0.841879369 C15.386068,0.563557438 15.1912001,0.530242901 15.029003,0.767770697 L14.4447982,1.62331549 C12.4532761,0.268376087 10.0646383,-0.248282246 7.69379194,0.168392046 C7.45500396,0.210277798 7.21956682,0.261543372 6.98736087,0.32121844 C6.98556577,0.321541883 6.98412969,0.321744034 6.98269361,0.322067476 C6.97371812,0.32429114 6.96462295,0.32724255 6.95588681,0.329708796 C4.91146913,0.861811489 3.12773964,2.07031248 1.85493506,3.79458234 C1.84420436,3.8074796 1.83315453,3.82009384 1.8230222,3.83412314 C1.78069777,3.89189799 1.73869246,3.95100703 1.69756476,4.01011608 C1.63030841,4.10698699 1.56400944,4.20628371 1.50058263,4.30558044 C1.4926443,4.3175478 1.48658086,4.32971731 1.47963981,4.34180596 C0.429307766,5.99140112 -0.0773089064,7.89849663 0.00957385838,9.84003873 C0.00977331376,9.84642671 0.00941429407,9.85285512 0.00957385838,9.85940482 C0.0179908755,10.0490632 0.032830356,10.2413495 0.0529753497,10.430644 C0.0540524088,10.442854 0.0567251109,10.454417 0.0587595558,10.4666269 C0.0795826978,10.6569726 0.105711353,10.847763 0.138461927,11.038513 C0.47131307,12.984745 1.37715964,14.7360627 2.7345333,16.0987647 C2.7376847,16.1019587 2.74095576,16.1054357 2.74414705,16.108751 C2.745264,16.1100044 2.74650062,16.1106512 2.74757768,16.1118237 C3.1122619,16.4763834 3.50893877,16.8135718 3.93605253,17.1184564 C5.05380049,17.9167115 6.29844197,18.4443669 7.63511217,18.6874741 C8.04068474,18.7613402 8.42810688,18.4877081 8.5008682,18.0768558 C8.57358964,17.6657205 8.30384618,17.2727383 7.89839327,17.1991148 Z" id="Shape"></path>
                        <path d="M8.82087442,3.32328677 C8.48726535,3.32328677 8.21704319,3.59740395 8.21704319,3.93503708 L8.21704319,10.029778 L13.7168259,12.9112832 C13.8053442,12.9577376 13.9001254,12.9796104 13.9933908,12.9796104 C14.2118343,12.9796104 14.4228182,12.8590473 14.5300853,12.6486887 C14.6830676,12.3484535 14.5673037,11.9796083 14.2710725,11.8245582 L9.4240275,9.28480992 L9.4240275,3.93503708 C9.42398761,3.59740395 9.15408458,3.32328677 8.82087442,3.32328677 Z" id="Shape"></path>
                    </g>
                    <g id="Group-5" transform="translate(25.000000, 0.000000)" line-spacing="12">
                        <text id="60-мин" font-family="Lato-Bold, Lato" font-size="12" font-weight="bold">
                            <tspan x="0" y="12">60 мин</tspan>
                        </text>
                        <text id="натоварено" font-family="Lato-Regular, Lato" font-size="8" font-weight="normal">
                            <tspan x="0" y="17">натоварено</tspan>
                        </text>
                    </g>
                </g>
            </g>
        </g>
    </g>
</svg>