<?xml version="1.0" encoding="UTF-8"?>
<svg width="23px" height="23px" viewBox="0 0 23 23" version="1.1" xmlns="http://www.w3.org/2000/svg" xmlns:xlink="http://www.w3.org/1999/xlink">
    <!-- Generator: sketchtool 45.2 (43514) - http://www.bohemiancoding.com/sketch -->
    <title>3B86703A-C9BB-4C64-9AE5-250FB3C431B4</title>
    <desc>Created with sketchtool.</desc>
    <defs>
        <linearGradient x1="100%" y1="100%" x2="3.74284387%" y2="0%" id="linearGradient-1">
            <stop stop-color="#D763FF" offset="0%"></stop>
            <stop stop-color="#A32F7F" offset="100%"></stop>
        </linearGradient>
    </defs>
    <g id="Page-1" stroke="none" stroke-width="1" fill="none" fill-rule="evenodd">
        <g id="FFFFFF" transform="translate(-316.000000, -155.000000)" fill="url(#linearGradient-1)">
            <g id="Group-11" transform="translate(306.000000, 145.000000)">
                <path d="M25.1576698,21.5 C25.1576698,20.4903257 24.8004791,19.6283054 24.0860869,18.9139131 C23.3716946,18.1995209 22.5096743,17.8423302 21.5,17.8423302 C20.4903257,17.8423302 19.6283054,18.1995209 18.9139131,18.9139131 C18.1995209,19.6283054 17.8423302,20.4903257 17.8423302,21.5 C17.8423302,22.5096743 18.1995209,23.3716946 18.9139131,24.0860869 C19.6283054,24.8004791 20.4903257,25.1576698 21.5,25.1576698 C22.5096743,25.1576698 23.3716946,24.8004791 24.0860869,24.0860869 C24.8004791,23.3716946 25.1576698,22.5096743 25.1576698,21.5 Z M27.1293824,21.5 C27.1293824,23.0621376 26.58169,24.3908872 25.4862886,25.4862886 C24.3908872,26.58169 23.0621376,27.1293824 21.5,27.1293824 C19.9378624,27.1293824 18.6091128,26.58169 17.5137114,25.4862886 C16.41831,24.3908872 15.8706176,23.0621376 15.8706176,21.5 C15.8706176,19.9378624 16.41831,18.6091128 17.5137114,17.5137114 C18.6091128,16.41831 19.9378624,15.8706176 21.5,15.8706176 C23.0621376,15.8706176 24.3908872,16.41831 25.4862886,17.5137114 C26.58169,18.6091128 27.1293824,19.9378624 27.1293824,21.5 Z M28.6724619,15.6420132 C28.6724619,16.0039719 28.5438732,16.3135372 28.286692,16.5707184 C28.0295108,16.8278996 27.7199455,16.9564883 27.3579868,16.9564883 C26.9960281,16.9564883 26.6864628,16.8278996 26.4292816,16.5707184 C26.1721004,16.3135372 26.0435117,16.0039719 26.0435117,15.6420132 C26.0435117,15.2800545 26.1721004,14.9704892 26.4292816,14.713308 C26.6864628,14.4561268 26.9960281,14.3275381 27.3579868,14.3275381 C27.7199455,14.3275381 28.0295108,14.4561268 28.286692,14.713308 C28.5438732,14.9704892 28.6724619,15.2800545 28.6724619,15.6420132 Z M21.5,12.4987032 C21.4333234,12.4987032 21.0689888,12.4963219 20.4069854,12.4915593 C19.7449819,12.4867967 19.2425336,12.4867967 18.8996254,12.4915593 C18.5567171,12.4963219 18.0971317,12.5106096 17.5208553,12.5344226 C16.9445789,12.5582357 16.454037,12.6058612 16.0492147,12.6773004 C15.6443925,12.7487396 15.3038706,12.8368466 15.027639,12.9416242 C14.5513775,13.1321288 14.1322737,13.4083563 13.770315,13.770315 C13.4083563,14.1322737 13.1321288,14.5513775 12.9416242,15.027639 C12.8368466,15.3038706 12.7487396,15.6443925 12.6773004,16.0492147 C12.6058612,16.454037 12.5582357,16.9445789 12.5344226,17.5208553 C12.5106096,18.0971317 12.4963219,18.5567171 12.4915593,18.8996254 C12.4867967,19.2425336 12.4867967,19.7449819 12.4915593,20.4069854 C12.4963219,21.0689888 12.4987032,21.4333234 12.4987032,21.5 C12.4987032,21.5666766 12.4963219,21.9310112 12.4915593,22.5930146 C12.4867967,23.2550181 12.4867967,23.7574664 12.4915593,24.1003746 C12.4963219,24.4432829 12.5106096,24.9028683 12.5344226,25.4791447 C12.5582357,26.0554211 12.6058612,26.545963 12.6773004,26.9507853 C12.7487396,27.3556075 12.8368466,27.6961294 12.9416242,27.972361 C13.1321288,28.4486225 13.4083563,28.8677263 13.770315,29.229685 C14.1322737,29.5916437 14.5513775,29.8678712 15.027639,30.0583758 C15.3038706,30.1631534 15.6443925,30.2512604 16.0492147,30.3226996 C16.454037,30.3941388 16.9445789,30.4417643 17.5208553,30.4655774 C18.0971317,30.4893904 18.5567171,30.5036781 18.8996254,30.5084407 C19.2425336,30.5132033 19.7449819,30.5132033 20.4069854,30.5084407 C21.0689888,30.5036781 21.4333234,30.5012968 21.5,30.5012968 C21.5666766,30.5012968 21.9310112,30.5036781 22.5930146,30.5084407 C23.2550181,30.5132033 23.7574664,30.5132033 24.1003746,30.5084407 C24.4432829,30.5036781 24.9028683,30.4893904 25.4791447,30.4655774 C26.0554211,30.4417643 26.545963,30.3941388 26.9507853,30.3226996 C27.3556075,30.2512604 27.6961294,30.1631534 27.972361,30.0583758 C28.4486225,29.8678712 28.8677263,29.5916437 29.229685,29.229685 C29.5916437,28.8677263 29.8678712,28.4486225 30.0583758,27.972361 C30.1631534,27.6961294 30.2512604,27.3556075 30.3226996,26.9507853 C30.3941388,26.545963 30.4417643,26.0554211 30.4655774,25.4791447 C30.4893904,24.9028683 30.5036781,24.4432829 30.5084407,24.1003746 C30.5132033,23.7574664 30.5132033,23.2550181 30.5084407,22.5930146 C30.5036781,21.9310112 30.5012968,21.5666766 30.5012968,21.5 C30.5012968,21.4333234 30.5036781,21.0689888 30.5084407,20.4069854 C30.5132033,19.7449819 30.5132033,19.2425336 30.5084407,18.8996254 C30.5036781,18.5567171 30.4893904,18.0971317 30.4655774,17.5208553 C30.4417643,16.9445789 30.3941388,16.454037 30.3226996,16.0492147 C30.2512604,15.6443925 30.1631534,15.3038706 30.0583758,15.027639 C29.8678712,14.5513775 29.5916437,14.1322737 29.229685,13.770315 C28.8677263,13.4083563 28.4486225,13.1321288 27.972361,12.9416242 C27.6961294,12.8368466 27.3556075,12.7487396 26.9507853,12.6773004 C26.545963,12.6058612 26.0554211,12.5582357 25.4791447,12.5344226 C24.9028683,12.5106096 24.4432829,12.4963219 24.1003746,12.4915593 C23.7574664,12.4867967 23.2550181,12.4867967 22.5930146,12.4915593 C21.9310112,12.4963219 21.5666766,12.4987032 21.5,12.4987032 Z M32.4730094,21.5 C32.4730094,23.6812775 32.4491967,25.1910038 32.4015706,26.0292239 C32.3063183,28.0104717 31.7157629,29.5440106 30.6298867,30.6298867 C29.5440106,31.7157629 28.0104717,32.3063183 26.0292239,32.4015706 C25.1910038,32.4491967 23.6812775,32.4730094 21.5,32.4730094 C19.3187225,32.4730094 17.8089962,32.4491967 16.9707761,32.4015706 C14.9895283,32.3063183 13.4559894,31.7157629 12.3701133,30.6298867 C11.2842371,29.5440106 10.6936817,28.0104717 10.5984294,26.0292239 C10.5508033,25.1910038 10.5269906,23.6812775 10.5269906,21.5 C10.5269906,19.3187225 10.5508033,17.8089962 10.5984294,16.9707761 C10.6936817,14.9895283 11.2842371,13.4559894 12.3701133,12.3701133 C13.4559894,11.2842371 14.9895283,10.6936817 16.9707761,10.5984294 C17.8089962,10.5508033 19.3187225,10.5269906 21.5,10.5269906 C23.6812775,10.5269906 25.1910038,10.5508033 26.0292239,10.5984294 C28.0104717,10.6936817 29.5440106,11.2842371 30.6298867,12.3701133 C31.7157629,13.4559894 32.3063183,14.9895283 32.4015706,16.9707761 C32.4491967,17.8089962 32.4730094,19.3187225 32.4730094,21.5 Z" id=""></path>
            </g>
        </g>
    </g>
</svg>