<?xml version="1.0" encoding="UTF-8"?>
<svg width="17px" height="20px" viewBox="0 0 17 20" version="1.1" xmlns="http://www.w3.org/2000/svg" xmlns:xlink="http://www.w3.org/1999/xlink">
    <!-- Generator: sketchtool 45.2 (43514) - http://www.bohemiancoding.com/sketch -->
    <title>2E0787AF-45E3-4236-8C96-B8FFD5C7FF3F</title>
    <desc>Created with sketchtool.</desc>
    <defs></defs>
    <g id="Page-1" stroke="none" stroke-width="1" fill="none" fill-rule="evenodd">
        <g id="Cart-New" transform="translate(-29.000000, -975.000000)" fill-rule="nonzero">
            <g id="Group-29" transform="translate(-4.000000, 707.000000)">
                <g id="Group-36" transform="translate(19.000000, 258.000000)">
                    <g id="Group-21">
                        <g id="Group-19" transform="translate(14.000000, 10.000000)">
                            <g id="interface-(1)">
                                <path d="M11.8224924,5.83333333 L11.2024316,5.83333333 C10.975076,5.83333333 10.7890578,6.02083333 10.7890578,6.25 C10.7890578,6.47916667 10.975076,6.66666667 11.2024316,6.66666667 L11.8224924,6.66666667 C12.049848,6.66666667 12.2358663,6.47916667 12.2358663,6.25 C12.2358663,6.02083333 12.049848,5.83333333 11.8224924,5.83333333 Z" id="Shape" fill="#FFFFFF"></path>
                                <path d="M14.9227964,2.5 L12.4425532,2.5 C12.4425532,1.125 11.3264438,0 9.96231003,0 L6.86200608,0 C5.49787234,0 4.38176292,1.125 4.38176292,2.5 L2.10820669,2.5 C0.971428571,2.5 0.041337386,3.4375 0.041337386,4.58333333 L0.041337386,5.41666667 C0.041337386,6.04166667 0.516717325,6.5625 1.11610942,6.64583333 L2.17021277,18.0833333 C2.27355623,19.1666667 3.16231003,19.9791667 4.23708207,19.9791667 L12.793921,19.9791667 C13.868693,19.9791667 14.7574468,19.1666667 14.8607903,18.0833333 L15.9148936,6.64583333 C16.5142857,6.5625 16.9896657,6.04166667 16.9896657,5.41666667 L16.9896657,4.58333333 C16.9896657,3.4375 16.0595745,2.5 14.9227964,2.5 Z M6.86200608,0.833333333 L9.96231003,0.833333333 C10.8717325,0.833333333 11.6158055,1.58333333 11.6158055,2.5 L5.20851064,2.5 C5.20851064,1.58333333 5.95258359,0.833333333 6.86200608,0.833333333 Z M16.1629179,5.41666667 C16.1629179,5.64583333 15.9768997,5.83333333 15.7495441,5.83333333 L15.5428571,5.83333333 C15.3361702,5.83333333 15.150152,6 15.1294833,6.20833333 L14.0340426,18.0208333 C13.9720365,18.6666667 13.4346505,19.1666667 12.793921,19.1666667 L4.23708207,19.1666667 C3.59635258,19.1666667 3.05896657,18.6666667 2.99696049,18.0208333 L1.94285714,6.66666667 L9.34224924,6.66666667 C9.56960486,6.66666667 9.7556231,6.47916667 9.7556231,6.25 C9.7556231,6.02083333 9.56960486,5.83333333 9.34224924,5.83333333 L1.4881459,5.83333333 L1.28145897,5.83333333 C1.05410334,5.83333333 0.868085106,5.64583333 0.868085106,5.41666667 L0.868085106,4.58333333 C0.868085106,3.89583333 1.42613982,3.33333333 2.10820669,3.33333333 L14.9227964,3.33333333 C15.6048632,3.33333333 16.1629179,3.89583333 16.1629179,4.58333333 L16.1629179,5.41666667 Z" id="Shape" fill="#F04C41"></path>
                                <path d="M5.20851064,8.33333333 C4.98115502,8.33333333 4.79513678,8.52083333 4.79513678,8.75 L4.79513678,16.6666667 C4.79513678,16.8958333 4.98115502,17.0833333 5.20851064,17.0833333 C5.43586626,17.0833333 5.6218845,16.8958333 5.6218845,16.6666667 L5.6218845,8.75 C5.6218845,8.52083333 5.43586626,8.33333333 5.20851064,8.33333333 Z" id="Shape" fill="#F04C41"></path>
                                <path d="M8.51550152,8.33333333 C8.2881459,8.33333333 8.10212766,8.52083333 8.10212766,8.75 L8.10212766,16.6666667 C8.10212766,16.8958333 8.2881459,17.0833333 8.51550152,17.0833333 C8.74285714,17.0833333 8.92887538,16.8958333 8.92887538,16.6666667 L8.92887538,8.75 C8.92887538,8.52083333 8.74285714,8.33333333 8.51550152,8.33333333 Z" id="Shape" fill="#F04C41"></path>
                                <path d="M11.8224924,8.33333333 C11.5951368,8.33333333 11.4091185,8.52083333 11.4091185,8.75 L11.4091185,16.6666667 C11.4091185,16.8958333 11.5951368,17.0833333 11.8224924,17.0833333 C12.049848,17.0833333 12.2358663,16.8958333 12.2358663,16.6666667 L12.2358663,8.75 C12.2358663,8.52083333 12.049848,8.33333333 11.8224924,8.33333333 Z" id="Shape" fill="#F04C41"></path>
                            </g>
                        </g>
                    </g>
                </g>
            </g>
        </g>
    </g>
</svg>