<?xml version="1.0" encoding="UTF-8"?>
<svg width="29px" height="29px" viewBox="0 0 29 29" version="1.1" xmlns="http://www.w3.org/2000/svg" xmlns:xlink="http://www.w3.org/1999/xlink">
    <!-- Generator: sketchtool 45.2 (43514) - http://www.bohemiancoding.com/sketch -->
    <title>B4860A2C-323A-4F15-ADBC-CF8B0EB8F076</title>
    <desc>Created with sketchtool.</desc>
    <defs></defs>
    <g id="Page-1" stroke="none" stroke-width="1" fill="none" fill-rule="evenodd">
        <g id="Cart-New" transform="translate(-304.000000, -653.000000)" fill-rule="nonzero" fill="#E9483F">
            <g id="Group-37" transform="translate(7.000000, 585.000000)">
                <g id="Group-35" transform="translate(0.000000, 29.000000)">
                    <g id="Group-27" transform="translate(0.000000, 21.000000)">
                        <g id="Group-28" transform="translate(287.000000, 18.000000)">
                            <g id="003-time-left" transform="translate(10.000000, 0.000000)">
                                <path d="M17.1610914,26.4766868 C16.9256405,26.5365659 16.6855862,26.589743 16.4473119,26.634527 C15.8244351,26.7527192 15.4126415,27.3640367 15.5278504,28.0002203 C15.584749,28.3132073 15.7589434,28.5738942 15.9954377,28.7440734 C16.2391748,28.9191382 16.5493856,28.9981836 16.8654889,28.9381793 C17.1492452,28.8844384 17.4352112,28.8212397 17.7158373,28.7497732 C18.3309189,28.5935616 18.7056394,27.9576911 18.5521912,27.3303391 C18.3991113,26.7024233 17.7765414,26.3203499 17.1610914,26.4766868 Z" id="Shape"></path>
                                <path d="M25.6495989,10.776162 C25.7300058,11.0234449 25.8835153,11.2253175 26.0774124,11.3648056 C26.3649129,11.5714384 26.7411065,11.6409633 27.1001138,11.5198272 C27.7019989,11.3158877 28.028107,10.6535853 27.8289927,10.0396998 C27.7382741,9.75984665 27.6376121,9.47911663 27.5303825,9.20577754 C27.2949316,8.60510799 26.6272479,8.31266523 26.0383138,8.55293305 C25.4499935,8.79307559 25.163291,9.47460691 25.398926,10.0754644 C25.4890307,10.3052095 25.5734272,10.5410302 25.6495989,10.776162 Z" id="Shape"></path>
                                <path d="M20.8910483,24.80427 C20.6885581,24.940689 20.4795616,25.0727235 20.2690307,25.1964276 C19.7197477,25.5197495 19.5316202,26.2362311 19.8483372,26.7965011 C19.9343296,26.948892 20.0488633,27.073473 20.1807674,27.1686782 C20.5348644,27.4229136 21.0157709,27.4609957 21.4161479,27.2256134 C21.6664526,27.0782959 21.9153455,26.9215832 22.1565047,26.7588575 C22.6852257,26.4024017 22.830756,25.6756479 22.4812624,25.1358596 C22.1318302,24.5958834 21.4199534,24.4475637 20.8910483,24.80427 Z" id="Shape"></path>
                                <path d="M28.5427108,14.0477127 C28.5177294,13.4011944 27.9840981,12.8979849 27.3503571,12.9232268 C26.7174141,12.9487192 26.2239247,13.4934557 26.2487833,14.1397235 C26.2582971,14.3868186 26.2607523,14.6376091 26.2551668,14.8844536 C26.2462668,15.2898898 26.4405936,15.6512937 26.7425796,15.8685119 C26.9224822,15.9977905 27.1408083,16.0760216 27.3775481,16.0815335 C28.0111049,16.0958769 28.5361432,15.5830842 28.5501991,14.9362527 C28.5565211,14.6413045 28.5541273,14.342473 28.5427108,14.0477127 Z" id="Shape"></path>
                                <path d="M25.4622694,21.7228164 C24.9542332,21.3338531 24.2354819,21.4394557 23.8549918,21.956946 C23.7092774,22.1551231 23.5558293,22.3508575 23.3986983,22.5393261 C22.988071,23.0316371 23.0460744,23.7711058 23.5285155,24.1904471 C23.5560134,24.2142484 23.5838182,24.236108 23.6126665,24.2566523 C24.0922841,24.6017084 24.758863,24.5224125 25.1466572,24.0580367 C25.3342936,23.8331771 25.5172038,23.5993607 25.6913368,23.3626631 C26.0718883,22.8451728 25.9688939,22.111216 25.4622694,21.7228164 Z" id="Shape"></path>
                                <path d="M27.1495855,17.4885032 C26.5446928,17.2949611 25.9005174,17.6385767 25.7109782,18.2558445 C25.6384279,18.4916652 25.558021,18.7286134 25.4712308,18.960676 C25.2806481,19.471527 25.4632515,20.0336134 25.8818581,20.3348251 C25.9586435,20.3898812 26.0432242,20.4365443 26.1351089,20.4719957 C26.7273575,20.7026177 27.3905605,20.3994017 27.6163135,19.7947862 C27.7193693,19.518879 27.8149982,19.236959 27.9014816,18.9566048 C28.0908366,18.3392117 27.7543555,17.6820454 27.1495855,17.4885032 Z" id="Shape"></path>
                                <path d="M12.153034,26.6450497 C11.1267726,26.4570194 10.1423105,26.1368294 9.20879323,25.6902419 C9.19774496,25.6843542 9.1878629,25.6776523 9.17626221,25.6722657 C8.95627891,25.5666004 8.73666388,25.453419 8.52380058,25.3351641 C8.52306402,25.3342873 8.52171368,25.3337235 8.52054747,25.3332225 C8.12999118,25.1137495 7.74882592,24.8709136 7.37852478,24.6049028 C1.97886766,20.7234125 0.680573344,13.0826955 4.48449221,7.57263283 C5.31163925,6.37492657 6.31261238,5.37571058 7.42854889,4.58375378 C7.44229784,4.57398272 7.4560468,4.5642743 7.469673,4.5544406 C11.4020587,1.78948164 16.7416255,1.60314255 20.9171958,4.44439093 L20.0203833,5.76667819 C19.7710607,6.13472138 19.9244475,6.40292441 20.3609155,6.36283801 L24.2564736,6.006946 C24.693494,5.96685961 24.954847,5.58109071 24.8373057,5.15041253 L23.7912188,1.30424838 C23.6741071,0.873069114 23.3742694,0.821457883 23.1247013,1.18943844 L22.2258019,2.51485745 C19.1615032,0.415771058 15.4861739,-0.384641469 11.8382198,0.26087473 C11.4708035,0.325764579 11.108543,0.405185745 10.7512543,0.497634989 C10.7484922,0.498136069 10.7462826,0.498449244 10.7440729,0.498950324 C10.7302626,0.502395248 10.7162681,0.506967603 10.702826,0.510788337 C7.55713846,1.33512743 4.81256441,3.20734989 2.85413605,5.87860691 C2.83762502,5.89858747 2.82062296,5.91812959 2.80503263,5.93986393 C2.73990922,6.02936933 2.67527685,6.12094168 2.61199483,6.21251404 C2.50850938,6.36258747 2.40649703,6.51641901 2.30890399,6.67025054 C2.29668952,6.6887905 2.28735987,6.70764363 2.27667988,6.72637149 C0.660563702,9.28194168 -0.118953025,12.2364341 0.0147310248,15.2442916 C0.0150379211,15.2541879 0.0144855077,15.2641469 0.0147310248,15.2742937 C0.0276820507,15.5681145 0.050515139,15.8660065 0.0815116703,16.1592635 C0.0831689106,16.1781793 0.0872813217,16.1960929 0.0904116644,16.2150086 C0.122451643,16.5098942 0.162655065,16.8054687 0.213047445,17.1009806 C0.725196073,20.1161037 2.11899653,22.8292635 4.20754894,24.9403758 C4.21239791,24.945324 4.21743101,24.9507106 4.22234135,24.9558467 C4.22405997,24.9577883 4.22596273,24.9587905 4.22761997,24.9606069 C4.78874925,25.5253866 5.39910471,26.0477624 6.05629255,26.5200929 C7.77613969,27.7567581 9.69123429,28.5742073 11.7479309,28.9508315 C12.3719739,29.0652657 12.9680894,28.6413521 13.0800452,28.0048553 C13.1919396,27.3679201 12.7768929,26.759108 12.153034,26.6450497 Z" id="Shape"></path>
                            </g>
                        </g>
                    </g>
                </g>
            </g>
        </g>
    </g>
</svg>