<?xml version="1.0" encoding="UTF-8"?>
<svg width="16px" height="16px" viewBox="0 0 16 16" version="1.1" xmlns="http://www.w3.org/2000/svg" xmlns:xlink="http://www.w3.org/1999/xlink">
    <!-- Generator: sketchtool 45.2 (43514) - http://www.bohemiancoding.com/sketch -->
    <title>5EF9E2EF-2D58-428F-8703-23428B0DC729</title>
    <desc>Created with sketchtool.</desc>
    <defs></defs>
    <g id="Page-1" stroke="none" stroke-width="1" fill="none" fill-rule="evenodd" opacity="0.400000006">
        <g id="Allergens" transform="translate(-141.000000, -223.000000)" fill-rule="nonzero" fill="#010002">
            <g id="Group-13" transform="translate(11.000000, 212.000000)">
                <g id="move-arrows" transform="translate(130.000000, 11.000000)">
                    <path d="M15.1178019,7.38559393 L15.0096718,7.22188859 L12.9887104,5.20092725 C12.7916536,5.0038704 12.4703473,5.0038704 12.2743078,5.20092725 C12.077251,5.39798409 12.077251,5.7183048 12.2743078,5.91532985 L13.4323268,7.0733488 L8.08384537,7.0733488 L8.08384537,1.72489917 L9.24186433,2.88291813 C9.43790378,3.07997497 9.75924188,3.07997497 9.95626693,2.88291813 C10.1523064,2.68586128 10.1523064,2.36554058 9.95626693,2.16851553 L7.93530559,0.147522389 L7.9302504,0.144501995 L7.77160025,0.0394240866 L7.57861299,0 L7.57657819,0 L7.38559393,0.0394240866 L7.22694377,0.144501995 L7.22087119,0.147522389 L5.19990985,2.16848373 C5.002853,2.36554058 5.002853,2.68586128 5.19990985,2.88288633 C5.3969667,3.07991139 5.7172874,3.07994318 5.91431245,2.88288633 L7.0733488,1.72486738 L7.0733488,7.0733488 L1.72489917,7.0733488 L2.88291813,5.91532985 C3.07997497,5.718273 3.07997497,5.3979523 2.88291813,5.20092725 C2.68586128,5.00390219 2.36554058,5.0038704 2.16851553,5.20092725 L0.147522389,7.22188859 L0.144501995,7.22694377 L0.0394240866,7.38559393 L0,7.57861299 L0,7.58064778 L0.0394240866,7.77163204 L0.144501995,7.9292648 L0.147522389,7.93533738 L2.16848373,9.95629873 C2.36554058,10.1533556 2.68586128,10.1533556 2.88288633,9.95629873 C3.07994318,9.76025928 3.07994318,9.43892118 2.88288633,9.24189612 L1.72489917,8.08384537 L7.0733806,8.08384537 L7.0733806,13.4323268 L5.91536164,12.2743078 C5.7183048,12.0782684 5.39798409,12.0782684 5.20095904,12.2743078 C5.00390219,12.4713647 5.00390219,12.792671 5.20095904,12.9887104 L7.22192038,15.0096718 L7.38562572,15.1187875 L7.57660999,15.1571942 L7.57864478,15.1571942 L7.77163204,15.1177701 L7.93533738,15.00964 L9.95629873,12.9886787 C10.1523382,12.7916218 10.1523382,12.4703155 9.95629873,12.274276 C9.75924188,12.0772192 9.43793557,12.0772192 9.24189612,12.274276 L8.08387717,13.432295 L8.08387717,8.08384537 L13.4323586,8.08384537 L12.2743396,9.24186433 C12.0783002,9.43790378 12.0783002,9.75924188 12.2743396,9.95626693 C12.4713965,10.1523064 12.7927028,10.1523064 12.9887422,9.95626693 L15.0097036,7.93530559 L15.1188193,7.77160025 L15.157226,7.58061598 L15.157226,7.57858119 L15.1178019,7.38559393 Z" id="Shape"></path>
                </g>
            </g>
        </g>
    </g>
</svg>