<?xml version="1.0" encoding="UTF-8"?>
<svg width="16px" height="16px" viewBox="0 0 16 16" version="1.1" xmlns="http://www.w3.org/2000/svg" xmlns:xlink="http://www.w3.org/1999/xlink">
    <!-- Generator: sketchtool 45.2 (43514) - http://www.bohemiancoding.com/sketch -->
    <title>3FD89F97-F40A-446F-A8CA-31B010F68B2B</title>
    <desc>Created with sketchtool.</desc>
    <defs></defs>
    <g id="Page-1" stroke="none" stroke-width="1" fill="none" fill-rule="evenodd">
        <g id="City-view-Detail" transform="translate(-187.000000, -298.000000)" fill="#E9483F">
            <g id="Group-39" transform="translate(14.000000, 208.000000)">
                <g id="Group-36" transform="translate(119.000000, 68.000000)">
                    <g id="Group-7" transform="translate(1.000000, 20.000000)">
                        <path d="M59.9508272,6.4031046 C59.9508272,6.97594577 59.8621746,7.48910828 59.6848666,7.94260754 C59.5075586,8.3961068 59.2705832,8.77799518 58.9739333,9.08828415 C58.6772835,9.39857311 58.332902,9.63554849 57.9407785,9.7992174 C57.5486551,9.9628863 57.1343744,10.0447195 56.697924,10.0447195 C56.241015,10.0447195 55.8148003,9.9628863 55.4192671,9.7992174 C55.0237339,9.63554849 54.6810573,9.39857311 54.3912269,9.08828415 C54.1013966,8.77799518 53.8746503,8.3961068 53.7109814,7.94260754 C53.5473125,7.48910828 53.4654793,6.97594577 53.4654793,6.4031046 C53.4654793,5.81662436 53.5473125,5.29493755 53.7109814,4.83802853 C53.8746503,4.3811195 54.1013966,3.9958214 54.3912269,3.68212266 C54.6810573,3.36842393 55.0237339,3.12974369 55.4192671,2.96607479 C55.8148003,2.80240588 56.241015,2.72057266 56.697924,2.72057266 C57.1616526,2.72057266 57.591277,2.80240588 57.9868102,2.96607479 C58.3823434,3.12974369 58.7267249,3.36842393 59.019965,3.68212266 C59.3132051,3.9958214 59.5416562,4.3811195 59.7053251,4.83802853 C59.868994,5.29493755 59.9508272,5.81662436 59.9508272,6.4031046 Z M58.53919,6.4031046 C58.53919,5.95301511 58.4914539,5.57112673 58.3959804,5.257428 C58.3005069,4.94372926 58.1692328,4.68629558 58.0021541,4.48511921 C57.8350754,4.28394285 57.6390166,4.13902985 57.4139719,4.05037586 C57.1889271,3.96172187 56.9502469,3.91739554 56.697924,3.91739554 C56.4456011,3.91739554 56.2103306,3.96172187 55.9921054,4.05037586 C55.7738802,4.13902985 55.582936,4.28394285 55.4192671,4.48511921 C55.2555982,4.68629558 55.1260289,4.94372926 55.0305554,5.257428 C54.9350819,5.57112673 54.8873458,5.95301511 54.8873458,6.4031046 C54.8873458,6.84637455 54.9350819,7.22314836 55.0305554,7.53343732 C55.1260289,7.84372629 55.2555982,8.0960454 55.4192671,8.29040222 C55.582936,8.48475905 55.7738802,8.62455747 55.9921054,8.7098017 C56.2103306,8.79504592 56.4456011,8.83766739 56.697924,8.83766739 C56.9502469,8.83766739 57.1889271,8.79504592 57.4139719,8.7098017 C57.6390166,8.62455747 57.8350754,8.48475905 58.0021541,8.29040222 C58.1692328,8.0960454 58.3005069,7.84372629 58.3959804,7.53343732 C58.4914539,7.22314836 58.53919,6.84637455 58.53919,6.4031046 Z M65.1370597,3.17065989 C65.2052551,3.08882544 65.2853835,3.01722137 65.3774472,2.95584553 C65.469511,2.89446969 65.5939657,2.86378223 65.750815,2.86378223 L67.070389,2.86378223 L56.3501293,17.2256568 C56.2887535,17.3143108 56.21033,17.3859149 56.1148565,17.4404712 C56.0193829,17.4950275 55.9034525,17.5223052 55.7670618,17.5223052 L54.4270293,17.5223052 L65.1370597,3.17065989 Z M68.0626268,14.0648169 C68.0626268,14.6376581 67.9739741,15.1491157 67.7966661,15.5992052 C67.6193581,16.0492947 67.3823828,16.4294782 67.0857329,16.7397672 C66.789083,17.0500562 66.4447015,17.2870315 66.0525781,17.4507004 C65.6604547,17.6143693 65.246174,17.6962026 64.8097236,17.6962026 C64.345995,17.6962026 63.9180754,17.6143693 63.525952,17.4507004 C63.1338286,17.2870315 62.7928568,17.0500562 62.5030265,16.7397672 C62.2131961,16.4294782 61.9864499,16.0492947 61.822781,15.5992052 C61.6591121,15.1491157 61.5772788,14.6376581 61.5772788,14.0648169 C61.5772788,13.4783367 61.6591121,12.954945 61.822781,12.4946262 C61.9864499,12.0343074 62.2131961,11.6473044 62.5030265,11.3336057 C62.7928568,11.019907 63.1338286,10.7812267 63.525952,10.6175578 C63.9180754,10.4538889 64.345995,10.3720557 64.8097236,10.3720557 C65.2666326,10.3720557 65.6945521,10.4538889 66.0934951,10.6175578 C66.4924381,10.7812267 66.8368195,11.019907 67.1266499,11.3336057 C67.4164803,11.6473044 67.6449313,12.0343074 67.81201,12.4946262 C67.9790887,12.954945 68.0626268,13.4783367 68.0626268,14.0648169 Z M66.6509895,14.0648169 C66.6509895,13.6147274 66.6032535,13.2311342 66.5077799,12.9140257 C66.4123064,12.5969172 66.2810323,12.3394835 66.1139536,12.1417169 C65.9468749,11.9439503 65.7508162,11.8007421 65.5257714,11.7120882 C65.3007267,11.6234342 65.0620464,11.5791078 64.8097236,11.5791078 C64.5574007,11.5791078 64.3204253,11.6234342 64.0987903,11.7120882 C63.8771553,11.8007421 63.6845063,11.9439503 63.5208374,12.1417169 C63.3571685,12.3394835 63.2293041,12.5969172 63.1372403,12.9140257 C63.0451765,13.2311342 62.9991453,13.6147274 62.9991453,14.0648169 C62.9991453,14.5080868 63.0451765,14.8831558 63.1372403,15.190035 C63.2293041,15.4969142 63.3571685,15.7475284 63.5208374,15.9418853 C63.6845063,16.1362421 63.8771553,16.2760405 64.0987903,16.3612847 C64.3204253,16.446529 64.5574007,16.4891504 64.8097236,16.4891504 C65.0620464,16.4891504 65.3007267,16.446529 65.5257714,16.3612847 C65.7508162,16.2760405 65.9468749,16.1362421 66.1139536,15.9418853 C66.2810323,15.7475284 66.4123064,15.4969142 66.5077799,15.190035 C66.6032535,14.8831558 66.6509895,14.5080868 66.6509895,14.0648169 Z" id="%"></path>
                    </g>
                </g>
            </g>
        </g>
    </g>
</svg>