<?xml version="1.0" encoding="UTF-8"?>
<svg width="16px" height="13px" viewBox="0 0 16 13" version="1.1" xmlns="http://www.w3.org/2000/svg" xmlns:xlink="http://www.w3.org/1999/xlink">
    <!-- Generator: sketchtool 45.2 (43514) - http://www.bohemiancoding.com/sketch -->
    <title>D7ED7D82-BEE0-4754-8C7F-32CB71F2DEB9</title>
    <desc>Created with sketchtool.</desc>
    <defs></defs>
    <g id="Page-1" stroke="none" stroke-width="1" fill="none" fill-rule="evenodd">
        <g id="Detail-view-2" transform="translate(-319.000000, -407.000000)" fill-rule="nonzero" fill="#E9483F">
            <path d="M333.187082,413.307451 L326.64286,419.646956 L320.113287,413.296767 C319.39551,412.598709 319,411.672714 319,410.686173 C319,409.699632 319.391848,408.773637 320.109625,408.07914 C320.82374,407.384644 321.775893,407 322.78664,407 C323.801049,407 324.756865,407.384644 325.474642,408.082702 L326.302282,408.887605 C326.496375,409.076366 326.807656,409.076366 327.001749,408.887605 L327.822065,408.089825 C328.539842,407.391767 329.495658,407.007123 330.506405,407.007123 C331.517152,407.007123 332.469305,407.391767 333.187082,408.086263 C333.904859,408.784321 334.296707,409.710316 334.296707,410.696857 C334.300369,411.683398 333.904859,412.609393 333.187082,413.307451 Z" id="Shape"></path>
        </g>
    </g>
</svg>