<?xml version="1.0" encoding="UTF-8"?>
<svg width="22px" height="22px" viewBox="0 0 22 22" version="1.1" xmlns="http://www.w3.org/2000/svg" xmlns:xlink="http://www.w3.org/1999/xlink">
    <!-- Generator: sketchtool 45.2 (43514) - http://www.bohemiancoding.com/sketch -->
    <title>7445BB57-E260-4260-8BE2-203EFE85AD80</title>
    <desc>Created with sketchtool.</desc>
    <defs></defs>
    <g id="Page-1" stroke="none" stroke-width="1" fill="none" fill-rule="evenodd" opacity="0.600000024">
        <g id="FFFFFF" transform="translate(-316.000000, -208.000000)" fill-rule="nonzero" fill="#000000">
            <g id="share" transform="translate(316.264466, 208.264466)">
                <path d="M13.9689869,4.30896252 L7.54773274,7.95839201 C6.01982542,6.15417009 3.31863457,5.93017869 1.51441265,7.45808601 C-0.289809259,8.98599333 -0.513800663,11.6871842 1.01410666,13.4914061 C2.54201398,15.295628 5.24320483,15.5196194 7.04742674,13.9917121 C7.22772352,13.8390066 7.39507746,13.6717029 7.54773274,13.4914061 L13.9689869,17.151521 L13.9689869,15.0110862 L8.44670832,11.8539863 C8.67290703,11.118251 8.67290703,10.3315471 8.44670832,9.59586198 L13.9689869,6.44944745 L13.9689869,4.30896252 Z M4.33710567,13.0739744 C3.04267114,13.0739744 1.99334791,12.0246512 1.99334791,10.7302167 C1.99334791,9.43578212 3.04267114,8.3864589 4.33710567,8.3864589 C5.63154021,8.3864589 6.68086343,9.43578212 6.68086343,10.7302167 C6.68086343,12.0246512 5.63154021,13.0739744 4.33710567,13.0739744 Z" id="Shape"></path>
                <path d="M17.1796139,0.0281431529 C14.8153884,0.0281431529 12.8987946,1.94473701 12.8987946,4.30896252 C12.8987946,6.67318803 14.8153884,8.58978189 17.1796139,8.58978189 C19.5438394,8.58978189 21.4604333,6.67318803 21.4604333,4.30896252 C21.4604333,1.94473701 19.5438394,0.0281431529 17.1796139,0.0281431529 Z M17.1796139,6.65272028 C15.8851794,6.65272028 14.8358562,5.60339705 14.8358562,4.30896252 C14.8358562,3.01452799 15.8851794,1.96520476 17.1796139,1.96520476 C18.4740485,1.96520476 19.5233717,3.01452799 19.5233717,4.30896252 C19.5233717,5.60339705 18.4740485,6.65272028 17.1796139,6.65272028 Z" id="Shape"></path>
                <path d="M17.1796139,12.8706514 C14.8153884,12.8706514 12.8987946,14.7872453 12.8987946,17.1514708 C12.8987946,19.5156963 14.8153884,21.4322902 17.1796139,21.4322902 C19.5438394,21.4322902 21.4604333,19.5156963 21.4604333,17.1514708 C21.4604333,14.7872453 19.5438394,12.8706514 17.1796139,12.8706514 Z M17.1796139,19.4952285 C15.8851794,19.4952285 14.8358562,18.4459053 14.8358562,17.1514708 C14.8358562,15.8570363 15.8851794,14.807713 17.1796139,14.807713 C18.4740485,14.807713 19.5233717,15.8570363 19.5233717,17.1514708 C19.5233717,18.4459053 18.4740485,19.4952285 17.1796139,19.4952285 Z" id="Shape"></path>
            </g>
        </g>
    </g>
</svg>