<?xml version="1.0" encoding="UTF-8"?>
<svg width="18px" height="19px" viewBox="0 0 18 19" version="1.1" xmlns="http://www.w3.org/2000/svg" xmlns:xlink="http://www.w3.org/1999/xlink">
    <!-- Generator: sketchtool 45.2 (43514) - http://www.bohemiancoding.com/sketch -->
    <title>096D809C-187B-4AAA-BDDB-D14A9E8D9926</title>
    <desc>Created with sketchtool.</desc>
    <defs></defs>
    <g id="Page-1" stroke="none" stroke-width="1" fill="none" fill-rule="evenodd">
        <g id="City-view-Detail" transform="translate(-207.000000, -877.000000)" stroke="#FFFFFF">
            <g id="Group-24" transform="translate(59.000000, 724.000000)">
                <g id="Group-11" transform="translate(80.000000, 154.000000)">
                    <g id="Group-23">
                        <g id="Group-4" transform="translate(69.125172, 0.125172)">
                            <circle id="Oval-16" cx="8.01091685" cy="8.3748281" r="8.01091685"></circle>
                            <g id="right-arrow-(2)" transform="translate(3.529823, 5.179119)" stroke-width="0.5" fill="#FFFFFF" fill-rule="nonzero">
                                <path d="M5.89260981,0.0925366219 C5.77339597,-0.0308455406 5.57498411,-0.0308455406 5.45160195,0.0925366219 C5.3323881,0.211750468 5.3323881,0.410162324 5.45160195,0.529098283 L7.6877647,2.76526104 L0.308733294,2.76526104 C0.136720775,2.76553892 0,2.9022597 0,3.07427222 C0,3.24628474 0.136720775,3.38745172 0.308733294,3.38745172 L7.6877647,3.38745172 L5.45160195,5.61944615 C5.3323881,5.74282831 5.3323881,5.94151806 5.45160195,6.06045402 C5.57498411,6.18383618 5.77367385,6.18383618 5.89260981,6.06045402 L8.65814874,3.29491509 C8.7815309,3.17570125 8.7815309,2.97728939 8.65814874,2.85835343 L5.89260981,0.0925366219 Z" id="Shape"></path>
                            </g>
                        </g>
                    </g>
                </g>
            </g>
        </g>
    </g>
</svg>