<svg xmlns="http://www.w3.org/2000/svg" width="28" height="28" viewBox="0 0 28 28">
    <g fill="none" fill-rule="nonzero">
        <circle cx="13.55" cy="13.55" r="13.55" fill="#32BAA4"/>
        <g fill="#FFF">
            <path d="M13.892 16.584c.598.599.598 1.625 0 2.223l-1.24 1.24c-.598.598-1.624.598-2.223 0l-5.428-5.472c-.598-.598-.598-1.624 0-2.222l1.24-1.24c.598-.598 1.624-.598 2.222 0l5.429 5.471z"/>
            <path d="M18.636 7.138c.598-.598 1.624-.598 2.223 0l1.24 1.24c.598.598.598 1.624 0 2.222l-9.404 9.361c-.599.598-1.625.598-2.223 0l-1.24-1.24c-.598-.598-.598-1.624 0-2.222l9.404-9.36z"/>
        </g>
    </g>
</svg>
