<svg xmlns="http://www.w3.org/2000/svg" width="1500" height="146" viewBox="0 0 1500 146">
    <defs>
        <linearGradient id="a" x1="100%" x2="0%" y1="50%" y2="50%">
            <stop offset="0%" stop-color="#22B574"/>
            <stop offset="100%" stop-color="#29ABE2"/>
        </linearGradient>
    </defs>
    <g fill="none" fill-rule="evenodd">
        <path fill="url(#a)" d="M0 20h1500v112.436H0z"/>
        <path fill="#FFF" d="M839.824 5.041c1.857-1.592 4.063-2.83 6.617-3.714C848.995.442 851.83 0 854.948 0c2.587 0 4.925.31 7.015.929s3.864 1.487 5.323 2.603c1.46 1.117 2.581 2.443 3.366 3.98.785 1.537 1.178 3.223 1.178 5.058 0 2.255-.514 4.295-1.542 6.12-1.029 1.823-2.582 3.3-4.66 4.427a16.44 16.44 0 0 1 3.034 1.874 12.65 12.65 0 0 1 2.355 2.388 10.82 10.82 0 0 1 1.526 2.836c.365 1.017.547 2.1.547 3.25 0 2.167-.403 4.19-1.21 6.07a14.028 14.028 0 0 1-3.516 4.908c-1.537 1.393-3.422 2.493-5.655 3.3-2.233.807-4.787 1.21-7.661 1.21-1.68 0-3.323-.149-4.926-.447a26.779 26.779 0 0 1-4.593-1.277 25.252 25.252 0 0 1-4.113-1.99A19.51 19.51 0 0 1 838 42.652l2.62-4.278c.243-.31.536-.57.88-.78.342-.21.723-.315 1.143-.315.575 0 1.205.227 1.89.68.686.453 1.515.956 2.488 1.51.973.552 2.128 1.055 3.466 1.508 1.338.453 2.946.68 4.826.68 2.985 0 5.295-.641 6.932-1.924 1.636-1.282 2.454-3.25 2.454-5.903 0-1.084-.221-2.057-.663-2.919a6.175 6.175 0 0 0-1.89-2.189c-.819-.597-1.808-1.056-2.97-1.376-1.16-.32-2.448-.481-3.863-.481h-6.766l-.033-7.164h6.169c2.764 0 4.925-.547 6.484-1.642 1.559-1.094 2.338-2.68 2.338-4.76 0-1.834-.735-3.3-2.206-4.394-1.47-1.094-3.598-1.642-6.384-1.642-1.614 0-3.002.177-4.162.531-1.161.354-2.167.735-3.019 1.144-.85.41-1.57.79-2.155 1.145-.586.353-1.112.53-1.576.53-.442 0-.818-.11-1.128-.331-.31-.222-.597-.553-.862-.995l-2.189-4.246zm58.008 28.921c-2.366.111-4.356.316-5.97.614-1.614.299-2.907.68-3.88 1.144-.973.465-1.67 1.006-2.09 1.625a3.53 3.53 0 0 0-.63 2.024c0 1.437.426 2.465 1.277 3.084.851.62 1.962.929 3.333.929 1.68 0 3.135-.304 4.362-.912 1.227-.608 2.426-1.532 3.598-2.77v-5.738zM879.06 19.203c3.914-3.582 8.623-5.373 14.129-5.373 1.99 0 3.77.327 5.34.979 1.57.652 2.896 1.559 3.98 2.72 1.083 1.16 1.907 2.548 2.47 4.162.565 1.614.846 3.383.846 5.307v21.491h-3.714c-.774 0-1.371-.116-1.791-.348-.42-.232-.752-.702-.995-1.41l-.73-2.454a29.616 29.616 0 0 1-2.52 2.04 14.838 14.838 0 0 1-2.554 1.476c-.885.398-1.83.702-2.836.912-1.006.21-2.117.315-3.333.315-1.438 0-2.764-.193-3.98-.58-1.216-.387-2.267-.968-3.151-1.742-.885-.774-1.57-1.735-2.056-2.885-.487-1.15-.73-2.488-.73-4.013 0-.863.144-1.72.431-2.57.288-.852.757-1.664 1.41-2.438.652-.774 1.498-1.504 2.537-2.19 1.04-.685 2.316-1.282 3.83-1.79 1.515-.509 3.279-.923 5.29-1.244 2.013-.32 4.312-.514 6.9-.58v-1.99c0-2.278-.487-3.964-1.46-5.058-.973-1.095-2.377-1.642-4.212-1.642-1.327 0-2.427.155-3.3.464a13.58 13.58 0 0 0-2.305 1.045c-.664.387-1.266.735-1.808 1.045a3.578 3.578 0 0 1-1.807.464c-.575 0-1.062-.15-1.46-.448a3.741 3.741 0 0 1-.962-1.044l-1.459-2.62zM966.82 42.42v15.024c0 .752-.216 1.35-.647 1.791-.431.443-.99.664-1.675.664h-5.108v-11.41H913.52V14.461h8.192V42.42h11.244V14.46h8.192v27.96h11.243V14.46h8.192v27.96h6.236zm20.231-28.49c2.52 0 4.815.409 6.882 1.227 2.068.818 3.836 1.979 5.307 3.483 1.47 1.503 2.603 3.338 3.4 5.505.795 2.167 1.193 4.588 1.193 7.264 0 2.697-.398 5.13-1.194 7.296-.796 2.167-1.929 4.013-3.4 5.54-1.47 1.525-3.238 2.697-5.306 3.515-2.067.818-4.361 1.227-6.882 1.227-2.543 0-4.853-.41-6.932-1.227-2.078-.818-3.853-1.99-5.323-3.516-1.47-1.526-2.609-3.372-3.416-5.539-.807-2.167-1.21-4.599-1.21-7.296 0-2.676.403-5.097 1.21-7.264.807-2.167 1.946-4.002 3.416-5.505 1.47-1.504 3.245-2.665 5.323-3.483 2.079-.818 4.39-1.227 6.932-1.227zm0 28.755c2.83 0 4.925-.95 6.285-2.852 1.36-1.902 2.04-4.688 2.04-8.358 0-3.67-.68-6.467-2.04-8.391-1.36-1.924-3.455-2.886-6.285-2.886-2.874 0-5.002.968-6.384 2.902-1.382 1.935-2.073 4.727-2.073 8.375 0 3.648.69 6.429 2.073 8.341 1.382 1.913 3.51 2.87 6.384 2.87zm21.36-37.81a23.063 23.063 0 0 1 2.47-1.89 17.736 17.736 0 0 1 2.902-1.559c1.04-.442 2.167-.79 3.383-1.045 1.216-.254 2.532-.381 3.947-.381 1.924 0 3.676.265 5.257.796 1.58.53 2.935 1.288 4.063 2.272a10.13 10.13 0 0 1 2.62 3.565c.62 1.393.929 2.952.929 4.677 0 1.68-.244 3.134-.73 4.361-.486 1.227-1.094 2.294-1.824 3.2a13.812 13.812 0 0 1-2.405 2.356l-2.47 1.873a19.397 19.397 0 0 0-2.007 1.725c-.564.564-.901 1.2-1.012 1.907l-.763 4.842h-5.605l-.564-5.406c-.132-1.039.017-1.95.448-2.736a8.32 8.32 0 0 1 1.725-2.156 22.732 22.732 0 0 1 2.404-1.89 21.796 21.796 0 0 0 2.488-1.99 10.441 10.441 0 0 0 1.94-2.421c.52-.896.78-1.963.78-3.2 0-.797-.15-1.51-.448-2.14a4.838 4.838 0 0 0-1.244-1.625 5.577 5.577 0 0 0-1.907-1.045 7.665 7.665 0 0 0-2.405-.365c-1.26 0-2.327.138-3.2.415-.874.276-1.614.586-2.222.928-.608.343-1.122.653-1.543.929-.42.276-.796.415-1.127.415-.796 0-1.371-.332-1.725-.995l-2.156-3.417zm6.268 39.104a5.1 5.1 0 0 1 .381-1.957c.254-.62.603-1.15 1.045-1.592a5.019 5.019 0 0 1 1.592-1.061 4.998 4.998 0 0 1 1.99-.398 4.88 4.88 0 0 1 1.973.398 5.28 5.28 0 0 1 1.592 1.06c.454.443.813.974 1.078 1.593.266.619.398 1.271.398 1.957a4.929 4.929 0 0 1-1.476 3.549 5.038 5.038 0 0 1-3.565 1.426c-.708 0-1.371-.127-1.99-.382a4.801 4.801 0 0 1-1.592-1.044 4.843 4.843 0 0 1-1.045-1.576 5.063 5.063 0 0 1-.381-1.973z" opacity=".7"/>
        <path fill="#FFF" d="M894.333 81.555c.876-.75 1.917-1.335 3.122-1.752 1.205-.417 2.543-.626 4.013-.626 1.221 0 2.324.146 3.31.438.986.292 1.823.702 2.511 1.228a5.504 5.504 0 0 1 1.589 1.878c.37.725.555 1.52.555 2.386 0 1.064-.242 2.027-.727 2.887-.485.861-1.218 1.557-2.199 2.09.522.25.999.544 1.432.884.433.339.803.714 1.11 1.126.309.412.549.858.72 1.338.173.48.259.991.259 1.534a7.18 7.18 0 0 1-.571 2.863 6.619 6.619 0 0 1-1.659 2.316c-.725.657-1.614 1.176-2.668 1.557-1.054.38-2.258.571-3.615.571a12.667 12.667 0 0 1-4.49-.814 11.914 11.914 0 0 1-1.94-.939 9.204 9.204 0 0 1-1.613-1.22l1.237-2.019c.114-.146.253-.268.414-.367.162-.1.342-.149.54-.149.271 0 .569.107.892.32.323.215.715.452 1.174.713.459.26 1.004.498 1.635.712.631.214 1.39.32 2.277.32 1.408 0 2.498-.302 3.27-.907.772-.605 1.158-1.534 1.158-2.785 0-.512-.104-.97-.313-1.377a2.913 2.913 0 0 0-.892-1.033 4.29 4.29 0 0 0-1.4-.65 6.84 6.84 0 0 0-1.823-.226h-3.193l-.015-3.38h2.91c1.304 0 2.324-.258 3.06-.775.735-.516 1.103-1.265 1.103-2.245 0-.866-.347-1.557-1.041-2.074-.694-.516-1.698-.774-3.012-.774-.762 0-1.416.083-1.964.25-.548.167-1.022.347-1.424.54-.402.193-.74.373-1.017.54-.276.167-.524.25-.743.25a.891.891 0 0 1-.532-.156 1.536 1.536 0 0 1-.407-.47l-1.033-2.003zM921.701 95.2c-1.116.052-2.055.149-2.817.29-.761.14-1.371.32-1.83.54-.46.219-.788.474-.986.766-.198.292-.297.61-.297.955 0 .678.2 1.163.602 1.455.402.292.926.438 1.573.438.792 0 1.478-.143 2.057-.43.58-.287 1.145-.722 1.698-1.307V95.2zm-8.857-6.963c1.847-1.69 4.069-2.535 6.666-2.535.94 0 1.779.154 2.52.462.74.307 1.366.735 1.877 1.283.512.547.9 1.202 1.166 1.964.266.761.4 1.596.4 2.503v10.14h-1.753c-.365 0-.647-.055-.845-.164-.199-.11-.355-.332-.47-.665l-.344-1.158c-.407.365-.803.686-1.19.962a7 7 0 0 1-1.204.696 6.474 6.474 0 0 1-1.338.43c-.475.1-.999.15-1.573.15a6.164 6.164 0 0 1-1.877-.274 4.126 4.126 0 0 1-1.487-.822 3.688 3.688 0 0 1-.97-1.361c-.23-.543-.344-1.174-.344-1.894 0-.407.068-.81.203-1.212.136-.402.357-.785.665-1.15.308-.366.707-.71 1.197-1.033.49-.324 1.093-.605 1.808-.845.714-.24 1.546-.436 2.495-.587a24.93 24.93 0 0 1 3.255-.274v-.939c0-1.074-.23-1.87-.688-2.386-.46-.516-1.122-.775-1.988-.775-.626 0-1.145.073-1.557.22-.412.145-.774.31-1.087.492-.313.183-.597.347-.853.493-.256.146-.54.22-.853.22-.271 0-.5-.071-.688-.212a1.765 1.765 0 0 1-.454-.493l-.689-1.236zM954.25 99.19v7.089c0 .355-.102.636-.306.845-.203.209-.466.313-.79.313h-2.41v-5.383h-21.64V85.999h3.865V99.19h5.304V86h3.865v13.19h5.305V86h3.865v13.19h2.942zm9.545-13.441c1.189 0 2.271.193 3.247.579.975.386 1.81.934 2.503 1.643.694.71 1.229 1.575 1.604 2.597.376 1.023.563 2.165.563 3.427 0 1.273-.187 2.42-.563 3.443-.375 1.022-.91 1.893-1.604 2.613a7.01 7.01 0 0 1-2.503 1.659c-.976.386-2.058.579-3.247.579-1.2 0-2.29-.193-3.27-.58a6.996 6.996 0 0 1-2.512-1.658c-.694-.72-1.231-1.59-1.612-2.613-.38-1.022-.571-2.17-.571-3.443 0-1.262.19-2.404.571-3.427.38-1.022.918-1.888 1.612-2.597a7.099 7.099 0 0 1 2.511-1.643c.98-.386 2.071-.579 3.27-.579zm0 13.567c1.335 0 2.323-.449 2.965-1.346.642-.897.962-2.212.962-3.943 0-1.732-.32-3.052-.962-3.96-.642-.907-1.63-1.36-2.965-1.36-1.356 0-2.36.456-3.013 1.369-.652.912-.977 2.23-.977 3.95 0 1.722.325 3.034.977 3.936.652.902 1.657 1.354 3.013 1.354zm10.077-17.839c.355-.313.743-.61 1.166-.892a8.368 8.368 0 0 1 2.965-1.228 9.097 9.097 0 0 1 1.862-.18c.908 0 1.734.125 2.48.375s1.385.608 1.917 1.072a4.78 4.78 0 0 1 1.236 1.682c.292.658.438 1.393.438 2.207 0 .793-.114 1.479-.344 2.057a5.794 5.794 0 0 1-.86 1.51 6.516 6.516 0 0 1-1.135 1.111l-1.166.885c-.365.276-.68.547-.946.813a1.607 1.607 0 0 0-.478.9l-.36 2.285h-2.644l-.266-2.551c-.063-.49.008-.92.211-1.29.204-.371.475-.71.814-1.018.339-.308.717-.605 1.134-.892.418-.287.809-.6 1.174-.939.365-.339.67-.72.915-1.142.245-.423.368-.926.368-1.51 0-.376-.07-.712-.211-1.01a2.282 2.282 0 0 0-.587-.766 2.631 2.631 0 0 0-.9-.493 3.616 3.616 0 0 0-1.134-.172c-.595 0-1.098.065-1.51.195-.412.13-.762.277-1.049.439-.287.161-.53.307-.727.438-.199.13-.376.195-.532.195-.376 0-.647-.156-.814-.47l-1.017-1.61zm2.957 18.449c0-.324.06-.631.18-.923.12-.292.285-.543.493-.751.209-.21.46-.376.751-.501.292-.125.605-.188.94-.188.333 0 .643.063.93.188.287.125.537.292.751.5.214.21.384.46.509.752s.188.6.188.923a2.325 2.325 0 0 1-1.447 2.167c-.288.12-.598.18-.932.18-.334 0-.647-.06-.939-.18a2.265 2.265 0 0 1-.75-.493 2.285 2.285 0 0 1-.494-.743 2.389 2.389 0 0 1-.18-.931z" opacity=".34"/>
        <path fill="#FFF" d="M375.565 74.375c1.593-1.366 3.485-2.428 5.676-3.187 2.191-.758 4.624-1.138 7.299-1.138 2.219 0 4.225.266 6.017.797 1.793.531 3.315 1.276 4.567 2.234 1.252.957 2.215 2.096 2.888 3.414.674 1.318 1.01 2.765 1.01 4.339 0 1.935-.44 3.685-1.323 5.25-.882 1.565-2.214 2.83-3.997 3.798.948.455 1.816.991 2.603 1.608.787.616 1.46 1.3 2.02 2.048.56.75.996 1.56 1.31 2.433.312.873.469 1.802.469 2.789 0 1.859-.347 3.594-1.039 5.207a12.035 12.035 0 0 1-3.016 4.21c-1.318 1.196-2.935 2.14-4.851 2.832-1.916.692-4.107 1.038-6.573 1.038-1.442 0-2.85-.128-4.225-.384a22.973 22.973 0 0 1-3.941-1.095 21.663 21.663 0 0 1-3.528-1.708 16.737 16.737 0 0 1-2.931-2.219l2.248-3.67c.208-.266.46-.489.754-.669.294-.18.621-.27.981-.27.494 0 1.034.194 1.622.583.588.389 1.3.82 2.134 1.295.835.474 1.826.905 2.974 1.294 1.147.39 2.527.584 4.14.584 2.56 0 4.543-.55 5.946-1.65 1.404-1.101 2.106-2.79 2.106-5.065 0-.93-.19-1.765-.57-2.504a5.297 5.297 0 0 0-1.621-1.878c-.702-.512-1.55-.906-2.547-1.181-.995-.275-2.1-.413-3.314-.413h-5.805l-.028-6.146h5.292c2.371 0 4.225-.469 5.563-1.408 1.337-.939 2.006-2.3 2.006-4.083 0-1.574-.631-2.831-1.893-3.77-1.261-.939-3.087-1.408-5.477-1.408-1.385 0-2.575.151-3.57.455-.997.303-1.86.63-2.59.981-.73.351-1.347.679-1.85.982-.502.304-.953.455-1.351.455-.38 0-.702-.095-.967-.284-.266-.19-.513-.474-.74-.854l-1.878-3.642zm49.765 24.811c-2.03.095-3.737.27-5.122.527-1.385.256-2.494.583-3.329.981-.835.399-1.432.863-1.792 1.395-.36.53-.541 1.11-.541 1.735 0 1.233.365 2.115 1.095 2.646.73.532 1.684.797 2.86.797 1.442 0 2.689-.26 3.742-.782 1.052-.522 2.081-1.314 3.087-2.376v-4.923zm-16.105-12.661c3.358-3.073 7.398-4.61 12.121-4.61 1.707 0 3.234.28 4.581.84 1.347.56 2.485 1.337 3.415 2.333.93.996 1.636 2.186 2.12 3.57.483 1.385.725 2.903.725 4.553v18.438H429c-.664 0-1.176-.1-1.536-.299-.36-.199-.645-.602-.854-1.21l-.626-2.105c-.74.664-1.46 1.248-2.162 1.75a12.73 12.73 0 0 1-2.191 1.266c-.759.342-1.57.603-2.433.783-.863.18-1.816.27-2.86.27-1.233 0-2.37-.166-3.414-.498-1.043-.332-1.944-.83-2.703-1.494a6.706 6.706 0 0 1-1.764-2.475c-.417-.986-.626-2.134-.626-3.443 0-.74.123-1.475.37-2.205.246-.73.65-1.427 1.21-2.091.559-.664 1.284-1.29 2.176-1.878.891-.588 1.987-1.1 3.286-1.537 1.3-.436 2.812-.792 4.538-1.067 1.727-.275 3.7-.44 5.919-.498v-1.707c0-1.954-.418-3.4-1.252-4.339-.835-.939-2.04-1.408-3.614-1.408-1.138 0-2.082.132-2.83.398a11.65 11.65 0 0 0-1.978.896c-.57.332-1.086.631-1.551.897a3.07 3.07 0 0 1-1.55.398c-.494 0-.911-.128-1.253-.384a3.21 3.21 0 0 1-.825-.897l-1.252-2.247zm75.287 19.917v12.89c0 .644-.184 1.156-.554 1.536-.37.38-.85.569-1.437.569h-4.382v-9.788h-39.35V82.456h7.027v23.986h9.646V82.456h7.028v23.986h9.645V82.456h7.028v23.986h5.35zm17.357-24.441c2.162 0 4.13.35 5.904 1.052 1.774.702 3.291 1.698 4.553 2.988 1.261 1.29 2.233 2.864 2.916 4.723.683 1.86 1.024 3.936 1.024 6.231 0 2.315-.341 4.401-1.024 6.26-.683 1.86-1.655 3.443-2.916 4.752-1.262 1.309-2.78 2.314-4.553 3.016-1.774.702-3.742 1.053-5.904 1.053-2.181 0-4.164-.351-5.947-1.053-1.783-.702-3.305-1.707-4.567-3.016-1.261-1.309-2.238-2.893-2.93-4.752-.693-1.859-1.039-3.945-1.039-6.26 0-2.295.346-4.372 1.039-6.23.692-1.86 1.669-3.434 2.93-4.724 1.262-1.29 2.784-2.286 4.567-2.988 1.783-.701 3.766-1.052 5.947-1.052zm0 24.669c2.428 0 4.225-.816 5.392-2.447 1.166-1.632 1.75-4.022 1.75-7.17 0-3.15-.584-5.549-1.75-7.2-1.167-1.65-2.964-2.475-5.392-2.475-2.466 0-4.292.83-5.477 2.49-1.186 1.66-1.779 4.055-1.779 7.184 0 3.13.593 5.516 1.779 7.156 1.185 1.641 3.011 2.462 5.477 2.462zm18.324-32.437c.645-.57 1.351-1.11 2.12-1.622a15.216 15.216 0 0 1 2.49-1.337c.89-.38 1.858-.678 2.902-.897a16.541 16.541 0 0 1 3.385-.327c1.65 0 3.154.228 4.51.683 1.357.455 2.518 1.105 3.486 1.95a8.69 8.69 0 0 1 2.248 3.058c.53 1.195.796 2.532.796 4.012 0 1.441-.208 2.689-.626 3.741-.417 1.053-.939 1.968-1.565 2.746a11.849 11.849 0 0 1-2.062 2.02l-2.12 1.608c-.664.503-1.238.996-1.722 1.48-.483.483-.773 1.029-.867 1.636l-.655 4.154h-4.808l-.484-4.638c-.114-.892.014-1.674.384-2.348.37-.673.863-1.29 1.48-1.849.616-.56 1.304-1.1 2.062-1.622a18.7 18.7 0 0 0 2.134-1.707 8.957 8.957 0 0 0 1.665-2.077c.446-.768.669-1.684.669-2.746 0-.683-.129-1.294-.385-1.835a4.15 4.15 0 0 0-1.067-1.394c-.455-.39-1-.688-1.636-.897a6.575 6.575 0 0 0-2.063-.313c-1.08 0-1.996.119-2.745.356-.75.237-1.385.503-1.907.797-.521.294-.962.56-1.323.796-.36.238-.683.356-.967.356-.683 0-1.176-.284-1.48-.853l-1.85-2.931zm5.378 33.546c0-.588.109-1.147.327-1.678.218-.532.517-.987.896-1.366.38-.38.835-.683 1.366-.91a4.288 4.288 0 0 1 1.707-.342c.607 0 1.171.114 1.693.341a4.53 4.53 0 0 1 1.366.91c.389.38.697.835.924 1.367.228.53.342 1.09.342 1.678a4.228 4.228 0 0 1-1.266 3.044 4.322 4.322 0 0 1-3.059 1.224 4.45 4.45 0 0 1-1.707-.327 4.119 4.119 0 0 1-1.366-.896c-.38-.38-.678-.83-.896-1.352a4.344 4.344 0 0 1-.327-1.693z" opacity=".8"/>
        <path fill="#FFF" d="M568.035 62.69h.945c.38 0 .695-.052.945-.157a1.6 1.6 0 0 0 .645-.503l5.985-7.575c.25-.32.512-.542.788-.667.275-.126.622-.188 1.042-.188h3.48l-7.305 9.015c-.43.55-.875.94-1.335 1.17.33.12.627.287.892.502.266.216.518.498.758.848l7.53 10.155h-3.555c-.48 0-.837-.067-1.072-.203a1.68 1.68 0 0 1-.593-.592l-6.135-8.01c-.19-.27-.41-.46-.66-.57-.25-.11-.61-.165-1.08-.165h-1.275v9.54H564V53.6h4.035v9.09zm24.075 6.03c-1.07.05-1.97.142-2.7.278-.73.135-1.315.307-1.755.517-.44.21-.755.455-.945.735-.19.28-.285.585-.285.915 0 .65.192 1.115.578 1.395.385.28.887.42 1.507.42.76 0 1.417-.137 1.972-.413.556-.275 1.098-.692 1.628-1.252V68.72zm-8.49-6.675c1.77-1.62 3.9-2.43 6.39-2.43.9 0 1.705.147 2.415.442.71.296 1.31.705 1.8 1.23.49.526.862 1.153 1.117 1.883.256.73.383 1.53.383 2.4v9.72h-1.68c-.35 0-.62-.052-.81-.158-.19-.105-.34-.317-.45-.637l-.33-1.11c-.39.35-.77.657-1.14.922a6.71 6.71 0 0 1-1.155.668c-.4.18-.827.317-1.282.413a7.39 7.39 0 0 1-1.508.142 5.91 5.91 0 0 1-1.8-.263 3.955 3.955 0 0 1-1.425-.787c-.4-.35-.71-.785-.93-1.305-.22-.52-.33-1.125-.33-1.815 0-.39.065-.777.195-1.162.13-.386.342-.753.637-1.103.296-.35.678-.68 1.148-.99.47-.31 1.047-.58 1.732-.81.686-.23 1.483-.417 2.393-.563.91-.145 1.95-.232 3.12-.262v-.9c0-1.03-.22-1.792-.66-2.287-.44-.496-1.075-.743-1.905-.743-.6 0-1.097.07-1.492.21-.396.14-.743.297-1.043.472-.3.176-.572.333-.817.473-.246.14-.518.21-.818.21-.26 0-.48-.067-.66-.203a1.692 1.692 0 0 1-.435-.472l-.66-1.185zM602.91 53v12.765h.69c.25 0 .447-.032.592-.097.146-.066.293-.198.443-.398l3.825-4.725c.16-.21.337-.37.532-.48.196-.11.448-.165.758-.165h3.39l-4.785 5.715c-.34.45-.71.795-1.11 1.035.21.15.397.325.563.525.165.2.322.415.472.645l5.13 7.47h-3.345c-.29 0-.54-.047-.75-.143-.21-.095-.385-.267-.525-.517l-3.93-5.835c-.14-.23-.285-.38-.435-.45-.15-.07-.375-.105-.675-.105h-.84v7.05h-3.705V53h3.705zm11.565 2.565c.34-.3.712-.585 1.117-.855a8.021 8.021 0 0 1 2.843-1.178 8.72 8.72 0 0 1 1.785-.172c.87 0 1.662.12 2.377.36.716.24 1.328.582 1.838 1.028.51.445.905.982 1.185 1.612.28.63.42 1.335.42 2.115 0 .76-.11 1.417-.33 1.972a5.554 5.554 0 0 1-.825 1.448c-.33.41-.692.765-1.087 1.065l-1.118.847c-.35.266-.652.525-.907.78a1.54 1.54 0 0 0-.458.863l-.345 2.19h-2.535l-.255-2.445c-.06-.47.007-.882.203-1.237.195-.356.454-.68.78-.975.325-.296.687-.58 1.087-.855.4-.276.775-.575 1.125-.9.35-.326.642-.69.878-1.096.235-.405.352-.887.352-1.447 0-.36-.067-.682-.202-.968a2.188 2.188 0 0 0-.563-.734 2.522 2.522 0 0 0-.863-.473 3.466 3.466 0 0 0-1.087-.165c-.57 0-1.052.062-1.447.188-.396.125-.73.264-1.005.42a12.1 12.1 0 0 0-.698.42c-.19.125-.36.187-.51.187-.36 0-.62-.15-.78-.45l-.975-1.545zm2.835 17.685c0-.31.057-.605.173-.885.115-.28.272-.52.472-.72.2-.2.44-.36.72-.48.28-.12.58-.18.9-.18.32 0 .617.06.892.18.276.12.515.28.72.48.206.2.368.44.488.72.12.28.18.575.18.885a2.23 2.23 0 0 1-1.388 2.078 2.29 2.29 0 0 1-.892.172c-.32 0-.62-.057-.9-.172a2.171 2.171 0 0 1-.72-.473 2.19 2.19 0 0 1-.473-.713 2.29 2.29 0 0 1-.172-.892z" opacity=".3"/>
        <path fill="#FFF" d="M774.176 77.832h1.447c.581 0 1.063-.08 1.446-.241.383-.16.712-.417.987-.77l9.161-11.594c.383-.49.785-.83 1.206-1.022.42-.19.953-.287 1.596-.287h5.326l-11.181 13.8c-.658.841-1.34 1.438-2.044 1.79a4.7 4.7 0 0 1 1.366.77c.406.328.793.76 1.16 1.297l11.526 15.543h-5.442c-.734 0-1.282-.103-1.641-.31a2.571 2.571 0 0 1-.907-.906l-9.39-12.261c-.292-.413-.628-.704-1.011-.873-.383-.168-.934-.252-1.653-.252h-1.952v14.602H768v-33.2h6.176v13.914zm36.85 9.23c-1.637.077-3.015.218-4.132.425-1.117.206-2.013.47-2.686.792-.674.321-1.156.696-1.447 1.125-.29.428-.436.895-.436 1.4 0 .995.295 1.707.884 2.136.59.428 1.358.643 2.307.643 1.164 0 2.17-.21 3.02-.632.85-.42 1.68-1.06 2.49-1.917v-3.972zm-12.994-10.217c2.709-2.48 5.97-3.72 9.78-3.72 1.378 0 2.61.226 3.697.678 1.087.451 2.005 1.079 2.755 1.882.75.804 1.32 1.764 1.71 2.882.391 1.117.586 2.342.586 3.673v14.878h-2.571c-.536 0-.95-.08-1.24-.24-.291-.161-.52-.487-.689-.976l-.505-1.7a20.502 20.502 0 0 1-1.745 1.413c-.566.405-1.156.746-1.768 1.021a9.499 9.499 0 0 1-1.963.632 11.31 11.31 0 0 1-2.307.218c-.995 0-1.914-.134-2.756-.402a6.054 6.054 0 0 1-2.18-1.205 5.411 5.411 0 0 1-1.424-1.998c-.337-.796-.505-1.722-.505-2.778 0-.597.099-1.19.298-1.78.199-.589.524-1.151.976-1.687.451-.536 1.037-1.04 1.756-1.515.72-.475 1.604-.888 2.652-1.24 1.049-.352 2.27-.64 3.662-.861 1.393-.222 2.985-.356 4.776-.402V82.24c0-1.576-.337-2.743-1.01-3.501-.674-.758-1.646-1.136-2.916-1.136-.919 0-1.68.107-2.285.32a9.401 9.401 0 0 0-1.595.724c-.46.268-.877.51-1.252.723a2.477 2.477 0 0 1-1.251.322c-.398 0-.735-.103-1.01-.31a2.59 2.59 0 0 1-.666-.723l-1.01-1.814zM827.558 63v19.539h1.056c.383 0 .685-.05.907-.15.222-.099.448-.302.677-.608l5.855-7.232c.245-.322.517-.567.815-.735.299-.168.685-.252 1.16-.252h5.189l-7.325 8.747c-.52.69-1.086 1.217-1.699 1.585.322.23.609.497.861.803.253.306.494.635.724.987l7.852 11.434h-5.12c-.444 0-.827-.072-1.148-.218-.322-.145-.59-.41-.804-.792l-6.015-8.931c-.215-.352-.436-.582-.666-.689-.23-.107-.574-.16-1.033-.16h-1.286v10.79h-5.671V63h5.671zm17.702 3.926c.52-.46 1.09-.895 1.71-1.309.62-.413 1.29-.773 2.01-1.079.719-.306 1.5-.547 2.342-.723a13.348 13.348 0 0 1 2.732-.264c1.331 0 2.544.184 3.639.551 1.094.367 2.032.892 2.812 1.573a7.013 7.013 0 0 1 1.814 2.468c.429.964.643 2.043.643 3.237 0 1.164-.168 2.17-.505 3.02a8.502 8.502 0 0 1-1.263 2.215 9.561 9.561 0 0 1-1.664 1.63l-1.71 1.298c-.537.405-1 .803-1.39 1.194-.39.39-.624.83-.7 1.32l-.528 3.352h-3.88l-.39-3.743c-.093-.719.01-1.35.31-1.894a5.76 5.76 0 0 1 1.193-1.492 15.737 15.737 0 0 1 1.665-1.309c.612-.42 1.186-.88 1.722-1.377a7.228 7.228 0 0 0 1.343-1.677c.36-.62.54-1.358.54-2.215 0-.551-.104-1.045-.31-1.481a3.349 3.349 0 0 0-.862-1.125 3.86 3.86 0 0 0-1.32-.723 5.306 5.306 0 0 0-1.664-.253c-.873 0-1.611.096-2.216.287a8.169 8.169 0 0 0-1.538.643c-.421.237-.777.451-1.068.643-.29.191-.551.287-.78.287-.552 0-.95-.23-1.195-.689l-1.492-2.365zm4.34 27.07c0-.475.088-.926.264-1.355.176-.428.417-.796.723-1.102a3.474 3.474 0 0 1 1.102-.735 3.46 3.46 0 0 1 1.377-.275c.49 0 .946.092 1.367.275.42.184.788.429 1.102.735.313.306.562.674.746 1.102.184.429.275.88.275 1.355a3.412 3.412 0 0 1-2.124 3.18c-.42.176-.876.264-1.366.264a3.59 3.59 0 0 1-1.377-.264 3.324 3.324 0 0 1-1.102-.723 3.353 3.353 0 0 1-.723-1.091 3.505 3.505 0 0 1-.264-1.366zM1131.176 55.832h1.447c.581 0 1.063-.08 1.446-.241.383-.16.712-.417.987-.77l9.161-11.594c.383-.49.785-.83 1.206-1.022.42-.19.953-.287 1.596-.287h5.326l-11.181 13.8c-.658.841-1.34 1.438-2.044 1.79a4.7 4.7 0 0 1 1.366.77c.406.328.793.76 1.16 1.297l11.526 15.543h-5.442c-.734 0-1.282-.103-1.641-.31a2.571 2.571 0 0 1-.907-.906l-9.39-12.261c-.292-.413-.628-.704-1.011-.873-.383-.168-.934-.252-1.653-.252h-1.952v14.602H1125v-33.2h6.176v13.914zm36.85 9.23c-1.637.077-3.015.218-4.132.425-1.117.206-2.013.47-2.686.792-.674.321-1.156.696-1.447 1.125-.29.428-.436.895-.436 1.4 0 .995.295 1.707.884 2.136.59.428 1.358.643 2.307.643 1.164 0 2.17-.21 3.02-.632.85-.42 1.68-1.06 2.49-1.917v-3.972zm-12.994-10.217c2.709-2.48 5.97-3.72 9.78-3.72 1.378 0 2.61.226 3.697.678 1.087.451 2.005 1.079 2.755 1.882.75.804 1.32 1.764 1.71 2.882.391 1.117.586 2.342.586 3.673v14.878h-2.571c-.536 0-.95-.08-1.24-.24-.291-.161-.52-.487-.689-.976l-.505-1.7a20.501 20.501 0 0 1-1.745 1.413c-.566.405-1.156.746-1.768 1.021a9.499 9.499 0 0 1-1.963.632 11.31 11.31 0 0 1-2.307.218c-.995 0-1.914-.134-2.756-.402a6.054 6.054 0 0 1-2.18-1.205 5.411 5.411 0 0 1-1.424-1.998c-.337-.796-.505-1.722-.505-2.778 0-.597.099-1.19.298-1.78.199-.589.524-1.151.976-1.687.451-.536 1.037-1.04 1.756-1.515.72-.475 1.604-.888 2.652-1.24 1.049-.352 2.27-.64 3.662-.861 1.393-.222 2.985-.356 4.776-.402V60.24c0-1.576-.337-2.743-1.01-3.501-.674-.758-1.646-1.136-2.916-1.136-.919 0-1.68.107-2.285.32a9.401 9.401 0 0 0-1.596.724c-.459.268-.876.51-1.25.723a2.477 2.477 0 0 1-1.252.322c-.398 0-.735-.103-1.01-.31a2.59 2.59 0 0 1-.666-.723l-1.01-1.814zM1184.558 41v19.539h1.056c.383 0 .685-.05.907-.15.222-.099.448-.302.677-.608l5.855-7.232c.245-.322.517-.567.815-.735.299-.168.685-.252 1.16-.252h5.189l-7.325 8.747c-.52.69-1.086 1.217-1.699 1.585.322.23.609.497.861.803.253.306.494.635.724.987l7.852 11.434h-5.12c-.444 0-.827-.072-1.148-.218-.322-.145-.59-.41-.804-.792l-6.015-8.931c-.214-.352-.436-.582-.666-.689-.23-.107-.574-.16-1.033-.16h-1.286v10.79h-5.671V41h5.671zm17.702 3.926c.52-.46 1.09-.895 1.71-1.309.62-.413 1.29-.773 2.01-1.079.719-.306 1.5-.547 2.342-.723a13.348 13.348 0 0 1 2.732-.264c1.331 0 2.544.184 3.639.551 1.094.367 2.032.892 2.812 1.573a7.013 7.013 0 0 1 1.814 2.468c.429.964.643 2.043.643 3.237 0 1.164-.168 2.17-.505 3.02a8.502 8.502 0 0 1-1.263 2.215 9.561 9.561 0 0 1-1.664 1.63l-1.71 1.298c-.537.405-1 .803-1.39 1.194-.39.39-.624.83-.7 1.32l-.528 3.352h-3.88l-.39-3.743c-.093-.719.01-1.35.31-1.894a5.76 5.76 0 0 1 1.193-1.492 15.735 15.735 0 0 1 1.665-1.309c.612-.42 1.186-.88 1.722-1.377a7.228 7.228 0 0 0 1.343-1.677c.36-.62.54-1.358.54-2.215 0-.551-.104-1.045-.31-1.481a3.349 3.349 0 0 0-.862-1.125 3.86 3.86 0 0 0-1.32-.723 5.306 5.306 0 0 0-1.664-.253c-.873 0-1.611.096-2.216.287a8.169 8.169 0 0 0-1.538.643c-.421.237-.777.451-1.068.643-.29.191-.551.287-.78.287-.552 0-.95-.23-1.195-.689l-1.492-2.365zm4.34 27.07c0-.475.088-.926.264-1.355.176-.428.417-.796.723-1.102a3.474 3.474 0 0 1 1.102-.735 3.46 3.46 0 0 1 1.377-.275c.49 0 .946.092 1.367.275.42.184.788.429 1.102.735.313.306.562.674.746 1.102.184.429.275.88.275 1.355a3.412 3.412 0 0 1-2.124 3.18c-.42.176-.876.264-1.366.264a3.59 3.59 0 0 1-1.377-.264 3.324 3.324 0 0 1-1.102-.723 3.353 3.353 0 0 1-.723-1.091 3.505 3.505 0 0 1-.264-1.366z" opacity=".5"/>
        <path fill="#FFF" d="M399.176 27.832h1.447c.581 0 1.063-.08 1.446-.241.383-.16.712-.417.987-.77l9.161-11.594c.383-.49.785-.83 1.206-1.022.42-.19.953-.287 1.596-.287h5.326l-11.181 13.8c-.658.841-1.34 1.438-2.044 1.79a4.7 4.7 0 0 1 1.366.77c.406.328.793.76 1.16 1.297l11.526 15.543h-5.442c-.734 0-1.282-.103-1.641-.31a2.571 2.571 0 0 1-.907-.906l-9.39-12.261c-.292-.413-.628-.704-1.011-.873-.383-.168-.934-.252-1.653-.252h-1.952v14.602H393v-33.2h6.176v13.914zm36.85 9.23c-1.637.077-3.015.218-4.132.425-1.117.206-2.013.47-2.686.792-.674.321-1.156.696-1.447 1.125-.29.428-.436.895-.436 1.4 0 .995.295 1.707.884 2.136.59.428 1.358.643 2.307.643 1.164 0 2.17-.21 3.02-.632.85-.42 1.68-1.06 2.49-1.917v-3.972zm-12.994-10.217c2.709-2.48 5.97-3.72 9.78-3.72 1.378 0 2.61.226 3.697.678 1.087.451 2.005 1.079 2.755 1.882.75.804 1.32 1.764 1.71 2.882.391 1.117.586 2.342.586 3.673v14.878h-2.571c-.536 0-.95-.08-1.24-.24-.291-.161-.52-.487-.689-.976l-.505-1.7a20.502 20.502 0 0 1-1.745 1.413c-.566.405-1.156.746-1.768 1.021a9.499 9.499 0 0 1-1.963.632 11.31 11.31 0 0 1-2.307.218c-.995 0-1.914-.134-2.756-.402a6.054 6.054 0 0 1-2.18-1.205 5.411 5.411 0 0 1-1.424-1.998c-.337-.796-.505-1.722-.505-2.778 0-.597.099-1.19.298-1.78.199-.589.524-1.151.976-1.687.451-.536 1.037-1.04 1.756-1.515.72-.475 1.604-.888 2.652-1.24 1.049-.352 2.27-.64 3.662-.861 1.393-.222 2.985-.356 4.776-.402V32.24c0-1.576-.337-2.743-1.01-3.501-.674-.758-1.646-1.136-2.916-1.136-.919 0-1.68.107-2.285.32a9.401 9.401 0 0 0-1.595.724c-.46.268-.877.51-1.252.723a2.477 2.477 0 0 1-1.251.322c-.398 0-.735-.103-1.01-.31a2.59 2.59 0 0 1-.666-.723l-1.01-1.814zM452.558 13v19.539h1.056c.383 0 .685-.05.907-.15.222-.099.448-.302.677-.608l5.855-7.232c.245-.322.517-.567.815-.735.299-.168.685-.252 1.16-.252h5.189l-7.325 8.747c-.52.69-1.086 1.217-1.699 1.585.322.23.609.497.861.803.253.306.494.635.724.987l7.852 11.434h-5.12c-.444 0-.827-.072-1.148-.218-.322-.145-.59-.41-.804-.792l-6.015-8.931c-.215-.352-.436-.582-.666-.689-.23-.107-.574-.16-1.033-.16h-1.286v10.79h-5.671V13h5.671zm17.702 3.926c.52-.46 1.09-.895 1.71-1.309.62-.413 1.29-.773 2.01-1.079.719-.306 1.5-.547 2.342-.723a13.348 13.348 0 0 1 2.732-.264c1.331 0 2.544.184 3.639.551 1.094.367 2.032.892 2.812 1.573a7.013 7.013 0 0 1 1.814 2.468c.429.964.643 2.043.643 3.237 0 1.164-.168 2.17-.505 3.02a8.502 8.502 0 0 1-1.263 2.215 9.561 9.561 0 0 1-1.664 1.63l-1.71 1.298c-.537.405-1 .803-1.39 1.194-.39.39-.624.83-.7 1.32l-.528 3.352h-3.88l-.39-3.743c-.093-.719.01-1.35.31-1.894a5.76 5.76 0 0 1 1.193-1.492 15.737 15.737 0 0 1 1.665-1.309c.612-.42 1.186-.88 1.722-1.377a7.228 7.228 0 0 0 1.343-1.677c.36-.62.54-1.358.54-2.215 0-.551-.104-1.045-.31-1.481a3.349 3.349 0 0 0-.862-1.125 3.86 3.86 0 0 0-1.32-.723 5.306 5.306 0 0 0-1.664-.253c-.873 0-1.611.096-2.216.287a8.169 8.169 0 0 0-1.538.643c-.421.237-.777.451-1.068.643-.29.191-.551.287-.78.287-.552 0-.95-.23-1.195-.689l-1.492-2.365zm4.34 27.07c0-.475.088-.926.264-1.355.176-.428.417-.796.723-1.102a3.474 3.474 0 0 1 1.102-.735 3.46 3.46 0 0 1 1.377-.275c.49 0 .946.092 1.367.275.42.184.788.429 1.102.735.313.306.562.674.746 1.102.184.429.275.88.275 1.355a3.412 3.412 0 0 1-2.124 3.18c-.42.176-.876.264-1.366.264a3.59 3.59 0 0 1-1.377-.264 3.324 3.324 0 0 1-1.102-.723 3.353 3.353 0 0 1-.723-1.091 3.505 3.505 0 0 1-.264-1.366z" opacity=".8"/>
        <path fill="#FFF" d="M619.176 125.832h1.447c.581 0 1.063-.08 1.446-.241.383-.16.712-.417.987-.77l9.161-11.594c.383-.49.785-.83 1.206-1.022.42-.19.953-.287 1.596-.287h5.326l-11.181 13.8c-.658.841-1.34 1.438-2.044 1.79a4.7 4.7 0 0 1 1.366.77c.406.328.793.76 1.16 1.297l11.526 15.543h-5.442c-.734 0-1.282-.103-1.641-.31a2.571 2.571 0 0 1-.907-.906l-9.39-12.261c-.292-.413-.628-.704-1.011-.873-.383-.168-.934-.252-1.653-.252h-1.952v14.602H613v-33.2h6.176v13.914zm36.85 9.23c-1.637.077-3.015.218-4.132.425-1.117.206-2.013.47-2.686.792-.674.321-1.156.696-1.447 1.125-.29.428-.436.895-.436 1.4 0 .995.295 1.707.884 2.136.59.428 1.358.643 2.307.643 1.164 0 2.17-.21 3.02-.632.85-.42 1.68-1.06 2.49-1.917v-3.972zm-12.994-10.217c2.709-2.48 5.97-3.72 9.78-3.72 1.378 0 2.61.226 3.697.678 1.087.451 2.005 1.079 2.755 1.882.75.804 1.32 1.764 1.71 2.882.391 1.117.586 2.342.586 3.673v14.878h-2.571c-.536 0-.95-.08-1.24-.24-.291-.161-.52-.487-.689-.976l-.505-1.7a20.502 20.502 0 0 1-1.745 1.413c-.566.405-1.156.746-1.768 1.021a9.499 9.499 0 0 1-1.963.632 11.31 11.31 0 0 1-2.307.218c-.995 0-1.914-.134-2.756-.402a6.054 6.054 0 0 1-2.18-1.205 5.411 5.411 0 0 1-1.424-1.998c-.337-.796-.505-1.722-.505-2.778 0-.597.099-1.19.298-1.78.199-.589.524-1.151.976-1.687.451-.536 1.037-1.04 1.756-1.515.72-.475 1.604-.888 2.652-1.24 1.049-.352 2.27-.64 3.662-.861 1.393-.222 2.985-.356 4.776-.402v-1.378c0-1.576-.337-2.743-1.01-3.501-.674-.758-1.646-1.136-2.916-1.136-.919 0-1.68.107-2.285.32a9.401 9.401 0 0 0-1.595.724c-.46.268-.877.51-1.252.723a2.477 2.477 0 0 1-1.251.322c-.398 0-.735-.103-1.01-.31a2.59 2.59 0 0 1-.666-.723l-1.01-1.814zM672.558 111v19.539h1.056c.383 0 .685-.05.907-.15.222-.099.448-.302.677-.608l5.855-7.232c.245-.322.517-.567.815-.735.299-.168.685-.252 1.16-.252h5.189l-7.325 8.747c-.52.69-1.086 1.217-1.699 1.585.322.23.609.497.861.803.253.306.494.635.724.987l7.852 11.434h-5.12c-.444 0-.827-.072-1.148-.218-.322-.145-.59-.41-.804-.792l-6.015-8.931c-.215-.352-.436-.582-.666-.689-.23-.107-.574-.16-1.033-.16h-1.286v10.79h-5.671V111h5.671zm17.702 3.926c.52-.46 1.09-.895 1.71-1.309.62-.413 1.29-.773 2.01-1.079.719-.306 1.5-.547 2.342-.723a13.348 13.348 0 0 1 2.732-.264c1.331 0 2.544.184 3.639.551 1.094.367 2.032.892 2.812 1.573a7.013 7.013 0 0 1 1.814 2.468c.429.964.643 2.043.643 3.237 0 1.164-.168 2.17-.505 3.02a8.502 8.502 0 0 1-1.263 2.215 9.561 9.561 0 0 1-1.664 1.63l-1.71 1.298c-.537.405-1 .803-1.39 1.194-.39.39-.624.83-.7 1.32l-.528 3.352h-3.88l-.39-3.743c-.093-.719.01-1.35.31-1.894a5.76 5.76 0 0 1 1.193-1.492 15.737 15.737 0 0 1 1.665-1.309c.612-.42 1.186-.88 1.722-1.377a7.228 7.228 0 0 0 1.343-1.677c.36-.62.54-1.358.54-2.215 0-.551-.104-1.045-.31-1.481a3.349 3.349 0 0 0-.862-1.125 3.86 3.86 0 0 0-1.32-.723 5.306 5.306 0 0 0-1.664-.253c-.873 0-1.611.096-2.216.287a8.169 8.169 0 0 0-1.538.643c-.421.237-.777.451-1.068.643-.29.191-.551.287-.78.287-.552 0-.95-.23-1.195-.689l-1.492-2.365zm4.34 27.07c0-.475.088-.926.264-1.355.176-.428.417-.796.723-1.102a3.474 3.474 0 0 1 1.102-.735 3.46 3.46 0 0 1 1.377-.275c.49 0 .946.092 1.367.275.42.184.788.429 1.102.735.313.306.562.674.746 1.102.184.429.275.88.275 1.355a3.412 3.412 0 0 1-2.124 3.18c-.42.176-.876.264-1.366.264a3.59 3.59 0 0 1-1.377-.264 3.324 3.324 0 0 1-1.102-.723 3.353 3.353 0 0 1-.723-1.091 3.505 3.505 0 0 1-.264-1.366z" opacity=".45"/>
        <path fill="#FFF" d="M604.51 46.697c.29-2.007.85-3.768 1.68-5.282.829-1.515 1.866-2.779 3.11-3.792 1.245-1.013 2.673-1.775 4.284-2.286 1.611-.512 3.343-.767 5.195-.767 1.93 0 3.671.275 5.225.824 1.553.55 2.88 1.313 3.98 2.287s1.943 2.118 2.532 3.43c.588 1.312.882 2.73.882 4.254 0 1.332-.149 2.504-.448 3.517-.3 1.013-.729 1.896-1.288 2.648a7.607 7.607 0 0 1-2.084 1.91 12.97 12.97 0 0 1-2.807 1.303c2.508.79 4.38 1.997 5.614 3.618 1.235 1.62 1.853 3.656 1.853 6.106 0 2.084-.386 3.927-1.158 5.529-.772 1.601-1.814 2.947-3.126 4.037-1.312 1.09-2.831 1.915-4.558 2.475-1.727.56-3.555.839-5.485.839-2.103 0-3.936-.241-5.499-.724-1.563-.482-2.923-1.196-4.08-2.141-1.159-.946-2.143-2.103-2.953-3.473-.81-1.37-1.505-2.953-2.084-4.747l3.155-1.302c.83-.348 1.606-.44 2.33-.275.723.164 1.25.554 1.577 1.172.347.675.728 1.34 1.143 1.997a8.1 8.1 0 0 0 1.49 1.75 7.093 7.093 0 0 0 2.041 1.245c.782.319 1.713.478 2.793.478 1.216 0 2.277-.198 3.184-.593.907-.396 1.664-.912 2.272-1.549a6.35 6.35 0 0 0 1.36-2.127c.3-.782.449-1.568.449-2.359 0-1.003-.106-1.915-.318-2.735-.213-.82-.656-1.52-1.332-2.098-.675-.58-1.645-1.033-2.909-1.36-1.263-.329-2.957-.493-5.079-.493V52.92c1.756-.019 3.213-.183 4.37-.492 1.158-.308 2.08-.738 2.764-1.288.685-.55 1.163-1.21 1.433-1.982s.405-1.621.405-2.547c0-1.968-.55-3.464-1.65-4.486-1.1-1.023-2.566-1.534-4.399-1.534-.849 0-1.63.12-2.344.361a6.665 6.665 0 0 0-1.925 1.013c-.569.435-1.047.941-1.432 1.52a6.606 6.606 0 0 0-.869 1.91c-.328.888-.757 1.476-1.288 1.766-.53.29-1.278.357-2.243.202l-3.762-.665zm62.575 9.261c0 3.647-.39 6.816-1.172 9.508-.782 2.692-1.862 4.915-3.242 6.671-1.38 1.756-3.01 3.063-4.891 3.922-1.881.859-3.912 1.288-6.093 1.288-2.18 0-4.201-.43-6.063-1.288-1.862-.859-3.478-2.166-4.848-3.922-1.37-1.756-2.44-3.98-3.213-6.671-.771-2.692-1.157-5.86-1.157-9.508 0-3.666.386-6.84 1.157-9.522.772-2.682 1.843-4.9 3.213-6.657 1.37-1.756 2.986-3.063 4.848-3.921 1.862-.86 3.883-1.288 6.063-1.288 2.18 0 4.212.429 6.093 1.288 1.881.858 3.512 2.165 4.891 3.921 1.38 1.756 2.46 3.975 3.242 6.657.781 2.682 1.172 5.856 1.172 9.522zm-7.38 0c0-3.029-.222-5.537-.666-7.525-.444-1.987-1.037-3.57-1.78-4.746-.743-1.177-1.597-2.002-2.562-2.475a6.76 6.76 0 0 0-3.01-.71 6.61 6.61 0 0 0-2.966.71c-.955.473-1.8 1.298-2.533 2.475-.733 1.177-1.317 2.759-1.75 4.746-.435 1.988-.652 4.496-.652 7.525 0 3.03.217 5.538.651 7.525.434 1.988 1.018 3.57 1.751 4.747.733 1.177 1.578 2.002 2.533 2.475a6.61 6.61 0 0 0 2.966.709 6.76 6.76 0 0 0 3.01-.71c.965-.472 1.819-1.297 2.562-2.474.743-1.177 1.336-2.76 1.78-4.747.444-1.987.666-4.495.666-7.525zm46.221 15.832V52.659h-7.293c-.193 2.489-.435 4.732-.724 6.729-.29 1.997-.627 3.777-1.013 5.34-.386 1.563-.806 2.923-1.259 4.08-.453 1.159-.94 2.152-1.462 2.982h11.751zm12.388-.203V84.7c0 .656-.188 1.177-.565 1.562-.376.386-.863.58-1.461.58h-4.457v-9.957h-22.229v7.93c0 .502-.159.965-.477 1.39-.318.424-.815.636-1.49.636h-4.516V71.79h.84c.675 0 1.331-.092 1.968-.275.636-.183 1.25-.564 1.838-1.143.588-.579 1.148-1.414 1.678-2.504s1.008-2.547 1.433-4.37c.424-1.823.796-4.067 1.114-6.73.319-2.662.574-5.855.767-9.58h20.115v24.4h5.442zm30.36-24.398v29.695h-7.148v-13.14h-11.577v13.14h-7.15V47.189h7.15v11.258h11.577V47.19h7.149zm33.777 0v29.695h-7.149V59.547c0-.444.024-.93.072-1.461.049-.531.111-1.066.189-1.607-.386.888-.81 1.67-1.274 2.345-.039.038-.231.304-.579.796-.347.492-.796 1.124-1.346 1.895a13144.132 13144.132 0 0 1-3.98 5.586c-1.678 2.374-3.579 5.056-5.701 8.046-.27.406-.622.801-1.056 1.187a2.18 2.18 0 0 1-1.491.579h-4.37V47.218h7.149v17.336c0 .444-.025.931-.073 1.462-.048.53-.11 1.066-.188 1.606.425-.945.849-1.727 1.274-2.344.019-.039.202-.3.55-.782.347-.482.795-1.109 1.345-1.88l1.867-2.62c.695-.975 1.399-1.973 2.113-2.996 1.679-2.373 3.589-5.055 5.73-8.046a5.36 5.36 0 0 1 1.071-1.201 2.265 2.265 0 0 1 1.506-.564h4.34zm5.586-8.365a20.126 20.126 0 0 1 2.156-1.65 15.478 15.478 0 0 1 2.533-1.36c.906-.386 1.89-.69 2.952-.912a16.826 16.826 0 0 1 3.444-.332c1.679 0 3.208.231 4.587.694 1.38.463 2.562 1.124 3.546 1.983a8.84 8.84 0 0 1 2.286 3.111c.54 1.216.81 2.576.81 4.081 0 1.467-.211 2.735-.636 3.806-.424 1.07-.955 2.002-1.592 2.793a12.053 12.053 0 0 1-2.098 2.055l-2.156 1.635a16.928 16.928 0 0 0-1.751 1.505c-.492.492-.787 1.047-.883 1.664l-.666 4.226h-4.891l-.492-4.718c-.116-.906.014-1.702.39-2.387a7.261 7.261 0 0 1 1.506-1.882c.627-.569 1.326-1.119 2.098-1.65a19.02 19.02 0 0 0 2.17-1.736 9.111 9.111 0 0 0 1.694-2.113c.453-.781.68-1.712.68-2.793 0-.694-.13-1.317-.39-1.867a4.222 4.222 0 0 0-1.086-1.418 4.866 4.866 0 0 0-1.664-.911 6.689 6.689 0 0 0-2.099-.319c-1.1 0-2.03.12-2.793.362-.762.241-1.408.511-1.939.81-.53.3-.98.57-1.346.81-.366.242-.694.363-.984.363-.694 0-1.196-.29-1.505-.869l-1.881-2.98zm5.47 34.124c0-.598.111-1.168.333-1.708a4.19 4.19 0 0 1 .912-1.39 4.38 4.38 0 0 1 1.389-.925 4.361 4.361 0 0 1 1.736-.348c.618 0 1.192.116 1.723.348.53.231.993.54 1.389.926.395.386.709.849.94 1.39.232.54.348 1.109.348 1.707a4.301 4.301 0 0 1-1.288 3.097 4.397 4.397 0 0 1-3.112 1.244c-.617 0-1.196-.11-1.736-.333a4.19 4.19 0 0 1-1.39-.911 4.226 4.226 0 0 1-.911-1.375 4.418 4.418 0 0 1-.333-1.722z" opacity=".8"/>
        <path fill="#FFF" d="M1001.206 88.027c.287-1.99.842-3.736 1.664-5.238.823-1.503 1.852-2.756 3.086-3.76 1.234-1.005 2.65-1.761 4.248-2.268 1.598-.507 3.316-.761 5.153-.761 1.914 0 3.64.273 5.181.818 1.54.545 2.856 1.301 3.947 2.268a9.933 9.933 0 0 1 2.512 3.401c.583 1.301.875 2.708.875 4.22 0 1.32-.148 2.483-.445 3.487-.296 1.005-.722 1.88-1.277 2.627a7.544 7.544 0 0 1-2.067 1.894c-.823.517-1.75.948-2.784 1.292 2.487.785 4.344 1.98 5.568 3.588 1.225 1.608 1.837 3.626 1.837 6.057 0 2.066-.382 3.894-1.148 5.482-.765 1.589-1.799 2.923-3.1 4.005-1.301 1.08-2.808 1.899-4.52 2.454-1.713.555-3.527.832-5.44.832-2.086 0-3.904-.239-5.454-.717-1.55-.479-2.9-1.187-4.047-2.125-1.149-.937-2.125-2.085-2.928-3.444-.804-1.359-1.493-2.928-2.067-4.708l3.129-1.291c.823-.345 1.593-.436 2.31-.273.718.163 1.24.55 1.565 1.163.344.67.722 1.33 1.134 1.98.411.65.904 1.23 1.478 1.737a7.035 7.035 0 0 0 2.024 1.234c.775.316 1.698.474 2.77.474 1.205 0 2.258-.196 3.157-.589.9-.392 1.65-.904 2.253-1.535a6.297 6.297 0 0 0 1.35-2.11 6.501 6.501 0 0 0 .444-2.34c0-.995-.105-1.899-.315-2.712-.21-.814-.65-1.507-1.32-2.081-.67-.574-1.632-1.024-2.885-1.35-1.254-.325-2.933-.487-5.038-.487v-5.052c1.741-.02 3.186-.182 4.334-.488 1.148-.307 2.062-.732 2.742-1.278.679-.545 1.152-1.2 1.42-1.966.268-.765.402-1.607.402-2.526 0-1.952-.545-3.435-1.636-4.45-1.09-1.013-2.545-1.52-4.363-1.52-.842 0-1.617.12-2.325.358a6.61 6.61 0 0 0-1.909 1.005 6.24 6.24 0 0 0-1.42 1.507 6.552 6.552 0 0 0-.862 1.894c-.325.88-.751 1.464-1.277 1.751-.526.287-1.268.354-2.225.201l-3.731-.66zm62.059 9.186c0 3.616-.388 6.76-1.163 9.429-.775 2.67-1.847 4.875-3.215 6.616-1.368 1.742-2.985 3.038-4.85 3.89-1.867.851-3.88 1.277-6.043 1.277-2.163 0-4.167-.426-6.014-1.277-1.846-.852-3.449-2.148-4.808-3.89-1.358-1.741-2.42-3.946-3.186-6.616-.765-2.67-1.148-5.813-1.148-9.43 0-3.635.383-6.783 1.148-9.443.766-2.66 1.828-4.86 3.186-6.602 1.359-1.742 2.962-3.038 4.808-3.89 1.847-.851 3.851-1.277 6.014-1.277 2.162 0 4.176.426 6.042 1.277 1.866.852 3.483 2.148 4.851 3.89 1.368 1.741 2.44 3.942 3.215 6.602.775 2.66 1.163 5.808 1.163 9.444zm-7.32 0c0-3.005-.22-5.493-.66-7.464-.44-1.97-1.029-3.54-1.766-4.707-.736-1.167-1.583-1.985-2.54-2.454a6.705 6.705 0 0 0-2.985-.704 6.556 6.556 0 0 0-2.942.704c-.948.469-1.785 1.287-2.512 2.454-.727 1.167-1.306 2.736-1.737 4.707-.43 1.971-.645 4.46-.645 7.464 0 3.004.215 5.492.645 7.463.431 1.97 1.01 3.54 1.737 4.707.727 1.168 1.564 1.986 2.512 2.455a6.556 6.556 0 0 0 2.942.703 6.705 6.705 0 0 0 2.985-.703c.957-.47 1.804-1.287 2.54-2.455.737-1.167 1.326-2.736 1.766-4.707.44-1.971.66-4.459.66-7.463zm45.841 15.7V93.94h-7.233c-.192 2.469-.431 4.693-.718 6.674-.287 1.98-.622 3.746-1.005 5.296-.382 1.55-.799 2.9-1.248 4.047-.45 1.149-.933 2.134-1.45 2.957h11.654zm12.286-.2v13.003c0 .65-.187 1.167-.56 1.55-.373.383-.857.574-1.45.574h-4.42v-9.874h-22.045v7.865c0 .498-.158.957-.474 1.378-.316.42-.808.631-1.478.631h-4.478v-14.926h.832c.67 0 1.32-.09 1.952-.273.632-.182 1.24-.56 1.823-1.134.584-.574 1.139-1.401 1.665-2.483.526-1.08 1-2.525 1.42-4.334.422-1.808.79-4.033 1.106-6.674.316-2.64.57-5.808.76-9.5h19.95v24.197h5.397zm30.11-24.198v29.45h-7.09v-13.03h-11.481v13.03h-7.09v-29.45h7.09v11.166h11.482V88.515h7.09zm33.499 0v29.45h-7.09v-17.193c0-.44.024-.923.071-1.45a31.3 31.3 0 0 1 .187-1.593 13.92 13.92 0 0 1-1.263 2.325c-.038.039-.23.302-.574.79-.345.488-.79 1.114-1.335 1.88a12423.237 12423.237 0 0 1-3.947 5.54c-1.665 2.354-3.55 5.014-5.654 7.98a6.18 6.18 0 0 1-1.048 1.177c-.43.382-.924.574-1.478.574h-4.335V88.544h7.09v17.194c0 .44-.024.923-.072 1.45a31.3 31.3 0 0 1-.186 1.593c.42-.938.842-1.713 1.263-2.326.019-.038.2-.296.545-.775.345-.478.79-1.1 1.335-1.865l1.851-2.598c.69-.967 1.388-1.957 2.096-2.971 1.665-2.354 3.56-5.014 5.683-7.98a5.316 5.316 0 0 1 1.062-1.191c.44-.373.938-.56 1.493-.56h4.306zm5.54-8.295a19.96 19.96 0 0 1 2.138-1.637 15.35 15.35 0 0 1 2.512-1.349c.9-.382 1.875-.684 2.928-.904 1.052-.22 2.19-.33 3.415-.33 1.665 0 3.182.23 4.55.689 1.368.46 2.54 1.115 3.516 1.966a8.767 8.767 0 0 1 2.268 3.086c.536 1.205.804 2.555.804 4.047 0 1.455-.21 2.713-.632 3.775-.42 1.062-.947 1.985-1.578 2.77a11.954 11.954 0 0 1-2.082 2.038c-.755.574-1.468 1.115-2.138 1.622a16.788 16.788 0 0 0-1.737 1.492c-.488.488-.78 1.038-.875 1.65l-.66 4.192h-4.851l-.488-4.68c-.115-.899.014-1.688.387-2.367.373-.68.87-1.302 1.493-1.866a19.674 19.674 0 0 1 2.08-1.636c.766-.526 1.484-1.1 2.154-1.723a9.036 9.036 0 0 0 1.679-2.095c.45-.775.674-1.698.674-2.77 0-.689-.129-1.306-.387-1.851a4.187 4.187 0 0 0-1.076-1.407 4.826 4.826 0 0 0-1.651-.904 6.633 6.633 0 0 0-2.081-.316c-1.09 0-2.014.12-2.77.359-.756.24-1.397.507-1.923.804a23.15 23.15 0 0 0-1.335.803c-.364.24-.689.36-.976.36-.689 0-1.186-.288-1.493-.862l-1.865-2.956zm5.425 33.842c0-.593.11-1.158.33-1.693.22-.536.521-.996.904-1.378a4.344 4.344 0 0 1 1.378-.919 4.325 4.325 0 0 1 1.722-.344c.613 0 1.182.115 1.708.344.526.23.986.536 1.378.919.392.382.703.842.933 1.378.23.535.344 1.1.344 1.693a4.266 4.266 0 0 1-1.277 3.071 4.36 4.36 0 0 1-3.086 1.235c-.612 0-1.186-.11-1.722-.33a4.155 4.155 0 0 1-1.378-.904 4.192 4.192 0 0 1-.904-1.364 4.382 4.382 0 0 1-.33-1.708z" opacity=".4"/>
        <path fill="#FFF" d="M280.787 118.855c.188-1.3.55-2.44 1.088-3.422a8.203 8.203 0 0 1 2.015-2.455 8.347 8.347 0 0 1 2.774-1.481 11.064 11.064 0 0 1 3.365-.497c1.25 0 2.378.178 3.384.534 1.006.356 1.865.85 2.577 1.481a6.487 6.487 0 0 1 1.64 2.222c.382.85.572 1.768.572 2.755 0 .863-.097 1.622-.29 2.278a5.415 5.415 0 0 1-.834 1.715c-.363.487-.813.9-1.35 1.237a8.4 8.4 0 0 1-1.819.844c1.625.512 2.837 1.293 3.637 2.343.8 1.05 1.2 2.368 1.2 3.956 0 1.35-.25 2.543-.75 3.58a7.693 7.693 0 0 1-2.025 2.615 8.823 8.823 0 0 1-2.952 1.603 11.454 11.454 0 0 1-3.552.543c-1.363 0-2.55-.156-3.562-.468-1.012-.313-1.893-.775-2.643-1.387a8.377 8.377 0 0 1-1.912-2.25c-.525-.887-.975-1.912-1.35-3.074l2.043-.844c.538-.225 1.04-.284 1.51-.178.468.106.809.36 1.021.76.225.437.472.868.74 1.293.27.425.591.803.966 1.134.375.331.815.6 1.321.806.507.206 1.11.31 1.81.31.787 0 1.474-.129 2.061-.385a4.479 4.479 0 0 0 1.472-1.003c.394-.412.687-.872.881-1.378.194-.506.29-1.015.29-1.528 0-.65-.068-1.24-.206-1.771a2.626 2.626 0 0 0-.862-1.36c-.437-.374-1.065-.668-1.884-.88-.818-.213-1.915-.319-3.29-.319v-3.3c1.138-.012 2.081-.118 2.83-.318.75-.2 1.347-.478 1.791-.834.444-.356.753-.784.928-1.284.175-.5.262-1.05.262-1.65 0-1.274-.356-2.243-1.068-2.905-.712-.663-1.662-.994-2.85-.994-.55 0-1.055.078-1.518.234a4.317 4.317 0 0 0-1.246.657c-.37.28-.678.609-.928.984s-.438.787-.563 1.237c-.212.575-.49.956-.834 1.143-.344.188-.828.232-1.453.132l-2.437-.431zm40.529 5.998c0 2.362-.253 4.415-.76 6.158-.505 1.744-1.205 3.184-2.099 4.321-.893 1.137-1.95 1.984-3.168 2.54-1.218.556-2.534.834-3.946.834-1.412 0-2.721-.278-3.927-.834-1.206-.556-2.253-1.403-3.14-2.54s-1.581-2.577-2.08-4.32c-.5-1.744-.75-3.797-.75-6.159 0-2.374.25-4.43.75-6.167.499-1.737 1.193-3.174 2.08-4.312.887-1.137 1.934-1.984 3.14-2.54 1.206-.556 2.515-.834 3.927-.834s2.728.278 3.946.834c1.219.556 2.275 1.403 3.168 2.54.894 1.138 1.594 2.575 2.1 4.312s.759 3.793.759 6.167zm-4.78 0c0-1.962-.144-3.586-.431-4.874-.288-1.287-.672-2.312-1.153-3.074s-1.034-1.297-1.66-1.603a4.379 4.379 0 0 0-1.949-.46c-.662 0-1.303.154-1.921.46-.619.306-1.166.84-1.64 1.603-.475.762-.854 1.787-1.135 3.074-.28 1.288-.422 2.912-.422 4.874 0 1.962.141 3.587.422 4.874.281 1.287.66 2.312 1.134 3.074.475.763 1.022 1.297 1.64 1.603.62.306 1.26.46 1.922.46.675 0 1.325-.154 1.95-.46.625-.306 1.178-.84 1.659-1.603.48-.762.865-1.787 1.153-3.074.287-1.287.43-2.912.43-4.874zm29.937 10.254v-12.39h-4.724a66.413 66.413 0 0 1-.469 4.358 36.205 36.205 0 0 1-.656 3.458 21.336 21.336 0 0 1-.815 2.643 11.59 11.59 0 0 1-.947 1.931h7.61zm8.023-.131v8.492c0 .425-.122.762-.365 1.012-.244.25-.56.375-.947.375h-2.887v-6.449H335.9v5.137c0 .325-.103.625-.31.9-.205.275-.527.412-.964.412H331.7v-9.748h.544c.437 0 .862-.06 1.275-.178.412-.119.809-.365 1.19-.74.381-.375.743-.916 1.087-1.622.344-.706.653-1.65.928-2.83.275-1.181.516-2.634.722-4.359.206-1.725.372-3.793.497-6.205h13.028v15.803h3.524zm19.665-15.803v19.233h-4.63v-8.51h-7.499v8.51h-4.63v-19.233h4.63v7.292h7.498v-7.292h4.63zm21.876 0v19.233h-4.63v-11.228c0-.288.015-.603.047-.947.03-.344.072-.69.122-1.04a9.09 9.09 0 0 1-.825 1.518c-.025.025-.15.197-.375.516a8477.878 8477.878 0 0 1-3.45 4.846 4104.94 4104.94 0 0 1-3.692 5.21 4.035 4.035 0 0 1-.685.77c-.28.25-.603.374-.965.374h-2.83v-19.233h4.63v11.229c0 .287-.016.603-.047.946-.032.344-.072.69-.122 1.04a9.77 9.77 0 0 1 .825-1.518c.012-.025.13-.193.356-.506.225-.312.515-.718.872-1.218l1.209-1.697c.45-.63.906-1.278 1.368-1.94 1.087-1.537 2.325-3.274 3.712-5.211.175-.275.406-.535.693-.778.288-.244.613-.366.975-.366h2.812zm3.618-5.417c.425-.375.89-.731 1.397-1.069a10.025 10.025 0 0 1 3.552-1.471c.687-.144 1.43-.216 2.23-.216 1.088 0 2.078.15 2.972.45.893.3 1.659.728 2.296 1.284a5.726 5.726 0 0 1 1.481 2.015c.35.788.525 1.669.525 2.643 0 .95-.137 1.772-.412 2.465a6.941 6.941 0 0 1-1.031 1.81 7.806 7.806 0 0 1-1.36 1.33l-1.396 1.06c-.437.33-.815.656-1.134.974-.319.319-.51.678-.572 1.078l-.431 2.737h-3.168l-.319-3.055c-.075-.588.01-1.103.253-1.547.244-.444.569-.85.975-1.219.406-.368.86-.724 1.36-1.068.5-.344.968-.719 1.405-1.125a5.901 5.901 0 0 0 1.097-1.368c.293-.506.44-1.11.44-1.81 0-.45-.084-.852-.253-1.208a2.734 2.734 0 0 0-.703-.919c-.3-.256-.659-.453-1.078-.59a4.332 4.332 0 0 0-1.359-.207c-.712 0-1.315.079-1.809.235a6.67 6.67 0 0 0-1.256.525c-.343.193-.634.368-.871.525-.238.156-.45.234-.638.234-.45 0-.775-.188-.975-.563l-1.218-1.93zm3.543 22.101c0-.387.072-.756.216-1.106.143-.35.34-.65.59-.9.25-.25.55-.45.9-.6.35-.15.725-.225 1.125-.225s.771.075 1.115.225c.344.15.644.35.9.6s.46.55.609.9c.15.35.225.719.225 1.106a2.786 2.786 0 0 1-1.734 2.596 2.862 2.862 0 0 1-1.115.216c-.4 0-.775-.072-1.125-.216-.35-.143-.65-.34-.9-.59a2.737 2.737 0 0 1-.59-.89 2.862 2.862 0 0 1-.216-1.116z" opacity=".3"/>
        <path fill="#FFF" d="M1031.574 35.726c.137-.947.4-1.779.793-2.494a5.98 5.98 0 0 1 1.469-1.79 6.085 6.085 0 0 1 2.022-1.08 8.066 8.066 0 0 1 2.453-.362c.912 0 1.734.13 2.467.39.734.26 1.36.619 1.88 1.08.519.46.917.999 1.195 1.619s.417 1.289.417 2.009c0 .628-.07 1.182-.212 1.66a3.947 3.947 0 0 1-.608 1.25 3.592 3.592 0 0 1-.984.902 6.124 6.124 0 0 1-1.326.615c1.185.374 2.069.943 2.652 1.709.583.765.874 1.726.874 2.883 0 .984-.182 1.854-.546 2.61a5.609 5.609 0 0 1-1.476 1.907 6.432 6.432 0 0 1-2.153 1.168 8.35 8.35 0 0 1-2.59.397c-.993 0-1.858-.114-2.596-.342a5.637 5.637 0 0 1-1.927-1.011 6.107 6.107 0 0 1-1.394-1.64 11.068 11.068 0 0 1-.984-2.241l1.49-.615c.391-.164.758-.208 1.1-.13.341.077.59.262.745.553.164.32.344.633.54.943.195.31.43.586.703.827.274.242.595.437.964.588.369.15.808.225 1.318.225.574 0 1.076-.093 1.504-.28.428-.187.786-.43 1.073-.731.287-.3.5-.636.642-1.005.141-.369.212-.74.212-1.113 0-.474-.05-.905-.15-1.292-.1-.387-.31-.717-.63-.99-.318-.274-.776-.488-1.373-.643-.596-.155-1.396-.232-2.398-.232v-2.406c.829-.009 1.517-.086 2.063-.232.547-.146.982-.348 1.306-.608a2.06 2.06 0 0 0 .676-.936c.128-.365.191-.765.191-1.203 0-.93-.26-1.635-.779-2.118-.519-.483-1.211-.724-2.077-.724-.4 0-.77.057-1.107.17-.337.114-.64.274-.909.479a2.971 2.971 0 0 0-.676.717 3.12 3.12 0 0 0-.41.902c-.155.42-.358.697-.608.834s-.604.168-1.06.096l-1.776-.315zm29.547 4.373c0 1.722-.185 3.219-.554 4.49-.369 1.27-.88 2.32-1.53 3.15-.652.829-1.422 1.446-2.31 1.852a6.845 6.845 0 0 1-2.877.608 6.754 6.754 0 0 1-2.863-.608c-.88-.406-1.642-1.023-2.29-1.852-.646-.83-1.152-1.88-1.516-3.15-.365-1.271-.547-2.768-.547-4.49 0-1.73.182-3.23.547-4.496.364-1.266.87-2.314 1.517-3.143.647-.83 1.41-1.446 2.289-1.852a6.754 6.754 0 0 1 2.863-.608c1.03 0 1.989.203 2.877.608.888.406 1.658 1.023 2.31 1.852.65.829 1.161 1.877 1.53 3.143.37 1.267.554 2.765.554 4.496zm-3.485 0c0-1.43-.105-2.614-.315-3.553-.21-.938-.49-1.685-.84-2.241s-.754-.945-1.21-1.169a3.192 3.192 0 0 0-1.42-.334c-.484 0-.95.111-1.402.334-.45.224-.85.613-1.196 1.169s-.621 1.303-.826 2.241c-.205.939-.308 2.123-.308 3.553 0 1.43.103 2.615.308 3.554.205.938.48 1.685.826 2.24.347.557.745.946 1.196 1.17.451.223.918.334 1.401.334.492 0 .966-.111 1.421-.335.456-.223.86-.612 1.21-1.168.35-.556.63-1.303.84-2.241.21-.939.315-2.123.315-3.554zm21.825 7.476V38.54h-3.444a48.42 48.42 0 0 1-.342 3.178 26.396 26.396 0 0 1-.478 2.521c-.182.738-.38 1.38-.595 1.927a8.449 8.449 0 0 1-.69 1.408h5.549zm5.849-.096v6.191c0 .31-.089.556-.267.738a.921.921 0 0 1-.69.273h-2.104v-4.7h-10.496v3.744c0 .237-.075.455-.226.656-.15.2-.384.3-.703.3h-2.132v-7.106h.396c.319 0 .629-.043.93-.13.3-.087.59-.266.867-.54.278-.273.542-.667.793-1.182.25-.515.476-1.203.676-2.064.2-.86.376-1.92.526-3.177a68.88 68.88 0 0 0 .363-4.523h9.498v11.52h2.569zm14.336-11.52V49.98h-3.376v-6.204h-5.466v6.204h-3.376V35.96h3.376v5.316h5.466v-5.316h3.376zm15.948 0V49.98h-3.375v-8.186c0-.21.011-.44.034-.69.023-.25.052-.503.089-.759-.182.42-.383.788-.601 1.107-.019.019-.11.144-.274.376-.164.233-.376.53-.635.895a6320.655 6320.655 0 0 1-1.88 2.638c-.792 1.12-1.69 2.387-2.692 3.8a2.942 2.942 0 0 1-.498.56 1.03 1.03 0 0 1-.704.273h-2.064V35.972h3.376v8.186c0 .21-.012.44-.034.69-.023.251-.053.504-.09.759a7.122 7.122 0 0 1 .862-1.476 5922.825 5922.825 0 0 1 1.517-2.125c.328-.46.66-.932.997-1.415.793-1.12 1.695-2.387 2.706-3.799.128-.2.296-.39.506-.567a1.07 1.07 0 0 1 .71-.266h2.05zm2.638-3.95c.31-.273.65-.533 1.018-.779a7.308 7.308 0 0 1 2.59-1.073 7.945 7.945 0 0 1 1.626-.157c.793 0 1.515.11 2.166.328.652.219 1.21.53 1.675.936.464.406.824.895 1.08 1.47.254.573.382 1.216.382 1.926 0 .693-.1 1.292-.3 1.797a5.06 5.06 0 0 1-.752 1.32c-.301.373-.631.696-.991.97l-1.018.772a7.993 7.993 0 0 0-.827.71 1.403 1.403 0 0 0-.417.786l-.314 1.995h-2.31l-.232-2.227c-.055-.428.007-.804.184-1.128.178-.323.415-.62.71-.888.297-.269.627-.528.992-.779a8.98 8.98 0 0 0 1.025-.82c.318-.296.585-.629.8-.998.213-.369.32-.808.32-1.318 0-.328-.061-.622-.184-.882a1.993 1.993 0 0 0-.513-.67 2.298 2.298 0 0 0-.786-.43c-.305-.1-.635-.15-.99-.15-.52 0-.96.057-1.32.17-.359.114-.664.242-.915.383-.25.141-.462.269-.635.383-.173.114-.328.17-.465.17-.328 0-.565-.136-.71-.41l-.889-1.407zm2.583 16.113c0-.283.052-.552.157-.807.105-.255.248-.474.43-.656.183-.182.402-.328.657-.437a2.06 2.06 0 0 1 .82-.164c.291 0 .562.055.813.164.25.11.469.255.656.437.187.182.335.401.444.656.11.255.164.524.164.807a2.03 2.03 0 0 1-1.264 1.893c-.25.104-.522.156-.813.156-.292 0-.565-.052-.82-.157a1.978 1.978 0 0 1-.656-.43 1.996 1.996 0 0 1-.43-.65 2.086 2.086 0 0 1-.158-.812z" opacity=".8"/>
        <path fill="#FFF" d="M1402.75 47.923c.178-1.238.523-2.324 1.035-3.258a7.811 7.811 0 0 1 1.919-2.338 7.948 7.948 0 0 1 2.642-1.41 10.536 10.536 0 0 1 3.204-.474c1.19 0 2.264.17 3.222.51.958.338 1.776.808 2.454 1.41a6.177 6.177 0 0 1 1.562 2.115c.363.809.545 1.683.545 2.624 0 .82-.092 1.544-.277 2.168a5.156 5.156 0 0 1-.794 1.634 4.692 4.692 0 0 1-1.285 1.178 7.999 7.999 0 0 1-1.732.803c1.547.488 2.701 1.232 3.463 2.231.762 1 1.143 2.256 1.143 3.767 0 1.285-.238 2.422-.715 3.41a7.326 7.326 0 0 1-1.927 2.49 8.401 8.401 0 0 1-2.812 1.526 10.907 10.907 0 0 1-3.382.517c-1.298 0-2.428-.148-3.392-.446-.964-.297-1.803-.738-2.517-1.32a7.977 7.977 0 0 1-1.82-2.143c-.5-.845-.929-1.82-1.286-2.927l1.946-.804c.511-.214.99-.27 1.437-.17.446.102.77.343.973.724.214.416.449.827.705 1.231.255.405.562.765.919 1.08.357.316.776.572 1.258.768.482.196 1.057.294 1.723.294.75 0 1.404-.121 1.964-.365a4.265 4.265 0 0 0 1.4-.955c.376-.393.655-.83.84-1.312.184-.482.276-.967.276-1.455 0-.62-.065-1.181-.196-1.687a2.5 2.5 0 0 0-.821-1.294c-.417-.357-1.015-.637-1.794-.84-.78-.202-1.824-.303-3.133-.303v-3.141c1.083-.012 1.982-.113 2.696-.304.714-.19 1.282-.455 1.704-.794.423-.34.717-.747.884-1.223.167-.476.25-1 .25-1.57 0-1.215-.34-2.137-1.018-2.768-.678-.63-1.582-.946-2.713-.946-.524 0-1.005.075-1.446.223a4.11 4.11 0 0 0-1.187.625 3.88 3.88 0 0 0-.883.937c-.238.357-.417.75-.536 1.178-.202.548-.467.91-.794 1.09-.328.178-.789.22-1.384.124l-2.32-.41zm38.593 5.712c0 2.249-.241 4.204-.723 5.864-.482 1.66-1.149 3.031-2 4.114-.85 1.083-1.856 1.89-3.016 2.42-1.16.529-2.413.793-3.758.793-1.345 0-2.591-.264-3.74-.794-1.148-.53-2.145-1.336-2.99-2.419-.845-1.083-1.505-2.454-1.981-4.114-.476-1.66-.714-3.615-.714-5.864 0-2.261.238-4.219.714-5.873s1.136-3.023 1.981-4.106c.845-1.083 1.842-1.889 2.99-2.418 1.149-.53 2.395-.795 3.74-.795 1.345 0 2.597.265 3.758.795 1.16.53 2.165 1.335 3.016 2.418.851 1.083 1.518 2.452 2 4.106s.723 3.612.723 5.873zm-4.552 0c0-1.868-.137-3.416-.41-4.641-.275-1.226-.64-2.202-1.099-2.928-.458-.726-.984-1.234-1.58-1.526a4.17 4.17 0 0 0-1.856-.437c-.63 0-1.24.145-1.83.437-.589.292-1.11.8-1.562 1.526-.452.726-.812 1.702-1.08 2.928-.267 1.225-.401 2.773-.401 4.64 0 1.87.134 3.416.401 4.642.268 1.226.628 2.202 1.08 2.927.453.726.973 1.235 1.562 1.527.59.291 1.2.437 1.83.437a4.17 4.17 0 0 0 1.857-.437c.595-.292 1.121-.8 1.58-1.527.457-.725.823-1.701 1.097-2.927s.41-2.773.41-4.641zm28.507 9.764V51.6h-4.498a63.235 63.235 0 0 1-.447 4.151 34.474 34.474 0 0 1-.624 3.294 20.316 20.316 0 0 1-.777 2.516c-.28.715-.58 1.327-.901 1.84h7.247zm7.64-.125v8.086c0 .405-.116.726-.348.964-.232.238-.533.357-.902.357h-2.749v-6.14h-13.709v4.89c0 .31-.098.596-.294.858-.197.261-.503.392-.92.392h-2.784V63.4h.517c.417 0 .822-.056 1.214-.17.393-.113.77-.348 1.134-.705.363-.357.708-.871 1.035-1.544.327-.672.622-1.57.884-2.695.261-1.125.49-2.508.687-4.15.196-1.643.354-3.612.473-5.909h12.406v15.048h3.356zm18.725-15.048v18.315h-4.409v-8.104h-7.14v8.104h-4.41V48.226h4.41v6.944h7.14v-6.944h4.41zm20.832 0v18.315h-4.41V55.848c0-.273.015-.574.045-.901.03-.327.069-.658.116-.99-.238.547-.5 1.029-.785 1.445a9.66 9.66 0 0 0-.357.491l-.83 1.17a8241.74 8241.74 0 0 1-2.455 3.444 3918.88 3918.88 0 0 1-3.516 4.963c-.167.25-.384.494-.652.732a1.344 1.344 0 0 1-.92.357h-2.695V48.244h4.41v10.692c0 .274-.015.575-.045.902-.03.327-.068.657-.116.99a9.303 9.303 0 0 1 .785-1.445c.012-.024.125-.185.34-.482l.83-1.16 1.15-1.616c.43-.601.864-1.217 1.304-1.848 1.035-1.463 2.213-3.117 3.534-4.962.167-.262.387-.509.66-.74.275-.233.584-.349.93-.349h2.677zm3.445-5.159c.404-.357.848-.696 1.33-1.017a9.546 9.546 0 0 1 3.382-1.401 10.378 10.378 0 0 1 2.125-.206c1.035 0 1.978.143 2.829.429.85.285 1.58.693 2.187 1.223a5.452 5.452 0 0 1 1.41 1.918c.333.75.5 1.59.5 2.517 0 .905-.131 1.687-.393 2.348a6.61 6.61 0 0 1-.982 1.722c-.393.488-.824.91-1.294 1.268l-1.33 1.008a10.44 10.44 0 0 0-1.08.928c-.303.304-.485.646-.544 1.027l-.41 2.606h-3.018l-.303-2.91c-.072-.559.009-1.05.24-1.472.233-.423.542-.81.93-1.16.386-.352.817-.69 1.293-1.018a11.73 11.73 0 0 0 1.34-1.071 5.62 5.62 0 0 0 1.043-1.303c.28-.482.42-1.056.42-1.723 0-.428-.08-.812-.241-1.151-.16-.34-.384-.63-.67-.875a3.001 3.001 0 0 0-1.026-.562 4.125 4.125 0 0 0-1.294-.196c-.678 0-1.253.074-1.723.223a6.35 6.35 0 0 0-1.196.5 14.4 14.4 0 0 0-.83.5c-.226.148-.428.222-.607.222-.428 0-.737-.178-.928-.535l-1.16-1.839zm3.374 21.046c0-.369.068-.72.205-1.053.137-.333.324-.619.562-.857.238-.238.524-.428.857-.571a2.69 2.69 0 0 1 1.071-.214c.38 0 .735.071 1.062.214.327.143.613.333.857.571.244.238.437.524.58.857.143.333.214.684.214 1.053a2.653 2.653 0 0 1-1.651 2.472 2.725 2.725 0 0 1-1.062.206c-.38 0-.738-.069-1.071-.206a2.584 2.584 0 0 1-.857-.562 2.607 2.607 0 0 1-.562-.848 2.725 2.725 0 0 1-.205-1.062z" opacity=".3"/>
    </g>
</svg>
