<svg xmlns="http://www.w3.org/2000/svg" viewBox="0 0 566.93 438.87"><defs><style>.cls-1{fill:#636464;}</style></defs><title>Logo_Footer@1x</title><g id="Layer_2" data-name="Layer 2"><g id="Layer_2-2" data-name="Layer 2"><polygon class="cls-1" points="442.2 166.31 400.62 0 345.18 0 262.03 249.46 234.31 166.31 178.87 166.31 68 166.31 12.56 221.75 197.35 221.75 234.31 332.62 289.75 332.62 368.94 95.03 400.62 221.75 456.06 221.75 511.49 221.75 566.93 166.31 442.2 166.31"/><path class="cls-1" d="M0,433.57v-34C10,403,18.14,404.22,29.56,404c12,0,20.79-3.87,20.79-12.64,0-7.54-4.89-11-13.66-11H17.53V349.17h16.1c7.14,0,12.84-3.67,12.84-10.4,0-6.32-4.69-11-16.1-11A79,79,0,0,0,.21,333.89V301.27a90.17,90.17,0,0,1,35.47-6.73c25.07,0,45.87,13,45.87,38.32,0,13.66-6.53,24.46-16.51,29.76,11.41,4.28,21.81,15.7,21.81,34.86,0,29.76-26.91,41.38-51.37,41.38C21.2,438.87,11,437.24,0,433.57Z"/><path class="cls-1" d="M91.79,366.71c0-45.66,17.33-72.17,53-72.17,35.88,0,53,26.5,53,72.17s-17.12,72.17-53,72.17C109.12,438.87,91.79,412.37,91.79,366.71Zm69.52,0c0-24.87-4.48-37.3-16.51-37.3-11.82,0-16.31,12.43-16.31,37.3S133,404,144.79,404C156.82,404,161.3,391.58,161.3,366.71Z"/><path class="cls-1" d="M364,433.57v-34c10,3.46,18.14,4.69,29.56,4.48,12,0,20.79-3.87,20.79-12.64,0-7.54-4.89-11-13.66-11H381.56V349.17h16.1c7.14,0,12.84-3.67,12.84-10.4,0-6.32-4.69-11-16.1-11a79,79,0,0,0-30.17,6.11V301.27a90.17,90.17,0,0,1,35.47-6.73c25.07,0,45.87,13,45.87,38.32,0,13.66-6.53,24.46-16.51,29.76,11.41,4.28,21.81,15.7,21.81,34.86,0,29.76-26.91,41.38-51.37,41.38C385.23,438.87,375,437.24,364,433.57Z"/><path class="cls-1" d="M455.82,366.71c0-45.66,17.33-72.17,53-72.17,35.88,0,53,26.5,53,72.17s-17.12,72.17-53,72.17C473.15,438.87,455.82,412.37,455.82,366.71Zm69.52,0c0-24.87-4.48-37.3-16.51-37.3-11.82,0-16.31,12.43-16.31,37.3S497,404,508.82,404C520.85,404,525.34,391.58,525.34,366.71Z"/><path class="cls-1" d="M215.5,435.36V415.85c5.49,2,9.91,3.66,18,3.66,7.93,0,12.65-1.37,12.65-5.79,0-4.57-4-5.34-8.69-5.34H226V390.84h11.44c4.73,0,7.47-1.22,7.47-5,0-3.51-3.81-5.34-10.22-5.34-7.47,0-12.2,1.68-17.84,3.81V364.77c6.86-2.44,12.35-3.51,22.72-3.51,22.26,0,29.88,11.28,29.88,21.81,0,8.69-5.34,14.18-10.67,16,7.17,2.59,12.35,8.69,12.35,17.38,0,11.28-9.15,22.26-32.78,22.26C226.78,438.72,222.21,437.8,215.5,435.36Z"/><path class="cls-1" d="M346.32,419.51v16.77A41.48,41.48,0,0,1,334.43,438c-5.95,0-11.28-1.68-14.64-5.34-5.34,4.42-12,6.25-19.36,6.25-12.5,0-23.48-7.32-23.48-23,0-15.25,11.13-23.18,27.29-23.18a40.83,40.83,0,0,1,11,1.37v-3.2c0-5.34-2.9-8.84-11.28-8.84a63.7,63.7,0,0,0-22.41,4.42V365.84a82.91,82.91,0,0,1,25-4.42c20.58,0,33.24,7.62,33.24,31v22.87c0,3.35,1.52,4.57,4.11,4.57A13.24,13.24,0,0,0,346.32,419.51Zm-31.1.91V407.76a20.47,20.47,0,0,0-5.34-.76c-5.64,0-9.15,2.29-9.15,8.39,0,5.64,3.2,7.78,6.86,7.78A10.23,10.23,0,0,0,315.22,420.42Z"/></g></g></svg>