<svg xmlns="http://www.w3.org/2000/svg" width="126" height="235" viewBox="0 0 126 235">
    <path fill="#EEE" fill-rule="evenodd" d="M.902 23.934a113.951 113.951 0 0 1 12.236-9.157c4.368-2.842 9.104-5.315 14.21-7.42 5.104-2.106 10.63-3.763 16.577-4.974C49.872 1.173 56.266.568 63.108.568c9.473 0 18.05 1.289 25.734 3.868 7.684 2.578 14.262 6.262 19.736 11.051 5.473 4.79 9.71 10.552 12.71 17.289 2.999 6.736 4.499 14.261 4.499 22.577 0 8-1.132 14.92-3.395 20.761-2.263 5.842-5.105 10.92-8.525 15.236-3.421 4.315-7.184 8.052-11.289 11.21-4.105 3.157-8 6.104-11.683 8.84-3.684 2.737-6.868 5.448-9.552 8.132-2.684 2.684-4.342 5.657-4.973 8.92l-3.947 22.577h-29.84l-3-25.577c-.737-5.052-.105-9.446 1.895-13.183 2-3.736 4.684-7.157 8.052-10.262 3.368-3.105 7.13-6.105 11.288-9 4.158-2.894 8.052-5.999 11.684-9.315a49.125 49.125 0 0 0 9.157-11.21c2.473-4.157 3.71-9.077 3.71-14.761 0-6.947-2.395-12.473-7.184-16.578-4.789-4.105-11.13-6.157-19.024-6.157-5.79 0-10.657.631-14.605 1.894-3.947 1.264-7.341 2.658-10.183 4.184-2.842 1.527-5.263 2.921-7.262 4.184-2 1.263-3.895 1.895-5.684 1.895-4 0-7-1.737-9-5.21L.902 23.934zm29.524 185.354c0-3.474.658-6.763 1.974-9.868 1.315-3.105 3.13-5.789 5.446-8.052s5.026-4.052 8.131-5.368c3.105-1.316 6.5-1.973 10.184-1.973 3.578 0 6.947.657 10.104 1.973 3.158 1.316 5.895 3.105 8.21 5.368 2.316 2.263 4.131 4.947 5.447 8.052 1.316 3.105 1.974 6.394 1.974 9.868 0 3.578-.658 6.894-1.974 9.946-1.316 3.053-3.131 5.71-5.447 7.973-2.315 2.263-5.052 4.026-8.21 5.29-3.157 1.262-6.526 1.894-10.104 1.894-3.684 0-7.079-.632-10.184-1.895-3.105-1.263-5.815-3.026-8.13-5.289-2.316-2.263-4.132-4.92-5.447-7.973-1.316-3.052-1.974-6.368-1.974-9.946z"/>
</svg>
