<svg width="1687" height="136" viewBox="0 0 1687 136" xmlns="http://www.w3.org/2000/svg" xmlns:xlink="http://www.w3.org/1999/xlink"><title>F9B4889A-B768-4251-B3BE-6064A783D43E</title><defs><path id="a" d="M0 0h1687v136H0z"/></defs><g fill="none" fill-rule="evenodd"><mask id="b" fill="#fff"><use xlink:href="#a"/></mask><use fill="#009CD7" xlink:href="#a"/><g fill-rule="nonzero" fill="#FFF" mask="url(#b)" opacity=".1"><path d="M397.14 64.953l25.886-.464 1.195 13.498h40.237l16.526-40.492h35.67V15h-73.748c-8.383 0-13.538 5.44-13.538 5.44s-25.75 25.365-33.135 31.996c-12.486 11.208.908 12.517.908 12.517zM521.15 34.967l13.483-3.658v-8.714l-13.484-4.783zM417.771 82.486h53.936v17.996h-53.936zM494.181 214.645c0-41.053-22.16-50.802-24.55-53.052-2.39-2.25-3.955-4.338-3.955-8.837 0-4.498 6.032-7.846 6.032-12.534 0-8.247-5.785-9.556-5.785-13.493 0-6.753 5.043-6.541 5.043-12.165 0-7.707-5.03-9.583-5.03-9.583s-37.318-.279-45.7 0c-34.488 55.676-33.927 112.476-33.927 112.476v61.862c0 13.497 6.54 14.622 6.54 14.622h95.8c6.706 0 5.533-8.998 5.533-8.998l-.001-70.298z"/><path d="M532.399 91.484c-20.437-21.065-20.756-49.49-20.756-49.49h-24.59c5.11 29.995 23.916 46.142 36.541 53.71 6.567 3.936 8.77 3.365 9.817 2.02 2.66-3.428-1.012-6.24-1.012-6.24z"/></g><g fill-rule="nonzero" fill="#FFF" mask="url(#b)" opacity=".1"><path d="M1165.14 64.953l25.886-.464 1.195 13.498h40.237l16.526-40.492h35.67V15h-73.748c-8.383 0-13.538 5.44-13.538 5.44s-25.75 25.365-33.135 31.996c-12.486 11.208.908 12.517.908 12.517zM1289.15 34.967l13.483-3.658v-8.714l-13.484-4.783zM1185.771 82.486h53.936v17.996h-53.936zM1262.181 214.645c0-41.053-22.16-50.802-24.55-53.052-2.39-2.25-3.955-4.338-3.955-8.837 0-4.498 6.032-7.846 6.032-12.534 0-8.247-5.785-9.556-5.785-13.493 0-6.753 5.043-6.541 5.043-12.165 0-7.707-5.03-9.583-5.03-9.583s-37.318-.279-45.7 0c-34.488 55.676-33.927 112.476-33.927 112.476v61.862c0 13.497 6.54 14.622 6.54 14.622h95.8c6.706 0 5.533-8.998 5.533-8.998v-70.298z"/><path d="M1300.399 91.484c-20.437-21.065-20.756-49.49-20.756-49.49h-24.59c5.11 29.995 23.916 46.142 36.541 53.71 6.567 3.936 8.77 3.365 9.817 2.02 2.66-3.428-1.012-6.24-1.012-6.24z"/></g><g fill="#FFF" fill-rule="nonzero" opacity=".1" mask="url(#b)"><path d="M853.363 16H669.637c-7.328 0-13.475 6.1-13.475 13.432v31.494h210.676V29.432c0-7.332-6.147-13.432-13.475-13.432zM722.358 47.68h-37.99a5.758 5.758 0 0 1-5.757-5.76 5.758 5.758 0 0 1 5.756-5.76h37.991a5.758 5.758 0 0 1 5.756 5.76c0 3.18-2.578 5.76-5.756 5.76zm85.086 3.878c-5.519 0-9.992-4.477-9.992-9.999s4.473-9.999 9.992-9.999c5.518 0 9.992 4.477 9.992 9.999 0 5.523-4.474 9.999-9.992 9.999zm27.884 0c-5.519 0-9.992-4.477-9.992-9.999s4.473-9.999 9.992-9.999c5.518 0 9.992 4.477 9.992 9.999 0 5.523-4.474 9.999-9.992 9.999zM656.162 72.446v165.122c0 7.332 6.147 13.432 13.475 13.432h183.727c7.327 0 13.474-6.1 13.474-13.432V72.446H656.162zm178.442 97.341a5.758 5.758 0 0 1-5.756 5.76c-1.11 0-2.143-.32-3.021-.864-7.128 29.092-33.404 50.742-64.644 50.742-36.697 0-66.553-29.874-66.553-66.595 0-36.722 29.855-66.597 66.553-66.597 31.249 0 57.531 21.662 64.65 50.767a5.717 5.717 0 0 1 3.015-.86 5.758 5.758 0 0 1 5.756 5.76v21.887z"/><path d="M761.183 103.752c-30.35 0-55.042 24.707-55.042 55.077 0 30.369 24.692 55.076 55.042 55.076s55.042-24.707 55.042-55.076c0-30.37-24.692-55.077-55.042-55.077zm0 90.38c-19.454 0-35.28-15.837-35.28-35.303 0-19.465 15.826-35.304 35.28-35.304s35.282 15.838 35.282 35.304-15.828 35.303-35.282 35.303z"/></g><g fill-rule="nonzero" fill="#FFF" opacity=".1" mask="url(#b)"><path d="M1074.764 22.447c-13.724-7.922-32.641-8.256-49.361-.87-15.472 6.838-26.624 21.905-33.217 33.227-2.967-.723-6.143.688-7.52 3.56-1.319 2.746-.549 5.932 1.645 7.836a65.893 65.893 0 0 0-1.107 2.587l-32.02 70.34c-3.228-1.487-7.075-.162-8.667 3.047a6.612 6.612 0 0 0 2.977 8.86l.218.11-7.203 15.833h-17.9a6.612 6.612 0 0 0-6.609 6.61c0 3.648 2.96 6.61 6.609 6.61h33.044a6.612 6.612 0 0 0 6.609-6.61c0-3.65-2.96-6.61-6.609-6.61h-.621l4.583-10.07c.605.175 1.216.294 1.827.294a6.615 6.615 0 0 0 5.925-3.668c1.514-3.047.436-6.673-2.36-8.47l33.18-72.888a6.57 6.57 0 0 0 2.76.618 6.606 6.606 0 0 0 5.96-3.751c1.514-3.15.285-6.884-2.71-8.583 5.655-9.528 14.706-21.554 26.552-26.789 12.735-5.628 27.42-5.542 37.41.225 7.345 4.24 11.565 10.985 12.55 20.053 1.843 16.984.28 28.372-4.633 33.855-.453.505-.952.939-1.46 1.348v14.796c4.07-1.375 7.98-3.619 11.297-7.317 7.64-8.51 10.233-22.939 7.937-44.106-1.42-13.117-8.202-23.798-19.086-30.077z"/><path d="M1055.942 133.928c4.312 0 8.39.982 12.061 2.694V84.357c0-3.652.347-3.305-3.304-3.305h-12.943c-3.652 0-40.48 3.03-50.208 51.125l-6.242 39.757c0 3.651 2.958 8.262 6.609 8.262h31.362c-3.774-4.861-6.044-10.942-6.044-17.555 0-15.834 12.881-28.713 28.71-28.713z"/></g></g></svg>