<svg width="39" height="40" viewBox="0 0 39 40" xmlns="http://www.w3.org/2000/svg"><title>DD8B2492-4B43-4FE5-AADE-7874EA1B1EE0</title><g fill-rule="nonzero" fill="#009CD7"><path d="M35.816 3.422l-.322-.322A10.572 10.572 0 0 0 24.776.507a10.567 10.567 0 0 0-7.317 9.03c-.005.054-.007.11-.006.165l.105 4.631L1.274 30.578a4.087 4.087 0 0 0 0 5.783l1.201 1.198a4.114 4.114 0 0 0 4.904.676l2.604 1.568a1.369 1.369 0 0 0 1.676-.203l1.157-1.154c.329-.328.468-.8.371-1.253l-.293-1.363.216.215a1.372 1.372 0 0 0 1.937 0l2.694-2.687c.3-.299.444-.719.39-1.138l-.505-3.991 6.93-6.915 4.643.105c.056.002.11 0 .166-.006a10.581 10.581 0 0 0 9.051-7.299 10.512 10.512 0 0 0-2.6-10.692zm-.009 9.86a7.845 7.845 0 0 1-6.632 5.403l-5.142-.116a1.353 1.353 0 0 0-1 .4l-7.82 7.801c-.298.299-.442.719-.39 1.137l.506 3.992-1.25 1.248-1.66-1.656a1.372 1.372 0 0 0-1.937 0l-.562.56c-.328.327-.468.799-.37 1.252l.751 3.5-2.289-1.38a1.369 1.369 0 0 0-1.677.204c-.53.53-1.393.53-1.923 0l-1.2-1.198c-.531-.529-.531-1.39 0-1.919l16.697-16.657c.265-.264.41-.624.401-.998l-.116-5.129A7.836 7.836 0 0 1 25.61 3.11a7.838 7.838 0 0 1 7.947 1.922l.322.322a7.793 7.793 0 0 1 1.928 7.928z"/><path d="M32.351 6.557a5.76 5.76 0 0 0-8.122 0 5.686 5.686 0 0 0-1.683 4.052c0 1.53.598 2.969 1.683 4.051a5.733 5.733 0 0 0 4.061 1.676c1.47 0 2.942-.559 4.061-1.676a5.685 5.685 0 0 0 1.683-4.051c0-1.53-.598-2.97-1.683-4.052zm-1.937 6.171a3.013 3.013 0 0 1-4.249 0 2.974 2.974 0 0 1-.88-2.12 2.999 2.999 0 0 1 3.005-2.996 2.999 2.999 0 0 1 3.005 2.997c0 .8-.313 1.553-.88 2.119z"/></g></svg>