<svg width="37" height="42" viewBox="0 0 37 42" xmlns="http://www.w3.org/2000/svg"><title>B07AC5F3-0E62-449A-82D4-3D879959923E</title><g fill-rule="nonzero" fill="#009CD7"><path d="M34.456.758L25.24 19.34a6.721 6.721 0 0 1 1.253.525c.41.224.785.49 1.119.794l9.232-18.62c.34-.686.082-1.53-.578-1.883-.66-.354-1.471-.085-1.811.602zM3.983 35.647c1.465 1.374 3.264 2.572 5.347 3.559 3.517 1.667 6.612 2.16 6.742 2.18l.01.001a.88.88 0 0 0 .154.009c3.7-.126 6.584-1.408 8.57-3.81 2.614-3.159 3.559-7.908 3.375-11.992-.052-1.17-.453-2.362-1.238-3.214a3.878 3.878 0 0 0-.182-.185 4.435 4.435 0 0 0-.912-.66 5.397 5.397 0 0 0-.89-.388 2.834 2.834 0 0 0-.91-.147c-1.297 0-2.54.848-3.49 1.714-.981.895-1.977 1.87-3.085 2.633-1.215.837-2.548 1.259-3.937 1.67-1.794.531-3.638.87-5.49 1.087a43.053 43.053 0 0 1-4.979.304c-.66 0-1.32-.018-1.977-.055l-.114-.007a.895.895 0 0 0-.788.37.98.98 0 0 0-.14.887c.75 2.265 2.074 4.299 3.934 6.044zm-1.28-5.346h.288c1.345 0 3.22-.061 5.322-.31 4.449-.527 8.075-1.653 10.82-3.355a.48.48 0 0 1 .495-.008c1.596.912 4.075 2.264 5.843 2.92.22.082.355.31.328.55-.211 1.919-.81 4.361-2.384 6.258-1.612 1.943-3.992 2.997-7.077 3.135a.553.553 0 0 1-.148-.01c-.311-.058-1.078-.212-2.107-.506.293-.135.596-.296.903-.477.275-.161.552-.337.826-.52a28.938 28.938 0 0 0 2.308-1.747c.148-.123.01-.364-.165-.287-1.397.61-3.182 1.017-4.779 1.285a44.634 44.634 0 0 1-2.822.373 21.387 21.387 0 0 1-2.794-1.531 9.47 9.47 0 0 0 1.044-.166c.324-.068.652-.151.974-.243.95-.268 1.853-.607 2.47-.856.118-.048.076-.23-.05-.217-1.124.112-2.683.123-4.015.102a85.596 85.596 0 0 1-2.347-.068 14.525 14.525 0 0 1-.992-.945c.27-.028.55-.073.836-.13.266-.053.536-.116.805-.187a24.012 24.012 0 0 0 2.78-.94c.117-.048.075-.23-.05-.218-1.056.106-2.495.121-3.77.106a81.234 81.234 0 0 1-1.779-.04 12.33 12.33 0 0 1-.98-1.594c-.087-.17.033-.374.218-.374z"/><ellipse cx="32.227" cy="34.664" rx="2.158" ry="2.245"/><ellipse cx="27.572" cy="39.805" rx="1.09" ry="1.134"/><ellipse cx="33.485" cy="39.543" rx="1.09" ry="1.134"/></g></svg>