<svg width="47" height="25" viewBox="0 0 47 25" xmlns="http://www.w3.org/2000/svg"><title>25069E64-74FE-4263-9F43-769BE1E62BE7</title><path d="M42.822 5.208a4.13 4.13 0 0 0-2.089.584v-.584C40.733 1.75 38.98 0 35.511 0H11.49C8.02 0 6.267 1.75 6.267 5.208v.584a4.235 4.235 0 0 0-2.09-.584A4.171 4.171 0 0 0 0 9.375v8.333a4.171 4.171 0 0 0 4.178 4.167h2.089v2.083c0 .573.47 1.042 1.044 1.042.575 0 1.045-.469 1.045-1.042v-2.083h30.288v2.083c0 .573.47 1.042 1.045 1.042.574 0 1.044-.469 1.044-1.042v-2.083h2.079c2.308 0 4.188-1.865 4.188-4.167V9.375a4.171 4.171 0 0 0-4.178-4.167zm-34.466 0c0-2.302.814-3.125 3.133-3.125H35.51c2.308 0 3.133.823 3.133 3.125V12.5H8.356V5.208zm36.555 12.5c0 1.157-.95 2.084-2.1 2.084H4.179a2.092 2.092 0 0 1-2.089-2.084V9.375c0-1.146.94-2.083 2.089-2.083s2.089.937 2.089 2.083v5.208h34.466V9.375c0-1.146.94-2.083 2.09-2.083 1.148 0 2.088.937 2.088 2.083v8.333z" fill-rule="nonzero" fill="#009CD7"/></svg>