<svg xmlns="http://www.w3.org/2000/svg" xmlns:xlink="http://www.w3.org/1999/xlink" preserveAspectRatio="xMidYMid" width="40" height="40" viewBox="0 0 40 40">
  <defs>
    <style>

      .cls-2 {
        fill: #000000;
      }
    </style>
  </defs>
  <path d="M26.270,0.463 C28.542,0.123 30.691,0.000 32.605,0.000 C33.620,0.000 34.634,0.036 35.619,0.106 C37.899,0.269 39.741,2.110 39.903,4.388 C40.077,6.817 40.099,10.102 39.554,13.741 C39.554,13.741 26.270,0.463 26.270,0.463 ZM0.449,26.259 C-0.097,29.898 -0.074,33.183 0.100,35.612 C0.262,37.890 2.104,39.731 4.384,39.894 C5.369,39.964 6.383,40.000 7.398,40.000 C7.398,40.000 7.398,40.000 7.399,40.000 C9.312,40.000 11.462,39.877 13.733,39.537 C13.733,39.537 0.449,26.259 0.449,26.259 ZM39.059,16.404 C37.958,21.344 35.715,26.686 31.380,31.321 C31.363,31.339 31.345,31.357 31.327,31.374 C26.711,35.688 21.377,37.937 16.397,39.043 C16.397,39.043 0.944,23.596 0.944,23.596 C2.044,18.656 4.288,13.314 8.623,8.679 C8.640,8.661 8.658,8.643 8.676,8.626 C13.292,4.312 18.626,2.063 23.606,0.957 C23.606,0.957 39.059,16.404 39.059,16.404 ZM28.285,16.491 C28.285,16.491 26.688,14.895 26.688,14.895 C26.688,14.895 27.930,13.653 27.930,13.653 C28.367,13.217 28.367,12.510 27.930,12.074 C27.494,11.639 26.787,11.639 26.351,12.074 C26.351,12.074 25.109,13.316 25.109,13.316 C25.109,13.316 23.512,11.720 23.512,11.720 C23.076,11.284 22.369,11.284 21.933,11.720 C21.496,12.156 21.496,12.863 21.933,13.299 C21.933,13.299 23.529,14.895 23.529,14.895 C23.529,14.895 21.704,16.720 21.704,16.720 C21.704,16.720 20.107,15.123 20.107,15.123 C19.671,14.688 18.964,14.687 18.528,15.123 C18.092,15.559 18.092,16.266 18.528,16.702 C18.528,16.702 20.125,18.298 20.125,18.298 C20.125,18.298 18.299,20.123 18.299,20.123 C18.299,20.123 16.702,18.527 16.702,18.527 C16.266,18.091 15.559,18.091 15.123,18.527 C14.687,18.963 14.687,19.670 15.123,20.105 C15.123,20.105 16.720,21.702 16.720,21.702 C16.720,21.702 14.895,23.526 14.895,23.526 C14.895,23.526 13.298,21.930 13.298,21.930 C12.861,21.494 12.154,21.494 11.718,21.930 C11.282,22.366 11.282,23.073 11.718,23.509 C11.718,23.509 13.315,25.105 13.315,25.105 C13.315,25.105 12.073,26.347 12.073,26.347 C11.637,26.783 11.637,27.490 12.073,27.926 C12.291,28.143 12.577,28.252 12.863,28.252 C13.149,28.252 13.434,28.143 13.652,27.926 C13.652,27.926 14.895,26.684 14.895,26.684 C14.895,26.684 16.492,28.280 16.492,28.280 C16.710,28.498 16.996,28.607 17.281,28.607 C17.567,28.607 17.853,28.498 18.071,28.280 C18.507,27.844 18.507,27.137 18.071,26.701 C18.071,26.701 16.474,25.105 16.474,25.105 C16.474,25.105 18.300,23.280 18.300,23.280 C18.300,23.280 19.897,24.877 19.897,24.877 C20.115,25.095 20.401,25.204 20.686,25.204 C20.972,25.204 21.258,25.095 21.476,24.877 C21.912,24.441 21.912,23.734 21.476,23.298 C21.476,23.298 19.879,21.702 19.879,21.702 C19.879,21.702 21.705,19.877 21.705,19.877 C21.705,19.877 23.302,21.473 23.302,21.473 C23.520,21.691 23.806,21.800 24.091,21.800 C24.377,21.800 24.663,21.691 24.881,21.473 C25.317,21.037 25.317,20.330 24.881,19.895 C24.881,19.895 23.284,18.298 23.284,18.298 C23.284,18.298 25.110,16.474 25.110,16.474 C25.110,16.474 26.707,18.070 26.707,18.070 C26.925,18.288 27.211,18.397 27.496,18.397 C27.782,18.397 28.068,18.288 28.286,18.070 C28.721,17.634 28.721,16.927 28.285,16.491 Z" id="path-1" class="cls-2" fill-rule="evenodd"/>
</svg>
