<svg xmlns="http://www.w3.org/2000/svg" xmlns:xlink="http://www.w3.org/1999/xlink" preserveAspectRatio="xMidYMid" width="27" height="33" viewBox="0 0 27 33">
  <defs>
    <style>

      .cls-2 {
        fill: #515154;
      }
    </style>
  </defs>
  <path d="M26.390,13.758 C25.984,13.374 25.493,13.182 24.914,13.182 C24.914,13.182 23.220,13.182 23.220,13.182 C23.220,13.182 23.220,9.226 23.220,9.226 C23.220,6.699 22.265,4.529 20.356,2.716 C18.447,0.903 16.162,-0.004 13.500,-0.004 C10.838,-0.004 8.553,0.903 6.643,2.716 C4.734,4.529 3.779,6.699 3.779,9.226 C3.779,9.226 3.779,13.182 3.779,13.182 C3.779,13.182 2.085,13.182 2.085,13.182 C1.507,13.182 1.015,13.374 0.610,13.758 C0.205,14.143 0.002,14.610 0.002,15.159 C0.002,15.159 0.002,31.026 0.002,31.026 C0.002,31.575 0.205,32.042 0.610,32.427 C1.015,32.811 1.507,33.004 2.085,33.004 C2.085,33.004 24.915,33.004 24.915,33.004 C25.493,33.004 25.985,32.811 26.390,32.427 C26.795,32.042 26.998,31.575 26.998,31.026 C26.998,31.026 26.998,15.159 26.998,15.159 C26.998,14.610 26.795,14.143 26.390,13.758 ZM19.054,13.182 C19.054,13.182 7.945,13.182 7.945,13.182 C7.945,13.182 7.945,9.226 7.945,9.226 C7.945,7.770 8.488,6.527 9.573,5.497 C10.658,4.467 11.967,3.952 13.500,3.952 C15.033,3.952 16.342,4.467 17.427,5.497 C18.512,6.527 19.054,7.770 19.054,9.226 C19.054,9.226 19.054,13.182 19.054,13.182 Z" id="path-1" class="cls-2" fill-rule="evenodd"/>
</svg>
