<svg xmlns="http://www.w3.org/2000/svg" xmlns:xlink="http://www.w3.org/1999/xlink" preserveAspectRatio="xMidYMid" width="40" height="25" viewBox="0 0 40 25">
  <defs>
    <style>

      .cls-2 {
        fill: #343436;
      }
    </style>
  </defs>
  <path d="M37.327,25.035 C37.327,25.035 20.000,25.035 20.000,25.035 C20.000,25.035 2.672,25.035 2.672,25.035 C1.206,25.035 0.006,23.876 0.006,22.461 C0.006,22.461 0.006,5.534 0.006,5.534 C0.006,4.119 0.962,3.660 2.131,4.515 C2.131,4.515 17.872,16.052 17.872,16.052 C18.460,16.478 19.231,16.686 20.001,16.677 C20.769,16.686 21.540,16.478 22.129,16.052 C22.129,16.052 37.868,4.515 37.868,4.515 C39.037,3.660 39.993,4.119 39.993,5.534 C39.993,5.534 39.993,22.461 39.993,22.461 C39.993,23.876 38.793,25.035 37.327,25.035 ZM22.426,12.623 C21.773,13.123 20.873,13.344 20.000,13.302 C19.125,13.344 18.225,13.122 17.572,12.623 C17.572,12.623 3.169,1.609 3.169,1.609 C2.018,0.732 2.279,0.013 3.745,0.013 C3.745,0.013 20.001,0.013 20.001,0.013 C20.001,0.013 36.256,0.013 36.256,0.013 C37.720,0.013 37.981,0.732 36.829,1.609 C36.829,1.609 22.426,12.623 22.426,12.623 Z" id="path-1" class="cls-2" fill-rule="evenodd"/>
</svg>
