<svg xmlns="http://www.w3.org/2000/svg" xmlns:xlink="http://www.w3.org/1999/xlink" preserveAspectRatio="xMidYMid" width="40" height="54" viewBox="0 0 40 54">
  <defs>
    <style>

      .cls-2 {
        fill: #000000;
      }
    </style>
  </defs>
  <path d="M20.000,34.105 C24.857,34.105 28.571,30.411 28.571,25.579 C28.571,25.579 28.571,8.526 28.571,8.526 C28.571,3.695 24.857,0.000 20.000,0.000 C15.143,0.000 11.429,3.695 11.429,8.526 C11.429,8.526 11.429,25.579 11.429,25.579 C11.429,30.411 15.143,34.105 20.000,34.105 ZM35.143,25.579 C35.143,34.105 28.000,40.074 20.000,40.074 C12.000,40.074 4.857,34.105 4.857,25.579 C4.857,25.579 0.000,25.579 0.000,25.579 C0.000,35.242 7.714,43.200 17.143,44.621 C17.143,44.621 17.143,54.000 17.143,54.000 C17.143,54.000 22.857,54.000 22.857,54.000 C22.857,54.000 22.857,44.621 22.857,44.621 C32.286,43.200 40.000,35.242 40.000,25.579 C40.000,25.579 35.143,25.579 35.143,25.579 C35.143,25.579 35.143,25.579 35.143,25.579 Z" id="path-1" class="cls-2" fill-rule="evenodd"/>
</svg>
