<?xml version="1.0" encoding="UTF-8"?>
<svg width="78px" height="78px" viewBox="0 0 78 78" version="1.1" xmlns="http://www.w3.org/2000/svg" xmlns:xlink="http://www.w3.org/1999/xlink">
    <!-- Generator: sketchtool 45.2 (43514) - http://www.bohemiancoding.com/sketch -->
    <title>4D1B9B16-9613-4FC4-B839-9E0488B808A8</title>
    <desc>Created with sketchtool.</desc>
    <defs></defs>
    <g id="Page-1" stroke="none" stroke-width="1" fill="none" fill-rule="evenodd">
        <g id="Kota" transform="translate(-601.000000, -647.000000)">
            <g id="Group-18" transform="translate(521.000000, 647.000000)">
                <g id="Group-2" transform="translate(80.000000, 0.000000)">
                    <circle id="Oval" fill="#4B4C4D" cx="38.9323864" cy="38.9323864" r="38.9323864"></circle>
                    <g id="001-home-icon-silhouette" transform="translate(22.580784, 24.138080)" fill-rule="nonzero" fill="#FFFFFF">
                        <path d="M31.5402243,13.5019664 L26.6785476,8.64028982 L26.6785476,3.02423742 C26.6785476,2.0087764 25.8556629,1.18582691 24.8387126,1.18582691 C23.8240933,1.18582691 23.0012086,2.0087764 23.0012086,3.02423742 L23.0012086,4.96301552 L19.3813057,1.34298313 C17.5915897,-0.445761613 14.4798706,-0.442588702 12.694234,1.34622079 L0.538229304,13.5019664 C-0.179366599,14.2209869 -0.179366599,15.3844092 0.538229304,16.1023289 C1.25614897,16.8211551 2.42183761,16.8211551 3.13949826,16.1023289 L15.2943374,3.94625944 C15.6903037,3.55236521 16.3882146,3.55236521 16.7821088,3.94509388 L28.9390201,16.1023289 C29.2995016,16.4617743 29.7694809,16.6405582 30.2393308,16.6405582 C30.7101519,16.6405582 31.1809083,16.4615801 31.540289,16.1023289 C32.2581439,15.3844739 32.2581439,14.2210517 31.5402243,13.5019664 Z" id="Shape"></path>
                        <path d="M16.6779208,7.43600822 C16.3247564,7.08303807 15.7529201,7.08303807 15.4007918,7.43600822 L4.70834085,18.1252862 C4.53952904,18.2940333 4.44382368,18.5244255 4.44382368,18.7648544 L4.44382368,26.5612147 C4.44382368,28.3906892 5.92719193,29.8739927 7.75660174,29.8739927 L13.0504418,29.8739927 L13.0504418,21.6755793 L19.0271052,21.6755793 L19.0271052,29.8739927 L24.32101,29.8739927 C26.1503551,29.8739927 27.6337233,28.3906892 27.6337233,26.5612794 L27.6337233,18.7648544 C27.6337233,18.5244255 27.5388598,18.2940333 27.3692062,18.1252862 L16.6779208,7.43600822 Z" id="Shape"></path>
                    </g>
                </g>
            </g>
        </g>
    </g>
</svg>