<?xml version="1.0" encoding="UTF-8"?>
<svg width="78px" height="78px" viewBox="0 0 78 78" version="1.1" xmlns="http://www.w3.org/2000/svg" xmlns:xlink="http://www.w3.org/1999/xlink">
    <!-- Generator: sketchtool 45.2 (43514) - http://www.bohemiancoding.com/sketch -->
    <title>FE3AC6A1-58E2-434D-806F-429C89B39D49</title>
    <desc>Created with sketchtool.</desc>
    <defs></defs>
    <g id="Page-1" stroke="none" stroke-width="1" fill="none" fill-rule="evenodd">
        <g id="Kota" transform="translate(-1241.000000, -647.000000)">
            <g id="Group-16" transform="translate(1161.000000, 647.000000)">
                <g id="Group-15" transform="translate(80.000000, 0.000000)">
                    <g id="Group-2-Copy-2" fill="#EF3C2A">
                        <circle id="Oval" cx="38.9323864" cy="38.9323864" r="38.9323864"></circle>
                    </g>
                    <g id="002-musica-searcher" transform="translate(25.000000, 25.000000)" fill-rule="nonzero" fill="#FFFFFF">
                        <path d="M27.5345524,24.8357609 L21.4027454,18.6028901 C21.3701576,18.5697646 21.3319318,18.5466111 21.2978781,18.515778 C22.5044162,16.6553615 23.2086059,14.4283865 23.2086059,12.0334915 C23.2086059,5.51876718 18.0131627,0.237596077 11.604303,0.237596077 C5.19544324,0.237596077 0,5.51876718 0,12.0333769 C0,18.5478719 5.19533048,23.8291576 11.6041902,23.8291576 C13.9603223,23.8291576 16.1510346,23.1133483 17.9812514,21.8869017 C18.011584,21.9214026 18.0342489,21.9602592 18.0668367,21.9933847 L24.1987565,28.2264848 C25.1198976,29.1627106 26.6132986,29.1627106 27.5345524,28.2264848 C28.4555807,27.2901443 28.4555807,25.7721014 27.5345524,24.8357609 Z M11.604303,19.7399322 C7.41705198,19.7399322 4.02273331,16.2896053 4.02273331,12.0333769 C4.02273331,7.77703377 7.41716474,4.32670686 11.604303,4.32670686 C15.7913284,4.32670686 19.1857598,7.77714839 19.1857598,12.0333769 C19.1857598,16.2896053 15.7913284,19.7399322 11.604303,19.7399322 Z" id="Shape"></path>
                    </g>
                </g>
            </g>
        </g>
    </g>
</svg>