<?xml version="1.0" encoding="UTF-8"?>
<svg width="30px" height="30px" viewBox="0 0 30 30" version="1.1" xmlns="http://www.w3.org/2000/svg" xmlns:xlink="http://www.w3.org/1999/xlink">
    <!-- Generator: sketchtool 45.2 (43514) - http://www.bohemiancoding.com/sketch -->
    <title>86BB3883-6017-4E03-83DC-6B1967E59BD6</title>
    <desc>Created with sketchtool.</desc>
    <defs></defs>
    <g id="Page-1" stroke="none" stroke-width="1" fill="none" fill-rule="evenodd">
        <g id="Kota" transform="translate(-680.000000, -2305.000000)">
            <g id="Group-23" transform="translate(680.000000, 2305.000000)">
                <circle id="Oval-3" fill="#FFFFFF" cx="15" cy="14.6897254" r="14.6897254"></circle>
                <g id="arrows-(3)" transform="translate(14.688823, 14.533870) rotate(-180.000000) translate(-14.688823, -14.533870) translate(6.688823, 8.033870)" fill-rule="nonzero" fill="#EC5A44">
                    <path d="M14.9759963,5.4048777 L0.630413611,5.4048777 C0.282256553,5.4048777 0,5.68713426 0,6.03529131 C0,6.38347885 0.282256553,6.66570493 0.630413611,6.66570493 L14.9759963,6.66570493 C15.3241838,6.66570493 15.6064099,6.38347885 15.6064099,6.03529131 C15.6064099,5.68713426 15.3241838,5.4048777 14.9759963,5.4048777 Z" id="Shape"></path>
                    <path d="M1.52199074,6.03529131 L6.45578042,1.10147115 C6.70197764,0.855273934 6.70197764,0.456121713 6.45578042,0.209924501 C6.20958321,-0.0362422292 5.81043099,-0.0362422292 5.56423378,0.209924501 L0.184655529,5.58950275 C-0.0615416826,5.83569996 -0.0615416826,6.23485218 0.184655529,6.4810494 L5.56423378,11.8606276 C5.68731714,11.9837415 5.84868498,12.0452832 6.01002234,12.0452832 C6.1713597,12.0452832 6.33272754,11.9837415 6.45581091,11.8606276 C6.70200812,11.6144304 6.70200812,11.2152782 6.45581091,10.969081 L1.52199074,6.03529131 Z" id="Shape"></path>
                </g>
            </g>
        </g>
    </g>
</svg>