<?xml version="1.0" encoding="UTF-8"?>
<svg width="78px" height="78px" viewBox="0 0 78 78" version="1.1" xmlns="http://www.w3.org/2000/svg" xmlns:xlink="http://www.w3.org/1999/xlink">
    <!-- Generator: sketchtool 45.2 (43514) - http://www.bohemiancoding.com/sketch -->
    <title>18280133-B164-4789-AFF1-C4A36061AA94</title>
    <desc>Created with sketchtool.</desc>
    <defs></defs>
    <g id="Page-1" stroke="none" stroke-width="1" fill="none" fill-rule="evenodd">
        <g id="Kota" transform="translate(-921.000000, -647.000000)">
            <g id="Group-17" transform="translate(841.000000, 647.000000)">
                <g id="Group-14" transform="translate(80.000000, 0.000000)">
                    <g id="Group-2-Copy" fill="#4B4C4D">
                        <circle id="Oval" cx="38.9323864" cy="38.9323864" r="38.9323864"></circle>
                    </g>
                    <path d="M53.9876482,46.440838 C54.3279722,46.8044377 54.6332164,47.1213197 54.9017182,47.3898216 C55.170802,47.6589884 55.4598363,47.9198425 55.7684887,48.1730489 C56.0768917,48.4259227 56.3027491,48.5527753 56.4447309,48.5527753 C56.7141471,48.5527753 57.2358553,48.165318 58.0111024,47.3898216 C58.7865158,46.6149901 59.173973,46.0927 59.173973,45.8235332 C59.173973,45.69693 58.948365,45.372899 58.4974814,44.8506089 C58.0468473,44.3289007 57.469693,43.7115959 56.7652706,42.9992763 C56.0609312,42.2872893 55.3767919,41.6073894 54.71252,40.9584962 C54.0474169,40.3092704 53.3991055,39.6805771 52.7659233,39.0712525 C52.1332399,38.4621773 51.7690584,38.1102986 51.6740436,38.0152839 C51.5159351,37.8571754 51.3338028,37.7781211 51.1284778,37.7781211 C50.8593941,37.7781211 50.3370209,38.1655784 49.5621063,38.9409086 C48.786693,39.7158232 48.3992357,40.2381132 48.3992357,40.5072801 C48.3992357,40.6495112 48.5257558,40.8747868 48.7789621,41.1837717 C49.0321685,41.4921747 49.2933551,41.7812091 49.5621063,42.0502928 C49.8306081,42.3187946 50.1479058,42.6237894 50.5114224,42.9640303 C50.8752715,43.3042711 51.0806795,43.4979582 51.1284778,43.5455071 L48.8501193,45.8235332 L40.4241495,37.3983947 C42.4973494,34.6137896 43.533783,31.7261065 43.533783,28.7355946 C43.533783,26.156647 42.7223755,24.0560982 41.101223,22.4344469 C39.4792392,20.8125462 37.3789397,20.0017206 34.7997427,20.0017206 C32.2681778,20.0017206 29.7918095,20.7533594 27.3712198,22.2560553 C24.9504639,23.7592499 22.9881561,25.7213083 21.4851277,28.1421474 C19.9820994,30.5628202 19.2304605,33.0391885 19.2304605,35.5705872 C19.2304605,38.1499504 20.041203,40.2495017 21.6631868,41.8719012 C23.2850875,43.4943006 25.385387,44.3050431 27.9643346,44.3050431 C30.9549295,44.3050431 33.8422802,43.2686926 36.6272177,41.1954927 L52.5522857,57.1209763 C52.9955215,57.5638796 53.5328577,57.7854975 54.1663724,57.7854975 C54.8306442,57.7854975 55.4718066,57.4762632 56.0882802,56.8594571 C56.705585,56.2421523 57.0145699,55.6018212 57.0145699,54.9369674 C57.0145699,54.3037852 56.792952,53.7655347 56.3500487,53.3228807 L51.1287272,48.1015592 L53.4068364,45.8235332 C53.4539697,45.8713315 53.6479893,46.0767396 53.9876482,46.440838 Z M37.6478572,32.3434113 C36.7620505,33.2293011 35.685965,33.6723707 34.4201826,33.6723707 C33.7554951,33.6723707 33.0987878,33.5217436 32.4500608,33.2209883 C32.750733,33.8700479 32.9011106,34.5265889 32.9011106,35.1911101 C32.9011106,36.4570588 32.4582904,37.532895 31.5721512,38.4187847 C30.6860121,39.3045083 29.6098434,39.747661 28.3442272,39.747661 C27.0784448,39.747661 26.0026918,39.305007 25.1165526,38.4187847 C24.2306628,37.532895 23.7875933,36.4570588 23.7875933,35.1911101 C23.7875933,33.9253277 24.2304135,32.8493253 25.1165526,31.9634355 C26.0023593,31.0775457 27.0784448,30.6344761 28.3442272,30.6344761 C29.0085822,30.6344761 29.6653726,30.7848538 30.3139334,31.0853597 C30.0133443,30.4366327 29.8630498,29.7797592 29.8630498,29.1153211 C29.8630498,27.8495386 30.30587,26.7735362 31.1920092,25.8876464 C32.0781483,25.0017567 33.1541507,24.5586871 34.4199332,24.5586871 C35.6857156,24.5586871 36.761718,25.0015073 37.6476078,25.8876464 C38.5334976,26.7737856 38.9765672,27.8495386 38.9765672,29.1153211 C38.976484,30.3811035 38.5334145,31.457189 37.6478572,32.3434113 Z" id="Shape" fill="#FFFFFF" fill-rule="nonzero"></path>
                </g>
            </g>
        </g>
    </g>
</svg>