<?xml version="1.0" encoding="UTF-8"?>
<svg width="15px" height="15px" viewBox="0 0 15 15" version="1.1" xmlns="http://www.w3.org/2000/svg" xmlns:xlink="http://www.w3.org/1999/xlink">
    <!-- Generator: sketchtool 45.2 (43514) - http://www.bohemiancoding.com/sketch -->
    <title>C806EFF2-F334-4A9F-A4BC-918275B419B3</title>
    <desc>Created with sketchtool.</desc>
    <defs></defs>
    <g id="Page-1" stroke="none" stroke-width="1" fill="none" fill-rule="evenodd" opacity="0.699999988">
        <g id="Полезно-Преглед" transform="translate(-635.000000, -255.000000)" fill-rule="nonzero" fill="#000000">
            <g id="Group-2" transform="translate(635.000000, 255.000000)">
                <g id="001-user-silhouette">
                    <path d="M7.27302573,7.6299146 C9.06539464,7.6299146 10.5185635,5.92913821 10.5185635,3.83114254 C10.5185635,0.921797807 9.06546539,0.0324058486 7.27302573,0.0324058486 C5.48051532,0.0324058486 4.02748802,0.921797807 4.02748802,3.83114254 C4.02752339,5.92913821 5.4805507,7.6299146 7.27302573,7.6299146 Z" id="Shape"></path>
                    <path d="M14.439848,13.2211971 L12.8024329,9.53262612 C12.7275385,9.36383977 12.5959694,9.22385074 12.4322066,9.13859082 L9.89103622,7.81575294 C9.83499816,7.78663721 9.76714399,7.79229762 9.71676634,7.83043463 C8.99803575,8.37404628 8.15297188,8.66138286 7.27302573,8.66138286 C6.39293808,8.66138286 5.54794496,8.37404628 4.82921437,7.83043463 C4.77869521,7.79229762 4.71084104,7.78663721 4.65480298,7.81575294 L2.11380945,9.13859082 C1.94997595,9.22385074 1.8185483,9.36376901 1.74358324,9.53262612 L0.106168069,13.2211971 C-0.00672173716,13.475491 0.0164151897,13.7664361 0.168078806,13.9996804 C0.319671668,14.2328893 0.576229762,14.3720646 0.854403548,14.3720646 L13.6915418,14.3720646 C13.9697156,14.3720646 14.2263444,14.2328185 14.3779373,13.999645 C14.5295301,13.7664361 14.5527378,13.4753849 14.439848,13.2211971 Z" id="Shape"></path>
                </g>
            </g>
        </g>
    </g>
</svg>