<?xml version="1.0" encoding="UTF-8"?>
<svg width="17px" height="17px" viewBox="0 0 17 17" version="1.1" xmlns="http://www.w3.org/2000/svg" xmlns:xlink="http://www.w3.org/1999/xlink">
    <!-- Generator: sketchtool 45.2 (43514) - http://www.bohemiancoding.com/sketch -->
    <title>5382A350-5B76-40FA-A1C1-CF7783155CA7</title>
    <desc>Created with sketchtool.</desc>
    <defs></defs>
    <g id="Page-1" stroke="none" stroke-width="1" fill="none" fill-rule="evenodd" opacity="0.699999988">
        <g id="Полезно-Преглед" transform="translate(-490.000000, -255.000000)" fill-rule="nonzero" fill="#000000">
            <g id="Group-3" transform="translate(490.000000, 255.000000)">
                <g id="002-clock">
                    <path d="M8.42710235,0.0875957391 C3.82137291,0.0875957391 0.0875957391,3.8214841 0.0875957391,8.42710235 C0.0875957391,13.0327206 3.82137291,16.766887 8.42710235,16.766887 C13.0328318,16.766887 16.766887,13.0327206 16.766887,8.42710235 C16.766887,3.8214841 13.0328318,0.0875957391 8.42710235,0.0875957391 Z M12.0325024,10.0132738 L8.49687855,10.0132738 C8.48492486,10.0132738 8.47380515,10.0103827 8.46196265,10.0099379 C8.45012016,10.0104939 8.43905604,10.0132738 8.42704675,10.0132738 C8.10852258,10.0132738 7.85026725,9.75501846 7.85026725,9.43649428 L7.85026725,3.54855075 C7.85026725,3.23002658 8.10852258,2.97177125 8.42704675,2.97177125 C8.74557093,2.97177125 9.00382626,3.23002658 9.00382626,3.54855075 L9.00382626,8.85971478 L12.03228,8.85971478 C12.3508042,8.85971478 12.6090595,9.11797011 12.6090595,9.43649428 C12.6090595,9.75501846 12.3510266,10.0132738 12.0325024,10.0132738 Z" id="Shape"></path>
                </g>
            </g>
        </g>
    </g>
</svg>