<?xml version="1.0" encoding="UTF-8"?>
<svg width="22px" height="22px" viewBox="0 0 22 22" version="1.1" xmlns="http://www.w3.org/2000/svg" xmlns:xlink="http://www.w3.org/1999/xlink">
    <!-- Generator: sketchtool 45.2 (43514) - http://www.bohemiancoding.com/sketch -->
    <title>97107A16-7727-4B06-BC89-81F0E78EDDED</title>
    <desc>Created with sketchtool.</desc>
    <defs></defs>
    <g id="Page-1" stroke="none" stroke-width="1" fill="none" fill-rule="evenodd">
        <g id="Kota" transform="translate(-491.000000, -10.000000)" fill-rule="nonzero" fill="#FFFFFF">
            <g id="001-phone-symbol-of-an-auricular-inside-a-circle" transform="translate(491.000000, 10.000000)">
                <path d="M10.7202876,0 C4.80008457,0 4.41878741e-05,4.83179759 4.41878741e-05,10.7911688 C4.41878741e-05,16.7504511 4.80008457,21.5823376 10.7202876,21.5823376 C16.6404906,21.5823376 21.4404426,16.7504066 21.4404426,10.7911688 C21.4404868,4.83179759 16.6404906,0 10.7202876,0 Z M16.3812845,15.7455094 L15.522935,16.6097157 C15.3696915,16.7637507 14.9209636,16.8598724 14.9065584,16.8598724 C12.1911251,16.8837138 9.57657282,15.8100502 7.65554918,13.8761391 C5.72926719,11.9360008 4.66142302,9.29476518 4.69010095,6.55215915 C4.69010095,6.55091371 4.78837479,6.11216079 4.94148577,5.95950467 L5.79979104,5.09538739 C6.11387844,4.77775412 6.71721968,4.63421645 7.13987669,4.77655316 L7.32042835,4.8371797 C7.7418481,4.97938297 8.18430128,5.44842692 8.30073633,5.88055228 L8.73249605,7.47570201 C8.8489311,7.90907282 8.69188739,8.52561318 8.37788836,8.8417786 L7.80477163,9.41877604 C8.36746002,11.5156627 10.0019253,13.161253 12.0853836,13.729043 L12.6582793,13.1519121 C12.973825,12.8342789 13.5860921,12.6763296 14.0156866,12.7933571 L15.6001312,13.2295301 C16.0295048,13.3482923 16.4953776,13.7908705 16.636602,14.214945 L16.6968301,14.3993155 C16.8368173,14.8235679 16.6953277,15.4307674 16.3812845,15.7455094 Z" id="Shape"></path>
            </g>
        </g>
    </g>
</svg>