<?xml version="1.0" encoding="UTF-8"?>
<svg width="20px" height="18px" viewBox="0 0 20 18" version="1.1" xmlns="http://www.w3.org/2000/svg" xmlns:xlink="http://www.w3.org/1999/xlink">
    <!-- Generator: sketchtool 45.2 (43514) - http://www.bohemiancoding.com/sketch -->
    <title>5BB17D32-9FB6-47AF-9895-09B8B3F4F7FE</title>
    <desc>Created with sketchtool.</desc>
    <defs></defs>
    <g id="Page-1" stroke="none" stroke-width="1" fill="none" fill-rule="evenodd">
        <g id="FFFFFF" transform="translate(-259.000000, -987.000000)" fill-rule="nonzero" fill="#FFBD4F">
            <g id="Group-16" transform="translate(242.000000, 987.000000)">
                <g id="001-star" transform="translate(17.000000, 0.000000)">
                    <path d="M19.7194131,6.8022356 C19.657608,6.61263972 19.4953697,6.4772141 19.2983661,6.44625967 L13.4268854,5.61049011 L10.7847191,0.290197764 C10.6958743,0.112209802 10.5143219,0 10.3173183,0 L10.3173183,0 C10.1203147,0 9.93876232,0.112209802 9.84991755,0.294067068 L7.24251659,5.62983663 L1.3710359,6.50429923 C1.17403227,6.53525365 1.01179399,6.67067928 0.949988927,6.86027515 C0.888183867,7.04987102 0.942263294,7.25881341 1.0851875,7.39423904 L5.34587381,11.5305245 L4.36085567,17.38865 C4.32609032,17.5859845 4.40720946,17.783319 4.56944775,17.8993981 C4.65829252,17.9651763 4.76645137,18 4.87461023,18 C4.95959219,18 5.04071133,17.9806535 5.11796765,17.9380911 L10.3598093,15.1560619 L15.6171022,17.9071367 C15.6943585,17.9458298 15.7754777,17.9651763 15.8565968,17.9651763 L15.8565968,17.9651763 C16.1424452,17.9651763 16.378077,17.7291488 16.378077,17.4428203 C16.378077,17.400258 16.3742142,17.3615649 16.3626257,17.3228719 L15.3467051,11.4995701 L19.5803517,7.34006879 C19.7310015,7.20077386 19.7812181,6.99183147 19.7194131,6.8022356 Z" id="Shape"></path>
                </g>
            </g>
        </g>
    </g>
</svg>