<svg xmlns="http://www.w3.org/2000/svg" width="22" height="21" viewBox="0 0 22 21">
    <g fill="#9092A5" fill-rule="nonzero">
        <path d="M21.576 1.58c-1.89-1.882-5.44-1.882-8.807-.157-.122 1.643.497 3.402 1.839 4.739a6.28 6.28 0 0 0 3.685 1.807c2.562-3.08 3.91-5.766 3.283-6.39zm-3.56 1.187a.745.745 0 0 1-1.049 0 .737.737 0 0 1 0-1.046.744.744 0 0 1 1.05 0c.29.29.29.757 0 1.046z"/>
        <path d="M11.548 2.13c-.248.162-.494.333-.738.514l-.577-.303a1.308 1.308 0 0 0-1.526.228L4.646 6.615a1.295 1.295 0 0 0 .32 2.067l.921.48c-.923 2.144-1.424 4.245-1.56 5.575l-4.01 1.374a.465.465 0 0 0-.048.864l1.749.82c.342.161.617.435.778.776l.824 1.741a.47.47 0 0 0 .868-.046l1.381-4.001c1.883-.31 5.149-1.743 7.986-3.901l.317.976a.536.536 0 0 0 .886.21l.34-.338c.261-.26.422-.606.447-.974l.12-1.717c.496-.498.966-.995 1.41-1.489a7.548 7.548 0 0 1-3.623-2.018c-1.386-1.381-2.127-3.148-2.204-4.884z"/>
    </g>
</svg>
