<?xml version="1.0" encoding="UTF-8"?>
<svg width="19px" height="18px" viewBox="0 0 19 18" version="1.1" xmlns="http://www.w3.org/2000/svg" xmlns:xlink="http://www.w3.org/1999/xlink">
    <!-- Generator: sketchtool 45.2 (43514) - http://www.bohemiancoding.com/sketch -->
    <title>E8D0CD57-09E7-4229-9FB0-A7E463734EE3</title>
    <desc>Created with sketchtool.</desc>
    <defs></defs>
    <g id="Page-1" stroke="none" stroke-width="1" fill="none" fill-rule="evenodd">
        <g id="FFFFFF" transform="translate(-197.000000, -987.000000)" fill-rule="nonzero" fill="#E9483F">
            <g id="Group-8" transform="translate(197.000000, 987.000000)">
                <g id="Group-19" transform="translate(0.911822, 0.063551)">
                    <g id="002-favorite">
                        <path d="M17.0486301,9.17790101 L16.0388481,7.57744608 L16.6378037,5.78127608 C16.7189054,5.53613127 16.6178607,5.26693956 16.3951635,5.13868941 L14.7611648,4.19217662 L14.4606898,2.321862 C14.4188094,2.06669765 14.2047543,1.87632634 13.948154,1.86563883 L12.0635378,1.79149422 L10.9327681,0.275203437 C10.778542,0.0681328896 10.4993396,-0.000667969506 10.2686653,0.110882938 L8.56619541,0.924469796 L6.8630608,0.110214969 C6.63172167,-3.46944695e-17 6.35384881,0.0688008591 6.19895796,0.275203437 L5.06818825,1.79149422 L3.18357208,1.86563883 C2.92763655,1.87565837 2.71291661,2.06602968 2.67170102,2.32119403 L2.37122606,4.19150865 L0.737227279,5.13802144 C0.51453013,5.26627159 0.412820685,5.5354633 0.493922334,5.78060811 L1.09287795,7.57677811 L0.0837607188,9.17790101 C-0.0538461764,9.39632704 -0.0186134931,9.68155002 0.16685667,9.86056585 L1.52763597,11.17179 L1.37473942,13.0594718 C1.35413162,13.317976 1.51633492,13.5537692 1.7629637,13.62591 L3.57445544,14.150266 L4.31168271,15.8943344 C4.41272739,16.1314636 4.66600385,16.2690653 4.91728601,16.2142918 L6.76533996,15.8335492 L8.2238401,17.0338904 C8.32289047,17.1147147 8.44454294,17.1567968 8.56619541,17.1567968 C8.68784789,17.1567968 8.80883559,17.1147147 8.90855073,17.0338904 L10.3670509,15.8335492 L12.2151048,16.2142918 C12.4657222,16.2677294 12.7203282,16.1321315 12.8207081,15.8943344 L13.5579354,14.150266 L15.3694271,13.62591 C15.6160559,13.5544372 15.7782592,13.317976 15.7576514,13.0594718 L15.6047549,11.17179 L16.9655342,9.86056585 C17.1510043,9.68155002 17.186237,9.39632704 17.0486301,9.17790101 Z M12.4730347,6.56547228 L8.68984219,12.2605803 C8.54691715,12.4729946 8.32554954,12.6152721 8.10551146,12.6152721 C7.88613815,12.6152721 7.6408389,12.4916977 7.48461851,12.3340569 L4.70721944,9.49852638 C4.51776067,9.30481522 4.51776067,8.99086955 4.70721944,8.7971584 L5.39259485,8.09579041 C5.58205362,7.90475114 5.88984102,7.90475114 6.07797025,8.09579041 L7.88547338,9.94072219 L10.8662913,5.45330305 C11.0158641,5.22686139 11.3196629,5.16941601 11.5403657,5.32238102 L12.3440697,5.87746368 C12.5654374,6.03109667 12.6226074,6.34036655 12.4730347,6.56547228 Z" id="Shape"></path>
                    </g>
                </g>
            </g>
        </g>
    </g>
</svg>