<?xml version="1.0" encoding="UTF-8"?>
<svg width="82px" height="26px" viewBox="0 0 82 26" version="1.1" xmlns="http://www.w3.org/2000/svg" xmlns:xlink="http://www.w3.org/1999/xlink">
    <!-- Generator: sketchtool 45.2 (43514) - http://www.bohemiancoding.com/sketch -->
    <title>D85FDA8C-36E6-4E98-9D5F-BF2AAD2037C6</title>
    <desc>Created with sketchtool.</desc>
    <defs>
        <filter x="-1.9%" y="-5.3%" width="103.9%" height="114.7%" filterUnits="objectBoundingBox" id="filter-1">
            <feOffset dx="0" dy="2" in="SourceAlpha" result="shadowOffsetOuter1"></feOffset>
            <feGaussianBlur stdDeviation="2" in="shadowOffsetOuter1" result="shadowBlurOuter1"></feGaussianBlur>
            <feColorMatrix values="0 0 0 0 0   0 0 0 0 0   0 0 0 0 0  0 0 0 0.2 0" type="matrix" in="shadowBlurOuter1" result="shadowMatrixOuter1"></feColorMatrix>
            <feMerge>
                <feMergeNode in="shadowMatrixOuter1"></feMergeNode>
                <feMergeNode in="SourceGraphic"></feMergeNode>
            </feMerge>
        </filter>
    </defs>
    <g id="Page-1" stroke="none" stroke-width="1" fill="none" fill-rule="evenodd">
        <g id="Detail-view-2" transform="translate(-57.000000, -41.000000)" fill="#FFFFFF">
            <g id="HeaderOrange">
                <g id="Group-3" filter="url(#filter-1)">
                    <path d="M70.0427699,43 C70.4614187,43 70.808892,43.0795421 71.0852003,43.2386286 C71.3615085,43.3977152 71.5917619,43.6070365 71.7759674,43.8665988 C71.9601729,44.1261611 72.1108842,44.4233973 72.2281059,44.7583164 C72.3453276,45.0932354 72.4458018,45.4365223 72.5295316,45.7881874 C73.1993697,48.5010319 73.7519779,50.7365832 74.1873727,52.4949084 C74.6227675,54.2532335 74.9660544,55.6724318 75.2172437,56.7525458 C75.468433,57.8326598 75.6442629,58.6322671 75.7447386,59.1513917 C75.8452144,59.6705163 75.8954515,60.0305489 75.8954515,60.2315003 C75.8954515,60.4659437 75.8410279,60.6250279 75.7321792,60.7087576 C75.6233305,60.7924874 75.4516871,60.8343517 75.2172437,60.8343517 L73.9361847,60.8343517 C73.2161086,60.8343517 72.6425683,60.7464367 72.2155465,60.5706042 C71.7885247,60.3947717 71.4619835,60.1393997 71.2359131,59.8044807 C71.0098427,59.4695616 70.8465721,59.0634783 70.7460964,58.5862186 C70.6456207,58.1089589 70.5618922,57.56891 70.4949084,56.9660557 L66.1242363,56.9660557 L65.2953157,60.4324508 C65.2115859,60.700386 65.0190103,60.8343517 64.7175832,60.8343517 L63.3862865,60.8343517 C63.1183512,60.8343517 62.8420471,60.8050467 62.5573659,60.7464358 C62.2726847,60.687825 62.0173127,60.5915372 61.7912424,60.4575696 C61.565172,60.323602 61.3767828,60.1519585 61.2260692,59.9426341 C61.0753557,59.7333097 61,59.4779377 61,59.1765105 C61,58.8080995 61.1172199,58.2052542 61.3516633,57.3679566 C61.5861066,56.5306589 61.8833428,55.5803402 62.2433809,54.5169722 C62.6034189,53.4536041 63.0053157,52.3400149 63.4490835,51.1761711 C63.8928513,50.0123273 64.3240531,48.9112973 64.742702,47.8730482 C65.1613508,46.8347991 65.5423155,45.9221583 65.8856076,45.1350984 C66.2288997,44.3480386 66.4926445,43.7954304 66.67685,43.4772573 C66.8108176,43.2428139 66.9322239,43.1046619 67.0410726,43.062797 C67.1499213,43.0209321 67.3550562,43 67.6564834,43 L70.0427699,43 Z M67.0285132,53.3238289 L69.9171758,53.3238289 L68.862186,46.6924644 L67.0285132,53.3238289 Z M81.4215886,56.3129667 C81.3713507,57.0832806 81.3127408,57.8159051 81.245757,58.5108622 C81.1787731,59.2058193 81.128536,59.812851 81.0950441,60.3319756 C81.0782982,60.532927 81.0364339,60.6668926 80.9694501,60.7338764 C80.9024663,60.8008603 80.7601278,60.8343517 80.5424304,60.8343517 L79.6381534,60.8343517 C79.1190289,60.8343517 78.6961999,60.7799281 78.3696538,60.6710794 C78.0431077,60.5622307 77.7835493,60.407333 77.5909708,60.2063815 C77.3983923,60.0054301 77.2644267,59.758431 77.1890699,59.4653768 C77.1137131,59.1723226 77.0760353,58.8332221 77.0760353,58.4480652 C77.0760353,58.1968759 77.0885946,57.8410297 77.1137135,57.380516 C77.1388324,56.9200022 77.1848831,56.2836655 77.2518669,55.4714868 C77.3188508,54.659308 77.3983928,53.6294473 77.4904956,52.3818737 C77.5825983,51.1343002 77.6956318,49.5895091 77.8295995,47.7474542 C77.8463454,47.3790432 77.8882097,47.1613491 77.9551935,47.0943652 C78.0054313,47.0441274 78.139397,47.0190088 78.3570944,47.0190088 L79.3367278,47.0190088 C79.8391064,47.0190088 80.2493761,47.0776188 80.5675492,47.1948405 C80.8857223,47.3120621 81.1452807,47.4627735 81.3462322,47.646979 C81.5471836,47.8311844 81.6895221,48.0488786 81.7732519,48.3000679 C81.8569816,48.5512572 81.9072187,48.8108156 81.9239647,49.0787508 C82.4095974,48.1744693 82.9622055,47.5632512 83.5818058,47.2450781 C84.2014061,46.9269049 84.9298442,46.7678208 85.7671419,46.7678208 C86.2192826,46.7678208 86.6546709,46.809685 87.0733198,46.8934148 C87.4919686,46.9771446 87.8687469,47.119483 88.203666,47.3204345 C88.5385851,47.5213859 88.823262,47.7851308 89.0577054,48.1116768 C89.2921487,48.4382229 89.4596057,48.8526791 89.5600815,49.3550577 C90.079206,48.3837924 90.6485599,47.7097779 91.2681602,47.3329939 C91.8877605,46.9562099 92.6664357,46.7678208 93.6042091,46.7678208 C94.1233337,46.7678208 94.6215183,46.8222443 95.098778,46.931093 C95.5760377,47.0399417 95.9904938,47.2283309 96.3421589,47.4962661 C96.6938239,47.7642014 96.9743144,48.1284204 97.1836388,48.5889341 C97.3929633,49.0494479 97.4976239,49.6229882 97.4976239,50.3095723 C97.4976239,50.8286969 97.4725053,51.4650336 97.4222675,52.2186015 C97.3720296,52.9721694 97.3134197,53.7885224 97.2464358,54.667685 C97.179452,55.5468476 97.1040964,56.4511155 97.0203666,57.380516 C96.9366368,58.3099164 96.869654,59.2016251 96.8194162,60.0556687 C96.8026702,60.2398742 96.7859245,60.3822127 96.7691785,60.4826884 C96.7524326,60.5831641 96.7231276,60.6585198 96.6812627,60.7087576 C96.6393978,60.7589955 96.5766015,60.7924869 96.4928717,60.8092329 C96.4091419,60.8259788 96.291922,60.8343517 96.1412084,60.8343517 L95.3374067,60.8343517 C94.8015361,60.8343517 94.3661479,60.7841146 94.0312288,60.6836388 C93.6963097,60.5831631 93.4367513,60.4408246 93.2525458,60.2566191 C93.0683403,60.0724137 92.9385611,59.8421602 92.8632043,59.565852 C92.7878476,59.2895438 92.7501697,58.9755618 92.7501697,58.6238968 C92.7501697,58.4061994 92.762729,58.0964039 92.7878479,57.694501 C92.8129669,57.2925981 92.8464583,56.8572099 92.8883232,56.3883232 C92.930188,55.9194364 92.9720523,55.4338111 93.0139172,54.9314325 C93.0557821,54.4290538 93.0976463,53.9643606 93.1395112,53.5373388 C93.1813761,53.1103169 93.2148675,52.7377251 93.2399864,52.4195519 C93.2651054,52.1013788 93.2776646,51.8920575 93.2776646,51.7915818 C93.2776646,51.356187 93.1897497,50.9710358 93.0139172,50.6361168 C92.8380847,50.3011977 92.4989842,50.1337407 91.9966056,50.1337407 C91.5612108,50.1337407 91.1844325,50.2760791 90.8662593,50.5607604 C90.5480862,50.8454416 90.280155,51.2389656 90.0624576,51.7413442 C89.8447602,52.2437228 89.6689303,52.8381953 89.5349627,53.5247794 C89.400995,54.2113635 89.3088937,54.9565472 89.2586558,55.760353 C89.2251639,56.2794776 89.1832996,56.87395 89.1330618,57.5437882 C89.0828239,58.2136263 89.024214,59.0509115 88.9572301,60.0556687 C88.9404842,60.2398742 88.9237385,60.3822127 88.9069925,60.4826884 C88.8902466,60.5831641 88.8609416,60.6585198 88.8190767,60.7087576 C88.7772118,60.7589955 88.7144154,60.7924869 88.6306857,60.8092329 C88.5469559,60.8259788 88.429736,60.8343517 88.2790224,60.8343517 L87.4752206,60.8343517 C86.9393501,60.8343517 86.5039618,60.7841146 86.1690428,60.6836388 C85.8341237,60.5831631 85.5745653,60.4408246 85.3903598,60.2566191 C85.2061543,60.0724137 85.0763751,59.8421602 85.0010183,59.565852 C84.9256615,59.2895438 84.8879837,58.9755618 84.8879837,58.6238968 C84.8879837,58.2889777 84.9172887,57.7991659 84.9758995,57.1544467 C85.0345104,56.5097275 85.0931203,55.8398994 85.1517312,55.1449423 C85.210342,54.4499852 85.268952,53.78853 85.3275628,53.1605567 C85.3861736,52.5325834 85.4154786,52.076263 85.4154786,51.7915818 C85.4154786,51.356187 85.3275637,50.9710358 85.1517312,50.6361168 C84.9758986,50.3011977 84.6367982,50.1337407 84.1344196,50.1337407 C83.6822788,50.1337407 83.2971276,50.3011977 82.9789545,50.6361168 C82.6607814,50.9710358 82.3970366,51.4189834 82.1877122,51.9799728 C81.9783877,52.5409623 81.8109307,53.1982311 81.685336,53.951799 C81.5597414,54.705367 81.4718265,55.492415 81.4215886,56.3129667 Z M107.545146,43 C107.963795,43 108.311268,43.0795421 108.587576,43.2386286 C108.863885,43.3977152 109.094138,43.6070365 109.278344,43.8665988 C109.462549,44.1261611 109.61326,44.4233973 109.730482,44.7583164 C109.847704,45.0932354 109.948178,45.4365223 110.031908,45.7881874 C110.701746,48.5010319 111.254354,50.7365832 111.689749,52.4949084 C112.125144,54.2532335 112.468431,55.6724318 112.71962,56.7525458 C112.970809,57.8326598 113.146639,58.6322671 113.247115,59.1513917 C113.34759,59.6705163 113.397828,60.0305489 113.397828,60.2315003 C113.397828,60.4659437 113.343404,60.6250279 113.234555,60.7087576 C113.125707,60.7924874 112.954063,60.8343517 112.71962,60.8343517 L111.438561,60.8343517 C110.718485,60.8343517 110.144944,60.7464367 109.717923,60.5706042 C109.290901,60.3947717 108.96436,60.1393997 108.738289,59.8044807 C108.512219,59.4695616 108.348948,59.0634783 108.248473,58.5862186 C108.147997,58.1089589 108.064268,57.56891 107.997284,56.9660557 L103.626612,56.9660557 L102.797692,60.4324508 C102.713962,60.700386 102.521386,60.8343517 102.219959,60.8343517 L100.888663,60.8343517 C100.620727,60.8343517 100.344423,60.8050467 100.059742,60.7464358 C99.7750608,60.687825 99.5196888,60.5915372 99.2936185,60.4575696 C99.0675481,60.323602 98.8791589,60.1519585 98.7284453,59.9426341 C98.5777318,59.7333097 98.5023761,59.4779377 98.5023761,59.1765105 C98.5023761,58.8080995 98.619596,58.2052542 98.8540394,57.3679566 C99.0884827,56.5306589 99.385719,55.5803402 99.745757,54.5169722 C100.105795,53.4536041 100.507692,52.3400149 100.95146,51.1761711 C101.395227,50.0123273 101.826429,48.9112973 102.245078,47.8730482 C102.663727,46.8347991 103.044692,45.9221583 103.387984,45.1350984 C103.731276,44.3480386 103.995021,43.7954304 104.179226,43.4772573 C104.313194,43.2428139 104.4346,43.1046619 104.543449,43.062797 C104.652297,43.0209321 104.857432,43 105.158859,43 L107.545146,43 Z M104.530889,53.3238289 L107.419552,53.3238289 L106.364562,46.6924644 L104.530889,53.3238289 Z M118.923965,56.3129667 C118.873727,57.0832806 118.815117,57.8159051 118.748133,58.5108622 C118.681149,59.2058193 118.630912,59.812851 118.59742,60.3319756 C118.580674,60.532927 118.53881,60.6668926 118.471826,60.7338764 C118.404842,60.8008603 118.262504,60.8343517 118.044807,60.8343517 L117.14053,60.8343517 C116.621405,60.8343517 116.198576,60.7799281 115.87203,60.6710794 C115.545484,60.5622307 115.285925,60.407333 115.093347,60.2063815 C114.900768,60.0054301 114.766803,59.758431 114.691446,59.4653768 C114.616089,59.1723226 114.578411,58.8332221 114.578411,58.4480652 C114.578411,58.1968759 114.590971,57.8410297 114.61609,57.380516 C114.641209,56.9200022 114.687259,56.2836655 114.754243,55.4714868 C114.821227,54.659308 114.900769,53.6294473 114.992872,52.3818737 C115.084974,51.1343002 115.198008,49.5895091 115.331976,47.7474542 C115.348722,47.3790432 115.390586,47.1613491 115.45757,47.0943652 C115.507807,47.0441274 115.641773,47.0190088 115.85947,47.0190088 L116.839104,47.0190088 C117.341482,47.0190088 117.751752,47.0776188 118.069925,47.1948405 C118.388098,47.3120621 118.647657,47.4627735 118.848608,47.646979 C119.04956,47.8311844 119.191898,48.0488786 119.275628,48.3000679 C119.359358,48.5512572 119.409595,48.8108156 119.426341,49.0787508 C119.911973,48.1744693 120.464582,47.5632512 121.084182,47.2450781 C121.703782,46.9269049 122.43222,46.7678208 123.269518,46.7678208 C123.721659,46.7678208 124.157047,46.809685 124.575696,46.8934148 C124.994345,46.9771446 125.371123,47.119483 125.706042,47.3204345 C126.040961,47.5213859 126.325638,47.7851308 126.560081,48.1116768 C126.794525,48.4382229 126.961982,48.8526791 127.062458,49.3550577 C127.581582,48.3837924 128.150936,47.7097779 128.770536,47.3329939 C129.390137,46.9562099 130.168812,46.7678208 131.106585,46.7678208 C131.62571,46.7678208 132.123894,46.8222443 132.601154,46.931093 C133.078414,47.0399417 133.49287,47.2283309 133.844535,47.4962661 C134.1962,47.7642014 134.476691,48.1284204 134.686015,48.5889341 C134.895339,49.0494479 135,49.6229882 135,50.3095723 C135,50.8286969 134.974881,51.4650336 134.924644,52.2186015 C134.874406,52.9721694 134.815796,53.7885224 134.748812,54.667685 C134.681828,55.5468476 134.606472,56.4511155 134.522743,57.380516 C134.439013,58.3099164 134.37203,59.2016251 134.321792,60.0556687 C134.305046,60.2398742 134.288301,60.3822127 134.271555,60.4826884 C134.254809,60.5831641 134.225504,60.6585198 134.183639,60.7087576 C134.141774,60.7589955 134.078978,60.7924869 133.995248,60.8092329 C133.911518,60.8259788 133.794298,60.8343517 133.643585,60.8343517 L132.839783,60.8343517 C132.303912,60.8343517 131.868524,60.7841146 131.533605,60.6836388 C131.198686,60.5831631 130.939127,60.4408246 130.754922,60.2566191 C130.570716,60.0724137 130.440937,59.8421602 130.36558,59.565852 C130.290224,59.2895438 130.252546,58.9755618 130.252546,58.6238968 C130.252546,58.4061994 130.265105,58.0964039 130.290224,57.694501 C130.315343,57.2925981 130.348834,56.8572099 130.390699,56.3883232 C130.432564,55.9194364 130.474428,55.4338111 130.516293,54.9314325 C130.558158,54.4290538 130.600022,53.9643606 130.641887,53.5373388 C130.683752,53.1103169 130.717244,52.7377251 130.742363,52.4195519 C130.767481,52.1013788 130.780041,51.8920575 130.780041,51.7915818 C130.780041,51.356187 130.692126,50.9710358 130.516293,50.6361168 C130.340461,50.3011977 130.00136,50.1337407 129.498982,50.1337407 C129.063587,50.1337407 128.686809,50.2760791 128.368635,50.5607604 C128.050462,50.8454416 127.782531,51.2389656 127.564834,51.7413442 C127.347136,52.2437228 127.171306,52.8381953 127.037339,53.5247794 C126.903371,54.2113635 126.81127,54.9565472 126.761032,55.760353 C126.72754,56.2794776 126.685676,56.87395 126.635438,57.5437882 C126.5852,58.2136263 126.52659,59.0509115 126.459606,60.0556687 C126.44286,60.2398742 126.426115,60.3822127 126.409369,60.4826884 C126.392623,60.5831641 126.363318,60.6585198 126.321453,60.7087576 C126.279588,60.7589955 126.216792,60.7924869 126.133062,60.8092329 C126.049332,60.8259788 125.932112,60.8343517 125.781399,60.8343517 L124.977597,60.8343517 C124.441726,60.8343517 124.006338,60.7841146 123.671419,60.6836388 C123.3365,60.5831631 123.076941,60.4408246 122.892736,60.2566191 C122.70853,60.0724137 122.578751,59.8421602 122.503394,59.565852 C122.428038,59.2895438 122.39036,58.9755618 122.39036,58.6238968 C122.39036,58.2889777 122.419665,57.7991659 122.478276,57.1544467 C122.536886,56.5097275 122.595496,55.8398994 122.654107,55.1449423 C122.712718,54.4499852 122.771328,53.78853 122.829939,53.1605567 C122.88855,52.5325834 122.917855,52.076263 122.917855,51.7915818 C122.917855,51.356187 122.82994,50.9710358 122.654107,50.6361168 C122.478275,50.3011977 122.139174,50.1337407 121.636796,50.1337407 C121.184655,50.1337407 120.799504,50.3011977 120.481331,50.6361168 C120.163157,50.9710358 119.899413,51.4189834 119.690088,51.9799728 C119.480764,52.5409623 119.313307,53.1982311 119.187712,53.951799 C119.062117,54.705367 118.974203,55.492415 118.923965,56.3129667 Z" id="AmAm"></path>
                </g>
            </g>
        </g>
    </g>
</svg>