<?xml version="1.0" encoding="UTF-8"?>
<svg width="17px" height="16px" viewBox="0 0 17 16" version="1.1" xmlns="http://www.w3.org/2000/svg" xmlns:xlink="http://www.w3.org/1999/xlink">
    <!-- Generator: sketchtool 47.1 (45422) - http://www.bohemiancoding.com/sketch -->
    <title>01CF5916-0B18-4375-BFC1-0139208966A3</title>
    <desc>Created with sketchtool.</desc>
    <defs></defs>
    <g id="Page-1" stroke="none" stroke-width="1" fill="none" fill-rule="evenodd">
        <g id="Detail-view-2" transform="translate(-321.000000, -131.000000)" fill-rule="nonzero" fill="#FFFFFF">
            <g id="Group-13" transform="translate(16.000000, 86.000000)">
                <g id="front-car" transform="translate(313.215720, 52.931962) scale(-1, 1) translate(-313.215720, -52.931962) translate(304.215720, 44.931962)">
                    <path d="M15.1415636,1.31850962 C14.9566442,0.763860268 14.4020311,0.394094034 13.8473818,0.394094034 L3.67881033,0.394094034 C3.03171943,0.394094034 2.56951163,0.763860268 2.38462852,1.31850962 L0.443355788,6.86500313 L0.443355788,14.2603278 C0.443355788,14.8149772 0.813122022,15.1847434 1.36777137,15.1847434 L2.29218696,15.1847434 C2.84683631,15.1847434 3.21660254,14.8149772 3.21660254,14.2603278 L3.21660254,13.3359122 L14.3095896,13.3359122 L14.3095896,14.2603278 C14.3095896,14.8149772 14.6793558,15.1847434 15.2340051,15.1847434 L16.1584207,15.1847434 C16.7130701,15.1847434 17.0828363,14.8149772 17.0828363,14.2603278 L17.0828363,6.86500313 L15.1415636,1.31850962 Z M3.67881033,10.5626655 C2.93927787,10.5626655 2.29218696,9.91557456 2.29218696,9.17604209 C2.29218696,8.43650962 2.93927787,7.78941871 3.67881033,7.78941871 C4.4183428,7.78941871 5.06543371,8.43650962 5.06543371,9.17604209 C5.06543371,9.91557456 4.4183428,10.5626655 3.67881033,10.5626655 Z M13.8473818,10.5626655 C13.1078493,10.5626655 12.4607584,9.91557456 12.4607584,9.17604209 C12.4607584,8.43650962 13.1078493,7.78941871 13.8473818,7.78941871 C14.5869142,7.78941871 15.2340051,8.43650962 15.2340051,9.17604209 C15.2340051,9.91557456 14.5869142,10.5626655 13.8473818,10.5626655 Z M2.29218696,5.94058754 L3.67881033,1.78071741 L13.8473818,1.78071741 L15.2340051,5.94058754 L2.29218696,5.94058754 Z" id="Shape"></path>
                </g>
            </g>
        </g>
    </g>
</svg>