<?xml version="1.0" encoding="UTF-8"?>
<svg width="47px" height="47px" viewBox="0 0 47 47" version="1.1" xmlns="http://www.w3.org/2000/svg" xmlns:xlink="http://www.w3.org/1999/xlink">
    <!-- Generator: sketchtool 47.1 (45422) - http://www.bohemiancoding.com/sketch -->
    <title>E7133665-B750-4ED2-8DD4-BC6F3E3EEAC0</title>
    <desc>Created with sketchtool.</desc>
    <defs></defs>
    <g id="Page-1" stroke="none" stroke-width="1" fill="none" fill-rule="evenodd">
        <g id="Spisuk-fakturi" transform="translate(-299.000000, -307.000000)">
            <g id="Group-4" transform="translate(300.000000, 308.000000)">
                <g id="Group-30" stroke-width="2" stroke="#FF4D4C">
                    <circle id="Oval-15-Copy" cx="22.5" cy="22.5" r="22.5"></circle>
                </g>
                <g id="001-download" transform="translate(10.000000, 11.000000)" fill-rule="nonzero" fill="#FF4D4C">
                    <path d="M24.2837436,11.1062888 C23.8858234,11.1062888 23.5674873,11.425155 23.5674873,11.8237378 L23.5674873,18.3498671 C23.5674873,20.1248893 22.1243633,21.5651019 20.3575976,21.5651019 L4.64240238,21.5651019 C2.87033107,21.5651019 1.43251273,20.1195748 1.43251273,18.3498671 L1.43251273,11.7174491 C1.43251273,11.3188663 1.11417657,11 0.716256367,11 C0.318336163,11 0,11.3188663 0,11.7174491 L0,18.3498671 C0,20.9167405 2.08510187,23 4.64240238,23 L20.3575976,23 C22.9202037,23 25,20.911426 25,18.3498671 L25,11.8237378 C25,11.4304694 24.6816638,11.1062888 24.2837436,11.1062888 Z" id="Shape"></path>
                    <path d="M11.524289,17.7841079 C11.6551724,17.9244378 11.8313617,18 12.002517,18 C12.1736723,18 12.3498616,17.9298351 12.480745,17.7841079 L16.7998993,13.1532234 C17.0667002,12.8671664 17.0667002,12.4083958 16.7998993,12.1223388 C16.5330984,11.8362819 16.1052102,11.8362819 15.8384093,12.1223388 L12.6821042,15.5118441 L12.6821042,0.728635682 C12.6821042,0.323838081 12.3800654,0 12.002517,0 C11.6249685,0 11.3229298,0.323838081 11.3229298,0.728635682 L11.3229298,15.5118441 L8.16159074,12.1223388 C7.89478983,11.8362819 7.46690159,11.8362819 7.20010068,12.1223388 C6.93329977,12.4083958 6.93329977,12.8671664 7.20010068,13.1532234 L11.524289,17.7841079 Z" id="Shape"></path>
                </g>
            </g>
        </g>
    </g>
</svg>