<?xml version="1.0" encoding="UTF-8"?>
<svg width="18px" height="16px" viewBox="0 0 18 16" version="1.1" xmlns="http://www.w3.org/2000/svg" xmlns:xlink="http://www.w3.org/1999/xlink">
    <!-- Generator: sketchtool 45.2 (43514) - http://www.bohemiancoding.com/sketch -->
    <title>5256ACA9-F96D-48A3-9F28-3E353BDBE6B9</title>
    <desc>Created with sketchtool.</desc>
    <defs></defs>
    <g id="Page-1" stroke="none" stroke-width="1" fill="none" fill-rule="evenodd">
        <g id="Detail-view-2" transform="translate(-31.000000, -334.000000)" fill-rule="nonzero" fill="#EE4C40">
            <g id="Group-20" transform="translate(14.000000, 264.000000)">
                <g id="Group-18" transform="translate(17.266015, 70.000000)">
                    <g id="Group" transform="translate(0.000000, 0.797461)">
                        <path d="M16.8583755,0.50759117 L15.1975168,0.0144117359 C15.1022009,-0.0139042553 14.9989453,-2.38674192e-05 14.9145044,0.0519072903 C14.8301011,0.103838448 14.7724525,0.188971493 14.75646,0.285616007 C14.5042662,1.80983065 14.0399167,2.97063823 13.7348157,3.61457719 C12.6774609,3.24720959 11.5148937,3.43635301 10.5480005,4.63795042 C10.1125128,5.17913749 8.35968734,9.47036118 6.23963434,10.3892429 C3.92823471,11.3910737 1.67768218,10.9008925 0.460890667,10.4775221 C0.319102245,10.428182 0.161208344,10.474709 0.0703328029,10.5925628 C-0.0205427383,10.7104165 -0.0237036267,10.8727245 0.0628821374,10.9936505 C0.812840537,12.0407499 2.4497668,13.684558 5.55165193,14.1970219 C9.74949986,14.8905601 13.6827739,11.9898181 15.3216193,9.33348205 C16.2386908,7.84705908 16.6028703,6.11715559 15.5065689,4.83616236 C16.3786354,3.51341692 16.9076703,1.64963247 17.0935983,0.915008314 C17.1381141,0.739079025 17.0348584,0.560003514 16.8583755,0.50759117 Z" id="XMLID_1303_" transform="translate(8.551963, 7.150567) scale(-1, 1) translate(-8.551963, -7.150567) "></path>
                    </g>
                </g>
            </g>
        </g>
    </g>
</svg>