<?xml version="1.0" encoding="UTF-8"?>
<svg width="40px" height="40px" viewBox="0 0 40 40" version="1.1" xmlns="http://www.w3.org/2000/svg" xmlns:xlink="http://www.w3.org/1999/xlink">
    <!-- Generator: sketchtool 45.2 (43514) - http://www.bohemiancoding.com/sketch -->
    <title>52760B61-9A99-45B2-A8A0-AFF761D87F2B</title>
    <desc>Created with sketchtool.</desc>
    <defs></defs>
    <g id="Page-1" stroke="none" stroke-width="1" fill="none" fill-rule="evenodd">
        <g id="FFFFFF" transform="translate(-45.000000, -711.000000)">
            <g id="Group-28" transform="translate(46.000000, 712.000000)">
                <g id="Group-29">
                    <g id="Group-5">
                        <g id="Group-45">
                            <g id="Group-31" transform="translate(0.000000, 0.159254)">
                                <circle id="Oval-15" stroke="#EE4C40" cx="18.7946122" cy="18.7946122" r="18.7946122"></circle>
                                <g id="interface-2" transform="translate(11.694425, 8.353161)" fill-rule="nonzero" fill="#EE4C40">
                                    <path d="M12.5243885,7.65706422 L3.99720331,7.65706422 C3.80892307,7.65706422 3.65611591,7.81298989 3.65611591,8.0051126 C3.65611591,8.1972353 3.80892307,8.35316097 3.99720331,8.35316097 L12.5243885,8.35316097 C12.7126687,8.35316097 12.8654759,8.1972353 12.8654759,8.0051126 C12.8654759,7.81298989 12.7126687,7.65706422 12.5243885,7.65706422 Z" id="Shape"></path>
                                    <path d="M3.99720331,5.56877398 L7.40807738,5.56877398 C7.59635763,5.56877398 7.74916478,5.41284831 7.74916478,5.22072561 C7.74916478,5.0286029 7.59635763,4.87267723 7.40807738,4.87267723 L3.99720331,4.87267723 C3.80892307,4.87267723 3.65611591,5.0286029 3.65611591,5.22072561 C3.65611591,5.41284831 3.80892307,5.56877398 3.99720331,5.56877398 Z" id="Shape"></path>
                                    <path d="M12.5243885,10.4414512 L3.99720331,10.4414512 C3.80892307,10.4414512 3.65611591,10.5973769 3.65611591,10.7894996 C3.65611591,10.9816223 3.80892307,11.137548 3.99720331,11.137548 L12.5243885,11.137548 C12.7126687,11.137548 12.8654759,10.9816223 12.8654759,10.7894996 C12.8654759,10.5973769 12.7126687,10.4414512 12.5243885,10.4414512 Z" id="Shape"></path>
                                    <path d="M9.79568922,13.2258382 L3.99720331,13.2258382 C3.80892307,13.2258382 3.65611591,13.3817639 3.65611591,13.5738866 C3.65611591,13.7660093 3.80892307,13.921935 3.99720331,13.921935 L9.79568922,13.921935 C9.98396947,13.921935 10.1367766,13.7660093 10.1367766,13.5738866 C10.1367766,13.3817639 9.98396947,13.2258382 9.79568922,13.2258382 Z" id="Shape"></path>
                                    <path d="M8.772427,16.7063219 C8.96070725,16.7063219 9.11351441,16.5503963 9.11351441,16.3582736 C9.11351441,16.1661509 8.96070725,16.0102252 8.772427,16.0102252 L3.99720331,16.0102252 C3.80892307,16.0102252 3.65611591,16.1661509 3.65611591,16.3582736 C3.65611591,16.5503963 3.80892307,16.7063219 3.99720331,16.7063219 L8.772427,16.7063219 Z" id="Shape"></path>
                                    <path d="M10.8189514,0.696096748 L10.8189514,5.56877398 L15.5941751,5.56877398 L15.5925671,9.94423925 L16.274742,9.94423925 L16.2763499,5.07663358 L11.301249,0 L0.245241845,0 L0.245241845,20.8829024 L6.82174813,20.8829024 L6.82174813,20.1868057 L0.927416658,20.1868057 L0.927416658,0.696096748 L10.8189514,0.696096748 Z M11.5011263,1.18823715 L15.1118775,4.87267723 L11.5011263,4.87267723 L11.5011263,1.18823715 Z" id="Shape" stroke="#EE4C40" stroke-width="0.5"></path>
                                    <path d="M16.9982858,12.9341737 L16.0265278,11.9422358 C15.6417812,11.5496372 14.9712033,11.5496372 14.5864568,11.9422358 L9.33678048,17.2987003 L8.61333409,20.0061686 L8.43630973,20.1868057 C8.30396781,20.3218484 8.30362673,20.5397267 8.4342632,20.6758136 L8.43255777,20.6827746 L8.43937951,20.6810344 C8.50555047,20.7471636 8.5915045,20.7809243 8.67745852,20.7809243 C8.7647769,20.7809243 8.85209528,20.7468155 8.91860732,20.6789461 L9.09563168,20.498309 L11.7489506,19.7600984 L16.9982858,14.4032859 C17.1906591,14.2069866 17.2967373,13.9462983 17.2967373,13.6685557 C17.2967373,13.3908131 17.1906591,13.1301249 16.9982858,12.9341737 Z M10.1243513,17.4796854 L13.6181096,13.9146259 L15.0653435,15.3913952 L11.5715852,18.9564547 L10.1243513,17.4796854 Z M9.81634937,18.1496785 L10.9146508,19.2703943 L9.40465687,19.6904887 L9.81634937,18.1496785 Z M16.5159882,13.9111455 L15.5476411,14.8992548 L14.1004072,13.4224855 L15.0687543,12.4343762 C15.1956389,12.3049022 15.4170046,12.3045542 15.5438891,12.4343762 L16.5159882,13.4263141 C16.5794305,13.4910511 16.6145625,13.577019 16.6145625,13.6685557 C16.6142214,13.7600925 16.5794305,13.8464085 16.5159882,13.9111455 Z" id="Shape"></path>
                                </g>
                            </g>
                        </g>
                    </g>
                </g>
            </g>
        </g>
    </g>
</svg>