<?xml version="1.0" encoding="UTF-8"?>
<svg width="38px" height="36px" viewBox="0 0 38 36" version="1.1" xmlns="http://www.w3.org/2000/svg" xmlns:xlink="http://www.w3.org/1999/xlink">
    <!-- Generator: sketchtool 45.2 (43514) - http://www.bohemiancoding.com/sketch -->
    <title>671CCBFB-028E-4D90-B8AB-681A882681A0</title>
    <desc>Created with sketchtool.</desc>
    <defs></defs>
    <g id="Page-1" stroke="none" stroke-width="1" fill="none" fill-rule="evenodd">
        <g id="Detail-view" transform="translate(-308.000000, -246.000000)" fill-rule="nonzero" fill="#FFBD4F">
            <g id="Group-8" transform="translate(308.000000, 246.000000)">
                <g id="Group-12">
                    <path d="M17.7006308,0.81345161 C17.945644,0.315619225 18.4502256,0 19.0017075,0 C19.5531893,0 20.0585796,0.315619225 20.3027841,0.81345161 L24.9693556,10.3267682 C25.1804066,10.7570841 25.5895705,11.0556208 26.0626158,11.1247642 L36.4987224,12.649986 C37.0461612,12.7297042 37.4989908,13.1152803 37.6696106,13.6432104 C37.8402303,14.1711405 37.6979124,14.7519449 37.3024951,15.1391479 L29.7515604,22.5448114 C29.4095122,22.8799534 29.2534477,23.3631437 29.3335015,23.8365725 L31.1157097,34.293493 C31.2078929,34.8417594 30.9855212,35.3949064 30.5375433,35.721914 C30.090374,36.0472946 29.4992696,36.0904076 29.0092432,35.8333569 L19.674483,30.8957056 C19.252381,30.6720064 18.7469908,30.6720064 18.3240802,30.8957056 L8.98932002,35.8325434 C8.50091088,36.0904076 7.90818919,36.0481081 7.46101989,35.721914 C7.01385059,35.3957199 6.79067025,34.8417594 6.88366206,34.293493 L8.66587026,23.8365725 C8.7467327,23.3631437 8.58985957,22.8799534 8.24781144,22.5448114 L0.696876703,15.1391479 C0.301459366,14.7511315 0.15914147,14.1711405 0.329761221,13.6432104 C0.500380971,13.1152803 0.954019265,12.7297042 1.50145799,12.649986 L11.9391819,11.1247642 C12.4114185,11.0556208 12.8205825,10.7570841 13.0316334,10.3259547 L17.7006308,0.81345161 Z" id="Shape"></path>
                </g>
            </g>
        </g>
    </g>
</svg>