<?xml version="1.0" encoding="UTF-8"?>
<svg width="25px" height="22px" viewBox="0 0 25 22" version="1.1" xmlns="http://www.w3.org/2000/svg" xmlns:xlink="http://www.w3.org/1999/xlink">
    <!-- Generator: sketchtool 47.1 (45422) - http://www.bohemiancoding.com/sketch -->
    <title>9E8D8032-890A-4D35-9E92-50327420C182</title>
    <desc>Created with sketchtool.</desc>
    <defs>
        <linearGradient x1="50%" y1="0%" x2="50%" y2="100%" id="linearGradient-1">
            <stop stop-color="#582020" offset="0%"></stop>
            <stop stop-color="#AB5050" offset="100%"></stop>
        </linearGradient>
    </defs>
    <g id="Page-1" stroke="none" stroke-width="1" fill="none" fill-rule="evenodd">
        <g id="Home" transform="translate(-57.000000, -263.000000)" fill-rule="nonzero" fill="url(#linearGradient-1)">
            <g id="Group-5" transform="translate(24.000000, 242.000000)">
                <g id="Group-8">
                    <path d="M54.6544578,22.3619156 C54.3820213,21.5447662 53.5649253,21 52.747776,21 L37.7667045,21 C36.8133636,21 36.1324058,21.5447662 35.8600227,22.3619156 L33,30.5334091 L33,41.4287338 C33,42.2458831 33.5447662,42.7906494 34.3619156,42.7906494 L35.7238312,42.7906494 C36.5409805,42.7906494 37.0857468,42.2458831 37.0857468,41.4287338 L37.0857468,40.0668182 L53.4287338,40.0668182 L53.4287338,41.4287338 C53.4287338,42.2458831 53.9735,42.7906494 54.7906494,42.7906494 L56.1525649,42.7906494 C56.9697143,42.7906494 57.5144805,42.2458831 57.5144805,41.4287338 L57.5144805,30.5334091 L54.6544578,22.3619156 Z M37.7667045,35.9810714 C36.6771721,35.9810714 35.7238312,35.0277305 35.7238312,33.9381981 C35.7238312,32.8486656 36.6771721,31.8953247 37.7667045,31.8953247 C38.856237,31.8953247 39.8095779,32.8486656 39.8095779,33.9381981 C39.8095779,35.0277305 38.856237,35.9810714 37.7667045,35.9810714 Z M52.747776,35.9810714 C51.6582435,35.9810714 50.7049026,35.0277305 50.7049026,33.9381981 C50.7049026,32.8486656 51.6582435,31.8953247 52.747776,31.8953247 C53.8373084,31.8953247 54.7906494,32.8486656 54.7906494,33.9381981 C54.7906494,35.0277305 53.8373084,35.9810714 52.747776,35.9810714 Z M35.7238312,29.1714935 L37.7667045,23.0428734 L52.747776,23.0428734 L54.7906494,29.1714935 L35.7238312,29.1714935 Z" id="Shape"></path>
                </g>
            </g>
        </g>
    </g>
</svg>