<?xml version="1.0" encoding="UTF-8"?>
<svg width="22px" height="23px" viewBox="0 0 22 23" version="1.1" xmlns="http://www.w3.org/2000/svg" xmlns:xlink="http://www.w3.org/1999/xlink">
    <!-- Generator: sketchtool 47.1 (45422) - http://www.bohemiancoding.com/sketch -->
    <title>AD85224B-8359-4FB0-8CD5-8A618E87F993</title>
    <desc>Created with sketchtool.</desc>
    <defs>
        <linearGradient x1="50%" y1="95.8546882%" x2="50%" y2="0%" id="linearGradient-1">
            <stop stop-color="#AC5151" offset="0%"></stop>
            <stop stop-color="#742828" offset="100%"></stop>
        </linearGradient>
    </defs>
    <g id="Page-1" stroke="none" stroke-width="1" fill="none" fill-rule="evenodd">
        <g id="Home" transform="translate(-168.000000, -262.000000)" fill-rule="nonzero" fill="url(#linearGradient-1)">
            <g id="Group-5" transform="translate(24.000000, 242.000000)">
                <g id="Group-8">
                    <g id="002-shopping-bag" transform="translate(144.000000, 20.000000)">
                        <path d="M20.2629536,4.40911075 L15.7019769,4.78910138 C15.1436631,2.85678323 13.6739032,1.38358032 11.8797166,1.0117497 C11.2062195,0.497027197 10.4242192,0.154856841 9.56666366,0.0420836531 L9.56666366,0 L8.97991515,0 L8.97991515,0.0339236419 C6.0913071,0.341803614 3.81932659,2.79150314 3.7411085,5.78590634 L0,6.09745373 L2.31503882,20.7993642 L15.6874887,23 L18.8736234,21.3875268 L22,6.56789213 L20.2629536,4.40911075 Z M15.0576819,4.84278325 L14.1315671,4.91993662 C13.9688121,3.86266506 13.5591713,2.90060891 12.9726936,2.11325952 C13.933562,2.68482704 14.6851417,3.65990253 15.0576819,4.84278325 Z M11.6266023,1.6148112 C12.5868388,2.39720957 13.2765842,3.59159682 13.5,4.97256411 L6.78317386,5.53216667 C7.22075284,3.36820506 9.0465788,1.71245627 11.2703105,1.57176485 C11.3905037,1.58038329 11.5092526,1.59505297 11.6266023,1.6148112 Z M9.26092255,0.653396849 C9.74350063,0.687916447 10.2061293,0.808528746 10.6374797,1.00175598 C8.33954685,1.40356776 6.52238671,3.25139771 6.13007763,5.58653618 L4.37163748,5.73304964 C4.47761329,3.01792053 6.60304207,0.82104382 9.26092255,0.653396849 Z M15.8862611,22.1518173 L15.6309803,22.085712 L19.9448908,4.88390421 L20.2001264,4.94991778 L15.8862611,22.1518173 Z" id="Shape"></path>
                    </g>
                </g>
            </g>
        </g>
    </g>
</svg>