<?xml version="1.0" encoding="UTF-8"?>
<svg width="25px" height="25px" viewBox="0 0 25 25" version="1.1" xmlns="http://www.w3.org/2000/svg" xmlns:xlink="http://www.w3.org/1999/xlink">
    <!-- Generator: sketchtool 47.1 (45422) - http://www.bohemiancoding.com/sketch -->
    <title>EBC94D55-962D-42C9-8E2D-57B1823B4FE7</title>
    <desc>Created with sketchtool.</desc>
    <defs></defs>
    <g id="Page-1" stroke="none" stroke-width="1" fill="none" fill-rule="evenodd">
        <g id="Detail-view-2" transform="translate(-84.000000, -90.000000)">
            <g id="Group-28" transform="translate(84.000000, 90.000000)">
                <g id="Group-26" fill="#287FDD">
                    <polygon id="Rectangle-4" transform="translate(12.500000, 12.500000) rotate(-90.000000) translate(-12.500000, -12.500000) " points="25 0 25 25 0 25"></polygon>
                </g>
                <path d="M17.2210536,1 C13.78557,1 11,3.78556996 11,7.22105357 C11,10.6565372 13.78557,13.4426338 17.2210536,13.4426338 C20.6565372,13.4426338 23.4426338,10.6565372 23.4426338,7.22105357 C23.4426338,3.78556996 20.6565372,1 17.2210536,1 Z M18.7452269,11.2469559 C18.3683559,11.3957208 18.0683468,11.5085341 17.84334,11.5866357 C17.618953,11.6647372 17.3579946,11.703788 17.0610848,11.703788 C16.6048725,11.703788 16.2496964,11.5922144 15.9967962,11.3696869 C15.7438959,11.1471595 15.6180656,10.8651261 15.6180656,10.5223471 C15.6180656,10.3890786 15.6273634,10.2527108 15.645959,10.1138636 C15.6651745,9.9750164 15.6955473,9.8188133 15.7370775,9.64339474 L16.2087861,7.97722833 C16.2503163,7.81730611 16.2862678,7.66544199 16.3147811,7.52411537 C16.3432943,7.38154905 16.3569311,7.25075995 16.3569311,7.13174806 C16.3569311,6.91975814 16.3129215,6.77099328 16.2255221,6.68731305 C16.1368831,6.60363282 15.9701425,6.56272248 15.7215812,6.56272248 C15.6000899,6.56272248 15.4748795,6.58069824 15.3465698,6.6185093 C15.2194998,6.65756008 15.1091659,6.69289173 15.0186672,6.72760353 L15.1432578,6.21436477 C15.4519449,6.0885345 15.747615,5.98067998 16.0296484,5.89142106 C16.3116818,5.80092244 16.5782188,5.75629298 16.8292595,5.75629298 C17.2823725,5.75629298 17.6319699,5.86662692 17.8780518,6.08481538 C18.1228939,6.30362369 18.2462448,6.58813648 18.2462448,6.93773389 C18.2462448,7.01025676 18.2375668,7.1379466 18.2208308,7.32018355 C18.2040947,7.50304035 18.1724822,7.66978096 18.126613,7.82288479 L17.6573839,9.48409237 C17.618953,9.61736089 17.584861,9.76984487 17.5538683,9.9403046 C17.5234955,10.1107643 17.508619,10.2409336 17.508619,10.3283329 C17.508619,10.5490008 17.5575875,10.6996252 17.656764,10.7795863 C17.7547009,10.8595474 17.9264003,10.8998379 18.1693829,10.8998379 C18.2840559,10.8998379 18.4123655,10.8793828 18.5574113,10.8397121 C18.7012173,10.8000415 18.8053527,10.7647098 18.8710572,10.734337 L18.7452269,11.2469559 Z M18.6621665,4.50418877 C18.4433582,4.70750074 18.1799205,4.80915672 17.8718532,4.80915672 C17.5644059,4.80915672 17.2991085,4.70750074 17.0784407,4.50418877 C16.8590125,4.3008768 16.7480587,4.05355522 16.7480587,3.76470345 C16.7480587,3.47647154 16.8596323,3.22853011 17.0784407,3.02335858 C17.2991085,2.8175672 17.5644059,2.71529136 17.8718532,2.71529136 C18.1799205,2.71529136 18.4439781,2.8175672 18.6621665,3.02335858 C18.8809748,3.22853011 18.9906889,3.47647154 18.9906889,3.76470345 C18.9906889,4.05417507 18.8809748,4.3008768 18.6621665,4.50418877 Z" id="Shape-Copy" fill="#FFFFFF" fill-rule="nonzero"></path>
            </g>
        </g>
    </g>
</svg>