<?xml version="1.0" encoding="UTF-8"?>
<svg width="19px" height="15px" viewBox="0 0 19 15" version="1.1" xmlns="http://www.w3.org/2000/svg" xmlns:xlink="http://www.w3.org/1999/xlink">
    <!-- Generator: sketchtool 47.1 (45422) - http://www.bohemiancoding.com/sketch -->
    <title>F3BBDFF2-BEB6-4FBB-9B67-2FE8ED6D2845</title>
    <desc>Created with sketchtool.</desc>
    <defs></defs>
    <g id="Page-1" stroke="none" stroke-width="1" fill="none" fill-rule="evenodd">
        <g id="Detail-view-2" transform="translate(-315.000000, -771.000000)" fill-rule="nonzero" fill="#E4493C">
            <g id="Group-14" transform="translate(-5.000000, 760.000000)">
                <g id="Group-16" transform="translate(244.000000, 9.000000)">
                    <g id="Group-43" transform="translate(58.000000, 2.000000)">
                        <path d="M34.8472178,7.25086193 L27.3241713,14.5385718 L19.8179643,7.23857927 C18.9928288,6.43611234 18.5381623,5.37161538 18.5381623,4.23751671 C18.5381623,3.10341803 18.9886189,2.03892108 19.8137544,1.24054837 C20.63468,0.442175657 21.7292475,-4.26325641e-13 22.891173,-4.26325641e-13 C24.0573083,-4.26325641e-13 25.1560857,0.442175657 25.9812212,1.24464259 L26.9326529,2.16993609 C27.1557763,2.3869297 27.5136157,2.3869297 27.736739,2.16993609 L28.679751,1.25283103 C29.5048865,0.450364095 30.6036639,0.00818843809 31.7655894,0.00818843809 C32.9275148,0.00818843809 34.0220823,0.450364095 34.8472178,1.24873681 C35.6723533,2.05120374 36.1228099,3.11570069 36.1228099,4.24979937 C36.1270198,5.38389804 35.6723533,6.44839499 34.8472178,7.25086193 Z" id="Shape"></path>
                    </g>
                </g>
            </g>
        </g>
    </g>
</svg>