<?xml version="1.0" encoding="UTF-8"?>
<svg width="16px" height="16px" viewBox="0 0 16 16" version="1.1" xmlns="http://www.w3.org/2000/svg" xmlns:xlink="http://www.w3.org/1999/xlink">
    <!-- Generator: sketchtool 47.1 (45422) - http://www.bohemiancoding.com/sketch -->
    <title>6F5DEB30-7DC9-40C0-8400-11B7DD08221B</title>
    <desc>Created with sketchtool.</desc>
    <defs></defs>
    <g id="Page-1" stroke="none" stroke-width="1" fill="none" fill-rule="evenodd">
        <g id="Registration1" transform="translate(-234.000000, -565.000000)" fill-rule="nonzero" fill="#287FDE">
            <g id="Group-5" transform="translate(87.000000, 553.000000)">
                <g id="Group-4" transform="translate(23.000000, 9.000000)">
                    <g id="Group-2">
                        <g id="001-user-login-button" transform="translate(124.000000, 3.000000)">
                            <path d="M13.0226342,0 L2.97841807,0 C1.33615261,0 5.26147907e-05,1.33556524 5.26147907e-05,2.97763381 L5.26147907e-05,3.07082134 L5.26147907e-05,7.10661514 L8.04848453,7.10661514 L6.32724427,5.38509249 C5.97940789,5.03659952 5.97940789,4.46973937 6.32724427,4.12140426 C6.4959799,3.95265642 6.71996107,3.85962674 6.95851653,3.85962674 C7.19796644,3.85962674 7.42200022,3.95270904 7.59099892,4.12140426 L10.8375946,7.36839267 C10.9190949,7.44958316 10.983548,7.54582258 11.0296386,7.65479569 C11.0773602,7.77213516 11.0994584,7.885423 11.0994584,8.00060511 C11.0994584,8.11547151 11.0776759,8.22891721 11.0331111,8.33752199 C10.9854421,8.45228315 10.9209364,8.54799638 10.8400675,8.63044972 L7.59094631,11.8791745 C7.42126361,12.0478698 7.19665107,12.1404785 6.95846391,12.1404785 C6.72022414,12.1404785 6.49492761,12.0478698 6.32687596,11.8791745 C5.97903958,11.5299975 5.97903958,10.96319 6.32687596,10.6150127 L8.04843191,8.89364795 L0,8.89364795 L0,9.87088054 L0,11.6652799 L0,13.0229976 C0,14.6643821 1.33615261,16 2.97836546,16 L13.0225816,16 C14.6648471,16 16,14.6643821 16,13.0229976 L16,2.97800214 C16.0000526,1.33556524 14.6648997,0 13.0226342,0 Z" id="Shape"></path>
                        </g>
                    </g>
                </g>
            </g>
        </g>
    </g>
</svg>