<?xml version="1.0" encoding="UTF-8"?>
<svg width="47px" height="47px" viewBox="0 0 47 47" version="1.1" xmlns="http://www.w3.org/2000/svg" xmlns:xlink="http://www.w3.org/1999/xlink">
    <!-- Generator: Sketch 47.1 (45422) - http://www.bohemiancoding.com/sketch -->
    <title>Group 4</title>
    <desc>Created with Sketch.</desc>
    <defs></defs>
    <g id="Page-1" stroke="none" stroke-width="1" fill="none" fill-rule="evenodd">
        <g id="Porucki" transform="translate(-235.000000, -201.000000)">
            <g id="Group-4" transform="translate(236.000000, 202.000000)">
                <path d="M33.1187117,13.2070698 L33.1175634,13.2085177 C33.1148673,13.148555 33.1031344,13.0885424 33.079319,13.0309762 C32.9979375,12.8345122 32.8061667,12.7063488 32.5934763,12.7063488 L28.6958502,12.7063488 L28.6958502,9.74076589 C28.6958502,8.78096312 27.9148871,8 26.9549845,8 L21.4970798,8 C20.5372271,8 19.7563139,8.78096312 19.7563139,9.74076589 L19.7563139,10.4517808 L19.045299,10.4517808 C18.0854463,10.4517808 17.3045331,11.232744 17.3045331,12.1925467 L17.3045331,12.7063488 L15.8581886,12.7063488 C15.7187416,12.7063488 15.5849863,12.7617681 15.4863798,12.8603745 L13.0348486,15.3119058 L13.0350483,15.312405 C12.9457284,15.4017749 12.8879625,15.5230484 12.881422,15.6587009 C12.7346856,18.725786 12.5854029,21.5774348 12.4410131,24.3351203 C12.2966233,27.092656 12.1473406,29.944105 12.0006042,33.0118392 C11.9937142,33.1554302 12.0459882,33.2956261 12.1451937,33.3998244 C12.2444992,33.5038729 12.381999,33.5628371 12.5257897,33.5628371 L31.022663,33.5628371 C31.1625094,33.5628371 31.2960151,33.5068187 31.3945217,33.4081123 L31.3944717,33.4088613 L33.846003,30.95733 C33.9513995,30.8519335 34.0070685,30.7067948 33.9992798,30.5580114 C33.9935382,30.4457747 33.4092887,19.2709424 33.1187117,13.2070698 Z M31.3239744,13.7581177 L29.9241621,15.1579299 L26.2440694,15.1579299 L26.2440694,13.7581177 L31.3239744,13.7581177 Z M20.8080329,9.74076589 C20.8080329,9.36076907 21.1171329,9.05166904 21.4971297,9.05166904 L26.9550344,9.05166904 C27.3350312,9.05166904 27.6441313,9.360819 27.6441313,9.74076589 L27.6441313,12.7063488 L26.2441193,12.7063488 L26.2441193,12.1925967 C26.2441193,11.232694 25.4631562,10.4518308 24.5033534,10.4518308 L20.8081327,10.4518308 L20.8081327,9.74076589 L20.8080329,9.74076589 Z M26.2440694,19.0757765 C26.2440694,19.3657544 26.0081628,19.601611 25.7182349,19.601611 C25.4283069,19.601611 25.1924004,19.3657045 25.1924004,19.0757765 C25.1924004,18.7858486 25.4283069,18.549942 25.7182349,18.549942 C26.0081628,18.549942 26.2440694,18.7858486 26.2440694,19.0757765 Z M20.8080329,11.5034998 L24.5032536,11.5034998 C24.8832504,11.5034998 25.1923504,11.8126498 25.1923504,12.1925967 L25.1923504,12.7063987 L20.8080329,12.7063987 L20.8080329,11.5034998 L20.8080329,11.5034998 Z M18.356252,12.1925967 C18.356252,11.8125998 18.6653521,11.5034998 19.0453489,11.5034998 L19.7563638,11.5034998 L19.7563638,12.7063987 L18.356252,12.7063987 L18.356252,12.1925967 Z M18.356252,13.7581177 L25.1923504,13.7581177 L25.1923504,15.1579299 L18.356252,15.1579299 L18.356252,13.7581177 Z M17.8304175,18.549942 C18.1203954,18.549942 18.356252,18.7858486 18.356252,19.0757765 C18.356252,19.3657045 18.1203455,19.601611 17.8304175,19.601611 C17.5404896,19.601611 17.304583,19.3657045 17.304583,19.0757765 C17.304583,18.7858486 17.5404396,18.549942 17.8304175,18.549942 Z M16.0760714,13.7581177 L17.304583,13.7581177 L17.304583,15.1579299 L14.6761593,15.1579299 L16.0760714,13.7581177 Z M13.4912842,24.3900403 C13.6278354,21.7816375 13.7687802,19.0895565 13.9078777,16.2095989 L17.304583,16.2095989 L17.304583,17.5886414 C16.692524,17.8057254 16.252864,18.3902744 16.252864,19.0757765 C16.252864,19.9456602 16.9605338,20.65333 17.8304175,20.65333 C18.7003012,20.65333 19.407971,19.9456602 19.407971,19.0757765 C19.407971,18.3902744 18.968311,17.8057254 18.356252,17.5886414 L18.356252,16.2095989 L25.1923504,16.2095989 L25.1923504,17.5886414 C24.5802914,17.8057254 24.1406315,18.3902744 24.1406315,19.0757765 C24.1406315,19.9456602 24.8483013,20.65333 25.718185,20.65333 C26.5880686,20.65333 27.2957384,19.9456602 27.2957384,19.0757765 C27.2957384,18.3902744 26.8560785,17.8057254 26.2440195,17.5886414 L26.2440195,16.2095989 L29.6407248,16.2095989 C29.7798223,19.0896064 29.9207671,21.7816874 30.0573183,24.3900403 C30.1405471,25.9800257 30.2254236,27.6015152 30.3104997,29.2772758 L30.3635725,30.3289448 C30.3994203,31.0452521 30.435318,31.7718443 30.4710161,32.5109684 L13.0775864,32.5109684 C13.2156854,29.6540772 13.3556316,26.9805692 13.4912842,24.3900403 Z M31.4905818,31.8253664 L31.4905818,31.8255162 C31.3624683,29.2039825 31.2331566,26.7339282 31.1075394,24.3351203 C30.9667444,21.6473829 30.821406,18.8698263 30.6782644,15.8910626 L32.1255076,14.4438195 C32.4031034,20.1356836 32.8567431,28.8453046 32.9368265,30.3790718 L31.4905818,31.8253664 Z" id="Shape" fill="#287FDE" fill-rule="nonzero"></path>
                <circle id="Oval-15" stroke="#287FDE" stroke-width="2" cx="22.5" cy="22.5" r="22.5"></circle>
            </g>
        </g>
    </g>
</svg>