<?xml version="1.0" encoding="UTF-8"?>
<svg width="28px" height="17px" viewBox="0 0 28 17" version="1.1" xmlns="http://www.w3.org/2000/svg" xmlns:xlink="http://www.w3.org/1999/xlink">
    <!-- Generator: sketchtool 47.1 (45422) - http://www.bohemiancoding.com/sketch -->
    <title>29E82600-0ECD-4F2A-8346-771532FA9A39</title>
    <desc>Created with sketchtool.</desc>
    <defs></defs>
    <g id="Page-1" stroke="none" stroke-width="1" fill="none" fill-rule="evenodd">
        <g id="Quick-view" transform="translate(-31.000000, -403.000000)" fill-rule="nonzero" fill="#F04C41">
            <g id="Group-36" transform="translate(17.000000, 107.000000)">
                <g id="001-payment-method" transform="translate(28.000000, 303.879507) rotate(-90.000000) translate(-28.000000, -303.879507) translate(19.500000, 290.379507)">
                    <path d="M15.6287434,14.810694 C15.3378118,14.5770697 12.3015431,11.1161702 11.4816447,10.6271891 L11.4816447,1.64623635 C11.4816447,0.73347164 10.7622501,0 9.87887573,0 L1.62170602,0 C0.733042011,0 0.0189370068,0.738904763 0.0189370068,1.64623635 L0.0189370068,17.3696951 C0.0189370068,18.2824598 0.738331678,19.0159314 1.62170602,19.0159314 L4.27182903,19.0159314 L5.21867937,19.0159314 L5.0705687,17.7228481 C5.0229617,17.6793831 4.9912237,17.6522175 4.9436167,17.6087525 L4.41465003,17.6087525 L3.35671669,17.6087525 C3.40961336,17.3914275 3.42548236,17.1523701 3.38316503,16.9078796 C3.26679236,16.2287392 2.74311536,15.6799937 2.08190702,15.5550319 C1.83858235,15.5061338 1.60054735,15.5224331 1.38367102,15.5767644 L1.38367102,3.33593768 C1.47888502,3.35223705 1.57938868,3.3631033 1.67989235,3.3631033 C2.57913569,3.3631033 3.30382003,2.61333229 3.30382003,1.69513446 C3.30382003,1.59733824 3.29324069,1.49954202 3.27737169,1.4017458 L8.20734106,1.4017458 C8.19147206,1.49954202 8.18089272,1.59733824 8.18089272,1.69513446 C8.18089272,2.61876541 8.90557706,3.3631033 9.8048204,3.3631033 C9.90532407,3.3631033 10.0058277,3.35223705 10.1010417,3.33593768 L10.1010417,15.2833757 L10.1010417,15.2833757 L10.1010417,18.7171096 C9.54033707,18.293326 8.91615639,16.9676439 8.91615639,16.9676439 C8.91615639,16.9676439 8.60935573,13.4415469 6.86905538,13.4415469 C6.82144838,13.4415469 6.77913105,13.4415469 6.73152405,13.4469801 C6.73152405,13.4469801 5.41439704,13.5610756 6.50406838,17.4294594 L6.99071772,21.7270599 C6.99071772,21.7270599 7.53555339,24.0578698 9.03781873,25.6715074 L9.03781873,26.1496222 C9.03781873,26.404979 9.23882606,26.6168708 9.49273007,26.6168708 L14.3856718,26.6168708 C14.6184171,26.6168708 14.8088451,26.4375778 14.8352934,26.2039535 C15.0098524,24.5305515 15.6869298,18.3096254 16.0836548,17.3642619 C16.1471308,17.2121345 16.2000274,17.060007 16.2211861,16.8970133 C16.3111104,16.3645673 16.3428484,15.3866051 15.6287434,14.810694 Z" id="Shape"></path>
                    <ellipse id="Oval" cx="5.92749471" cy="4.36279798" rx="1" ry="1"></ellipse>
                    <path d="M2.23530735,9.62206129 C2.23530735,11.3443614 3.40961336,12.784139 4.98064437,13.1481583 C5.02825137,13.0557952 5.07585837,12.9742983 5.1340447,12.8873684 C5.65243204,12.1104317 6.35595771,11.9691705 6.59399271,11.947438 C6.68920671,11.9365718 6.78442072,11.9311387 6.87963472,11.9311387 C7.21817338,11.9311387 7.67837439,11.9963362 8.15444439,12.2571261 C8.83681139,11.5997182 9.2652744,10.6597878 9.2652744,9.62206129 C9.2652744,7.62810505 7.68895372,6.00903432 5.74764604,6.00903432 C3.80633836,6.00903432 2.23530735,7.62810505 2.23530735,9.62206129 Z M3.6423587,9.30150702 C3.85394536,9.30150702 3.85923503,9.30150702 3.89097303,9.08418209 C3.91742136,8.91575526 3.96502836,8.75819469 4.02850436,8.60063412 C4.06553203,8.51370414 4.12371837,8.4811054 4.20835303,8.50827102 C4.3405947,8.54630288 4.4675467,8.58433475 4.59978837,8.62779973 C4.7214507,8.6658316 4.7373197,8.70929658 4.68442304,8.82882529 C4.56805037,9.07331584 4.52044337,9.32323951 4.53631237,9.59489567 C4.54160203,9.66552627 4.5468917,9.73615688 4.5786297,9.79592123 C4.67913337,10.0295455 4.9277477,10.0621443 5.08114804,9.86655183 C5.16049304,9.76875562 5.21338971,9.65466003 5.26099671,9.53513132 C5.34563137,9.32867263 5.42497637,9.12221395 5.52548004,8.93205463 C5.85872904,8.31267858 6.61515138,8.14425176 7.13353872,8.58433475 C7.31867705,8.74189532 7.44562905,8.948354 7.50910505,9.18741143 C7.53555339,9.29064077 7.58845005,9.33953888 7.69424339,9.33410576 C7.80003672,9.32867263 7.90054039,9.33410576 8.00633372,9.33410576 C8.10154772,9.33410576 8.14915472,9.38300387 8.14915472,9.47536696 C8.15444439,9.58946255 8.15444439,9.70355814 8.14915472,9.81765373 C8.14915472,9.92088307 8.09096839,9.96434805 7.99575439,9.96434805 C7.92169906,9.96434805 7.84235405,9.96434805 7.76829872,9.96434805 C7.59902939,9.96434805 7.59373972,9.96978118 7.56729139,10.138208 C7.53555339,10.3500998 7.48794639,10.5565585 7.39802205,10.7521509 C7.32396672,10.9042784 7.28693905,10.9205777 7.13353872,10.8771128 C7.01716605,10.844514 6.90079338,10.8119153 6.78971038,10.7738834 C6.65746871,10.7304184 6.64159971,10.6923866 6.70507571,10.5674247 C6.81615872,10.3555329 6.87434505,10.1273418 6.90608305,9.88828433 C6.92724172,9.73615688 6.91137272,9.58402943 6.84789672,9.44276822 C6.73681371,9.17654518 6.43530271,9.1330802 6.25545405,9.36127137 C6.19197804,9.4373351 6.14966071,9.52426507 6.11263304,9.61662817 C6.01212938,9.85025247 5.93807404,10.094743 5.81112204,10.3120679 C5.60482504,10.6706541 5.31918304,10.8934121 4.8960097,10.8662465 C4.4199397,10.8390809 4.1184287,10.5565585 3.9597387,10.1110424 C3.8962627,9.92631619 3.8962627,9.92631619 3.7058347,9.92088307 C3.6423587,9.92088307 3.5788827,9.92088307 3.51540669,9.92088307 C3.37258569,9.91544994 3.34613736,9.89371745 3.34613736,9.74702312 C3.34613736,9.70355814 3.34613736,9.65466003 3.34613736,9.61119504 C3.34084769,9.30694014 3.34084769,9.30694014 3.6423587,9.30150702 Z" id="Shape"></path>
                </g>
            </g>
        </g>
    </g>
</svg>