<?xml version="1.0" encoding="UTF-8"?>
<svg width="23px" height="23px" viewBox="0 0 23 23" version="1.1" xmlns="http://www.w3.org/2000/svg" xmlns:xlink="http://www.w3.org/1999/xlink">
    <!-- Generator: sketchtool 47.1 (45422) - http://www.bohemiancoding.com/sketch -->
    <title>26AE029E-38FB-4814-BCDE-AEE89CDE2B18</title>
    <desc>Created with sketchtool.</desc>
    <defs></defs>
    <g id="Page-1" stroke="none" stroke-width="1" fill="none" fill-rule="evenodd">
        <g id="Quick-view" transform="translate(-191.000000, -289.000000)">
            <g id="Group-36" transform="translate(17.000000, 107.000000)">
                <g id="Group-33" transform="translate(11.000000, 182.000000)">
                    <g id="Group-31" transform="translate(164.000000, 0.473892)">
                        <circle id="Oval" stroke="#F04C41" cx="10.6205475" cy="11.4047537" r="10.6205475"></circle>
                        <path d="M5.49237639,11.0219047 L7.27633687,11.0219047 C7.78335975,11.0219047 8.14797259,10.9327076 8.37018632,10.7543106 C8.59240005,10.5759137 8.70350525,10.3083223 8.70350525,9.95152843 C8.70350525,9.71366585 8.66594856,9.52588241 8.59083406,9.38817249 C8.51571956,9.25046257 8.41243867,9.14405196 8.28098829,9.06893746 C8.14953792,8.99382296 7.99774631,8.94531224 7.82560891,8.92340384 C7.65347151,8.90149545 7.47038266,8.89054141 7.27633687,8.89054141 L5.49237639,8.89054141 L5.49237639,11.0219047 Z M4.60039616,8.13940016 L7.03221596,8.13940016 C7.17618542,8.13940016 7.33110676,8.14096502 7.49698461,8.14409479 C7.66286247,8.14722456 7.82717297,8.15661373 7.98992106,8.17226259 C8.15266914,8.18791144 8.30446075,8.21138437 8.44530044,8.24268208 C8.58614013,8.27397979 8.7066345,8.32092565 8.80678717,8.38352107 C9.02587113,8.51497144 9.21208971,8.69649543 9.36544848,8.92809847 C9.51880725,9.15970152 9.59548549,9.4445064 9.59548549,9.78252165 C9.59548549,10.1393155 9.50941808,10.4475933 9.33728068,10.7073643 C9.16514328,10.9671353 8.91945996,11.1596133 8.60022333,11.2848042 L8.60022333,11.3035827 C9.01335308,11.3912163 9.3294552,11.5789997 9.54853916,11.8669386 C9.76762312,12.1548775 9.87716346,12.5054066 9.87716346,12.9185364 C9.87716346,13.1626585 9.83334732,13.4005175 9.74571374,13.6321206 C9.65808015,13.8637236 9.52819661,14.0687205 9.35605921,14.2471175 C9.18392181,14.4255144 8.97110059,14.5694817 8.71758915,14.6790237 C8.46407771,14.7885657 8.17144852,14.8433358 7.83969281,14.8433358 L4.60039616,14.8433358 L4.60039616,8.13940016 Z M5.49237639,14.0921946 L7.72702162,14.0921946 C8.12137275,14.0921946 8.42965056,13.985784 8.65186429,13.7729596 C8.87407802,13.5601351 8.98518322,13.2659411 8.98518322,12.8903686 C8.98518322,12.6712846 8.94449681,12.4897606 8.86312277,12.3457912 C8.78174872,12.2018217 8.67377325,12.0875868 8.5391931,12.003083 C8.40461295,11.9185792 8.24969162,11.8591144 8.07442445,11.8246869 C7.89915728,11.7902595 7.71763329,11.773046 7.52984704,11.773046 L5.49237639,11.773046 L5.49237639,14.0921946 Z M15.9415858,14.0076912 L16.1763174,14.8433358 L16.7396734,14.8433358 L16.7396734,11.312972 L13.8008332,11.312972 L13.8008332,12.0641132 L15.9415858,12.0641132 C15.9541049,12.3708308 15.9134185,12.6572005 15.8195253,12.923231 C15.7256322,13.1892615 15.5863595,13.4208611 15.401703,13.6180367 C15.2170465,13.8152122 14.9901416,13.9701336 14.7209813,14.0828053 C14.451821,14.1954771 14.1419783,14.2518121 13.791444,14.2518121 C13.4158715,14.2518121 13.0856856,14.1782636 12.8008764,14.0311644 C12.5160673,13.8840651 12.2766434,13.6868925 12.0825976,13.4396406 C11.8885518,13.1923887 11.7414548,12.9075838 11.6413021,12.5852174 C11.5411495,12.262851 11.4910739,11.9264057 11.4910739,11.5758714 C11.4910739,11.2190775 11.53489,10.8701133 11.6225236,10.5289683 C11.7101572,10.1878232 11.8463002,9.88424002 12.0309566,9.6182095 C12.2156131,9.35217898 12.4534721,9.13779289 12.7445408,8.9750448 C13.0356095,8.81229672 13.3845737,8.7309239 13.791444,8.7309239 C14.0418256,8.7309239 14.2781198,8.76065627 14.5003335,8.82012192 C14.7225472,8.87958757 14.9212847,8.9687847 15.0965519,9.08771599 C15.2718191,9.20664728 15.4189161,9.35843889 15.5378474,9.54309538 C15.6567787,9.72775186 15.7381515,9.94839739 15.7819683,10.2050386 L16.6739485,10.2050386 C16.6113531,9.81068748 16.4939884,9.47424215 16.3218511,9.19569255 C16.1497137,8.91714294 15.9368924,8.68710823 15.683381,8.50558152 C15.4298695,8.32405481 15.1419349,8.19104154 14.8195685,8.10653773 C14.4972021,8.02203392 14.1544974,7.97978264 13.791444,7.97978264 C13.2593829,7.97978264 12.7946189,8.07836895 12.397138,8.27554451 C11.9996571,8.47272008 11.6679064,8.73718175 11.4018758,9.06893746 C11.1358453,9.40069317 10.935543,9.78721408 10.8009628,10.2285118 C10.6663827,10.6698095 10.5990936,11.1345735 10.5990936,11.6228177 C10.5990936,12.0609856 10.6710773,12.4834984 10.8150467,12.8903686 C10.9590162,13.2972388 11.1687077,13.657157 11.4441275,13.9701341 C11.7195474,14.2831112 12.0544278,14.5319243 12.448779,14.7165808 C12.8431301,14.9012372 13.2906806,14.9935641 13.791444,14.9935641 C14.1857951,14.9935641 14.5770106,14.9168859 14.9651022,14.7635271 C15.3531938,14.6101683 15.678685,14.3582255 15.9415858,14.0076912 Z" id="BG" fill="#F04C41"></path>
                    </g>
                </g>
            </g>
        </g>
    </g>
</svg>