<?xml version="1.0" encoding="UTF-8"?>
<svg width="81px" height="36px" viewBox="0 0 81 36" version="1.1" xmlns="http://www.w3.org/2000/svg" xmlns:xlink="http://www.w3.org/1999/xlink">
    <!-- Generator: sketchtool 47.1 (45422) - http://www.bohemiancoding.com/sketch -->
    <title>362ED2BF-B875-42C0-97B9-7A8BEF47AB12</title>
    <desc>Created with sketchtool.</desc>
    <defs></defs>
    <g id="Page-1" stroke="none" stroke-width="1" fill="none" fill-rule="evenodd">
        <g id="Quick-view" transform="translate(-139.000000, -513.000000)">
            <g id="Group-56" transform="translate(139.000000, 513.000000)">
                <g id="Group-25-Copy-2">
                    <g id="Group-39">
                        <path d="M80.8182798,3.50608431e-13 C79.6077227,19.704236 63.2438001,35.3105158 43.2348355,35.3105158 L38.1506994,35.3105158 C18.1417348,35.3105158 1.77781226,19.704236 0.56725513,3.59601238e-13 L80.8182798,7.10542736e-15 Z" id="Combined-Shape" fill="#3F76DF"></path>
                        <text id="ВИЖ-ОЩЕ" font-family=".SFNSDisplay, .SF NS Display" font-size="8" font-weight="normal" letter-spacing="0.0799999982" fill="#FFFFFF">
                            <tspan x="22.2832185" y="12">ВИЖ ОЩ</tspan>
                            <tspan x="56.3139998" y="12">Е</tspan>
                        </text>
                        <g id="Group-21" transform="translate(33.565189, 16.295135)" fill-rule="nonzero" fill="#FFFFFF">
                            <g id="Group-24" transform="translate(-0.000000, 0.000000)">
                                <g id="002-information-button" transform="translate(0.497620, 0.093082)">
                                    <path d="M7.61458385,0 C3.61127503,0 0.365491511,3.24578352 0.365491511,7.24909234 C0.365491511,11.2524012 3.61127503,14.4981847 7.61458385,14.4981847 C11.6178927,14.4981847 14.8636762,11.2524012 14.8636762,7.24909234 C14.8636762,3.24578352 11.6178927,0 7.61458385,0 Z M8.52070614,10.8736385 C8.52070614,11.3738276 8.11474443,11.7797608 7.61458385,11.7797608 C7.11442328,11.7797608 6.70846157,11.3737991 6.70846157,10.8736385 L6.70846157,6.34294155 C6.70846157,5.84275246 7.11442328,5.43681926 7.61458385,5.43681926 C8.11474443,5.43681926 8.52070614,5.84278097 8.52070614,6.34294155 L8.52070614,10.8736385 Z M7.61458385,4.54518033 C7.11439477,4.54518033 6.70846157,4.13921861 6.70846157,3.63905804 C6.70846157,3.13889747 7.11442328,2.73293575 7.61458385,2.73293575 C8.11474443,2.73293575 8.52070614,3.13889747 8.52070614,3.63905804 C8.52070614,4.13921861 8.11477294,4.54518033 7.61458385,4.54518033 Z" id="Shape"></path>
                                </g>
                            </g>
                        </g>
                    </g>
                </g>
            </g>
        </g>
    </g>
</svg>