<?xml version="1.0" encoding="UTF-8"?>
<svg width="19px" height="23px" viewBox="0 0 19 23" version="1.1" xmlns="http://www.w3.org/2000/svg" xmlns:xlink="http://www.w3.org/1999/xlink">
    <!-- Generator: sketchtool 47.1 (45422) - http://www.bohemiancoding.com/sketch -->
    <title>FC7F0B11-85CD-4A0B-B908-C89379BEA9F7</title>
    <desc>Created with sketchtool.</desc>
    <defs></defs>
    <g id="Page-1" stroke="none" stroke-width="1" fill="none" fill-rule="evenodd">
        <g id="Quick-view" transform="translate(-34.000000, -312.000000)" stroke="#F04C41" stroke-width="0.4" fill="#F04C41" fill-rule="nonzero">
            <g id="Group-36" transform="translate(17.000000, 107.000000)">
                <g id="Group-33" transform="translate(11.000000, 182.000000)">
                    <g id="Group-28" transform="translate(6.000000, 23.000000)">
                        <path d="M18.1331097,19.2440258 L16.8738606,5.24130284 C16.8468767,4.93042729 16.581535,4.69505008 16.27122,4.69505008 L13.6807647,4.69505008 C13.6447862,2.35904238 11.7109393,0.471583677 9.33635534,0.471583677 C6.96177132,0.471583677 5.0279245,2.35904238 4.99194595,4.69505008 L2.40149067,4.69505008 C2.08667839,4.69505008 1.82583394,4.93042729 1.79885003,5.24130284 L0.539600929,19.2440258 C0.539600929,19.2617902 0.535103611,19.2795545 0.535103611,19.2973188 C0.535103611,20.8916663 2.0147213,22.1884614 3.83613517,22.1884614 L14.8365755,22.1884614 C16.6579894,22.1884614 18.1376071,20.8916663 18.1376071,19.2973188 C18.1376071,19.2795545 18.1376071,19.2617902 18.1331097,19.2440258 Z M9.33635534,1.67067509 C11.0408389,1.67067509 12.4305103,3.02076319 12.4664888,4.69505008 L6.20622187,4.69505008 C6.24220041,3.02076319 7.63187174,1.67067509 9.33635534,1.67067509 Z M14.8365755,20.98937 L3.83613517,20.98937 C2.69381635,20.98937 1.7673688,20.2432687 1.74937953,19.3239653 L2.9546608,5.89858257 L4.98744863,5.89858257 L4.98744863,7.71942508 C4.98744863,8.05250603 5.25728773,8.31897078 5.59458659,8.31897078 C5.93188546,8.31897078 6.20172455,8.05250603 6.20172455,7.71942508 L6.20172455,5.89858257 L12.4664888,5.89858257 L12.4664888,7.71942508 C12.4664888,8.05250603 12.7363279,8.31897078 13.0736268,8.31897078 C13.4109256,8.31897078 13.6807647,8.05250603 13.6807647,7.71942508 L13.6807647,5.89858257 L15.7135525,5.89858257 L16.9233311,19.3239653 C16.9053419,20.2432687 15.974397,20.98937 14.8365755,20.98937 Z" id="Shape"></path>
                    </g>
                </g>
            </g>
        </g>
    </g>
</svg>