<?xml version="1.0" encoding="UTF-8"?>
<svg width="31px" height="31px" viewBox="0 0 31 31" version="1.1" xmlns="http://www.w3.org/2000/svg" xmlns:xlink="http://www.w3.org/1999/xlink">
    <!-- Generator: sketchtool 47.1 (45422) - http://www.bohemiancoding.com/sketch -->
    <title>5A05DE41-C85D-4EED-B22C-004DDB734C35</title>
    <desc>Created with sketchtool.</desc>
    <defs></defs>
    <g id="Page-1" stroke="none" stroke-width="1" fill="none" fill-rule="evenodd" opacity="0.800000012">
        <g id="Cart-New" transform="translate(-32.000000, -1109.000000)" fill-rule="nonzero" fill="#6D4B4B">
            <g id="Group-6" transform="translate(14.000000, 1099.000000)">
                <g id="Group-5">
                    <path d="M33.5,10.5502965 C25.2440263,10.5502965 18.5502965,17.2440263 18.5502965,25.5 C18.5502965,33.7559737 25.2440263,40.4497035 33.5,40.4497035 C41.7559737,40.4497035 48.4497035,33.7559737 48.4497035,25.5 C48.4497035,17.2440263 41.7559737,10.5502965 33.5,10.5502965 Z M33.5,35.042894 C32.3314315,35.042894 31.5316224,34.1421744 31.5316224,32.9748517 C31.5316224,31.7738922 32.3650683,30.9068094 33.5,30.9068094 C34.6997137,30.9068094 35.4683776,31.7738922 35.4683776,32.9748517 C35.4683776,34.1434202 34.6997137,35.042894 33.5,35.042894 Z M34.274893,27.1457132 C33.9771447,28.1610472 33.0390508,28.1784885 32.7263528,27.1457132 C32.3663142,25.9547201 31.0868687,21.4336807 31.0868687,18.4973097 C31.0868687,14.6228449 35.93431,14.6041578 35.93431,18.4973097 C35.9330642,21.451122 34.5850993,26.0892675 34.274893,27.1457132 Z" id="Shape"></path>
                </g>
            </g>
        </g>
    </g>
</svg>