<svg xmlns="http://www.w3.org/2000/svg" width="33" height="24" viewBox="0 0 33 24">
    <g fill="#B0B0B0" fill-rule="nonzero">
        <path d="M17.607 19.444c4.164 0 7.552-3.387 7.552-7.551 0-4.165-3.388-7.553-7.552-7.553s-7.552 3.388-7.552 7.553c0 4.164 3.387 7.55 7.552 7.55z"/>
        <path d="M17.607 21.471a9.578 9.578 0 0 0 9.578-9.578 9.578 9.578 0 0 0-9.578-9.58 9.578 9.578 0 0 0-9.579 9.58c0 5.29 4.288 9.578 9.579 9.578zm0-17.69c4.472 0 8.11 3.64 8.11 8.112 0 4.472-3.638 8.11-8.11 8.11-4.472 0-8.111-3.638-8.111-8.11 0-4.472 3.639-8.112 8.11-8.112zM32.508 22.362L31.948.864a.838.838 0 0 0-.838-.839.818.818 0 0 0-.345.078V.095l-.053.035a.858.858 0 0 0-.214.165c-.614.504-2.57 2.556-2.734 5.33-.248 4.232 1.807 5.946 2.508 7.515l-.56 9.222c0 .462.935.838 1.398.838.463 0 1.398-.375 1.398-.838zM1.463 9.265l1.447.723c.165.083.347.143.536.188L2.888 22.75c0 .389.934.703 1.397.703.463 0 1.397-.314 1.397-.703l-.559-12.64a2.49 2.49 0 0 0 .552-.239l1.072-.652c.774-.472 1.357-1.51 1.357-2.416V1.169a.839.839 0 0 0-1.677 0v5.076h-.466V1.169a.839.839 0 0 0-1.676 0v5.076h-.467V1.169a.839.839 0 0 0-1.677 0v5.076h-.464V1.35A.839.839 0 0 0 0 1.35v5.548c0 .932.63 1.95 1.463 2.367z"/>
    </g>
</svg>
