<?xml version="1.0" encoding="UTF-8"?>
<svg width="13px" height="13px" viewBox="0 0 13 13" version="1.1" xmlns="http://www.w3.org/2000/svg" xmlns:xlink="http://www.w3.org/1999/xlink">
    <!-- Generator: sketchtool 45.2 (43514) - http://www.bohemiancoding.com/sketch -->
    <title>DFCFB85A-6D28-4B7A-BB97-18992A660CAD</title>
    <desc>Created with sketchtool.</desc>
    <defs></defs>
    <g id="Page-1" stroke="none" stroke-width="1" fill="none" fill-rule="evenodd">
        <g id="Allergens" transform="translate(-211.000000, -316.000000)" fill-rule="nonzero" fill="#42CD9A">
            <g id="Group-12" transform="translate(191.000000, 304.000000)">
                <g id="Group-4">
                    <g id="Group" transform="translate(19.000000, 12.000000)">
                        <g id="Group-16" transform="translate(1.000000, 0.000000)">
                            <g id="001-plus-button" transform="translate(0.877308, 0.754616)">
                                <path d="M5.90888241,11.8181453 C2.65060692,11.8181453 0,9.1671579 0,5.90888241 C0,2.65060692 2.65060692,0 5.90888241,0 C9.1671579,0 11.8177648,2.65060692 11.8177648,5.90888241 C11.8181453,9.1671579 9.1671579,11.8181453 5.90888241,11.8181453 Z M5.90888241,0.675018185 C3.02274209,0.675018185 0.675018185,3.02312259 0.675018185,5.90888241 C0.675018185,8.79464223 3.02274209,11.1423661 5.90888241,11.1423661 C8.79464223,11.1423661 11.1423661,8.79464223 11.1423661,5.90888241 C11.1423661,3.02312259 8.79464223,0.675018185 5.90888241,0.675018185 Z" id="Shape"></path>
                                <path d="M8.23872251,6.2463915 L3.5790423,6.2463915 C3.39259421,6.2463915 3.24115271,6.095711 3.24115271,5.90888241 C3.24115271,5.72243432 3.39221371,5.57099281 3.5790423,5.57099281 L8.23872251,5.57099281 C8.4251706,5.57099281 8.57623161,5.72243432 8.57623161,5.90888241 C8.57623161,6.095711 8.42555111,6.2463915 8.23872251,6.2463915 Z" id="Shape"></path>
                                <path d="M5.90888241,8.57623161 C5.72243432,8.57623161 5.57099281,8.4251706 5.57099281,8.23872251 L5.57099281,3.5790423 C5.57099281,3.39259421 5.72243432,3.24115271 5.90888241,3.24115271 C6.0953305,3.24115271 6.2463915,3.39259421 6.2463915,3.5790423 L6.2463915,8.23872251 C6.2463915,8.42555111 6.095711,8.57623161 5.90888241,8.57623161 Z" id="Shape"></path>
                            </g>
                        </g>
                    </g>
                </g>
            </g>
        </g>
    </g>
</svg>