<?xml version="1.0" encoding="UTF-8"?>
<svg width="14px" height="18px" viewBox="0 0 14 18" version="1.1" xmlns="http://www.w3.org/2000/svg" xmlns:xlink="http://www.w3.org/1999/xlink">
    <!-- Generator: sketchtool 47.1 (45422) - http://www.bohemiancoding.com/sketch -->
    <title>BCB9173E-6188-408C-9D77-801BA9D12A54</title>
    <desc>Created with sketchtool.</desc>
    <defs></defs>
    <g id="Page-1" stroke="none" stroke-width="1" fill="none" fill-rule="evenodd" opacity="0.699999988">
        <g id="Login1" transform="translate(-60.000000, -286.000000)" fill-rule="nonzero" fill="#000000">
            <g id="002-locked-padlock" transform="translate(60.000000, 286.000000)">
                <path d="M13.006843,7.26914756 L12.6519275,7.26914756 L12.6519275,5.62762336 C12.6519275,2.59149883 10.2138111,0.0552500036 7.1664555,0.00110943782 C7.08319033,-0.000369812608 6.91680967,-0.000369812608 6.83358193,0.00110943782 C3.78615152,0.0552500036 1.34807247,2.59149883 1.34807247,5.62762336 L1.34807247,7.26914756 L0.993119597,7.26914756 C0.446151625,7.26914756 0,7.82689894 0,8.51574888 L0,16.7489609 C0,17.4370343 0.446151625,18 0.99315702,18 L13.006843,18 C13.553811,18 14,17.4370343 14,16.7489609 L14,8.51574888 C14,7.82693592 13.5538484,7.26914756 13.006843,7.26914756 Z M7.57648575,12.7590451 L7.57648575,15.4343949 C7.57648575,15.7407411 7.34565044,16 7.06971472,16 L5.93024948,16 C5.65427798,16 5.42344266,15.7407411 5.42344266,15.4343949 L5.42344266,12.7590451 C5.15581115,12.4663399 5,12.0616033 5,11.6138757 C5,10.7654282 5.59027836,10.0363694 6.34080632,10.0026845 C6.42034052,9.99910518 6.57965948,9.99910518 6.65919368,10.0026845 C7.40972164,10.0363694 8,10.7654282 8,11.6138757 C7.99992841,12.0616033 7.84411726,12.4663399 7.57648575,12.7590451 Z M10.9999605,7 L7.67583032,7 L7.32413014,7 L4,7 L4,5.34038735 C4,3.51188963 5.57144148,2 7.49996046,2 C9.42847944,2 11,3.51188963 11,5.34038735 L11,7 L10.9999605,7 Z" id="Shape"></path>
            </g>
        </g>
    </g>
</svg>