<?xml version="1.0" encoding="UTF-8"?>
<svg width="22px" height="23px" viewBox="0 0 22 23" version="1.1" xmlns="http://www.w3.org/2000/svg" xmlns:xlink="http://www.w3.org/1999/xlink">
    <!-- Generator: sketchtool 45.2 (43514) - http://www.bohemiancoding.com/sketch -->
    <title>6D24A945-5EF9-4F36-B9E4-6E201007A889</title>
    <desc>Created with sketchtool.</desc>
    <defs></defs>
    <g id="Page-1" stroke="none" stroke-width="1" fill="none" fill-rule="evenodd">
        <g id="FFFFFF" transform="translate(-275.000000, -40.000000)" fill-rule="nonzero" fill="#EE4C40">
            <g id="search" transform="translate(275.471256, 40.359988)">
                <path d="M21.0450048,19.8073361 L15.7769539,14.4244223 C17.1314623,12.8424923 17.8736055,10.8521007 17.8736055,8.78001675 C17.8736055,3.93879186 13.8644781,0 8.93680277,0 C4.00912743,0 0,3.93879186 0,8.78001675 C0,13.6212416 4.00912743,17.5600335 8.93680277,17.5600335 C10.7867209,17.5600335 12.5496024,17.0118551 14.0568136,15.9712322 L19.3648859,21.3949921 C19.5867518,21.6213639 19.8851633,21.7461928 20.2049454,21.7461928 C20.507631,21.7461928 20.7947744,21.6328161 21.0127546,21.4266765 C21.4759142,20.9888209 21.4906793,20.2627517 21.0450048,19.8073361 Z M8.93680277,2.29043915 C12.5791327,2.29043915 15.5422657,5.20158732 15.5422657,8.78001675 C15.5422657,12.3584462 12.5791327,15.2695944 8.93680277,15.2695944 C5.2944728,15.2695944 2.33133985,12.3584462 2.33133985,8.78001675 C2.33133985,5.20158732 5.2944728,2.29043915 8.93680277,2.29043915 Z" id="Shape"></path>
            </g>
        </g>
    </g>
</svg>