<?xml version="1.0" encoding="UTF-8"?>
<svg width="47px" height="47px" viewBox="0 0 47 47" version="1.1" xmlns="http://www.w3.org/2000/svg" xmlns:xlink="http://www.w3.org/1999/xlink">
    <!-- Generator: sketchtool 47.1 (45422) - http://www.bohemiancoding.com/sketch -->
    <title>7B2E1BD3-D6DC-47F2-A54E-1E04F1DBD8D4</title>
    <desc>Created with sketchtool.</desc>
    <defs></defs>
    <g id="Page-1" stroke="none" stroke-width="1" fill="none" fill-rule="evenodd">
        <g id="Messages" transform="translate(-235.000000, -228.000000)">
            <g id="Group-4" transform="translate(236.000000, 229.000000)">
                <g id="Group-31" stroke-width="2" stroke="#287FDE">
                    <circle id="Oval-15" cx="22.5" cy="22.5" r="22.5"></circle>
                </g>
                <path d="M22.5,32 C18.7891051,32 14.7952719,30.3838249 10.9502986,27.3260617 C8.07597502,25.0403046 6.30190028,22.7757474 6.22776898,22.6803066 C5.92407701,22.2898141 5.92407701,21.7101859 6.22776898,21.3196103 C6.30190028,21.2243357 8.07590037,18.9596123 10.9502986,16.6738552 C14.7953466,13.6163413 18.7891797,12 22.5,12 C26.2108949,12 30.2048027,13.6162582 34.0497014,16.6738552 C36.924025,18.9596123 38.6980997,21.2242526 38.772231,21.3196103 C39.075923,21.7101028 39.075923,22.289731 38.772231,22.6803066 C38.6980997,22.7755811 36.9240996,25.0403046 34.0497014,27.3260617 C30.2048027,30.3837418 26.2109696,32 22.5,32 Z M8.21259162,22.0000831 C8.93001538,22.8147385 10.2840128,24.2472648 12.0717492,25.6639952 C14.522636,27.6061488 18.3213239,29.9215856 22.5,29.9215856 C26.6786761,29.9215856 30.4774387,27.6061488 32.9282508,25.6639952 C34.7157633,24.2475142 36.0698353,22.8148216 36.7874084,22.0000831 C36.0700593,21.1854278 34.7159872,19.7529015 32.9282508,18.3361711 C30.4774387,16.3939344 26.6786761,14.0785807 22.5,14.0785807 C18.3213239,14.0785807 14.522636,16.3939344 12.0717492,18.3361711 C10.2842367,19.7526521 8.93016469,21.1851784 8.21259162,22.0000831 Z" id="Shape" fill="#287FDE" fill-rule="nonzero"></path>
                <path d="M22.500029,27 C20.018684,27 18,24.981271 18,22.5 C18,20.018729 20.018684,18 22.500029,18 C23.5913006,18 24.6440171,18.3956516 25.4641256,19.1141419 C25.7656566,19.3782774 25.7959664,19.8368129 25.5318292,20.1383419 C25.267692,20.439871 24.8090955,20.4701226 24.5076226,20.2060452 C23.95229,19.7195226 23.2392532,19.4516129 22.499971,19.4516129 C20.8190504,19.4516129 19.4515642,20.8191484 19.4515642,22.5 C19.4515642,24.1808516 20.8190504,25.5483871 22.499971,25.5483871 C24.1809496,25.5483871 25.5483777,24.1808516 25.5483777,22.5 C25.5483777,22.0991806 25.8733669,21.7741935 26.2741889,21.7741935 C26.6750108,21.7741935 27,22.0991806 27,22.5 C27.0001161,24.981271 24.9813741,27 22.500029,27 Z" id="Shape" fill="#287FDE" fill-rule="nonzero"></path>
                <path d="M22,22 C21.4486,22 21,21.5514 21,21 C21,20.4486 21.4486,20 22,20 C22.55144,20 23,20.4486 23,21 C23,21.5514 22.55144,22 22,22 Z" id="Shape" fill="#287FDE" fill-rule="nonzero"></path>
            </g>
        </g>
    </g>
</svg>