<?xml version="1.0" encoding="UTF-8"?>
<svg width="54px" height="54px" viewBox="0 0 54 54" version="1.1" xmlns="http://www.w3.org/2000/svg" xmlns:xlink="http://www.w3.org/1999/xlink">
    <!-- Generator: sketchtool 47.1 (45422) - http://www.bohemiancoding.com/sketch -->
    <title>88C98601-96CA-48E8-B741-7995D54CBA3B</title>
    <desc>Created with sketchtool.</desc>
    <defs></defs>
    <g id="Page-1" stroke="none" stroke-width="1" fill="none" fill-rule="evenodd">
        <g id="Thank-you!" transform="translate(-76.000000, -398.000000)">
            <g id="Group-12" transform="translate(43.000000, 399.000000)">
                <g id="Group-5" transform="translate(34.000000, 0.000000)">
                    <g id="001-phone-call" transform="translate(15.348892, 14.713217)" fill-rule="nonzero" fill="#3F76E0">
                        <path d="M16.7123947,13.216298 C16.2794727,12.7615045 15.7572885,12.5183476 15.2038625,12.5183476 C14.6548996,12.5183476 14.1282522,12.7570016 13.6774778,13.2117951 L12.2671341,14.6302103 C12.1510931,14.5671696 12.0350522,14.5086319 11.9234744,14.4500941 C11.7628023,14.3690418 11.6110564,14.2924924 11.4816262,14.2114401 C10.1605447,13.3648939 8.95996728,12.261682 7.80848411,10.8342609 C7.25059497,10.1228019 6.87569347,9.52391542 6.60344358,8.91602317 C6.96941885,8.57830526 7.30861544,8.22707862 7.63888581,7.88936071 C7.76385298,7.76327935 7.88882014,7.63269509 8.01378731,7.50661374 C8.95104105,6.56100357 8.95104105,5.33621326 8.01378731,4.39060309 L6.79535744,3.16130987 C6.65700093,3.0217198 6.51418132,2.87762682 6.38028792,2.73353385 C6.11250114,2.4543537 5.83132502,2.16616775 5.54122267,1.89599341 C5.1083007,1.46371448 4.59057958,1.2340663 4.04607979,1.2340663 C3.50157999,1.2340663 2.97493265,1.46371448 2.52862134,1.89599341 C2.52415823,1.90049632 2.52415823,1.90049632 2.51969512,1.90499922 L1.00223667,3.44949583 C0.430958198,4.02586774 0.105150944,4.72832101 0.0337411348,5.54334691 C-0.0733735789,6.85819534 0.310454145,8.08298565 0.605019608,8.88450284 C1.32804393,10.8522726 2.40811729,12.6759493 4.01930111,14.6302103 C5.97414463,16.9852299 8.32620522,18.8449299 11.0129993,20.1552754 C12.0395153,20.6460921 13.409691,21.226967 14.9405388,21.3260309 C15.0342642,21.3305338 15.1324527,21.3350367 15.2217149,21.3350367 C16.252694,21.3350367 17.118538,20.9612955 17.7969312,20.2183161 C17.8013943,20.2093103 17.8103205,20.2048074 17.8147836,20.1958016 C18.0468655,19.9121185 18.3146523,19.6554529 18.5958284,19.3807757 C18.7877423,19.1961566 18.9841192,19.0025316 19.1760331,18.7999009 C19.6178813,18.3361016 19.8499632,17.7957529 19.8499632,17.2418955 C19.8499632,16.6835353 19.6134182,16.1476895 19.1626438,15.6973989 L16.7123947,13.216298 Z M18.3101892,17.9578575 C18.3057261,17.9578575 18.3057261,17.9623604 18.3101892,17.9578575 C18.1361278,18.1469796 17.9576032,18.31809 17.7656894,18.507212 C17.475587,18.7863922 17.1810216,19.079081 16.9043085,19.4077931 C16.4535341,19.8941069 15.9224237,20.1237551 15.226178,20.1237551 C15.1592313,20.1237551 15.0878215,20.1237551 15.0208748,20.1192522 C13.6953302,20.033697 12.463511,19.5113599 11.5396466,19.0655723 C9.01352464,17.8317762 6.79535744,16.0801459 4.95209174,13.8602135 C3.43017018,12.0095193 2.4125804,10.2984152 1.73865033,8.46122971 C1.32358081,7.34000623 1.17183497,6.46644255 1.23878166,5.64241084 C1.28341279,5.11557089 1.48425288,4.67878905 1.85469127,4.30504789 L3.37661283,2.76955709 C3.59530537,2.56242344 3.82738725,2.4498508 4.05500601,2.4498508 C4.33618214,2.4498508 4.5638009,2.62096121 4.70662052,2.76505419 C4.71108363,2.76955709 4.71554675,2.77406 4.72000986,2.7785629 C4.99225976,3.03522852 5.25112032,3.30089995 5.52337021,3.584583 C5.66172672,3.72867597 5.80454634,3.87276895 5.94736595,4.02136484 L7.16579582,5.25065805 C7.63888581,5.72796604 7.63888581,6.16925079 7.16579582,6.64655877 C7.03636554,6.77714304 6.91139838,6.9077273 6.7819681,7.03380865 C6.4070666,7.42105853 6.05001756,7.78129097 5.66172672,8.13251761 C5.65280049,8.14152342 5.64387427,8.14602632 5.63941115,8.15503214 C5.25558343,8.54228201 5.32699324,8.92052608 5.40732927,9.1771917 C5.41179239,9.19070041 5.4162555,9.20420913 5.42071861,9.21771785 C5.73759964,9.9922176 6.18391095,10.7216883 6.86230413,11.5907491 L6.86676725,11.595252 C8.09858646,13.1262399 9.39735236,14.3195098 10.8300117,15.2335997 C11.0129993,15.3506752 11.20045,15.4452362 11.3789746,15.5352943 C11.5396466,15.6163466 11.6913925,15.692896 11.8208228,15.7739483 C11.8386752,15.7829541 11.8565277,15.7964629 11.8743801,15.8054687 C12.026126,15.8820181 12.1689456,15.9180413 12.3162283,15.9180413 C12.6866667,15.9180413 12.9187486,15.6838902 12.9946215,15.6073408 L14.5210062,14.0673471 C14.672752,13.9142483 14.9137601,13.7296292 15.1949362,13.7296292 C15.4716493,13.7296292 15.699268,13.9052425 15.8376245,14.0583413 C15.8420876,14.0628442 15.8420876,14.0628442 15.8465507,14.0673471 L18.3057261,16.5484481 C18.7654267,17.0077445 18.7654267,17.4805495 18.3101892,17.9578575 Z" id="Shape"></path>
                        <path d="M11.4280688,5.07504474 C12.5974044,5.27317258 13.6596253,5.83153287 14.5076168,6.68708492 C15.3556083,7.54263698 15.9045712,8.6143285 16.1054113,9.79408976 C16.1545056,10.0912815 16.408903,10.2984152 16.6990053,10.2984152 C16.7347102,10.2984152 16.765952,10.2939123 16.8016569,10.2894094 C17.1319273,10.2353745 17.3506199,9.92017111 17.2970625,9.5869561 C17.0560544,8.15953504 16.3865874,6.85819534 15.3645345,5.82702996 C14.3424816,4.79586459 13.052642,4.12042876 11.6378351,3.87727186 C11.3075648,3.82323699 10.99961,4.04387936 10.9415895,4.37259147 C10.883569,4.70130357 11.0977984,5.02100987 11.4280688,5.07504474 Z" id="Shape"></path>
                        <path d="M21.1219504,9.41134279 C20.7247333,7.06082609 19.6268075,4.92194595 17.9397508,3.21984765 C16.252694,1.51774935 14.1327153,0.41003458 11.8029703,0.00927598544 C11.4771631,-0.0492617868 11.1692082,0.175883491 11.1111878,0.504595597 C11.0576304,0.837810608 11.276323,1.14851109 11.6065933,1.20704886 C13.686404,1.5627784 15.5832271,2.55792053 17.0917593,4.0753997 C18.6002915,5.59738178 19.5821764,7.51111664 19.9347623,9.60947063 C19.9838566,9.9066624 20.238254,10.1137961 20.5283564,10.1137961 C20.5640613,10.1137961 20.5953031,10.1092931 20.631008,10.1047902 C20.9568152,10.0552583 21.1799709,9.74005489 21.1219504,9.41134279 Z" id="Shape"></path>
                    </g>
                    <circle id="Oval-22-Copy-2" stroke="#3F76E0" stroke-width="2" cx="26.135675" cy="25.5601931" r="25.5601931"></circle>
                </g>
            </g>
        </g>
    </g>
</svg>