<?xml version="1.0" encoding="UTF-8"?>
<svg width="29px" height="41px" viewBox="0 0 29 41" version="1.1" xmlns="http://www.w3.org/2000/svg" xmlns:xlink="http://www.w3.org/1999/xlink">
    <!-- Generator: sketchtool 47.1 (45422) - http://www.bohemiancoding.com/sketch -->
    <title>496BE777-0898-4416-91CC-BBAF51E0525B</title>
    <desc>Created with sketchtool.</desc>
    <defs></defs>
    <g id="Page-1" stroke="none" stroke-width="1" fill="none" fill-rule="evenodd">
        <g id="Thank-you!" transform="translate(-164.000000, -277.000000)" fill-rule="nonzero" fill="#FC5147">
            <g id="Group-9" transform="translate(60.000000, 276.000000)">
                <g id="hourglass" transform="translate(104.444044, 0.821662)">
                    <path d="M26.652936,4.60332888 L28.2058787,4.60332888 L28.2058787,0.858027457 L0.089337083,0.858027457 L0.089337083,4.60332888 L1.64245479,4.60332888 L1.64245479,5.57523084 C1.64245479,11.6767272 3.73057805,17.272712 7.16973692,20.5927571 C3.73057805,23.9134148 1.64245479,29.508962 1.64245479,35.6107209 L1.64245479,36.8352911 L0.089337083,36.8352911 L0.089337083,40.580505 L28.2058787,40.580505 L28.2058787,36.8352911 L26.652936,36.8352911 L26.652936,35.6107209 C26.652936,29.508962 24.5644627,23.9135023 21.1257414,20.5927571 C24.5644627,17.272712 26.652936,11.6776899 26.652936,5.57523084 L26.652936,4.60332888 Z M18.5062884,19.615779 L17.2166914,20.5927571 L18.5062884,21.5697351 C21.724461,24.0102112 23.8844376,28.9515515 24.1696631,34.3847504 L4.12625286,34.3847504 C4.41130326,28.9520766 6.57031716,24.0107363 9.78945248,21.5697351 L11.0783494,20.5927571 L9.78945248,19.615779 C6.57084227,17.1750404 4.41130326,12.2344002 4.12625286,6.80120136 L24.1688754,6.80120136 C23.8844376,12.2344002 21.7243735,17.1750404 18.5062884,19.615779 Z M6.71017302,8.74938124 L21.5849552,8.74938124 C21.3699203,12.8746915 19.7293708,16.626907 17.2839937,18.4800409 C17.2839937,18.4800409 16.8653013,18.6608558 16.3061404,19.2213295 C15.1493102,20.873344 15.0876091,26.9119139 15.0856836,27.1781477 C15.9162419,27.2668047 16.8135774,27.6173196 17.7028611,28.4295863 C20.8404285,31.2962814 21.7508043,31.6343685 21.860291,33.7154027 L7.14864477,33.7154027 C7.25804391,31.6348936 9.04308779,30.1459275 11.3058121,28.4295863 C11.3058121,28.4295863 12.3822996,27.4848153 13.8921828,27.222695 C13.8647017,27.1752595 13.8485982,27.1432275 13.8485982,27.1432275 C13.8485982,21.4553474 11.9889878,19.0164467 11.9889878,19.0164467 L10.6671837,18.2751582 C8.22259424,16.420799 6.92590812,12.874779 6.71017302,8.74938124 Z" id="Shape"></path>
                </g>
            </g>
        </g>
    </g>
</svg>