<?xml version="1.0" encoding="UTF-8"?>
<svg width="37px" height="37px" viewBox="0 0 37 37" version="1.1" xmlns="http://www.w3.org/2000/svg" xmlns:xlink="http://www.w3.org/1999/xlink">
    <!-- Generator: sketchtool 47.1 (45422) - http://www.bohemiancoding.com/sketch -->
    <title>B024F2D0-041D-4E09-8097-EFF9DC06512D</title>
    <desc>Created with sketchtool.</desc>
    <defs></defs>
    <g id="Page-1" stroke="none" stroke-width="1" fill="none" fill-rule="evenodd">
        <g id="Cart-step-2" transform="translate(-115.000000, -954.000000)">
            <g id="Group-33" transform="translate(65.000000, 926.000000)">
                <g id="Group-23">
                    <g id="Group-4" transform="translate(51.432934, 29.432934)">
                        <circle id="Oval-21" stroke="#3F76E0" cx="17.0670658" cy="17.0670658" r="17.0670658"></circle>
                        <path d="M22.8414838,7.48898085 L10.8222219,7.48898085 C10.1875586,7.48898085 9.67246379,8.03118204 9.67246379,8.69414611 L9.67246379,26.6054158 C9.67246379,27.2706637 10.1897374,27.810581 10.8222219,27.810581 L22.8414838,27.810581 C23.4761472,27.810581 23.991242,27.2683542 23.991242,26.6054158 L23.991242,8.69414611 C23.9912664,8.03118204 23.4761472,7.48898085 22.8414838,7.48898085 Z M23.1240515,26.6076996 C23.1240515,26.7808376 23.0066863,26.9038587 22.8415083,26.9038587 L10.8222219,26.9038587 C10.657044,26.9038587 10.5396787,26.7808376 10.5396787,26.6076996 L10.5396787,8.69414611 C10.5396787,8.52100818 10.657044,8.39798709 10.8222219,8.39798709 L22.8414838,8.39798709 C23.0066618,8.39798709 23.124027,8.52100818 23.124027,8.69414611 L23.124027,26.6076996 L23.1240515,26.6076996 Z M21.1287936,21.7596578 C21.1287936,22.0057 20.9418759,22.2016253 20.7071455,22.2016253 L15.3060927,22.2016253 C15.0713622,22.2016253 14.8844445,22.0057 14.8844445,21.7596578 C14.8844445,21.5136156 15.0713622,21.3176903 15.3060927,21.3176903 L20.7049666,21.3176903 C20.9179818,21.2926447 21.1287936,21.5136156 21.1287936,21.7596578 Z M21.1287936,24.4912443 C21.1287936,24.7372864 20.9418759,24.9332118 20.7071455,24.9332118 L15.3060927,24.9332118 C15.0713622,24.9332118 14.8844445,24.7372864 14.8844445,24.4912443 C14.8844445,24.2452021 15.0713622,24.0492768 15.3060927,24.0492768 L20.7049666,24.0492768 C20.9179818,24.0242055 21.1287936,24.2452021 21.1287936,24.4912443 Z M21.1287936,19.0531682 C21.1287936,19.2992104 20.9418759,19.4951357 20.7071455,19.4951357 L15.3060927,19.4951357 C15.0713622,19.4951357 14.8844445,19.2992104 14.8844445,19.0531682 C14.8844445,18.8071261 15.0713622,18.6112007 15.3060927,18.6112007 L20.7049666,18.6112007 C20.9179818,18.6111751 21.1287936,18.8071261 21.1287936,19.0531682 Z M21.1287936,16.3716986 C21.1287936,16.6177408 20.9418759,16.8136661 20.7071455,16.8136661 L15.3060927,16.8136661 C15.0713622,16.8136661 14.8844445,16.6177408 14.8844445,16.3716986 C14.8844445,16.1256564 15.0713622,15.9297311 15.3060927,15.9297311 L20.7049666,15.9297311 C20.9179818,15.9297311 21.1287936,16.1256564 21.1287936,16.3716986 Z M14.8605259,13.6902546 C14.8605259,13.4442125 15.0474436,13.2482872 15.2821741,13.2482872 L20.6332597,13.2482872 C20.8679902,13.2482872 21.0549079,13.4442125 21.0549079,13.6902546 C21.0549079,13.9362968 20.8679902,14.1322221 20.6332597,14.1322221 L15.2843529,14.1322221 C15.0496225,14.1322221 14.8605259,13.9362968 14.8605259,13.6902546 Z M14.8605259,10.9837394 C14.8605259,10.7376973 15.0474436,10.5417719 15.2821741,10.5417719 L20.6332597,10.5417719 C20.8679902,10.5417719 21.0549079,10.7376973 21.0549079,10.9837394 C21.0549079,11.2297816 20.8679902,11.4257069 20.6332597,11.4257069 L15.2843529,11.4257069 C15.0496225,11.4507782 14.8605259,11.2298073 14.8605259,10.9837394 Z M13.3108348,10.9837394 C13.3108348,11.2548529 13.0999985,11.4758238 12.8413739,11.4758238 C12.5827248,11.4758238 12.371913,11.2548272 12.371913,10.9837394 C12.371913,10.712626 12.5827493,10.4916551 12.8413739,10.4916551 C13.100023,10.4916551 13.3108348,10.7126517 13.3108348,10.9837394 Z M13.3108348,13.6902546 C13.3108348,13.9613681 13.0999985,14.182339 12.8413739,14.182339 C12.5827248,14.182339 12.371913,13.9613424 12.371913,13.6902546 C12.371913,13.4191669 12.5827493,13.1981703 12.8413739,13.1981703 C13.100023,13.173099 13.3108348,13.3940956 13.3108348,13.6902546 Z M13.3108348,16.3215818 C13.3108348,16.5926952 13.0999985,16.8136661 12.8413739,16.8136661 C12.5827248,16.8136661 12.371913,16.5926695 12.371913,16.3215818 C12.371913,16.050494 12.5827493,15.8294974 12.8413739,15.8294974 C13.100023,15.80671 13.3108348,16.0277066 13.3108348,16.3215818 Z M13.3108348,19.0053096 C13.3108348,19.276423 13.0999985,19.4973939 12.8413739,19.4973939 C12.5827248,19.4973939 12.371913,19.2763974 12.371913,19.0053096 C12.371913,18.7341962 12.5827493,18.5132252 12.8413739,18.5132252 C13.100023,18.5132252 13.3108348,18.7342218 13.3108348,19.0053096 Z M13.3108348,21.784729 C13.3108348,22.0558425 13.0999985,22.2768134 12.8413739,22.2768134 C12.5827248,22.2768134 12.371913,22.0558168 12.371913,21.784729 C12.371913,21.5136156 12.5827493,21.2926447 12.8413739,21.2926447 C13.100023,21.2926447 13.3108348,21.5136156 13.3108348,21.784729 Z M13.3108348,24.4912443 C13.3108348,24.7623577 13.0999985,24.9833286 12.8413739,24.9833286 C12.5827248,24.9833286 12.371913,24.762332 12.371913,24.4912443 C12.371913,24.2201308 12.5827493,23.9991599 12.8413739,23.9991599 C13.100023,23.9740887 13.3108348,24.2201308 13.3108348,24.4912443 Z" id="Shape-Copy" fill="#3F76E0" fill-rule="nonzero"></path>
                    </g>
                </g>
            </g>
        </g>
    </g>
</svg>