<?xml version="1.0" encoding="UTF-8"?>
<svg width="16px" height="20px" viewBox="0 0 16 20" version="1.1" xmlns="http://www.w3.org/2000/svg" xmlns:xlink="http://www.w3.org/1999/xlink">
    <!-- Generator: sketchtool 47.1 (45422) - http://www.bohemiancoding.com/sketch -->
    <title>EC26B276-9045-494F-99C6-97E97912121E</title>
    <desc>Created with sketchtool.</desc>
    <defs></defs>
    <g id="Page-1" stroke="none" stroke-width="1" fill="none" fill-rule="evenodd">
        <g id="Loggin-Copy" transform="translate(-324.000000, -21.000000)" fill-rule="nonzero" fill="#287FDE">
            <g id="arrows-(7)" transform="translate(332.000000, 31.000000) rotate(-90.000000) translate(-332.000000, -31.000000) translate(322.500000, 23.500000)">
                <path d="M18.8284163,7.15423814 L10.8209174,0.150402196 C10.7066286,0.0502744476 10.5748264,0 10.4258718,0 C10.2770977,0 10.145476,0.0502744476 10.0309464,0.150402196 L9.17170404,0.901886739 C9.0571745,1.00206713 9,1.1171456 9,1.24759595 C9,1.3780463 9.0571745,1.49312477 9.17170404,1.59330516 L15.9247343,7.50010529 L9.17176422,13.4070633 C9.05723468,13.5072437 9.00006018,13.6225328 9.00006018,13.7526146 C9.00006018,13.8830123 9.05723468,13.9983014 9.17176422,14.0984818 L10.0310066,14.8497557 C10.145476,14.9500414 10.2770977,15 10.4259319,15 C10.5750671,15 10.7066888,14.9499361 10.8209174,14.8497557 L18.8284163,7.84586714 C18.9428857,7.74573939 19,7.6303977 19,7.50015793 C19,7.36991816 18.9428857,7.25462911 18.8284163,7.15423814 Z" id="Shape"></path>
                <path d="M10,7.50015793 C10,7.36991816 9.94300743,7.25457647 9.82805936,7.15423814 L1.82129488,0.150402196 C1.70682828,0.0502744476 1.57502919,0 1.42613835,0 C1.27724751,0 1.14538824,0.0502744476 1.03092163,0.150402196 L0.171880454,0.901939383 C0.0571731202,1.00211977 0,1.11719825 0,1.24764859 C0,1.37809894 0.0571731202,1.49317742 0.171880454,1.59335781 L6.92456759,7.50015793 L0.171880454,13.4070633 C0.0571731202,13.5072437 0,13.6225328 0,13.7526146 C0,13.8830123 0.0571731202,13.9983014 0.171880454,14.0984818 L1.03086145,14.8497557 C1.14538824,14.9500414 1.27718732,15 1.42607816,15 C1.57496901,15 1.70676809,14.9499361 1.82129488,14.8497557 L9.82805936,7.84586714 C9.94300743,7.74573939 10,7.6303977 10,7.50015793 Z" id="Shape"></path>
            </g>
        </g>
    </g>
</svg>