<?xml version="1.0" encoding="UTF-8"?>
<svg width="12px" height="13px" viewBox="0 0 12 13" version="1.1" xmlns="http://www.w3.org/2000/svg" xmlns:xlink="http://www.w3.org/1999/xlink">
    <!-- Generator: sketchtool 47.1 (45422) - http://www.bohemiancoding.com/sketch -->
    <title>BEB1A351-63B6-4890-B12C-F26F0DB3F1AB</title>
    <desc>Created with sketchtool.</desc>
    <defs></defs>
    <g id="Page-1" stroke="none" stroke-width="1" fill="none" fill-rule="evenodd">
        <g id="Cities-view" transform="translate(-330.000000, -232.000000)" fill="#3F76DF">
            <g id="Group" transform="translate(320.000000, 219.000000)">
                <g id="Group-8" transform="translate(10.000000, 13.000000)">
                    <path d="M7.19740444,6.17097047 C7.19740444,6.27814885 7.15618261,6.37295908 7.0737377,6.45540398 L1.31086748,12.2182742 C1.22842257,12.3007191 1.13361235,12.3419409 1.02643397,12.3419409 C0.919255587,12.3419409 0.824445365,12.3007191 0.742000458,12.2182742 L0.123666743,11.5999405 C0.0412218354,11.5174956 0,11.4226854 0,11.315507 C0,11.2083286 0.0412218354,11.1135184 0.123666743,11.0310735 L4.98376974,6.17097047 L0.123666743,1.31086748 C0.0412218354,1.22842257 0,1.13361235 0,1.02643397 C0,0.919255587 0.0412218354,0.824445365 0.123666743,0.742000458 L0.742000458,0.123666743 C0.824445365,0.0412218354 0.919255587,0 1.02643397,0 C1.13361235,0 1.22842257,0.0412218354 1.31086748,0.123666743 L7.0737377,5.88653697 C7.15618261,5.96898187 7.19740444,6.06379209 7.19740444,6.17097047 Z" id="-copy-3" transform="translate(3.598702, 6.170970) scale(-1, 1) rotate(-180.000000) translate(-3.598702, -6.170970) "></path>
                    <path d="M11.1974044,6.17097047 C11.1974044,6.27814885 11.1561826,6.37295908 11.0737377,6.45540398 L5.31086748,12.2182742 C5.22842257,12.3007191 5.13361235,12.3419409 5.02643397,12.3419409 C4.91925559,12.3419409 4.82444537,12.3007191 4.74200046,12.2182742 L4.12366674,11.5999405 C4.04122184,11.5174956 4,11.4226854 4,11.315507 C4,11.2083286 4.04122184,11.1135184 4.12366674,11.0310735 L8.98376974,6.17097047 L4.12366674,1.31086748 C4.04122184,1.22842257 4,1.13361235 4,1.02643397 C4,0.919255587 4.04122184,0.824445365 4.12366674,0.742000458 L4.74200046,0.123666743 C4.82444537,0.0412218354 4.91925559,0 5.02643397,0 C5.13361235,0 5.22842257,0.0412218354 5.31086748,0.123666743 L11.0737377,5.88653697 C11.1561826,5.96898187 11.1974044,6.06379209 11.1974044,6.17097047 Z" id="-copy-6" transform="translate(7.598702, 6.170970) scale(-1, 1) rotate(-180.000000) translate(-7.598702, -6.170970) "></path>
                </g>
            </g>
        </g>
    </g>
</svg>