<?xml version="1.0" encoding="UTF-8"?>
<svg width="16px" height="16px" viewBox="0 0 16 16" version="1.1" xmlns="http://www.w3.org/2000/svg" xmlns:xlink="http://www.w3.org/1999/xlink">
    <!-- Generator: sketchtool 45.2 (43514) - http://www.bohemiancoding.com/sketch -->
    <title>831FFD46-3F9C-4995-9055-0169909F2875</title>
    <desc>Created with sketchtool.</desc>
    <defs></defs>
    <g id="Page-1" stroke="none" stroke-width="1" fill="none" fill-rule="evenodd">
        <g id="Detail-view-2" transform="translate(-56.000000, -334.000000)" fill-rule="nonzero" fill="#EE4C40">
            <g id="Group-20" transform="translate(14.000000, 264.000000)">
                <g id="Group-18" transform="translate(17.266015, 70.000000)">
                    <g id="allergens-eggs" transform="translate(25.419069, 0.000000)">
                        <path d="M7.6231742,0 C3.41973613,0 0,3.39738491 0,7.57334953 C0,11.7493141 3.41973613,15.1466991 7.6231742,15.1466991 C11.8266664,15.1466991 15.2464026,11.7493141 15.2464026,7.57334953 C15.2464026,3.39738491 11.8266664,0 7.6231742,0 Z M6.59263187,10.3925993 C6.57775969,10.4030548 6.56344284,10.4143985 6.54836748,10.4245176 C6.54517091,10.4268455 6.54219105,10.4294964 6.53898093,10.4318109 C6.53880485,10.4315687 6.53864231,10.431313 6.53847978,10.4310708 C6.11924122,10.7092253 5.6209146,10.8553469 5.08563778,10.8553469 C4.54134012,10.8553469 4.03514397,10.704408 3.61157108,10.4170224 C2.92228992,9.90826783 2.51983337,9.00303772 2.51983337,7.83647341 C2.51983337,5.92527956 3.79526562,4.11895041 4.75564589,3.75318211 C4.86672677,3.7221385 4.97714396,3.70507595 5.08563778,3.70507595 C5.17977412,3.70507595 5.27657878,3.72016043 5.37468374,3.74649435 C5.74220826,3.88563216 6.22841229,4.2674807 6.68951781,4.93621689 C7.29185492,5.80989205 7.6514151,6.89406363 7.6514151,7.83645995 C7.65142864,8.98441424 7.26186674,9.87952524 6.59263187,10.3925993 Z M10.3399083,10.9814591 C9.22794818,11.597662 8.18372561,11.6042152 7.3932919,11.1838145 C7.3932919,11.1838145 7.39331899,11.1837875 7.39331899,11.1837875 C7.44577799,11.139476 7.49682833,11.0933883 7.54671382,11.0458339 C7.55045218,11.0422814 7.55414991,11.0386751 7.55786119,11.0351092 C7.60510544,10.9896674 7.65115775,10.9428396 7.69600457,10.894572 C7.69935013,10.8909791 7.70272279,10.8874401 7.70605481,10.8838339 C7.89692809,10.6766208 8.0655879,10.4441099 8.20931174,10.1886965 C8.21410659,10.1801786 8.21868473,10.171459 8.22342541,10.1628873 C8.25295307,10.1095063 8.28141069,10.0552103 8.30874409,9.99990502 C8.31551649,9.98623345 8.32215344,9.97248114 8.32877684,9.95868847 C8.35378054,9.90666653 8.37776837,9.85382376 8.40082162,9.80018708 C8.40728249,9.78518334 8.41383817,9.77027379 8.42015004,9.75514894 C8.44362318,9.69872681 8.46591791,9.64138965 8.48722388,9.58327202 C8.49157176,9.57144396 8.49621762,9.55985812 8.50047069,9.54796277 C8.55089797,9.4066585 8.59502691,9.26060416 8.63231574,9.1099074 C8.63627082,9.09392135 8.63961639,9.07753162 8.64342247,9.06143792 C8.65703499,9.00385855 8.66994319,8.94583512 8.68160526,8.8869774 C8.68658974,8.86184109 8.69100535,8.83635491 8.69562412,8.81098985 C8.70491585,8.75995022 8.71361161,8.70856073 8.72142696,8.65660608 C8.72572066,8.62809224 8.72974346,8.5994573 8.73357664,8.57067434 C8.7403355,8.5199173 8.74625457,8.46868928 8.75160477,8.41712486 C8.75462526,8.3880055 8.75776765,8.35899378 8.76032762,8.32961875 C8.76513602,8.27447496 8.76873893,8.21869872 8.77192196,8.16268028 C8.77339834,8.13679041 8.77538943,8.11119659 8.7765001,8.08511834 C8.78002175,8.00306202 8.78217537,7.92029251 8.78217537,7.83645995 C8.78217537,7.76631242 8.78044164,7.69594959 8.77747533,7.62547911 C8.77725861,7.6201908 8.77715025,7.61490249 8.77690645,7.60961417 C8.77385887,7.54219827 8.76928073,7.47467471 8.76360546,7.40709733 C8.76291467,7.39892937 8.76234579,7.39077487 8.76162792,7.38260692 C8.75579011,7.31668466 8.74859782,7.25072203 8.74034904,7.1847594 C8.73914355,7.17516508 8.73800579,7.16558422 8.73674612,7.15597644 C8.72823999,7.09071354 8.71854192,7.025491 8.70776026,6.96032229 C8.70612134,6.95037811 8.70445533,6.94046084 8.70276223,6.93051666 C8.69162841,6.86526721 8.679411,6.80011196 8.66606937,6.73506435 C8.66415956,6.72573916 8.66216847,6.71642742 8.66021802,6.70710223 C8.64638878,6.64122034 8.63155723,6.57545955 8.61554728,6.50990061 C8.61366456,6.50219017 8.61167347,6.49449318 8.60976365,6.48678274 C8.59306292,6.41948794 8.5754005,6.35238153 8.55647842,6.28557115 C8.55512394,6.28078072 8.55367465,6.27603066 8.55230663,6.27124023 C8.53239577,6.20148293 8.51146906,6.13199476 8.48924205,6.06289682 C10.1092404,5.51964034 12.0479207,5.83267352 12.5561892,6.73791708 C13.1112143,7.72642804 12.0484625,10.0346491 10.3399083,10.9814591 Z" id="Shape"></path>
                    </g>
                </g>
            </g>
        </g>
    </g>
</svg>