<?xml version="1.0" encoding="UTF-8"?>
<svg width="23px" height="11px" viewBox="0 0 23 11" version="1.1" xmlns="http://www.w3.org/2000/svg" xmlns:xlink="http://www.w3.org/1999/xlink">
    <!-- Generator: sketchtool 45.2 (43514) - http://www.bohemiancoding.com/sketch -->
    <title>85B2D829-8B18-4A14-83AE-FDF2DB584A78</title>
    <desc>Created with sketchtool.</desc>
    <defs></defs>
    <g id="Page-1" stroke="none" stroke-width="1" fill="none" fill-rule="evenodd">
        <g id="Detail-view" transform="translate(-265.000000, -218.000000)" fill-rule="nonzero" fill="#FFFFFF">
            <g id="Group-34" transform="translate(16.000000, 171.000000)">
                <g id="Group-26" transform="translate(245.000000, 39.000000)">
                    <g id="Group-44" transform="translate(4.000000, 8.000000)">
                        <g id="002-car">
                            <path d="M22.9935116,7.40881475 L22.7567106,5.11331483 C22.6424896,4.0057974 22.0101805,3.02252192 21.0429378,2.42279476 C21.2065114,2.30677789 21.2989187,2.11164876 21.2655399,1.90726642 C21.2173323,1.61186711 20.9251098,1.40916226 20.6123905,1.45499541 L19.2921219,1.64752715 C16.5709142,0.713548019 12.0115217,0.202619227 5.78307136,3.11050859 C5.185458,3.38945775 4.54450365,3.57208692 3.87795693,3.65320133 C2.48325858,3.82289766 1.48424004,4.3476251 0.908783842,5.21282743 C-0.0317787396,6.62694543 0.572247023,8.39452528 0.598411931,8.4690921 C0.676105102,8.6904116 0.895100225,8.8398158 1.1418061,8.8398158 L3.04308454,8.8398158 C3.29648909,9.7403535 4.16634345,10.4059354 5.19782479,10.4059354 C6.22930613,10.4059354 7.09916048,9.7403535 7.35256503,8.8398158 L17.1776882,8.8398158 C17.4310927,9.7403535 18.3009471,10.4059354 19.3324284,10.4059354 C20.3639098,10.4059354 21.2337641,9.7403535 21.4871687,8.8398158 L21.6199398,8.8398158 C22.0084629,8.8398158 22.3810123,8.6838099 22.6420888,8.41189535 C22.9031654,8.13981846 23.0312417,7.77428955 22.9935116,7.40881475 Z M20.4169839,8.2986382 C20.4169839,8.86384168 19.9304425,9.3236343 19.3324284,9.3236343 C18.7344143,9.3236343 18.247873,8.86384168 18.247873,8.2986382 C18.247873,7.73343473 18.7344143,7.27358799 19.3324284,7.27358799 C19.9304425,7.27358799 20.4169839,7.73343473 20.4169839,8.2986382 Z M6.28243749,8.2986382 C6.28243749,8.86384168 5.79589617,9.3236343 5.19788204,9.3236343 C4.59986791,9.3236343 4.11332659,8.86384168 4.11332659,8.2986382 C4.11332659,7.73343473 4.59986791,7.27358799 5.19788204,7.27358799 C5.79589617,7.27358799 6.28243749,7.73343473 6.28243749,8.2986382 Z M21.4872259,7.75751472 C21.2338214,6.85692291 20.363967,6.19134103 19.3324857,6.19134103 C18.3010043,6.19134103 17.43115,6.85697702 17.1777454,7.75751472 L7.35262228,7.75751472 C7.09921773,6.85692291 6.22936338,6.19134103 5.19788204,6.19134103 C4.1664007,6.19134103 3.29654635,6.85697702 3.0431418,7.75751472 L1.59359447,7.75751472 C1.50359177,7.28359878 1.43740658,6.44685954 1.88152296,5.78382093 C2.26695438,5.20833611 2.98783479,4.85260153 4.02418269,4.72651976 C4.81651563,4.63009156 5.57890493,4.41283048 6.29022399,4.080743 C12.1831108,1.3296171 16.4268069,1.80824082 18.9272445,2.67365961 C18.9822652,2.70401664 19.0427823,2.72560746 19.1065629,2.73729573 C19.5218807,2.88902675 19.8858992,3.05011921 20.1975307,3.20617923 C20.9978219,3.60698939 21.5285058,4.35920514 21.6171344,5.21829278 L21.8539354,7.51384682 C21.8626952,7.59901965 21.820213,7.65740688 21.7941053,7.68462539 C21.7679404,7.7118439 21.7106296,7.75751472 21.6199971,7.75751472 L21.4872259,7.75751472 Z" id="Shape"></path>
                        </g>
                    </g>
                </g>
            </g>
        </g>
    </g>
</svg>