<?xml version="1.0" encoding="UTF-8"?>
<svg width="35px" height="16px" viewBox="0 0 35 16" version="1.1" xmlns="http://www.w3.org/2000/svg" xmlns:xlink="http://www.w3.org/1999/xlink">
    <!-- Generator: sketchtool 45.2 (43514) - http://www.bohemiancoding.com/sketch -->
    <title>32ABEA70-EEEF-41EA-853F-6A8045B52A23</title>
    <desc>Created with sketchtool.</desc>
    <defs></defs>
    <g id="Page-1" stroke="none" stroke-width="1" fill="none" fill-rule="evenodd">
        <g id="Cities-view" transform="translate(-34.000000, -100.000000)" stroke="#FFFFFF" fill-rule="nonzero" stroke-width="0.5" fill="#FC6A03">
            <g id="Group-32" transform="translate(16.000000, 87.000000)">
                <g id="Group-31" transform="translate(7.000000, 14.000000)">
                    <path d="M44.9091899,9.81960134 L44.5645232,6.34823891 C44.3982732,4.67339921 43.4779399,3.186444 42.0701066,2.27950852 C42.3081899,2.10406238 42.4426899,1.80897898 42.3941066,1.49990244 C42.3239399,1.05318577 41.8986066,0.746646001 41.4434399,0.815957049 L39.5217732,1.10711255 C35.5610232,-0.305294408 28.9247732,-1.07794484 19.8591899,3.31950157 C18.9893566,3.74134154 18.0564399,4.01752193 17.0862732,4.14018694 C15.0562732,4.39680966 13.6021899,5.19032706 12.7646066,6.49872653 C11.3956066,8.63722196 12.2747732,11.310239 12.3128566,11.4230024 C12.4259399,11.7576921 12.7446899,11.9836281 13.1037732,11.9836281 L15.8711066,11.9836281 C16.2399399,13.3454634 17.5060232,14.3519875 19.0073566,14.3519875 C20.5086899,14.3519875 21.7747732,13.3454634 22.1436066,11.9836281 L36.4441899,11.9836281 C36.8130232,13.3454634 38.0791066,14.3519875 39.5804399,14.3519875 C41.0817732,14.3519875 42.3478566,13.3454634 42.7166899,11.9836281 L42.9099399,11.9836281 C43.4754399,11.9836281 44.0176899,11.7477087 44.3976899,11.3365068 C44.7776899,10.9250594 44.9641066,10.3722894 44.9091899,9.81960134 Z M41.1590232,11.165234 C41.1590232,12.0199612 40.4508566,12.7152811 39.5804399,12.7152811 C38.7100232,12.7152811 38.0018566,12.0199612 38.0018566,11.165234 C38.0018566,10.3105069 38.7100232,9.61510511 39.5804399,9.61510511 C40.4508566,9.61510511 41.1590232,10.3105069 41.1590232,11.165234 Z M20.5860232,11.165234 C20.5860232,12.0199612 19.8778566,12.7152811 19.0074399,12.7152811 C18.1370232,12.7152811 17.4288566,12.0199612 17.4288566,11.165234 C17.4288566,10.3105069 18.1370232,9.61510511 19.0074399,9.61510511 C19.8778566,9.61510511 20.5860232,10.3105069 20.5860232,11.165234 Z M42.7167732,10.3469218 C42.3479399,8.98500467 41.0818566,7.97848059 39.5805232,7.97848059 C38.0791899,7.97848059 36.8131066,8.9850865 36.4442732,10.3469218 L22.1436899,10.3469218 C21.7748566,8.98500467 20.5087732,7.97848059 19.0074399,7.97848059 C17.5061066,7.97848059 16.2400232,8.9850865 15.8711899,10.3469218 L13.7613566,10.3469218 C13.6303566,9.63024388 13.5340232,8.36488764 14.1804399,7.36220963 C14.7414399,6.49193454 15.7906899,5.95397606 17.2991066,5.7633093 C18.4523566,5.61748606 19.5620232,5.28893369 20.5973566,4.78673545 C29.1745232,0.626354099 35.3512732,1.35015129 38.9906899,2.65887809 C39.0707732,2.70478541 39.1588566,2.73743606 39.2516899,2.75511161 C39.8561899,2.98456637 40.3860232,3.22817793 40.8396066,3.46417918 C42.0044399,4.07030307 42.7768566,5.20783894 42.9058566,6.50699149 L43.2505232,9.97843575 C43.2632732,10.1072381 43.2014399,10.195534 43.1634399,10.2366951 C43.1253566,10.2778562 43.0419399,10.3469218 42.9100232,10.3469218 L42.7167732,10.3469218 Z" id="Shape" transform="translate(28.459317, 7.175994) scale(-1, 1) translate(-28.459317, -7.175994) "></path>
                </g>
            </g>
        </g>
    </g>
</svg>