<?xml version="1.0" encoding="UTF-8"?>
<svg width="18px" height="18px" viewBox="0 0 18 18" version="1.1" xmlns="http://www.w3.org/2000/svg" xmlns:xlink="http://www.w3.org/1999/xlink">
    <!-- Generator: sketchtool 45.2 (43514) - http://www.bohemiancoding.com/sketch -->
    <title>54643EF6-829D-45A7-99A0-4728C77CE614</title>
    <desc>Created with sketchtool.</desc>
    <defs></defs>
    <g id="Page-1" stroke="none" stroke-width="1" fill="none" fill-rule="evenodd">
        <g id="Detail-view-2" transform="translate(-272.000000, -269.000000)">
            <g id="Group-20" transform="translate(14.000000, 264.000000)">
                <g id="Group-36" transform="translate(195.000000, 4.000000)">
                    <g id="Group-8" transform="translate(63.051378, 1.000000)">
                        <g id="Group-10">
                            <g id="Group-12" fill-rule="nonzero" fill="#FFBD4F">
                                <path d="M8.27149329,1.2230159 C8.38768619,0.986272462 8.62697453,0.836180215 8.88850442,0.836180215 C9.15003431,0.836180215 9.38970613,0.986272462 9.50551556,1.2230159 L11.7185493,5.74705927 C11.8186362,5.95169535 12.0126745,6.09366405 12.2370074,6.12654508 L17.1861346,6.851862 C17.4457471,6.8897719 17.660493,7.07313201 17.7414062,7.32418838 C17.8223195,7.57524474 17.7548279,7.85144542 17.5673086,8.03557921 L13.9864199,11.5573313 C13.82421,11.7167076 13.7501994,11.946488 13.7881634,12.1716264 L14.6333421,17.1443992 C14.6770582,17.4051264 14.5716026,17.6681747 14.3591575,17.8236826 C14.1470959,17.9784169 13.8667757,17.9989192 13.6343899,17.8766791 L9.20755555,15.5285865 C9.00738165,15.4222067 8.76770983,15.4222067 8.56715245,15.5285865 L4.14031806,17.8762923 C3.90869921,17.9989192 3.6276121,17.9788037 3.41555048,17.8236826 C3.20348885,17.6685615 3.09764978,17.4051264 3.14174939,17.1443992 L3.9869281,12.1716264 C4.02527559,11.946488 3.95088145,11.7167076 3.78867157,11.5573313 L0.207782837,8.03557921 C0.0202636049,7.85105858 -0.0472279796,7.57524474 0.0336852269,7.32418838 C0.114598433,7.07313201 0.329727859,6.8897719 0.589340375,6.851862 L5.53923454,6.12654508 C5.76318389,6.09366405 5.9572222,5.95169535 6.05730915,5.74667244 L8.27149329,1.2230159 Z" id="Shape"></path>
                            </g>
                            <path d="M6.21608146,11.7741136 C6.33090104,11.7741136 6.43026265,11.7561963 6.51416927,11.7203612 C6.59807589,11.6845261 6.66707701,11.6358134 6.7211747,11.5742218 C6.77527239,11.5126302 6.81501703,11.4398412 6.84040983,11.3558527 C6.86580262,11.2718641 6.87849883,11.1817177 6.87849883,11.0854108 C6.87849883,10.9801452 6.86745865,10.8838397 6.84537796,10.7964916 C6.82329727,10.7091435 6.78686468,10.6346748 6.73607909,10.5730832 C6.68529351,10.5114916 6.6173964,10.4633389 6.53238575,10.4286236 C6.4473751,10.3939083 6.34194138,10.3765509 6.21608146,10.3765509 C6.09022153,10.3765509 5.98478782,10.3939083 5.89977716,10.4286236 C5.81476651,10.4633389 5.74686941,10.5114916 5.69608382,10.5730832 C5.64529823,10.6346748 5.60886564,10.7091435 5.58678495,10.7964916 C5.56470426,10.8838397 5.55366408,10.9801452 5.55366408,11.0854108 C5.55366408,11.1817177 5.56636029,11.2718641 5.59175308,11.3558527 C5.61714588,11.4398412 5.65689052,11.5126302 5.71098821,11.5742218 C5.7650859,11.6358134 5.83353501,11.6845261 5.9163376,11.7203612 C5.99914018,11.7561963 6.0990538,11.7741136 6.21608146,11.7741136 Z M6.21608146,8.31716175 C6.11230221,8.31716175 6.0250848,8.33395921 5.95442659,8.36755464 C5.88376839,8.40115006 5.82580745,8.44538337 5.78054203,8.5002559 C5.73527662,8.55512842 5.70270809,8.61839886 5.68283547,8.69006909 C5.66296285,8.76173933 5.65302669,8.83564816 5.65302669,8.91179778 C5.65302669,8.99690619 5.66075482,9.07977366 5.6762113,9.16040268 C5.69166778,9.2410317 5.72037225,9.31270086 5.76232556,9.37541232 C5.80427887,9.43812377 5.8616878,9.48851615 5.93455407,9.52659097 C6.00742035,9.56466578 6.10126187,9.5837029 6.21608146,9.5837029 C6.33090104,9.5837029 6.42474256,9.56466578 6.49760884,9.52659097 C6.57047511,9.48851615 6.62788404,9.43812377 6.66983735,9.37541232 C6.71179066,9.31270086 6.74049513,9.2410317 6.75595161,9.16040268 C6.77140809,9.07977366 6.77913622,8.99690619 6.77913622,8.91179778 C6.77913622,8.83564816 6.76920006,8.76173933 6.74932744,8.69006909 C6.72945482,8.61839886 6.69688629,8.55512842 6.65162088,8.5002559 C6.60635546,8.44538337 6.54784251,8.40115006 6.47608027,8.36755464 C6.40431803,8.33395921 6.31765263,8.31716175 6.21608146,8.31716175 Z M7.12690534,9.95325072 C7.27042982,10.0047637 7.39352782,10.068594 7.49620302,10.1447437 C7.59887823,10.2208933 7.68278359,10.3082401 7.74792162,10.4067867 C7.81305966,10.5053333 7.86108444,10.6133969 7.8919974,10.7309809 C7.92291037,10.8485649 7.93836662,10.973426 7.93836662,11.105568 C7.93836662,11.3250581 7.89696595,11.524388 7.81416336,11.7035636 C7.73136078,11.8827391 7.61433488,12.035596 7.46308215,12.1621388 C7.31182943,12.2886816 7.13021849,12.3866667 6.91824387,12.4560973 C6.70626925,12.5255278 6.47221745,12.5602426 6.21608146,12.5602426 C5.95994546,12.5602426 5.72589366,12.5255278 5.51391904,12.4560973 C5.30194442,12.3866667 5.12033348,12.2886816 4.96908076,12.1621388 C4.81782803,12.035596 4.70080213,11.8827391 4.61799955,11.7035636 C4.53519696,11.524388 4.49379629,11.3250581 4.49379629,11.105568 C4.49379629,10.973426 4.50925254,10.8485649 4.54016551,10.7309809 C4.57107847,10.6133969 4.61910325,10.5053333 4.68424129,10.4067867 C4.74937932,10.3082401 4.83328468,10.2208933 4.93595989,10.1447437 C5.03863509,10.068594 5.16173309,10.0047637 5.30525757,9.95325072 C5.08665875,9.85246445 4.92326409,9.71304553 4.81506872,9.53498978 C4.70687334,9.35693403 4.65277646,9.14248646 4.65277646,8.89164063 C4.65277646,8.70126656 4.69141709,8.52489323 4.7686995,8.36251535 C4.84598191,8.20013747 4.95417567,8.05959872 5.09328401,7.94089489 C5.23239236,7.82219106 5.39744303,7.72868519 5.588441,7.6603745 C5.77943896,7.5920638 5.98865035,7.55790897 6.21608146,7.55790897 C6.44351256,7.55790897 6.65272395,7.5920638 6.84372191,7.6603745 C7.03471988,7.72868519 7.19977055,7.82219106 7.3388789,7.94089489 C7.47798724,8.05959872 7.586181,8.20013747 7.66346341,8.36251535 C7.74074582,8.52489323 7.77938645,8.70126656 7.77938645,8.89164063 C7.77938645,9.14248646 7.72528957,9.35693403 7.61709419,9.53498978 C7.50889882,9.71304553 7.34550416,9.85246445 7.12690534,9.95325072 Z M8.33861957,13.336293 C8.29004205,13.2959785 8.26575366,13.2467059 8.26575366,13.1884739 C8.26575366,13.1660769 8.27348178,13.1420006 8.28893827,13.1162441 C8.30439475,13.0904876 8.32316305,13.067531 8.34524374,13.0473738 C8.37174057,13.0204975 8.40265307,12.9874624 8.43798217,12.9482678 C8.47331128,12.9090731 8.50863985,12.8659596 8.54396895,12.8189261 C8.57929806,12.7718925 8.61186659,12.7203802 8.64167552,12.6643879 C8.67148445,12.6083955 8.69411681,12.5490445 8.7095733,12.486333 C8.63449895,12.4796139 8.56604984,12.4605768 8.50422391,12.4292211 C8.44239798,12.3978654 8.38940512,12.3569915 8.34524374,12.3065984 C8.30108236,12.2562053 8.26685781,12.1979741 8.24256905,12.1319031 C8.21828029,12.0658321 8.2061361,11.993603 8.2061361,11.9152137 C8.2061361,11.8435434 8.21938431,11.7769135 8.24588114,11.7153219 C8.27237796,11.6537303 8.31046658,11.5999784 8.36014813,11.5540647 C8.40982969,11.5081509 8.46834263,11.4717564 8.53568874,11.4448801 C8.60303484,11.4180037 8.67866007,11.4045658 8.76256669,11.4045658 C8.86192979,11.4045658 8.94804319,11.4219232 9.02090946,11.4566384 C9.09377574,11.4913537 9.15449672,11.5383866 9.20307424,11.5977385 C9.25165175,11.6570904 9.28753234,11.7254001 9.31071706,11.8026696 C9.33390178,11.879939 9.34549397,11.9611268 9.34549397,12.0462352 C9.34549397,12.1582199 9.32782969,12.2774819 9.29250058,12.4040246 C9.25717148,12.5305674 9.20473063,12.6576682 9.13517646,12.7853308 C9.06562229,12.9129934 8.97895688,13.0384144 8.87517764,13.1615977 C8.7713984,13.2847809 8.65216446,13.396764 8.51747226,13.4975502 L8.33861957,13.336293 Z M10.891729,9.33509801 C10.9822598,9.31718045 11.0694772,9.30486231 11.1533838,9.29814323 C11.2372905,9.29142414 11.3189878,9.28806465 11.3984783,9.28806465 C11.6524062,9.28806465 11.8765218,9.32725872 12.0708319,9.40564805 C12.265142,9.48403737 12.4285366,9.5909812 12.5610207,9.72648274 C12.6935049,9.86198428 12.7934185,10.0210002 12.8607646,10.2035354 C12.9281107,10.3860705 12.9617833,10.581481 12.9617833,10.7897726 C12.9617833,11.0518169 12.9159665,11.2909007 12.8243317,11.5070313 C12.7326968,11.7231619 12.6051827,11.9096137 12.4417856,12.0663923 C12.2783885,12.223171 12.0835294,12.3446726 11.8572023,12.4309008 C11.6308752,12.5171291 11.3830232,12.5602426 11.1136388,12.5602426 C10.9568659,12.5602426 10.8072715,12.5434451 10.664851,12.5098497 C10.5224306,12.4762543 10.3888444,12.4309011 10.2640885,12.3737889 C10.1393326,12.3166767 10.0239627,12.2506067 9.91797544,12.1755769 C9.81198813,12.1005471 9.71593857,12.0204792 9.62982388,11.9353708 L9.94778422,11.5053515 C9.98090526,11.4605576 10.0195459,11.4264028 10.0637073,11.402886 C10.1078686,11.3793692 10.1553414,11.367611 10.206127,11.367611 C10.2723691,11.367611 10.3347461,11.3860882 10.3932599,11.4230432 C10.4517737,11.4599981 10.5158068,11.500312 10.5853609,11.5439861 C10.6549151,11.5876601 10.7360604,11.6274141 10.8287993,11.6632492 C10.9215382,11.6990844 11.0363561,11.7170017 11.1732564,11.7170017 C11.3101566,11.7170017 11.4271825,11.6940451 11.5243376,11.6481314 C11.6214926,11.6022176 11.7004299,11.5395071 11.7611518,11.4599979 C11.8218737,11.3804888 11.8660344,11.2875428 11.8936352,11.1811573 C11.9212361,11.0747718 11.9350363,10.961109 11.9350363,10.8401655 C11.9350363,10.6027578 11.8687953,10.4219052 11.7363111,10.2976021 C11.603827,10.173299 11.4161439,10.1111484 11.1732564,10.1111484 C10.9568656,10.1111484 10.7448942,10.1525822 10.5373357,10.2354509 L9.90141501,10.0607555 L10.3121138,7.61166138 L12.7829306,7.61166138 L12.7829306,8.04168065 C12.7829306,8.11335089 12.7718904,8.17830107 12.7498097,8.23653314 C12.727729,8.29476521 12.6929524,8.3457175 12.645479,8.38939155 C12.5980055,8.4330656 12.5356285,8.46666052 12.4583461,8.49017732 C12.3810636,8.51369412 12.2883261,8.52545234 12.1801308,8.52545234 L11.0275245,8.52545234 L10.891729,9.33509801 Z" id="8,5" fill="#7B3B38"></path>
                        </g>
                    </g>
                </g>
            </g>
        </g>
    </g>
</svg>