<?xml version="1.0" encoding="UTF-8"?>
<svg width="23px" height="8px" viewBox="0 0 23 8" version="1.1" xmlns="http://www.w3.org/2000/svg" xmlns:xlink="http://www.w3.org/1999/xlink">
    <!-- Generator: sketchtool 45.2 (43514) - http://www.bohemiancoding.com/sketch -->
    <title>9D11FBD2-B436-454E-B38A-63C9B37EFC19</title>
    <desc>Created with sketchtool.</desc>
    <defs></defs>
    <g id="Page-1" stroke="none" stroke-width="1" fill="none" fill-rule="evenodd">
        <g id="Detail-view-2" transform="translate(-211.000000, -276.000000)" fill-rule="nonzero" fill="#3BD29A">
            <g id="Group-20" transform="translate(14.000000, 264.000000)">
                <g id="Group-36" transform="translate(195.000000, 4.000000)">
                    <g id="Group-8">
                        <g id="Group-7">
                            <path d="M8.71314302,17.4613797 L4.44072201,14.4466844 L6.19669939,18.558128 L5.02641133,19.0683473 L2.33329661,12.7641609 L3.55891636,12.2294715 L7.91198157,15.325985 L6.11312788,11.1160811 L7.28341594,10.6054559 L9.97727683,16.9099902 L8.71314302,17.4613797 Z M11.3094847,16.3290859 L8.61636997,10.0248995 L13.2435681,8.00692659 L13.6987917,9.07363814 L10.3313078,10.5417292 L10.9283619,11.9391353 L14.0616619,10.5728677 L14.5153932,11.6351723 L11.3820932,13.0010919 L12.1151232,14.7168995 L15.6013636,13.1969689 L16.0550949,14.2592735 L11.3094847,16.3290859 Z M21.8580913,11.7300375 L18.6016151,7.55823046 L19.3760291,12.8115935 L18.0096694,13.4073423 L13.8270189,7.75300564 L15.1164078,7.19019294 L17.9073861,11.1105724 L17.1981763,6.28305902 L18.6971828,5.62955613 L21.6721791,9.55625612 L20.7485877,4.73500519 L22.0170838,4.18181818 L23.1946614,11.1472776 L21.8580913,11.7300375 Z" id="Shape" transform="translate(12.763979, 11.625083) rotate(24.000000) translate(-12.763979, -11.625083) "></path>
                        </g>
                    </g>
                </g>
            </g>
        </g>
    </g>
</svg>