<?xml version="1.0" encoding="UTF-8"?>
<svg width="23px" height="20px" viewBox="0 0 23 20" version="1.1" xmlns="http://www.w3.org/2000/svg" xmlns:xlink="http://www.w3.org/1999/xlink">
    <!-- Generator: sketchtool 45.2 (43514) - http://www.bohemiancoding.com/sketch -->
    <title>34D26DB3-A571-4A58-A683-E20CD5AF7613</title>
    <desc>Created with sketchtool.</desc>
    <defs></defs>
    <g id="Symbols" stroke="none" stroke-width="1" fill="none" fill-rule="evenodd">
        <g id="map2color1" transform="translate(-44.000000, -8.000000)" fill-rule="nonzero" stroke="#FFFFFF">
            <g id="Group-6">
                <g id="Group" transform="translate(45.000000, 9.000000)">
                    <path d="M21.1746943,0.703175766 L19.092011,0.0847386931 C18.9724869,0.0492310107 18.8430063,0.0666367374 18.7371192,0.131757363 C18.6312792,0.196877988 18.558989,0.303633112 18.5389346,0.424823385 C18.2226888,2.33615783 17.6404038,3.79178715 17.2578133,4.59927362 C15.9319117,4.13860206 14.4740758,4.37578409 13.2616112,5.88256304 C12.7155185,6.56120072 10.5175107,11.9423088 7.85900693,13.0945679 C4.96055836,14.3508436 2.13841084,13.7361662 0.6125788,13.2052683 C0.434778976,13.1433967 0.236783206,13.2017407 0.122827108,13.349527 C0.00887101086,13.4973132 0.00490732051,13.7008441 0.113484124,13.8524828 C1.05391685,15.1655244 3.10658939,17.2268266 6.99629085,17.8694461 C12.2603076,18.739129 17.192554,15.101657 19.247633,11.7706651 C20.3976223,9.90672063 20.854296,7.73745652 19.4795561,6.13111682 C20.57311,4.47242069 21.236509,2.13527254 21.469659,1.21406865 C21.5254809,0.993456871 21.3960004,0.76889979 21.1746943,0.703175766 Z" id="XMLID_1303_" transform="translate(10.758621, 9.033333) scale(-1, 1) translate(-10.758621, -9.033333) "></path>
                </g>
            </g>
        </g>
    </g>
</svg>