<?xml version="1.0" encoding="UTF-8"?>
<svg width="17px" height="16px" viewBox="0 0 17 16" version="1.1" xmlns="http://www.w3.org/2000/svg" xmlns:xlink="http://www.w3.org/1999/xlink">
    <!-- Generator: sketchtool 45.2 (43514) - http://www.bohemiancoding.com/sketch -->
    <title>B054A880-B18A-47BF-BA9A-5563AE19AA55</title>
    <desc>Created with sketchtool.</desc>
    <defs></defs>
    <g id="Page-1" stroke="none" stroke-width="1" fill="none" fill-rule="evenodd">
        <g id="Detail-view-2" transform="translate(-248.000000, -272.000000)" fill-rule="nonzero" fill="#E9483F">
            <g id="Group-20" transform="translate(14.000000, 264.000000)">
                <g id="Group-36" transform="translate(195.000000, 4.000000)">
                    <g id="Group-8">
                        <g id="Group-19" transform="translate(39.832991, 3.965517)">
                            <g id="002-favorite">
                                <path d="M15.5747121,8.38443706 L14.6522296,6.92234746 L15.1994032,5.28146308 C15.2734933,5.05751196 15.1811843,4.81159289 14.9777402,4.69443045 L13.4850067,3.82974724 L13.210509,2.12112833 C13.1722493,1.88802389 12.9767,1.7141109 12.7422838,1.70434736 L11.0205997,1.63661282 L9.98758931,0.251411068 C9.84669665,0.0622425459 9.59163235,-0.000610221038 9.38090065,0.101296692 L7.82561571,0.844545917 L6.26972346,0.100686471 C6.05838447,-4.16333634e-17 5.80453476,0.0628527669 5.6630348,0.251411068 L4.63002438,1.63661282 L2.90834034,1.70434736 C2.6745314,1.71350068 2.4783748,1.88741367 2.44072245,2.12051811 L2.16622468,3.82913701 L0.673491217,4.69382023 C0.470047071,4.81098266 0.37713079,5.05690174 0.451220896,5.28085286 L0.998394554,6.92173724 L0.0765192906,8.38443706 C-0.0491909725,8.58397934 -0.0170042868,8.84454373 0.152431285,9.00808296 L1.39556611,10.2059469 L1.25588804,11.9304315 C1.23706187,12.1665871 1.38524208,12.3819951 1.61054888,12.447899 L3.26543036,12.9269225 L3.93892158,14.5202096 C4.03123056,14.7368381 4.26261032,14.8625436 4.4921682,14.8125055 L6.18045096,14.4646795 L7.51285829,15.5612467 C7.60334539,15.6350834 7.71448055,15.6735274 7.82561571,15.6735274 C7.93675087,15.6735274 8.04727873,15.6350834 8.13837312,15.5612467 L9.47078045,14.4646795 L11.1590632,14.8125055 C11.3880138,14.8613232 11.6206081,14.7374483 11.7123098,14.5202096 L12.3858011,12.9269225 L14.0406825,12.447899 C14.2659893,12.3826053 14.4141695,12.1665871 14.3953434,11.9304315 L14.2556653,10.2059469 L15.4988001,9.00808296 C15.6682357,8.84454373 15.7004224,8.58397934 15.5747121,8.38443706 Z M11.394694,5.99786258 L7.93857275,11.2006072 C7.80800412,11.3946574 7.60577457,11.5246345 7.40475961,11.5246345 C7.20435194,11.5246345 6.98025973,11.4117436 6.83754518,11.2677315 L4.30026267,8.67734316 C4.12718333,8.50037906 4.12718333,8.21357517 4.30026267,8.03661107 L4.92638481,7.39587898 C5.09946415,7.22135577 5.38064218,7.22135577 5.55250694,7.39587898 L7.20374465,9.08130949 L9.92685972,4.98184456 C10.0635013,4.77497962 10.3410356,4.72250061 10.5426578,4.86224123 L11.2768786,5.36933491 C11.4791082,5.50968575 11.5313356,5.79221809 11.394694,5.99786258 Z" id="Shape"></path>
                            </g>
                        </g>
                    </g>
                </g>
            </g>
        </g>
    </g>
</svg>