<?xml version="1.0" encoding="UTF-8"?>
<svg width="12px" height="17px" viewBox="0 0 12 17" version="1.1" xmlns="http://www.w3.org/2000/svg" xmlns:xlink="http://www.w3.org/1999/xlink">
    <!-- Generator: sketchtool 45.2 (43514) - http://www.bohemiancoding.com/sketch -->
    <title>F4304194-A202-4016-B342-B6264CC4A68E</title>
    <desc>Created with sketchtool.</desc>
    <defs></defs>
    <g id="Page-1" stroke="none" stroke-width="1" fill="none" fill-rule="evenodd">
        <g id="Cart-New" transform="translate(-201.000000, -978.000000)" fill-rule="nonzero" fill="#FA9A5A">
            <g id="Group-29" transform="translate(-4.000000, 707.000000)">
                <g id="Group-36" transform="translate(19.000000, 258.000000)">
                    <g id="Group-25" transform="translate(173.000000, 0.000000)">
                        <g id="paper" transform="translate(13.000000, 11.000000)">
                            <g id="Group-23">
                                <path d="M11.0152833,2 L0.961720137,2 C0.430853242,2 0,2.45352652 0,3.00806566 L0,17.990024 C0,18.5464735 0.432675768,18.9980896 0.961720137,18.9980896 L11.0152833,18.9980896 C11.5461502,18.9980896 11.9770034,18.5445417 11.9770034,17.990024 L11.9770034,3.00806566 C11.9770239,2.45352652 11.5461502,2 11.0152833,2 Z M11.2516382,17.9919343 C11.2516382,18.1367563 11.1534676,18.2396578 11.0153038,18.2396578 L0.961720137,18.2396578 C0.823556314,18.2396578 0.725385666,18.1367563 0.725385666,17.9919343 L0.725385666,3.00806566 C0.725385666,2.86324369 0.823556314,2.76034217 0.961720137,2.76034217 L11.0152833,2.76034217 C11.1534471,2.76034217 11.2516177,2.86324369 11.2516177,3.00806566 L11.2516177,17.9919343 L11.2516382,17.9919343 Z M9.58269625,13.9367689 C9.58269625,14.142572 9.42634812,14.3064545 9.23000683,14.3064545 L4.71227304,14.3064545 C4.51593174,14.3064545 4.35958362,14.142572 4.35958362,13.9367689 C4.35958362,13.7309659 4.51593174,13.5670833 4.71227304,13.5670833 L9.2281843,13.5670833 C9.40636177,13.5461338 9.58269625,13.7309659 9.58269625,13.9367689 Z M9.58269625,16.2216162 C9.58269625,16.4274192 9.42634812,16.5913018 9.23000683,16.5913018 L4.71227304,16.5913018 C4.51593174,16.5913018 4.35958362,16.4274192 4.35958362,16.2216162 C4.35958362,16.0158131 4.51593174,15.8519306 4.71227304,15.8519306 L9.2281843,15.8519306 C9.40636177,15.8309596 9.58269625,16.0158131 9.58269625,16.2216162 Z M9.58269625,11.6729141 C9.58269625,11.8787172 9.42634812,12.0425997 9.23000683,12.0425997 L4.71227304,12.0425997 C4.51593174,12.0425997 4.35958362,11.8787172 4.35958362,11.6729141 C4.35958362,11.4671111 4.51593174,11.3032285 4.71227304,11.3032285 L9.2281843,11.3032285 C9.40636177,11.3032071 9.58269625,11.4671111 9.58269625,11.6729141 Z M9.58269625,9.42998737 C9.58269625,9.6357904 9.42634812,9.79967298 9.23000683,9.79967298 L4.71227304,9.79967298 C4.51593174,9.79967298 4.35958362,9.6357904 4.35958362,9.42998737 C4.35958362,9.22418434 4.51593174,9.06030177 4.71227304,9.06030177 L9.2281843,9.06030177 C9.40636177,9.06030177 9.58269625,9.22418434 9.58269625,9.42998737 Z M4.33957679,7.18708207 C4.33957679,6.98127904 4.49592491,6.81739646 4.69226621,6.81739646 L9.16820478,6.81739646 C9.36454608,6.81739646 9.5208942,6.98127904 9.5208942,7.18708207 C9.5208942,7.3928851 9.36454608,7.55676768 9.16820478,7.55676768 L4.69408874,7.55676768 C4.49774744,7.55676768 4.33957679,7.3928851 4.33957679,7.18708207 Z M4.33957679,4.92320581 C4.33957679,4.71740278 4.49592491,4.5535202 4.69226621,4.5535202 L9.16820478,4.5535202 C9.36454608,4.5535202 9.5208942,4.71740278 9.5208942,4.92320581 C9.5208942,5.12900884 9.36454608,5.29289141 9.16820478,5.29289141 L4.69408874,5.29289141 C4.49774744,5.31386237 4.33957679,5.1290303 4.33957679,4.92320581 Z M3.04333106,4.92320581 C3.04333106,5.1499798 2.86697611,5.33481187 2.65064846,5.33481187 C2.43430034,5.33481187 2.25796587,5.14995833 2.25796587,4.92320581 C2.25796587,4.69643182 2.43432082,4.51159975 2.65064846,4.51159975 C2.86699659,4.51159975 3.04333106,4.69645328 3.04333106,4.92320581 Z M3.04333106,7.18708207 C3.04333106,7.41385606 2.86697611,7.59868813 2.65064846,7.59868813 C2.43430034,7.59868813 2.25796587,7.4138346 2.25796587,7.18708207 C2.25796587,6.96032955 2.43432082,6.77547601 2.65064846,6.77547601 C2.86699659,6.75450505 3.04333106,6.93935859 3.04333106,7.18708207 Z M3.04333106,9.38806692 C3.04333106,9.61484091 2.86697611,9.79967298 2.65064846,9.79967298 C2.43430034,9.79967298 2.25796587,9.61481944 2.25796587,9.38806692 C2.25796587,9.16131439 2.43432082,8.97646086 2.65064846,8.97646086 C2.86699659,8.95740025 3.04333106,9.14225379 3.04333106,9.38806692 Z M3.04333106,11.6328826 C3.04333106,11.8596566 2.86697611,12.0444886 2.65064846,12.0444886 C2.43430034,12.0444886 2.25796587,11.8596351 2.25796587,11.6328826 C2.25796587,11.4061086 2.43432082,11.2212765 2.65064846,11.2212765 C2.86699659,11.2212765 3.04333106,11.4061301 3.04333106,11.6328826 Z M3.04333106,13.9577399 C3.04333106,14.1845139 2.86697611,14.369346 2.65064846,14.369346 C2.43430034,14.369346 2.25796587,14.1844924 2.25796587,13.9577399 C2.25796587,13.7309659 2.43432082,13.5461338 2.65064846,13.5461338 C2.86699659,13.5461338 3.04333106,13.7309659 3.04333106,13.9577399 Z M3.04333106,16.2216162 C3.04333106,16.4483902 2.86697611,16.6332222 2.65064846,16.6332222 C2.43430034,16.6332222 2.25796587,16.4483687 2.25796587,16.2216162 C2.25796587,15.9948422 2.43432082,15.8100101 2.65064846,15.8100101 C2.86699659,15.7890391 3.04333106,15.9948422 3.04333106,16.2216162 Z" id="Shape"></path>
                            </g>
                        </g>
                    </g>
                </g>
            </g>
        </g>
    </g>
</svg>