<?xml version="1.0" encoding="UTF-8"?>
<svg width="43px" height="43px" viewBox="0 0 43 43" version="1.1" xmlns="http://www.w3.org/2000/svg" xmlns:xlink="http://www.w3.org/1999/xlink">
    <!-- Generator: sketchtool 45.2 (43514) - http://www.bohemiancoding.com/sketch -->
    <title>0F2D8FCC-A410-47D2-9F8C-874470D5FF16</title>
    <desc>Created with sketchtool.</desc>
    <defs></defs>
    <g id="Page-1" stroke="none" stroke-width="1" fill="none" fill-rule="evenodd">
        <g id="FFFFFF" transform="translate(-94.000000, -471.000000)" fill-rule="nonzero" fill="#EE4C40">
            <g id="Group-37" transform="translate(94.000000, 471.000000)">
                <g id="plus-copy">
                    <path d="M21.5,0 C9.57727273,0 0,9.57727273 0,21.5 C0,33.4227273 9.57727273,43 21.5,43 C33.4227273,43 43,33.4227273 43,21.5 C43,9.57727273 33.4227273,0 21.5,0 Z M33.2272727,22.4772727 C33.2272727,23.0636364 32.8363636,23.4545455 32.25,23.4545455 L23.9431818,23.4545455 C23.65,23.4545455 19.35,23.4545455 19.0568182,23.4545455 L10.75,23.4545455 C10.1636364,23.4545455 9.77272727,23.0636364 9.77272727,22.4772727 L9.77272727,20.5227273 C9.77272727,19.9363636 10.1636364,19.5454545 10.75,19.5454545 L19.0568182,19.5454545 C19.35,19.5454545 23.65,19.5454545 23.9431818,19.5454545 L32.25,19.5454545 C32.8363636,19.5454545 33.2272727,19.9363636 33.2272727,20.5227273 L33.2272727,22.4772727 Z" id="Shape"></path>
                </g>
            </g>
        </g>
    </g>
</svg>