<?xml version="1.0" encoding="UTF-8"?>
<svg width="43px" height="43px" viewBox="0 0 43 43" version="1.1" xmlns="http://www.w3.org/2000/svg" xmlns:xlink="http://www.w3.org/1999/xlink">
    <!-- Generator: sketchtool 45.2 (43514) - http://www.bohemiancoding.com/sketch -->
    <title>344714E6-87F0-4BFC-8007-467B1AF2AEA8</title>
    <desc>Created with sketchtool.</desc>
    <defs></defs>
    <g id="Page-1" stroke="none" stroke-width="1" fill="none" fill-rule="evenodd">
        <g id="FFFFFF" transform="translate(-219.000000, -471.000000)" fill-rule="nonzero" fill="#3F76E0">
            <g id="Group-37" transform="translate(94.000000, 471.000000)">
                <g id="plus" transform="translate(125.000000, 0.000000)">
                    <path d="M21.5,0 C9.57727273,0 0,9.57727273 0,21.5 C0,33.4227273 9.57727273,43 21.5,43 C33.4227273,43 43,33.4227273 43,21.5 C43,9.57727273 33.4227273,0 21.5,0 Z M33.2272727,22.4772727 C33.2272727,23.0636364 32.8363636,23.4545455 32.25,23.4545455 L23.9431818,23.4545455 C23.65,23.4545455 23.4545455,23.65 23.4545455,23.9431818 L23.4545455,32.25 C23.4545455,32.8363636 23.0636364,33.2272727 22.4772727,33.2272727 L20.5227273,33.2272727 C19.9363636,33.2272727 19.5454545,32.8363636 19.5454545,32.25 L19.5454545,23.9431818 C19.5454545,23.65 19.35,23.4545455 19.0568182,23.4545455 L10.75,23.4545455 C10.1636364,23.4545455 9.77272727,23.0636364 9.77272727,22.4772727 L9.77272727,20.5227273 C9.77272727,19.9363636 10.1636364,19.5454545 10.75,19.5454545 L19.0568182,19.5454545 C19.35,19.5454545 19.5454545,19.35 19.5454545,19.0568182 L19.5454545,10.75 C19.5454545,10.1636364 19.9363636,9.77272727 20.5227273,9.77272727 L22.4772727,9.77272727 C23.0636364,9.77272727 23.4545455,10.1636364 23.4545455,10.75 L23.4545455,19.0568182 C23.4545455,19.35 23.65,19.5454545 23.9431818,19.5454545 L32.25,19.5454545 C32.8363636,19.5454545 33.2272727,19.9363636 33.2272727,20.5227273 L33.2272727,22.4772727 Z" id="Shape"></path>
                </g>
            </g>
        </g>
    </g>
</svg>