<?xml version="1.0" encoding="UTF-8"?>
<svg width="20px" height="19px" viewBox="0 0 20 19" version="1.1" xmlns="http://www.w3.org/2000/svg" xmlns:xlink="http://www.w3.org/1999/xlink">
    <!-- Generator: sketchtool 45.2 (43514) - http://www.bohemiancoding.com/sketch -->
    <title>3A7F1D16-6317-4C61-B37D-D6E5E37736B4</title>
    <desc>Created with sketchtool.</desc>
    <defs></defs>
    <g id="Page-1" stroke="none" stroke-width="1" fill="none" fill-rule="evenodd">
        <g id="FFFFFF" transform="translate(-79.000000, -986.000000)" fill-rule="nonzero" fill="#FDAF51">
            <g id="Group-38" transform="translate(62.000000, 986.000000)">
                <g id="allergens-eggs" transform="translate(17.000000, 0.000000)">
                    <path d="M9.55930684,3.37477798e-05 C4.2882802,3.37477798e-05 0,4.26028597 0,9.49686146 C0,14.7334369 4.2882802,18.9936892 9.55930684,18.9936892 C14.8304014,18.9936892 19.1186816,14.7334369 19.1186816,9.49686146 C19.1186816,4.26028597 14.8304014,3.37477798e-05 9.55930684,3.37477798e-05 Z M8.26702753,13.0321439 C8.24837811,13.0452549 8.23042507,13.0594796 8.21152087,13.0721687 C8.20751243,13.0750879 8.20377575,13.0784121 8.19975033,13.0813144 C8.19952953,13.0810107 8.19932571,13.0806901 8.19912189,13.0803863 C7.6734052,13.4291865 7.04851365,13.6124201 6.3772873,13.6124201 C5.694749,13.6124201 5.05998923,13.4231456 4.52883737,13.06277 C3.66449267,12.424802 3.15982027,11.2896616 3.15982027,9.8268135 C3.15982027,7.43021492 4.75918661,5.16511456 5.96348413,4.70644849 C6.10277731,4.66752043 6.24123823,4.64612433 6.3772873,4.64612433 C6.49533237,4.64612433 6.61672347,4.66503996 6.73974512,4.69806217 C7.20061345,4.87253819 7.81030351,5.35136856 8.38852054,6.18995027 C9.14383914,7.28552131 9.59472036,8.64505062 9.59472036,9.82679663 C9.59473734,11.2663082 9.10623457,12.3887593 8.26702753,13.0321439 Z M12.9660366,13.7705622 C11.5716611,14.5432682 10.262227,14.5514858 9.27103908,14.0243117 C9.27103908,14.0243117 9.27107305,14.024278 9.27107305,14.024278 C9.33685557,13.9687123 9.40087167,13.9109192 9.46342706,13.8512869 C9.4681149,13.8468321 9.47275178,13.8423099 9.47740564,13.8378384 C9.53664898,13.7808552 9.59439765,13.7221341 9.65063466,13.6616075 C9.65482993,13.6571021 9.65905917,13.6526643 9.66323746,13.6481421 C9.9025887,13.3883011 10.1140847,13.0967371 10.2943115,12.7764538 C10.3003242,12.7657726 10.3060651,12.7548384 10.3120098,12.7440897 C10.3490369,12.677151 10.3847221,12.6090648 10.4189977,12.5397131 C10.4274901,12.5225693 10.4358127,12.5053242 10.4441183,12.4880284 C10.4754725,12.422794 10.5055527,12.3565302 10.534461,12.2892709 C10.5425628,12.2704565 10.5507835,12.2517602 10.5586985,12.232794 C10.5881333,12.1620417 10.6160905,12.0901421 10.6428077,12.0172638 C10.6482599,12.0024316 10.6540857,11.9879032 10.659419,11.9729867 C10.7226538,11.795794 10.7779906,11.6126448 10.82475,11.4236741 C10.8297096,11.4036279 10.8339049,11.3830755 10.8386776,11.3628943 C10.8557474,11.2906909 10.8719341,11.2179307 10.8865581,11.1441243 C10.8928085,11.1126039 10.8983456,11.0806448 10.9041374,11.0488375 C10.9157891,10.9848348 10.9266934,10.9203934 10.9364937,10.8552433 C10.9418779,10.8194876 10.9469224,10.7835799 10.9517291,10.7474867 C10.9602046,10.6838384 10.967627,10.6195995 10.974336,10.5549387 C10.9781237,10.5184236 10.9820642,10.4820435 10.9852743,10.4452078 C10.991304,10.3760586 10.9958219,10.3061163 10.9998134,10.2358703 C11.0016647,10.203405 11.0041615,10.1713108 11.0055543,10.1386092 C11.0099704,10.0357123 11.012671,9.93192096 11.012671,9.82679663 C11.012671,9.73883304 11.0104969,9.65059947 11.0067772,9.56223091 C11.0065054,9.55559947 11.0063696,9.54896803 11.0060638,9.54233659 C11.0022422,9.4577984 10.9965013,9.37312522 10.9893847,9.28838455 C10.9885184,9.2781421 10.9878051,9.26791652 10.9869049,9.25767407 C10.9795844,9.17500888 10.9705654,9.09229307 10.9602216,9.00957726 C10.9587099,8.99754618 10.9572832,8.98553197 10.9557036,8.97348401 C10.9450371,8.89164565 10.9328759,8.8098579 10.9193559,8.72813766 C10.9173007,8.71566785 10.9152116,8.70323179 10.9130885,8.69076199 C10.8991269,8.6089405 10.8838065,8.52723712 10.8670764,8.44566874 C10.8646815,8.43397513 10.8621847,8.4222984 10.8597389,8.4106048 C10.8423973,8.32799023 10.8237988,8.24552753 10.8037227,8.16331794 C10.8013618,8.1536492 10.798865,8.14399734 10.7964701,8.1343286 C10.7755278,8.04994227 10.7533794,7.96579218 10.7296515,7.88201332 C10.727953,7.87600622 10.7261357,7.87004973 10.7244202,7.86404263 C10.6994524,7.77656838 10.6732107,7.68943162 10.6453385,7.60278419 C12.6767837,6.92155151 15.1078498,7.31408881 15.7452083,8.449246 C16.4411986,9.68881883 15.1085292,12.5832815 12.9660366,13.7705622 Z" id="Shape"></path>
                </g>
            </g>
        </g>
    </g>
</svg>