<?xml version="1.0" encoding="UTF-8"?>
<svg width="47px" height="47px" viewBox="0 0 47 47" version="1.1" xmlns="http://www.w3.org/2000/svg" xmlns:xlink="http://www.w3.org/1999/xlink">
    <!-- Generator: sketchtool 47.1 (45422) - http://www.bohemiancoding.com/sketch -->
    <title>5A4F9F60-4C28-41A8-B6DE-BE4F008C6F73</title>
    <desc>Created with sketchtool.</desc>
    <defs></defs>
    <g id="Page-1" stroke="none" stroke-width="1" fill="none" fill-rule="evenodd">
        <g id="Cart-New-Copy" transform="translate(-239.000000, -340.000000)">
            <g id="Group-20" transform="translate(240.000000, 341.000000)">
                <g id="Group-31">
                    <circle id="Oval-15" stroke="#287FDE" stroke-width="2" cx="22.5" cy="22.5" r="22.5"></circle>
                    <g id="interface-2" transform="translate(14.000000, 10.000000)" fill-rule="nonzero" fill="#0087DC">
                        <path d="M14.9935917,9.16666667 L4.78525833,9.16666667 C4.55985833,9.16666667 4.376925,9.35333333 4.376925,9.58333333 C4.376925,9.81333333 4.55985833,10 4.78525833,10 L14.9935917,10 C15.2189917,10 15.401925,9.81333333 15.401925,9.58333333 C15.401925,9.35333333 15.2189917,9.16666667 14.9935917,9.16666667 Z" id="Shape"></path>
                        <path d="M4.78525833,6.66666667 L8.86859167,6.66666667 C9.09399167,6.66666667 9.276925,6.48 9.276925,6.25 C9.276925,6.02 9.09399167,5.83333333 8.86859167,5.83333333 L4.78525833,5.83333333 C4.55985833,5.83333333 4.376925,6.02 4.376925,6.25 C4.376925,6.48 4.55985833,6.66666667 4.78525833,6.66666667 Z" id="Shape"></path>
                        <path d="M14.9935917,12.5 L4.78525833,12.5 C4.55985833,12.5 4.376925,12.6866667 4.376925,12.9166667 C4.376925,13.1466667 4.55985833,13.3333333 4.78525833,13.3333333 L14.9935917,13.3333333 C15.2189917,13.3333333 15.401925,13.1466667 15.401925,12.9166667 C15.401925,12.6866667 15.2189917,12.5 14.9935917,12.5 Z" id="Shape"></path>
                        <path d="M11.726925,15.8333333 L4.78525833,15.8333333 C4.55985833,15.8333333 4.376925,16.02 4.376925,16.25 C4.376925,16.48 4.55985833,16.6666667 4.78525833,16.6666667 L11.726925,16.6666667 C11.952325,16.6666667 12.1352583,16.48 12.1352583,16.25 C12.1352583,16.02 11.952325,15.8333333 11.726925,15.8333333 Z" id="Shape"></path>
                        <path d="M10.501925,20 C10.727325,20 10.9102583,19.8133333 10.9102583,19.5833333 C10.9102583,19.3533333 10.727325,19.1666667 10.501925,19.1666667 L4.78525833,19.1666667 C4.55985833,19.1666667 4.376925,19.3533333 4.376925,19.5833333 C4.376925,19.8133333 4.55985833,20 4.78525833,20 L10.501925,20 Z" id="Shape"></path>
                        <path d="M12.951925,0.833333333 L12.951925,6.66666667 L18.6685917,6.66666667 L18.6666667,11.9047619 L19.4833333,11.9047619 L19.4852583,6.0775 L13.5293083,0 L0.293591667,0 L0.293591667,25 L8.16666667,25 L8.16666667,24.1666667 L1.11025833,24.1666667 L1.11025833,0.833333333 L12.951925,0.833333333 Z M13.7685917,1.4225 L18.0912083,5.83333333 L13.7685917,5.83333333 L13.7685917,1.4225 Z" id="Shape"></path>
                        <path d="M20.349525,15.4841667 L19.1861833,14.2966667 C18.7255833,13.8266667 17.9228,13.8266667 17.4622,14.2966667 L11.1775417,20.7091667 L10.3114667,23.9504167 L10.0995417,24.1666667 C9.94110833,24.3283333 9.9407,24.5891667 10.0970917,24.7520833 L10.09505,24.7604167 L10.1032167,24.7583333 C10.1824333,24.8375 10.2853333,24.8779167 10.3882333,24.8779167 C10.4927667,24.8779167 10.5973,24.8370833 10.676925,24.7558333 L10.88885,24.5395833 L14.065275,23.6558333 L20.349525,17.2429167 C20.579825,17.0079167 20.7068167,16.6958333 20.7068167,16.3633333 C20.7068167,16.0308333 20.579825,15.71875 20.349525,15.4841667 Z M12.1203833,20.9258333 L16.3029417,16.6579167 L18.0355,18.4258333 L13.8529417,22.69375 L12.1203833,20.9258333 Z M11.7516583,21.7279167 L13.0664917,23.0695833 L11.2588,23.5725 L11.7516583,21.7279167 Z M19.7721417,16.65375 L18.6128833,17.8366667 L16.880325,16.06875 L18.0395833,14.8858333 C18.1914833,14.7308333 18.4564917,14.7304167 18.6083917,14.8858333 L19.7721417,16.0733333 C19.8480917,16.1508333 19.89015,16.25375 19.89015,16.3633333 C19.8897417,16.4729167 19.8480917,16.57625 19.7721417,16.65375 Z" id="Shape"></path>
                    </g>
                </g>
            </g>
        </g>
    </g>
</svg>