<?xml version="1.0" encoding="UTF-8"?>
<svg width="29px" height="12px" viewBox="0 0 29 12" version="1.1" xmlns="http://www.w3.org/2000/svg" xmlns:xlink="http://www.w3.org/1999/xlink">
    <!-- Generator: sketchtool 45.2 (43514) - http://www.bohemiancoding.com/sketch -->
    <title>32B509B6-014E-492B-AC82-AE63B7FD77AD</title>
    <desc>Created with sketchtool.</desc>
    <defs></defs>
    <g id="Page-1" stroke="none" stroke-width="1" fill="none" fill-rule="evenodd">
        <g id="FFFFFF" transform="translate(-134.000000, -990.000000)">
            <g id="Group-7" transform="translate(134.000000, 986.000000)">
                <path d="M3.87726183,4.46525493 L26.8399576,4.46525493 L26.8399576,4.46525493 C27.9445271,4.46525493 28.8399576,5.36068543 28.8399576,6.46525493 C28.8399576,6.60359389 28.8256045,6.74155956 28.7971287,6.87693607 L27.384323,13.5935479 L27.384323,13.5935479 C27.1896174,14.5191966 26.3730567,15.1818668 25.4271519,15.1818668 L2.46445614,15.1818668 L2.46445614,15.1818668 C1.35988664,15.1818668 0.464456141,14.2864363 0.464456141,13.1818668 C0.464456141,13.0435278 0.47880929,12.9055621 0.507285061,12.7701856 L1.92009075,6.05357378 L1.92009075,6.05357378 C2.11479632,5.12792508 2.93135709,4.46525493 3.87726183,4.46525493 Z" id="Rectangle-53" fill="#3F76E0"></path>
                <path d="M10.8598551,14.9159066 L7.21025619,12.3406855 L8.71025189,15.8527739 L7.71056529,16.2886148 L5.41004562,10.9034358 L6.4569978,10.4466919 L10.1754848,13.091804 L8.63886322,9.49560862 L9.63854982,9.05942096 L11.9397069,14.4448972 L10.8598551,14.9159066 Z M13.0777091,13.9486755 L10.7771894,8.56349649 L14.729847,6.8396983 L15.1187093,7.75090751 L12.2421281,9.00498419 L12.7521453,10.1986801 L15.4286813,9.03158341 L15.8162689,9.93902811 L13.1397329,11.1058276 L13.7659037,12.5715093 L16.7439294,11.2731501 L17.1315169,12.1805948 L13.0777091,13.9486755 Z M22.0885681,10.0200641 L19.3068122,6.45641189 L19.9683342,10.9439538 L18.8011588,11.4528559 L15.2282439,6.62279326 L16.3296691,6.1420259 L18.7137861,9.49090299 L18.107963,5.36713153 L19.3884483,4.80889454 L21.9297577,8.16317073 L21.140805,4.04474883 L22.2243831,3.57220394 L23.2302966,9.52225738 L22.0885681,10.0200641 Z" id="Shape" fill="#FFFFFF" fill-rule="nonzero" transform="translate(14.320171, 9.930409) rotate(24.000000) translate(-14.320171, -9.930409) "></path>
            </g>
        </g>
    </g>
</svg>