<?xml version="1.0" encoding="UTF-8"?>
<svg width="21px" height="21px" viewBox="0 0 21 21" version="1.1" xmlns="http://www.w3.org/2000/svg" xmlns:xlink="http://www.w3.org/1999/xlink">
    <!-- Generator: sketchtool 45.2 (43514) - http://www.bohemiancoding.com/sketch -->
    <title>0DA8C1D1-3FDC-4015-A621-30E88252FF10</title>
    <desc>Created with sketchtool.</desc>
    <defs></defs>
    <g id="Page-1" stroke="none" stroke-width="1" fill="none" fill-rule="evenodd">
        <g id="Allergens" transform="translate(-22.000000, -357.000000)">
            <g id="Group-2" transform="translate(11.000000, 349.000000)">
                <g id="Group-9-Copy">
                    <g id="Group-7" transform="translate(11.000000, 8.000000)">
                        <g id="Group-50-Copy">
                            <circle id="Oval-19" fill="#FFA64B" cx="10.25416" cy="10.25416" r="10.25416"></circle>
                            <g id="003-milk" transform="translate(6.357765, 3.679615)" fill-rule="nonzero" fill="#FFFFFF">
                                <path d="M7.72446143,4.19153229 C7.72424072,4.16615046 7.7162951,4.14165149 7.70724593,4.11759393 C7.70459739,4.11053116 7.70525953,4.10258555 7.70194885,4.09574349 L7.70172814,4.09486065 L6.17992228,1.05124892 L6.17992228,0.22071151 C6.17992228,0.154056634 6.14990551,0.0911538536 6.09825902,0.0494393782 C6.04661253,0.00750419134 5.97863338,-0.0088284604 5.9137442,0.00485565322 L1.72022551,0.887701693 C1.61803608,0.90911071 1.54498057,0.999161006 1.54498057,1.10355755 L1.54498057,1.91687946 L0.0399487833,4.06705099 C0.0386245143,4.0690374 0.0386245143,4.07168594 0.0373002452,4.07367234 C0.021188305,4.09839203 0.00993201795,4.12576026 0.00463494171,4.15489418 C0.00375209567,4.15930841 0.00353138416,4.16328121 0.00308996114,4.16769544 C0.00198640359,4.17630319 0,4.18469023 0,4.19351869 L0,7.06276832 L0,10.373441 L0,11.4769985 C0,11.5652831 0.0525293394,11.6451807 0.133751175,11.6798324 L3.22371232,13.0041015 C3.22614014,13.005205 3.22856797,13.0047636 3.2309958,13.0056464 C3.25659833,13.0153577 3.28308371,13.0219791 3.31067265,13.0219791 C3.32943313,13.0219791 3.34819361,13.0195513 3.36673337,13.0146956 L7.56025206,11.9111381 C7.65736513,11.8855355 7.72490285,11.7979131 7.72490285,11.69771 L7.72490285,8.38703738 L7.72490285,4.85565322 L7.72490285,4.19351869 L7.72446143,4.19153229 Z M4.63494171,1.15674902 L4.63494171,0.72503731 L5.07636473,0.632117765 L5.07636473,1.06382948 L4.63494171,1.15674902 Z M4.19351869,1.24966857 L3.75209567,1.34258812 L3.75209567,0.910876402 L4.19351869,0.817956856 L4.19351869,1.24966857 Z M3.31067265,1.43550766 L2.86924963,1.52842721 L2.86924963,1.10355755 C2.86924963,1.10135043 2.86792536,1.09936403 2.86792536,1.09715692 L3.31067265,1.00379595 L3.31067265,1.43550766 Z M2.08329594,2.14509517 L4.22883253,1.6932987 L5.83804015,1.35450654 L7.18526321,4.04917336 L5.82082465,4.40827099 L3.43272612,5.03663666 L2.30820097,2.62690839 L2.08329594,2.14509517 Z M7.28347983,4.75302237 L3.53138416,7.91272835 L3.53138416,5.4670241 L7.28347983,4.47956081 L7.28347983,4.75302237 Z M0.44142302,4.50670832 L3.08996114,5.45267785 L3.08996114,8.05243873 L0.44142302,6.91731944 L0.44142302,4.50670832 Z M0.44142302,7.39736697 L3.08996114,8.53248627 L3.08996114,11.3628907 L0.44142302,10.2277714 L0.44142302,7.39736697 Z M3.53138416,8.48966823 L7.28347983,5.33018297 L7.28347983,8.28021301 L3.53138416,11.2421615 L3.53138416,8.48966823 Z M5.73849926,0.924339804 L5.51778775,0.970689221 L5.51778775,0.539198219 L5.73849926,0.492848802 L5.73849926,0.924339804 Z M1.98640359,1.28255458 L2.42782661,1.18963504 L2.42782661,1.62134675 L1.98640359,1.7142663 L1.98640359,1.28255458 Z M1.72728828,2.42606092 L2.30731813,3.66866672 L2.88712726,4.91127252 L0.567449292,4.08272151 L1.72728828,2.42606092 Z M0.44142302,10.7080396 L3.08996114,11.8431589 L3.08996114,12.4664482 L0.44142302,11.3313289 L0.44142302,10.7080396 Z M3.53138416,12.5150048 L3.53138416,11.8047551 L7.28347983,8.84258594 L7.28347983,11.5277622 L3.53138416,12.5150048 Z" id="Shape"></path>
                                <path d="M4.43630135,3.94234899 C4.53871149,4.06307819 4.70601082,4.18888375 4.9569598,4.18888375 C5.02493895,4.18888375 5.09909802,4.17983458 5.17965772,4.15864627 C5.55795725,4.0595468 5.68332138,3.80352145 5.7219459,3.60598465 C5.76476393,3.38681812 5.71598669,3.1563953 5.67559648,3.00233867 C5.46768624,2.20799795 5.01787618,2.1477437 4.67709761,2.23669044 C4.33609833,2.32585789 3.97346931,2.59909874 4.18115885,3.39321875 C4.22110763,3.5474961 4.2915146,3.77240113 4.43630135,3.94234899 Z M4.78855692,2.66398793 C4.82541574,2.65427662 4.86249528,2.64677243 4.8993541,2.64677243 C5.02515966,2.64677243 5.14875811,2.73329134 5.24851971,3.11401869 C5.27787434,3.22658156 5.31407103,3.39101164 5.2886892,3.52145214 C5.27235655,3.60488109 5.23439417,3.68808933 5.06797769,3.7315695 C4.90178193,3.77527038 4.82784357,3.72119606 4.77266569,3.65652759 C4.6865882,3.55500029 4.63759025,3.3941016 4.60801491,3.28175944 C4.47889867,2.78913135 4.62655467,2.70636454 4.78855692,2.66398793 Z" id="Shape"></path>
                            </g>
                        </g>
                    </g>
                </g>
            </g>
        </g>
    </g>
</svg>