<?xml version="1.0" encoding="UTF-8"?>
<svg width="19px" height="23px" viewBox="0 0 19 23" version="1.1" xmlns="http://www.w3.org/2000/svg" xmlns:xlink="http://www.w3.org/1999/xlink">
    <!-- Generator: sketchtool 45.2 (43514) - http://www.bohemiancoding.com/sketch -->
    <title>F7312BFD-A008-4C4D-8C0D-E7850A2F5B94</title>
    <desc>Created with sketchtool.</desc>
    <defs></defs>
    <g id="Page-1" stroke="none" stroke-width="1" fill="none" fill-rule="evenodd">
        <g id="Option1" transform="translate(-129.000000, -96.000000)" fill-rule="nonzero" fill="#E9483F">
            <g id="Group-32" transform="translate(16.000000, 87.000000)">
                <g id="Group-30" transform="translate(93.000000, 9.000000)">
                    <g id="001-spoon-copy" transform="translate(20.000000, 0.000000)">
                        <path d="M17.6172102,0 L17.615483,0 C16.9584176,0 16.3928438,0.45043319 16.2998949,1.04778879 L14.3643239,13.4903922 C14.2720767,14.0832866 14.6796591,14.6399461 15.3123807,14.7852328 L15.9612415,14.9341875 L15.6123324,21.3422155 C15.5892841,21.7653362 15.7517017,22.1673901 16.0696818,22.4743707 C16.3876619,22.7813513 16.8168352,22.950431 17.278179,22.950431 C18.1978977,22.950431 18.9460767,22.263306 18.9460767,21.41875 L18.9460767,1.22038793 C18.9460767,0.547439655 18.3499517,0 17.6172102,0 Z M18.1364176,21.4187004 L18.1364176,21.4187004 C18.1364176,21.8533211 17.7513977,22.206847 17.278179,22.206847 C17.0407869,22.206847 16.8199659,22.1198534 16.6563068,21.9619267 C16.4926477,21.804 16.4090909,21.5970991 16.4209659,21.3793427 L16.786446,14.6661681 C16.796108,14.4888599 16.667858,14.3299914 16.4802869,14.2869655 L15.508696,14.0639052 C15.2798324,14.0113621 15.1324205,13.8100129 15.1657784,13.595528 L17.1014034,1.15292457 C17.1376761,0.919553879 17.3587131,0.743534483 17.615429,0.743534483 L17.6171563,0.743534483 C17.9034517,0.743534483 18.1364176,0.957424569 18.1364176,1.22038793 L18.1364176,21.4187004 Z" id="Shape"></path>
                        <path d="M12.4683182,0.353178879 C12.4571449,0.148112069 12.2667131,-0.00941810345 12.0437869,0.00044612069 C11.820483,0.0107068966 11.6485114,0.185239224 11.6596847,0.390306034 L12.0054631,6.74132974 L10.7415313,6.74132974 L10.7415313,0.371767241 C10.7415313,0.166452586 10.5602756,0 10.3367017,0 C10.1131278,0 9.93187216,0.166452586 9.93187216,0.371767241 L9.93187216,6.74137931 L8.66794034,6.74137931 L9.01366477,0.390355603 C9.02483807,0.185288793 8.85286648,0.0107564655 8.6295625,0.000495689655 C8.4063125,-0.0099137931 8.21620455,0.148161638 8.20503125,0.353228448 L7.79771875,7.83452371 C7.77553409,8.2419806 7.9913892,8.63565733 8.36102557,8.86193966 L8.85016761,9.16138578 C8.98268182,9.24253017 9.0589517,9.37825 9.05425568,9.52442888 L8.67252841,21.379194 C8.6599517,21.7954246 8.82711932,22.1890517 9.14321023,22.487556 C9.45935511,22.7860603 9.88318466,22.9504806 10.3366477,22.9504806 C10.7901108,22.9504806 11.2139403,22.7861099 11.5300852,22.487556 C11.8461761,22.1890517 12.0133977,21.7954246 12.000767,21.3785496 L11.6190938,9.52442888 C11.6143977,9.37825 11.6907216,9.24253017 11.8231818,9.16138578 L12.3123239,8.86193966 C12.6819063,8.63565733 12.8977614,8.2419806 12.8755767,7.83452371 L12.4683182,0.353178879 Z M11.8632869,8.24321983 L11.3741449,8.54266595 C11.0078011,8.76691595 10.796858,9.14215302 10.8098665,9.54633836 L11.1915398,21.3998147 C11.198017,21.6136056 11.1121392,21.8157974 10.9497756,21.9691142 C10.787358,22.122431 10.5696676,22.2068966 10.3367557,22.2068966 C10.1038438,22.2068966 9.88609943,22.122431 9.7237358,21.9691142 C9.56137216,21.8157974 9.47549432,21.6136056 9.48197159,21.4004591 L9.86364489,9.54633836 C9.87665341,9.14215302 9.66571023,8.76696552 9.29936648,8.54266595 L8.81022443,8.24321983 C8.67652273,8.16138147 8.59847159,8.01896983 8.6065142,7.87160129 L8.62756534,7.48486422 L12.046,7.48486422 L12.0670511,7.87160129 C12.0750398,8.01896983 11.9969886,8.16138147 11.8632869,8.24321983 Z" id="Shape"></path>
                        <path d="M3.4276108,0 C2.58416193,0 1.41652557,0.388868534 0.643894886,2.24150862 C0.168678977,3.38090086 5.39772727e-05,4.72347629 5.39772727e-05,5.52693966 C5.39772727e-05,6.63312069 0.614801136,7.63793319 1.64447159,8.21486638 C1.930875,8.37537069 2.09723295,8.6465625 2.08946023,8.94030819 L1.75906534,21.3802845 C1.748,21.7966638 1.91635511,22.1900927 2.23314773,22.4882004 C2.54988636,22.7862586 2.97409375,22.950431 3.4276108,22.950431 C3.88112784,22.950431 4.3053892,22.7862586 4.62212784,22.4882004 C4.93892045,22.1901422 5.10727557,21.7966638 5.09621023,21.3802845 L4.76576136,8.94035776 C4.75798864,8.6465625 4.92434659,8.37537069 5.21075,8.21486638 C6.24047443,7.63793319 6.85516761,6.63307112 6.85516761,5.52693966 C6.85516761,4.72347629 6.68654261,3.38095043 6.2113267,2.24150862 C5.43875,0.388868534 4.27111364,0 3.4276108,0 Z M4.78897159,7.58013578 C4.26069602,7.87616164 3.94163636,8.4042694 3.95631818,8.95845043 L4.28671307,21.3983772 C4.29243466,21.6127629 4.20574716,21.8153513 4.04262784,21.9688168 C3.87950852,22.1223319 3.6610625,22.206847 3.42755682,22.206847 C3.19405114,22.206847 2.97560511,22.1223319 2.8124858,21.9688664 C2.64936648,21.8154009 2.56267898,21.6127629 2.56840057,21.3983772 L2.89879545,8.95845043 C2.91353125,8.40431897 2.59447159,7.87616164 2.06614205,7.58013578 C1.27936932,7.13931897 0.809659091,6.37174353 0.809659091,5.52693966 C0.809659091,3.96626078 1.44955966,0.743534483 3.42755682,0.743534483 C5.40555398,0.743534483 6.04545455,3.96626078 6.04545455,5.52693966 C6.04550852,6.37174353 5.57585227,7.13931897 4.78897159,7.58013578 Z" id="Shape"></path>
                    </g>
                </g>
            </g>
        </g>
    </g>
</svg>