<?xml version="1.0" encoding="UTF-8"?>
<svg width="20px" height="19px" viewBox="0 0 20 19" version="1.1" xmlns="http://www.w3.org/2000/svg" xmlns:xlink="http://www.w3.org/1999/xlink">
    <!-- Generator: sketchtool 45.2 (43514) - http://www.bohemiancoding.com/sketch -->
    <title>BE1BB004-5EEC-4CBA-8A08-FC5F85690752</title>
    <desc>Created with sketchtool.</desc>
    <defs></defs>
    <g id="Page-1" stroke="none" stroke-width="1" fill="none" fill-rule="evenodd">
        <g id="City-view-Detail" transform="translate(-159.000000, -296.000000)" fill-rule="nonzero" fill="#FFBD4F">
            <g id="Group-39" transform="translate(14.000000, 208.000000)">
                <g id="Group-36" transform="translate(119.000000, 68.000000)">
                    <g id="Group-7" transform="translate(1.000000, 20.000000)">
                        <g id="Group-8" transform="translate(25.407168, 0.000000)">
                            <g id="Group-10">
                                <g id="Group-12">
                                    <path d="M8.81672097,0.468546936 C8.94057289,0.216450299 9.19563428,0.0566243261 9.4744033,0.0566243261 C9.75317232,0.0566243261 10.0086425,0.216450299 10.1320856,0.468546936 L12.4909947,5.28598186 C12.5976791,5.50388892 12.8045077,5.65506452 13.0436277,5.69007794 L18.318984,6.46243284 C18.5957092,6.50280125 18.8246105,6.69805257 18.9108572,6.96539034 C18.9971039,7.23272812 18.9251635,7.52684086 18.7252837,7.72291602 L14.9083554,11.4730595 C14.7354532,11.6427716 14.656564,11.8874536 14.6970305,12.1271926 L15.5979204,17.4224577 C15.6445182,17.7000936 15.5321113,17.9802009 15.3056626,18.1457938 C15.0796226,18.3105629 14.7808247,18.3323948 14.5331209,18.2022272 L9.81448515,15.701857 C9.60111649,15.5885783 9.34564635,15.5885783 9.13186893,15.701857 L4.41323323,18.2018153 C4.16634689,18.3323948 3.8667315,18.3109748 3.64069152,18.1457938 C3.41465154,17.9806129 3.30183593,17.7000936 3.34884243,17.4224577 L4.24973234,12.1271926 C4.29060756,11.8874536 4.21130963,11.6427716 4.03840744,11.4730595 L0.221479149,7.72291602 C0.0215993103,7.52642894 -0.0503410815,7.23272812 0.0359056383,6.96539034 C0.122152358,6.69805257 0.351462357,6.50280125 0.628187614,6.46243284 L5.90436135,5.69007794 C6.14307265,5.65506452 6.34990128,5.50388892 6.45658561,5.28556994 L8.81672097,0.468546936 Z" id="Shape"></path>
                                </g>
                            </g>
                        </g>
                    </g>
                </g>
            </g>
        </g>
    </g>
</svg>