<?xml version="1.0" encoding="UTF-8"?>
<svg width="17px" height="17px" viewBox="0 0 17 17" version="1.1" xmlns="http://www.w3.org/2000/svg" xmlns:xlink="http://www.w3.org/1999/xlink">
    <!-- Generator: sketchtool 45.2 (43514) - http://www.bohemiancoding.com/sketch -->
    <title>A24FA081-B21B-44AC-96A8-93DBCB111F7F</title>
    <desc>Created with sketchtool.</desc>
    <defs></defs>
    <g id="Page-1" stroke="none" stroke-width="1" fill="none" fill-rule="evenodd" opacity="0.219999999">
        <g id="Question-Poll" transform="translate(-975.000000, -439.000000)" fill-rule="nonzero" fill="#000000">
            <g id="Group-12" transform="translate(730.000000, 210.000000)">
                <g id="Group-8">
                    <g id="005-user" transform="translate(245.000000, 229.000000)">
                        <path d="M8.31592633,0 C3.72325039,0 5.54409873e-05,3.77001205 5.54409873e-05,8.42029984 C5.54409873e-05,13.0704754 3.72325039,16.8407681 8.31592633,16.8407681 C12.9086023,16.8407681 16.6320744,13.0704754 16.6320744,8.42029984 C16.6320744,3.76989977 12.9086023,0 8.31592633,0 Z M8.34126287,12.3928522 L8.34126287,12.3927399 L8.29047892,12.3927399 L4.73826398,12.3927399 C4.73826398,9.76241021 7.01977149,9.76302771 7.52605859,9.07524386 L7.58399442,8.76160949 C6.87268655,8.39661026 6.37055753,7.51661519 6.37055753,6.48740942 C6.37055753,5.13148949 7.24164632,4.03211315 8.31592633,4.03211315 C9.39020635,4.03211315 10.2612951,5.13148949 10.2612951,6.48740942 C10.2612951,7.5078579 9.76809212,8.3823516 9.06626466,8.75313288 L9.13223943,9.10954324 C9.68770268,9.76398203 11.8933115,9.80664574 11.8933115,12.3928522 L8.34126287,12.3928522 L8.34126287,12.3928522 Z" id="Shape"></path>
                    </g>
                </g>
            </g>
        </g>
    </g>
</svg>