<svg width="940" height="220" viewBox="0 0 940 220" xmlns="http://www.w3.org/2000/svg" xmlns:xlink="http://www.w3.org/1999/xlink">
  <title>
    B220EC7D-FF72-488A-B2AA-A7A460AE8C45
  </title>
  <defs>
    <linearGradient x1="123.55%" y1="50%" x2="0%" y2="50%" id="b">
      <stop stop-color="#EE0074" offset="0%"/>
      <stop stop-color="#0086B2" offset="100%"/>
    </linearGradient>
    <path id="a" d="M0 0h940v220H0z"/>
    <filter x="-13.8%" y="-15.4%" width="127.5%" height="148.2%" filterUnits="objectBoundingBox" id="d">
      <feOffset dy="10" in="SourceAlpha" result="shadowOffsetOuter1"/>
      <feGaussianBlur stdDeviation="7.5" in="shadowOffsetOuter1" result="shadowBlurOuter1"/>
      <feColorMatrix values="0 0 0 0 0 0 0 0 0 0 0 0 0 0 0 0 0 0 0.2 0" in="shadowBlurOuter1" result="shadowMatrixOuter1"/>
      <feMerge>
        <feMergeNode in="shadowMatrixOuter1"/>
        <feMergeNode in="SourceGraphic"/>
      </feMerge>
    </filter>
  </defs>
  <g fill="none" fill-rule="evenodd">
    <g>
      <g>
        <g>
          <g>
            <mask id="c" fill="#fff">
              <use xlink:href="#a"/>
            </mask>
            <use fill="url(#b)" xlink:href="#a"/>
            <g opacity=".1" style="mix-blend-mode:multiply" mask="url(#c)">
              <g opacity=".43">
                <g fill="#000" transform="translate(181 -33)">
                  <ellipse cx="125.96" cy="207.97" rx="8.96" ry="8.97"/>
                  <ellipse cx="141.5" cy="203.47" rx="4.5" ry="4.51"/>
                  <ellipse cx="184.04" cy="154.05" rx="8.04" ry="8.05"/>
                  <ellipse cx="173.5" cy="140.59" rx="3.5" ry="3.51"/>
                  <ellipse cx="149.54" cy="178.55" rx="9.54" ry="9.55"/>
                  <ellipse cx="131.71" cy="183.55" rx="4.55" ry="4.55"/>
                  <ellipse cx="198.54" cy="197.85" rx="9.13" ry="9.15"/>
                  <ellipse cx="120.11" cy="144.12" rx="8.11" ry="8.12"/>
                  <ellipse cx="120.11" cy="128.62" rx="4.61" ry="4.62"/>
                  <ellipse cx="204.53" cy="107.55" rx="9.54" ry="9.55"/>
                  <ellipse cx="218" cy="120.02" rx="5" ry="5.01"/>
                  <ellipse cx="136.62" cy="96.63" rx="8.62" ry="8.63"/>
                  <ellipse cx="138.5" cy="110.51" rx="3.5" ry="3.51"/>
                  <ellipse cx="238" cy="160.01" rx="5" ry="5.01"/>
                  <ellipse cx="257.5" cy="166.51" rx="8.5" ry="8.51"/>
                  <ellipse cx="294.5" cy="200.51" rx="6.5" ry="6.51"/>
                  <ellipse cx="281.04" cy="202.06" rx="9.04" ry="9.05"/>
                  <ellipse cx="245.09" cy="51.11" rx="9.09" ry="9.11"/>
                  <ellipse cx="253" cy="65.01" rx="5" ry="5.01"/>
                  <ellipse cx="174.54" cy="46.55" rx="11.54" ry="11.55"/>
                  <ellipse cx="165.52" cy="63.55" rx="4.55" ry="4.55"/>
                  <ellipse cx="267.54" cy="114" rx="8.99" ry="9"/>
                  <ellipse cx="264.04" cy="103.55" rx="6.54" ry="6.55"/>
                  <ellipse cx="320.54" cy="78.55" rx="11.54" ry="11.55"/>
                  <ellipse cx="310.58" cy="82.5" rx="7.49" ry="7.5"/>
                  <ellipse cx="306.5" cy="152.6" rx="4.5" ry="4.51"/>
                  <ellipse cx="303.93" cy="168.5" rx="8.49" ry="8.5"/>
                  <ellipse cx="285.86" cy="23.11" rx="11.54" ry="11.55"/>
                  <ellipse cx="244.54" cy="225" rx="7.99" ry="8"/>
                  <ellipse cx="244.54" cy="208.05" rx="5.05" ry="5.05"/>
                  <ellipse cx="169.23" cy="252.89" rx="11.54" ry="11.55"/>
                  <ellipse cx="67.04" cy="180.05" rx="8.04" ry="8.05"/>
                  <ellipse cx="75.54" cy="192.5" rx="3.49" ry="3.5"/>
                  <ellipse cx="75.04" cy="233.05" rx="8.04" ry="8.05"/>
                  <ellipse cx="82.04" cy="221.05" rx="3" ry="3"/>
                  <ellipse cx="74.03" cy="119.05" rx="8.04" ry="8.05"/>
                  <ellipse cx="104.54" cy="46.55" rx="11.54" ry="11.55"/>
                  <ellipse cx="118" cy="59.46" rx="4" ry="4.01"/>
                  <ellipse cx="225.62" cy="264.45" rx="11.54" ry="11.55"/>
                  <ellipse cx="279.45" cy="264.45" rx="11.54" ry="11.55"/>
                  <ellipse cx="104.61" cy="255.47" rx="11.54" ry="11.55"/>
                </g>
              </g>
            </g>
          </g>
        </g>
        <g filter="url(#d)" transform="translate(691 52)">
          <g transform="translate(29.04 77.902)">
            <path d="M16.6.14C21.33-.13 26.15 1.66 29.57 5c2.45 2.34 4.2 5.42 4.92 8.74.25 1.05.33 2.14.48 3.2.08.73 0 1.46-.12 2.17-.34 4.05-2.14 7.95-5.02 10.8-1.7 1.72-3.76 3.08-6 3.96-4.53 1.78-9.8 1.55-14.15-.66-3.82-1.9-6.88-5.26-8.42-9.24-1.87-4.7-1.54-10.23.88-14.68 1.98-3.68 5.32-6.6 9.23-8.06 1.65-.63 3.4-1 5.2-1.08z" fill="#EB0977" fill-rule="nonzero"/>
            <path d="M13.77 10.36c.54-.1 1.14-.1 1.64.17.94.45 1.6 1.36 1.86 2.34.3-.92.85-1.8 1.73-2.27.57-.34 1.3-.4 1.93-.2 1.06.43 1.58 1.67 1.37 2.75-.1.77-.6 1.4-1.06 2 .9-.2 1.93-.23 2.74.3.75.45 1.34 1.3 1.2 2.22-.13.87-.8 1.6-1.62 1.9-.74.35-1.6.3-2.36.1.3.38.6.74.83 1.18.53 1.05.4 2.5-.58 3.26-.68.57-1.65.5-2.42.17l-.13-.07c-.8-.5-1.33-1.33-1.63-2.22-.26.76-.66 1.5-1.3 1.98-.72.57-1.76.75-2.6.34-.7-.4-1.13-1.2-1.18-2-.06-.76.27-1.5.7-2.1l.04-.03c.14-.18.3-.34.43-.5-.83.23-1.75.25-2.54-.15-1.1-.46-1.87-1.84-1.3-2.98l.05-.1c.27-.42.62-.8 1.07-1.05.8-.5 1.8-.44 2.7-.25-.6-.65-1.12-1.44-1.16-2.34-.08-1.02.55-2.13 1.57-2.44z" fill="#FEFEFE" fill-rule="nonzero"/>
            <ellipse fill="#EB0977" cx="17.33" cy="17.49" rx="1.83" ry="1.84"/>
          </g>
          <g fill-rule="nonzero">
            <path d="M20.6 1.13c2.6-.65 5.25-1.16 7.94-1.1 7.34-.2 14.66 2.7 20.02 7.7 4.74 4.3 7.93 10.3 8.93 16.66.77 4.33.4 8.83-.85 13.05-1.97 6.7-6.52 12.62-12.46 16.3-6.8 4.3-15.4 5.5-23.12 3.32-6.68-1.84-12.63-6.2-16.42-12C2.2 41.4.66 37.16.1 32.78-.03 31.05 0 29.34 0 27.62c-.08-2.48.43-4.94 1.18-7.3 2.5-8.2 8.9-15.1 16.88-18.25.83-.35 1.7-.6 2.52-.94z" fill="#FBA81E"/>
            <path d="M28.04 14.33c.3-.65.3-1.44.85-1.94.35 1.04.8 2.06 1.07 3.15.25.9.68 1.77.9 2.7-1.37-.03-2.75-.03-4.13-.02.38-1.32.96-2.57 1.3-3.9zM34.87 20c1.83-1.1 3.8-1.9 5.7-2.85-.87 1.93-1.65 3.9-2.74 5.73-1-.94-1.8-2.13-2.96-2.9zM17.18 17.2c1.82.95 3.76 1.68 5.5 2.8-1.02.9-2 1.86-2.86 2.9-1-1.84-1.96-3.72-2.64-5.7zM27.24 19.64c2.04-.45 4.14.1 6.03.88 1.16.8 2.37 1.6 3.13 2.8 2.03 2.57 2.34 6.23 1.28 9.27-.24.9-.82 1.63-1.37 2.37-.76 1.16-1.94 1.95-3.08 2.7-1.72.7-3.58 1.3-5.46.98-1.13-.07-2.17-.5-3.2-.92-1.74-.87-3.1-2.33-4.1-4-1.4-2.77-1.47-6.18-.14-9 .93-1.77 2.4-3.22 4.1-4.22.9-.4 1.87-.62 2.82-.86zM39.6 27.03c1.2.3 2.3.9 3.5 1.2.88.22 1.7.63 2.52 1-.95.1-1.8.55-2.7.82-1.12.3-2.15.84-3.27 1.13-.2-1.37-.17-2.77-.06-4.15zM14.38 28.26c1.27-.32 2.43-.97 3.7-1.24-.1 1.38-.1 2.76 0 4.14-1.95-.6-3.86-1.37-5.83-1.95.53-.6 1.42-.65 2.13-.94zM19.85 35.2c.7 1.16 1.8 2 2.73 2.97 0 .04 0 .14-.02.18-1.7 1.03-3.6 1.7-5.35 2.63.7-2 1.65-3.9 2.65-5.77zM34.86 38.2c1.22-.68 1.92-1.97 3-2.84 1.06 1.8 1.83 3.73 2.65 5.64-1.85-.98-3.83-1.73-5.64-2.8zM26.74 40c1.37 0 2.74 0 4.1-.03-.16 1.06-.76 1.97-.96 3-.22 1-.68 1.9-.98 2.86-.53-.5-.57-1.3-.86-1.94-.34-1.34-.93-2.6-1.3-3.9z" fill="#FEFEFE"/>
          </g>
          <g fill-rule="nonzero">
            <path d="M101.94 49.8c2.98-.15 6 .4 8.7 1.67 4.15 1.92 7.52 5.45 9.23 9.7 1.92 4.63 1.8 10.07-.33 14.62-1.78 3.88-4.97 7.1-8.85 8.9-4.48 2.1-9.83 2.28-14.43.45-5.07-1.94-9.13-6.3-10.75-11.5-1.03-3.2-1.14-6.72-.3-10 1.03-4.27 3.7-8.12 7.3-10.6 2.76-1.95 6.06-3.08 9.42-3.25z" fill="#37B54A"/>
            <path d="M101.4 60.42c.1-.2.46-.2.57 0 1.67 2.27 3.32 4.55 5 6.8.2.26.17.64-.04.88-1.32 1.82-2.68 3.62-4 5.44-.23.34-.55.7-1 .67H91.57c0-.2.03-.4.18-.55.66-.84 1.22-1.76 1.93-2.56.26-.2.45-.48.56-.78.28-.53.68-.98 1.03-1.46l4.04-5.53c.66-1 1.4-1.93 2.1-2.9z" fill="#FEFEFE"/>
            <path d="M101.47 63.1c.1-.2.4-.12.48.07 1 1.32 1.96 2.67 2.94 4-.83-.15-1.54-.64-2.34-.85-.2-.06-.22.23-.3.35-.22.75-.34 1.54-.55 2.3-.28-.8-.42-1.64-.6-2.47l-.3-.2c-.77.27-1.5.67-2.27.9.96-1.37 1.92-2.75 2.94-4.1z" fill="#37B54A"/>
            <path d="M108.64 67.68c.45-.57.8-1.22 1.35-1.72.24.24.45.52.64.8 1.68 2.33 3.4 4.63 5.08 6.95.1.16.32.46 0 .5h-9.95c-.54 0-1.1.05-1.63-.02-.17-.18.08-.36.15-.52 1.46-1.98 2.92-3.97 4.34-5.98z" fill="#FEFEFE"/>
            <path d="M109.64 67.93c.1-.15.24-.3.44-.22.3.3.52.66.77 1 .3.43.68.83.88 1.33-.4-.14-.8-.3-1.2-.46-.4.3-.36.8-.42 1.24-.04.04-.13.08-.18.1-.1-.34-.17-.7-.26-1.05-.02-.13-.17-.2-.28-.24-.43.1-.8.36-1.22.42.45-.72 1-1.38 1.48-2.1z" fill="#37B54A"/>
            <path d="M94.04 70.4l.2-.08c-.1.3-.3.57-.56.77l.03-.28c.16-.1.26-.25.34-.4z" fill="#BCC7CB"/>
          </g>
          <g fill-rule="nonzero">
            <path d="M134.8 3.4c4.32-1.2 9.06-.86 13.16.97 4.4 1.93 8.03 5.57 9.96 9.98 2.12 4.74 2.23 10.33.3 15.16-1.72 4.4-5.1 8.13-9.3 10.27-4.86 2.5-10.77 2.8-15.86.83-4.35-1.65-8.06-4.92-10.25-9.03-2.08-3.86-2.78-8.45-2-12.78.8-4.55 3.3-8.76 6.85-11.67 1.58-1.3 3.36-2.33 5.25-3.1.18-.06.36-.16.56-.12l.25-.1c.33-.22.74-.27 1.1-.4z" fill="#0188B1"/>
            <path d="M133.5 3.84l.16-.1.14.1c-.08.07-.25.18-.34.23l.03-.23z" fill="#5C2F90"/>
            <path d="M134.96 14.7c1.82-.76 4.05-.67 5.73.42 1.08.65 1.88 1.7 2.4 2.84.56-.37 1.18-.72 1.87-.7 1.55-.1 3 1.2 3.13 2.74.07.68-.1 1.36-.45 1.94 1.52.4 2.82 1.6 3.3 3.1.34 1.23.27 2.62-.4 3.72-.82 1.37-2.37 2.33-3.98 2.27-4.34 0-8.67.02-13 0-2.73.02-5.2-2.45-5.17-5.2-.1-2.05 1.1-4.13 3-4.96.05-.84.04-1.7.3-2.5.54-1.58 1.75-2.92 3.26-3.66z" fill="#FEFEFE"/>
          </g>
          <g fill-rule="nonzero">
            <path d="M173.6 63.62c6.3-.68 12.85 1.42 17.58 5.64 4.9 4.28 7.8 10.7 7.77 17.2.05 6-2.4 12-6.66 16.24-4 4.04-9.52 6.54-15.2 6.77-4.54.26-9.15-.88-13.05-3.24-3.95-2.37-7.17-5.95-9.08-10.15-2.27-4.92-2.7-10.66-1.2-15.88 1.32-4.7 4.22-8.96 8.1-11.94 3.38-2.6 7.5-4.24 11.73-4.64z" fill="#5C2F90"/>
            <path d="M173.1 76.5c1.4-.8 3.1-.98 4.67-.68.96.23 1.85.86 2.25 1.8.2.57.16 1.33-.42 1.68.16-.6-.48-.78-.92-.84-.78 0-1.54.4-1.94 1.07-1.2 1.62-1.14 3.8-.7 5.68 1.1 3.56 4.05 6.2 7.26 7.9.73.46 1.6.66 2.3 1.15-7 .04-13.98-.05-20.96-.04-.4-1.83-.13-3.75.4-5.54.7-2.76 1.96-5.36 3.56-7.72 1.2-1.74 2.66-3.35 4.5-4.44z" fill="#FEFEFE"/>
          </g>
        </g>
        <g fill="#FFF">
          <path d="M66.82 104.92c-6.3 0-11.14-1.45-14.56-4.33-3.42-2.9-5.17-6.93-5.26-12.1h9.94c.05 1.54.33 2.86.87 3.97.54 1.1 1.25 2.02 2.13 2.73.87.7 1.9 1.22 3.07 1.54 1.18.32 2.45.48 3.82.48 2.35 0 4.26-.72 5.7-2.15 1.46-1.43 2.2-3.2 2.2-5.3 0-1.27-.24-2.33-.7-3.17-.48-.83-1.13-1.5-1.94-1.98-.8-.5-1.73-.83-2.76-1-1.02-.17-2.1-.26-3.2-.26h-3.47v-6.8c.4.05.86.07 1.4.07h1.3c5.5 0 8.27-2.08 8.27-6.22 0-1.8-.63-3.18-1.9-4.16-1.25-1-2.9-1.48-4.96-1.48-2.48 0-4.46.6-5.94 1.8-1.47 1.2-2.32 2.9-2.53 5.13h-9.5c.04-2.58.55-4.78 1.54-6.62.98-1.84 2.3-3.35 3.94-4.55 1.65-1.2 3.55-2.1 5.7-2.66 2.17-.58 4.45-.87 6.84-.87 2.3 0 4.46.3 6.45.93 2 .62 3.7 1.5 5.13 2.6 1.43 1.1 2.57 2.45 3.4 4 .83 1.57 1.25 3.3 1.25 5.24 0 2.3-.64 4.3-1.92 5.96-1.3 1.67-2.95 2.74-5 3.2 1.2.22 2.32.63 3.4 1.23 1.06.6 1.98 1.35 2.75 2.27.77.92 1.38 2 1.83 3.24.46 1.24.68 2.6.68 4.04 0 2.24-.46 4.28-1.38 6.14-.92 1.86-2.18 3.46-3.78 4.8-1.6 1.36-3.5 2.4-5.68 3.15-2.18.74-4.55 1.12-7.12 1.12zm33.68-.2c-1.58 0-3.06-.2-4.43-.57-1.37-.4-2.56-1-3.6-1.8-1.02-.8-1.82-1.84-2.4-3.08-.57-1.24-.86-2.7-.86-4.42 0-1.9.34-3.44 1-4.65.67-1.22 1.52-2.2 2.57-2.92 1.05-.73 2.24-1.28 3.6-1.64 1.34-.36 2.7-.65 4.06-.86 1.37-.22 2.72-.4 4.05-.52 1.32-.13 2.5-.32 3.52-.58 1.03-.25 1.84-.63 2.44-1.12.6-.5.88-1.2.83-2.15 0-.93-.16-1.7-.48-2.3-.33-.6-.75-1.05-1.3-1.37-.52-.33-1.14-.54-1.85-.65-.7-.1-1.46-.16-2.28-.16-1.8 0-3.2.4-4.23 1.16-1.03.77-1.63 2.05-1.8 3.85h-9.1c.12-2.1.66-3.86 1.6-5.3.94-1.43 2.14-2.57 3.6-3.43 1.44-.85 3.07-1.46 4.87-1.83 1.8-.36 3.64-.54 5.52-.54 1.67 0 3.36.12 5.07.35 1.7.24 3.26.7 4.67 1.38 1.4.7 2.57 1.65 3.47 2.9.9 1.23 1.34 2.83 1.34 4.8V96.5c0 1.5.1 2.94.26 4.3.17 1.38.47 2.4.9 3.1h-9.24c-.17-.52-.3-1.05-.42-1.58-.1-.53-.18-1.08-.22-1.64-1.45 1.5-3.16 2.55-5.13 3.15-1.97.6-3.98.9-6.03.9zm3.4-6.02c1.8 0 3.18-.3 4.17-.9.98-.6 1.7-1.32 2.18-2.15.47-.84.76-1.68.86-2.54.12-.84.17-1.52.17-2.04v-3.4c-.38.34-.85.6-1.4.8-.56.2-1.18.36-1.87.5-.68.1-1.4.22-2.1.3-.74.1-1.47.2-2.2.33-.72.1-1.4.3-2.05.5-.64.2-1.2.5-1.7.87-.5.36-.88.82-1.18 1.37-.3.56-.45 1.27-.45 2.12 0 .86.15 1.55.45 2.1.3.52.7.95 1.22 1.27.5.32 1.1.54 1.78.67.7.13 1.4.2 2.12.2zm64.4 5.2h-40.86V70.72h9.04v26.3h9.05v-26.3h9.04v26.3h9.05v-26.3h9.04v26.3h4.17V113h-8.53v-9.1zm28.74.83c-2.6 0-4.96-.4-7.06-1.22-2.1-.8-3.9-1.97-5.4-3.5-1.48-1.5-2.64-3.34-3.45-5.47-.8-2.14-1.22-4.54-1.22-7.2 0-2.64.42-5.05 1.23-7.2.8-2.16 1.97-4 3.46-5.52 1.5-1.5 3.3-2.7 5.38-3.52 2.1-.83 4.45-1.25 7.06-1.25 2.6 0 4.97.42 7.1 1.25 2.1.83 3.9 2 5.4 3.53 1.5 1.53 2.66 3.37 3.47 5.52.82 2.16 1.23 4.57 1.23 7.22 0 2.65-.4 5.05-1.22 7.2-.8 2.12-1.96 3.95-3.45 5.47-1.5 1.53-3.3 2.7-5.42 3.5-2.12.82-4.48 1.23-7.1 1.23zm0-6.8c1.54 0 2.83-.3 3.88-.9 1.05-.6 1.88-1.4 2.5-2.4.62-1 1.06-2.15 1.32-3.4.25-1.27.38-2.56.38-3.9 0-1.3-.13-2.62-.38-3.9-.26-1.28-.7-2.42-1.32-3.4-.62-.98-1.45-1.8-2.5-2.4-1.05-.63-2.34-.94-3.88-.94s-2.82.3-3.85.92c-1.04.62-1.86 1.43-2.48 2.4-.62 1-1.06 2.13-1.3 3.4-.27 1.3-.4 2.6-.4 3.92 0 1.33.13 2.62.4 3.88.24 1.26.68 2.4 1.3 3.4s1.44 1.8 2.47 2.4c1.02.6 2.3.9 3.84.9zM90.6 150.77c-.93.28-2.3.62-4.12 1.02-1.8.38-3.7.58-5.65.58-4.94 0-8.48-1.14-10.62-3.42-2.13-2.28-3.2-5.38-3.2-9.3v-11.72h9.85v9.7c0 2.66.5 4.5 1.53 5.52 1.03 1.03 2.7 1.54 5.03 1.54 1.45 0 2.8-.12 4.06-.35 1.26-.23 2.3-.46 3.14-.7v-15.7h9.92v36.1H90.6v-13.28zm28.2 14.18c-1.7 0-3.32-.2-4.8-.63-1.5-.42-2.8-1.07-3.92-1.95-1.12-.9-2-2-2.62-3.36-.63-1.34-.94-2.94-.94-4.8 0-2.05.36-3.74 1.08-5.07.72-1.32 1.65-2.38 2.8-3.17 1.14-.8 2.44-1.4 3.9-1.78 1.47-.4 2.95-.7 4.44-.95 1.5-.23 2.96-.42 4.4-.55 1.44-.14 2.72-.35 3.84-.63 1.12-.28 2-.7 2.65-1.23.65-.53.96-1.3.9-2.33 0-1.04-.17-1.88-.5-2.53-.36-.65-.83-1.15-1.4-1.5-.6-.35-1.27-.58-2.04-.7-.77-.1-1.6-.17-2.48-.17-1.96 0-3.5.42-4.6 1.25-1.13.84-1.78 2.24-1.97 4.2h-9.9c.13-2.3.7-4.2 1.73-5.77 1.03-1.56 2.33-2.8 3.9-3.73 1.6-.93 3.36-1.6 5.32-2 1.95-.4 3.96-.6 6-.6 1.82 0 3.66.14 5.52.4 1.86.25 3.56.76 5.1 1.5 1.53.74 2.8 1.8 3.77 3.14.97 1.34 1.45 3.1 1.45 5.23V156c0 1.64.1 3.2.28 4.7.2 1.48.52 2.6.98 3.34h-10.04c-.2-.56-.34-1.13-.46-1.7-.1-.6-.2-1.18-.24-1.8-1.58 1.64-3.45 2.78-5.6 3.43-2.13.65-4.32.98-6.55.98zm3.7-6.56c1.96 0 3.48-.34 4.55-1 1.07-.64 1.86-1.42 2.37-2.33.5-.9.83-1.83.94-2.76.12-.92.18-1.67.18-2.22v-3.7c-.42.37-.93.66-1.54.87-.6.2-1.28.38-2.02.52-.75.14-1.5.26-2.3.35-.8.1-1.6.2-2.38.35-.8.14-1.54.33-2.23.56-.7.23-1.32.55-1.85.94-.54.4-.97.9-1.3 1.5-.32.6-.48 1.38-.48 2.3 0 .94.16 1.7.48 2.28.33.58.77 1.04 1.33 1.4.56.34 1.2.6 1.96.73.75.14 1.52.2 2.3.2zm25.64-30.46h9.9v14.74l13.28-14.74h11.66l-15.08 15.92 17.03 20.18h-12l-12.8-15-2.08 2.3v12.7h-9.9v-36.1zm50.83 37c-1.73 0-3.33-.2-4.82-.62-1.5-.42-2.8-1.07-3.9-1.95-1.13-.9-2-2-2.63-3.36-.63-1.34-.94-2.94-.94-4.8 0-2.05.36-3.74 1.08-5.07.72-1.32 1.65-2.38 2.8-3.17 1.13-.8 2.44-1.4 3.9-1.78 1.47-.4 2.95-.7 4.44-.95 1.5-.23 2.95-.42 4.4-.55 1.44-.14 2.72-.35 3.84-.63 1.1-.28 2-.7 2.65-1.23.64-.53.94-1.3.9-2.33 0-1.04-.18-1.88-.53-2.53-.35-.65-.8-1.15-1.4-1.5-.57-.35-1.25-.58-2.02-.7-.77-.1-1.6-.17-2.48-.17-1.95 0-3.5.42-4.6 1.25-1.12.84-1.77 2.24-1.96 4.2h-9.9c.13-2.3.72-4.2 1.74-5.77 1.02-1.56 2.33-2.8 3.9-3.73 1.6-.93 3.36-1.6 5.32-2 1.95-.4 3.95-.6 6-.6 1.82 0 3.66.14 5.52.4 1.86.25 3.56.76 5.1 1.5 1.53.74 2.8 1.8 3.77 3.14.97 1.34 1.46 3.1 1.46 5.23V156c0 1.64.1 3.2.3 4.7.18 1.48.5 2.6.97 3.34H211.8c-.17-.56-.32-1.13-.44-1.7-.12-.6-.2-1.18-.24-1.8-1.6 1.64-3.45 2.78-5.6 3.43-2.13.65-4.32.98-6.55.98zm3.7-6.55c1.95 0 3.47-.34 4.54-1 1.08-.64 1.87-1.42 2.38-2.33.5-.9.83-1.83.94-2.76.12-.92.18-1.67.18-2.22v-3.7c-.42.37-.93.66-1.54.87-.6.2-1.28.38-2.02.52-.75.14-1.52.26-2.3.35-.8.1-1.6.2-2.38.35-.8.14-1.54.33-2.24.56-.7.23-1.3.55-1.85.94-.53.4-.96.9-1.3 1.5-.3.6-.48 1.38-.48 2.3 0 .94.16 1.7.48 2.28.33.58.77 1.04 1.33 1.4.57.34 1.22.6 1.96.73.75.14 1.52.2 2.3.2zm34.42-23H225.2v-7.46h33.66v7.47H247v28.64h-9.9V135.4zm42.93 29.55c-2.84 0-5.4-.46-7.68-1.36-2.28-.92-4.2-2.2-5.8-3.9-1.58-1.66-2.8-3.67-3.66-6-.87-2.32-1.3-4.88-1.3-7.67 0-2.7.44-5.22 1.33-7.54.88-2.34 2.14-4.36 3.77-6.05 1.62-1.7 3.57-3.04 5.83-4.02 2.25-.98 4.76-1.47 7.5-1.47 2.9 0 5.44.54 7.65 1.6 2.2 1.08 4.05 2.5 5.5 4.3 1.48 1.8 2.6 3.88 3.33 6.25.76 2.4 1.13 4.86 1.13 7.42v.94c0 .3-.03.6-.07.94H271.5c.15 3.2.97 5.54 2.46 6.98 1.5 1.45 3.63 2.17 6.42 2.17 2 0 3.72-.5 5.17-1.5 1.44-1 2.33-2.06 2.65-3.18h8.73c-1.4 4.33-3.54 7.42-6.42 9.3-2.88 1.85-6.37 2.78-10.47 2.78zm7.6-22.83c-.45-2.52-1.28-4.43-2.47-5.73-1.18-1.3-3-1.96-5.4-1.96-1.64 0-2.96.26-4 .8-1 .53-1.84 1.2-2.47 2-.63.78-1.08 1.62-1.33 2.5-.26.9-.4 1.68-.46 2.38h16.14zm25.5 11.17v10.74h10.96V153.3h-10.97zm-11.24-23.05h10.25c0-1.26.14-2.44.42-3.53.28-1.1.7-2.05 1.3-2.86.57-.82 1.32-1.47 2.23-1.96.9-.5 2-.73 3.24-.73 1.86 0 3.32.5 4.37 1.54 1.05 1.03 1.58 2.6 1.58 4.75.04 1.26-.18 2.3-.67 3.15-.47.83-1.1 1.6-1.9 2.3-.8.7-1.66 1.4-2.6 2.1-.92.7-1.8 1.52-2.64 2.47-.84.96-1.57 2.1-2.2 3.46-.63 1.35-1 3.03-1.15 5.03v3.14h9.43v-2.65c.2-1.4.64-2.56 1.36-3.5.72-.93 1.54-1.75 2.47-2.47.93-.73 1.92-1.45 2.97-2.17 1.05-.7 2-1.58 2.86-2.6.86-1.03 1.6-2.26 2.17-3.7.58-1.45.87-3.3.87-5.52 0-1.35-.3-2.8-.87-4.37-.58-1.55-1.55-3-2.9-4.35-1.35-1.35-3.13-2.48-5.34-3.4-2.2-.9-4.97-1.35-8.28-1.35-2.56 0-4.87.43-6.94 1.3-2.06.85-3.83 2.05-5.3 3.6-1.47 1.52-2.6 3.34-3.42 5.43-.82 2.1-1.25 4.4-1.3 6.92z"/>
        </g>
        <path d="M395.02 57h20.82v25.85h-4.52V60.9h-11.77v21.95h-4.53V57zm25.78 7.13h3.9v2.54h.08c.58-1.1 1.4-1.87 2.43-2.34 1.05-.47 2.17-.7 3.38-.7 1.47 0 2.76.26 3.85.77 1.1.52 2 1.24 2.74 2.14.72.9 1.27 1.96 1.63 3.17.36 1.22.54 2.5.54 3.88 0 1.26-.16 2.48-.5 3.66-.3 1.18-.8 2.23-1.47 3.13-.67.9-1.5 1.63-2.52 2.17-1 .55-2.2.82-3.58.82-.6 0-1.2-.05-1.8-.16-.62-.1-1.2-.3-1.75-.53-.56-.24-1.07-.55-1.54-.92-.47-.38-.86-.82-1.18-1.32h-.07v9.34h-4.13V64.13zm14.4 9.38c0-.83-.1-1.65-.3-2.45-.23-.8-.56-1.5-1-2.12-.43-.6-.97-1.1-1.62-1.48-.65-.38-1.4-.57-2.25-.57-1.73 0-3.04.6-3.92 1.82-.87 1.2-1.32 2.8-1.32 4.8 0 .95.12 1.83.35 2.64.23.8.57 1.5 1.03 2.08.46.58 1 1.04 1.65 1.37.65.33 1.4.5 2.23.5.95 0 1.74-.2 2.4-.58.65-.38 1.18-.9 1.6-1.5.43-.62.73-1.32.9-2.1.2-.8.28-1.6.28-2.4zm16.2 9.86c-1.5 0-2.83-.25-4-.74-1.17-.5-2.16-1.18-2.97-2.05-.8-.87-1.43-1.9-1.85-3.1-.42-1.22-.63-2.55-.63-4 0-1.42.2-2.74.63-3.94.42-1.2 1.04-2.25 1.85-3.12.8-.85 1.8-1.54 2.97-2.03 1.17-.5 2.5-.74 4-.74s2.83.24 4 .74 2.16 1.18 2.97 2.04c.8.88 1.42 1.92 1.84 3.13.44 1.2.65 2.52.65 3.94 0 1.45-.2 2.78-.64 4-.4 1.2-1.02 2.23-1.83 3.1-.8.87-1.8 1.55-2.97 2.05-1.17.5-2.5.74-4 .74zm0-3.26c.9 0 1.7-.2 2.4-.58.66-.38 1.22-.9 1.65-1.52.44-.63.76-1.33.96-2.12.22-.78.32-1.58.32-2.4 0-.8-.1-1.6-.3-2.4-.2-.8-.53-1.5-.97-2.1-.43-.63-1-1.13-1.66-1.52-.7-.38-1.5-.58-2.4-.58-.92 0-1.72.2-2.4.58-.67.4-1.22.9-1.66 1.5-.43.62-.75 1.33-.96 2.12-.2.8-.3 1.6-.3 2.4 0 .82.1 1.62.3 2.4.2.8.53 1.5.96 2.12.44.63 1 1.14 1.67 1.52.68.4 1.48.58 2.4.58zm17.12-8.33h4.42c.8 0 1.46-.2 1.97-.6.53-.4.8-.95.8-1.68 0-.85-.24-1.44-.7-1.78-.48-.34-1.17-.5-2.06-.5h-4.42v4.55zm-4.12-7.64h9.85c1.68 0 3.04.38 4.05 1.14 1 .76 1.52 1.93 1.52 3.5 0 .94-.23 1.75-.7 2.42-.48.67-1.13 1.2-1.98 1.55v.07c1.16.24 2.04.8 2.63 1.63.6.85.88 1.9.88 3.2 0 .7-.13 1.4-.4 2.03-.26.64-.67 1.2-1.23 1.67-.55.47-1.26.84-2.13 1.1-.88.27-1.92.4-3.13.4h-9.37V64.13zm4.12 15.64h4.9c1 0 1.78-.23 2.3-.7.54-.47.8-1.13.8-1.97 0-.85-.26-1.5-.8-1.94-.52-.45-1.3-.67-2.3-.67h-4.9v5.27zm28.46-7.92c-.04-.66-.18-1.28-.4-1.9-.24-.6-.56-1.12-.95-1.56-.4-.46-.9-.82-1.45-1.1-.57-.28-1.2-.42-1.9-.42-.73 0-1.4.13-1.98.4-.6.24-1.1.6-1.52 1.04-.42.44-.76.97-1 1.57-.26.6-.4 1.25-.43 1.95h9.63zm-9.63 2.7c0 .74.1 1.44.3 2.1.22.7.52 1.28.93 1.8.4.5.93.9 1.56 1.2.63.3 1.38.45 2.25.45 1.2 0 2.16-.26 2.9-.78.74-.52 1.3-1.3 1.65-2.33h3.9c-.2 1-.58 1.9-1.1 2.7-.55.8-1.2 1.47-1.93 2-.75.56-1.6.97-2.52 1.24-.93.28-1.9.42-2.9.42-1.5 0-2.8-.24-3.93-.72-1.13-.5-2.1-1.16-2.87-2.03-.8-.86-1.38-1.9-1.78-3.1-.4-1.2-.6-2.54-.6-4 0-1.32.22-2.58.64-3.77.42-1.2 1.02-2.25 1.8-3.15.8-.9 1.74-1.63 2.85-2.16 1.12-.53 2.38-.8 3.78-.8 1.47 0 2.8.3 3.96.93 1.17.6 2.14 1.43 2.92 2.44.77 1 1.33 2.17 1.68 3.5.35 1.3.44 2.66.27 4.06h-13.75zm17.02-10.42h3.9v2.54h.08c.58-1.1 1.4-1.87 2.43-2.34 1.04-.47 2.16-.7 3.37-.7 1.47 0 2.75.26 3.85.77 1.1.52 2 1.24 2.74 2.14.72.9 1.26 1.96 1.63 3.17.36 1.22.54 2.5.54 3.88 0 1.26-.15 2.48-.48 3.66-.33 1.18-.82 2.23-1.48 3.13-.67.9-1.5 1.63-2.52 2.17-1 .55-2.2.82-3.6.82-.6 0-1.2-.05-1.8-.16-.6-.1-1.18-.3-1.73-.53-.57-.24-1.08-.55-1.55-.92-.47-.38-.87-.82-1.18-1.32h-.07v9.34h-4.13V64.13zm14.4 9.38c0-.83-.1-1.65-.3-2.45-.23-.8-.56-1.5-1-2.12-.43-.6-.97-1.1-1.62-1.48-.65-.38-1.4-.57-2.25-.57-1.73 0-3.04.6-3.93 1.82-.88 1.2-1.32 2.8-1.32 4.8 0 .95.12 1.83.35 2.64.23.8.57 1.5 1.03 2.08.46.58 1 1.04 1.65 1.37.64.33 1.38.5 2.22.5.94 0 1.74-.2 2.4-.58.64-.38 1.18-.9 1.6-1.5.43-.62.73-1.32.9-2.1.2-.8.28-1.6.28-2.4zm20.47-1.65c-.05-.66-.2-1.28-.42-1.9-.23-.6-.54-1.12-.94-1.56-.4-.46-.88-.82-1.45-1.1-.56-.28-1.2-.42-1.9-.42-.72 0-1.38.13-1.97.4-.6.24-1.1.6-1.52 1.04-.42.44-.76.97-1.02 1.57-.25.6-.4 1.25-.4 1.95h9.62zm-9.63 2.7c0 .74.1 1.44.32 2.1.2.7.5 1.28.92 1.8.4.5.93.9 1.56 1.2.62.3 1.37.45 2.24.45 1.2 0 2.18-.26 2.92-.78.73-.52 1.28-1.3 1.64-2.33h3.9c-.2 1-.58 1.9-1.1 2.7-.54.8-1.18 1.47-1.93 2-.75.56-1.6.97-2.5 1.24-.94.28-1.92.42-2.93.42-1.47 0-2.78-.24-3.9-.72-1.14-.5-2.1-1.16-2.9-2.03-.77-.86-1.36-1.9-1.76-3.1-.4-1.2-.6-2.54-.6-4 0-1.32.2-2.58.63-3.77.44-1.2 1.04-2.25 1.82-3.15.8-.9 1.74-1.63 2.85-2.16 1.1-.53 2.36-.8 3.76-.8 1.47 0 2.8.3 3.97.93 1.17.6 2.14 1.43 2.9 2.44.78 1 1.34 2.17 1.7 3.5.34 1.3.44 2.66.27 4.06H529.6zm31.8-7.34h-6.2v15.65h-4.12V67.2h-6.45v-3.07h16.77v3.08zm15.4 4.65c-.06-.66-.2-1.28-.43-1.9-.23-.6-.54-1.12-.94-1.56-.4-.46-.88-.82-1.45-1.1-.57-.28-1.2-.42-1.9-.42-.72 0-1.38.13-1.97.4-.6.24-1.1.6-1.5 1.04-.44.44-.77.97-1.03 1.57-.25.6-.4 1.25-.4 1.95h9.62zm-9.64 2.7c0 .74.1 1.44.3 2.1.2.7.52 1.28.93 1.8.4.5.92.9 1.54 1.2.63.3 1.38.45 2.25.45 1.2 0 2.17-.26 2.9-.78.74-.52 1.3-1.3 1.65-2.33h3.9c-.2 1-.58 1.9-1.1 2.7-.54.8-1.18 1.47-1.93 2-.75.56-1.6.97-2.52 1.24-.93.28-1.9.42-2.9.42-1.48 0-2.8-.24-3.92-.72-1.14-.5-2.1-1.16-2.88-2.03-.8-.86-1.38-1.9-1.78-3.1-.4-1.2-.6-2.54-.6-4 0-1.32.22-2.58.64-3.77.42-1.2 1.03-2.25 1.8-3.15.8-.9 1.74-1.63 2.85-2.16 1.12-.53 2.38-.8 3.78-.8 1.47 0 2.8.3 3.96.93 1.18.6 2.15 1.43 2.92 2.44.77 1 1.33 2.17 1.68 3.5.35 1.3.44 2.66.27 4.06h-13.74zM407.2 110.64c-.18-1.16-.65-2.04-1.4-2.63-.77-.6-1.73-.88-2.9-.88-.52 0-1.08.1-1.7.27-.6.17-1.15.5-1.65 1s-.93 1.18-1.27 2.07c-.34.88-.5 2.03-.5 3.45 0 .78.08 1.55.26 2.32.2.77.48 1.46.87 2.06.4.6.93 1.1 1.55 1.47.63.38 1.4.56 2.28.56 1.2 0 2.2-.37 3-1.12.78-.74 1.26-1.8 1.46-3.14h4.12c-.4 2.44-1.3 4.3-2.77 5.6-1.47 1.3-3.4 1.93-5.82 1.93-1.47 0-2.77-.26-3.9-.75-1.1-.5-2.06-1.17-2.83-2.03-.77-.86-1.36-1.88-1.76-3.06-.4-1.18-.6-2.46-.6-3.84 0-1.4.2-2.7.58-3.94.4-1.23.97-2.3 1.74-3.2.78-.9 1.73-1.63 2.88-2.14 1.15-.52 2.5-.78 4.04-.78 1.08 0 2.12.14 3.1.4.97.3 1.84.7 2.6 1.26s1.38 1.26 1.87 2.1c.48.85.77 1.85.87 3h-4.13zM418.9 112h4.42c.8 0 1.45-.2 1.97-.6.53-.4.8-.95.8-1.68 0-.84-.25-1.43-.72-1.77-.47-.34-1.15-.5-2.04-.5h-4.42V112zm-4.13-7.64h9.84c1.7 0 3.04.38 4.06 1.14 1 .77 1.52 1.93 1.52 3.5 0 .94-.24 1.75-.7 2.42-.48.68-1.14 1.2-1.98 1.56v.07c1.16.25 2.03.8 2.62 1.63.6.85.9 1.9.9 3.2 0 .7-.14 1.4-.4 2.04-.28.64-.7 1.2-1.24 1.66-.56.47-1.27.84-2.14 1.1-.87.27-1.9.4-3.1.4h-9.4v-18.72zM418.9 120h4.9c1 0 1.77-.23 2.3-.7.54-.47.8-1.13.8-1.97 0-.85-.26-1.5-.8-1.94-.53-.46-1.3-.68-2.3-.68h-4.9v5.3zm24.2 3.6c-1.5 0-2.84-.26-4.02-.75-1.17-.5-2.16-1.18-2.96-2.05-.8-.87-1.43-1.9-1.85-3.1-.43-1.22-.64-2.55-.64-4 0-1.42.2-2.73.63-3.94.4-1.2 1.03-2.25 1.84-3.1.8-.88 1.8-1.57 2.96-2.06 1.18-.5 2.5-.74 4-.74s2.84.24 4 .74c1.18.5 2.17 1.18 2.98 2.05.8.86 1.42 1.9 1.84 3.1.43 1.22.64 2.53.64 3.96 0 1.45-.2 2.78-.64 4-.42 1.2-1.04 2.23-1.84 3.1-.8.87-1.8 1.55-2.97 2.05-1.16.5-2.5.74-4 .74zm0-3.27c.9 0 1.7-.2 2.38-.58.67-.38 1.23-.9 1.66-1.52.44-.63.76-1.33.96-2.12.2-.77.3-1.57.3-2.4 0-.8-.1-1.6-.3-2.38-.2-.8-.52-1.5-.96-2.12-.43-.62-1-1.12-1.66-1.5-.68-.4-1.48-.58-2.4-.58-.9 0-1.7.2-2.38.58-.68.38-1.23.88-1.67 1.5-.43.6-.75 1.32-.96 2.12-.2.8-.32 1.6-.32 2.4 0 .8.1 1.6.3 2.4.22.78.54 1.48.97 2.1.44.64 1 1.15 1.67 1.53.67.4 1.47.58 2.4.58zm28.16 2.75h-4.13v-7.27h-4.06l-4.42 7.28h-5.04l5.36-7.6c-.82-.22-1.5-.53-2-.94-.53-.4-.93-.86-1.22-1.34-.3-.48-.5-1-.6-1.52-.1-.53-.16-1.04-.16-1.52 0-.58.08-1.2.25-1.9.17-.66.5-1.3.98-1.87.48-.6 1.15-1.07 2-1.46.87-.38 2-.58 3.4-.58h9.63v18.72zm-4.13-15.64h-5.32c-.73 0-1.36.22-1.9.65-.52.43-.78 1.13-.78 2.1 0 .96.26 1.62.8 2 .52.35 1.15.53 1.88.53h5.32v-5.3zm31.28 3.2c-.17-1.17-.63-2.05-1.4-2.64-.75-.6-1.7-.88-2.87-.88-.53 0-1.1.1-1.7.27-.6.17-1.16.5-1.67 1-.5.5-.94 1.18-1.28 2.07-.33.88-.5 2.03-.5 3.45 0 .78.1 1.55.27 2.32.17.77.46 1.46.86 2.06.4.6.9 1.1 1.54 1.47.62.38 1.4.56 2.28.56 1.2 0 2.2-.37 3-1.12.77-.74 1.26-1.8 1.45-3.14h4.13c-.4 2.44-1.3 4.3-2.77 5.6-1.47 1.3-3.4 1.93-5.82 1.93-1.47 0-2.77-.26-3.9-.75-1.12-.5-2.06-1.17-2.84-2.03-.77-.86-1.35-1.88-1.75-3.06-.4-1.18-.6-2.46-.6-3.84 0-1.4.18-2.7.57-3.94.4-1.23.97-2.3 1.74-3.2.78-.9 1.74-1.63 2.9-2.14 1.13-.52 2.48-.78 4.02-.78 1.1 0 2.12.14 3.1.4.98.3 1.85.7 2.6 1.26.77.56 1.4 1.26 1.87 2.1.47.85.76 1.85.86 3h-4.13zm6.92 9.47c.63 0 1.22-.2 1.8-.64.56-.43.96-1.06 1.2-1.88.15-.46.26-.9.35-1.36.08-.44.15-.92.2-1.43.07-.5.12-1.08.14-1.7l.07-2.18c.04-.82.06-1.76.07-2.8l.02-3.76h15.52v18.72h-4.13v-15.64h-7.2c0 1.57-.03 2.95-.07 4.15-.03 1.18-.08 2.24-.14 3.16-.07.9-.15 1.72-.25 2.4-.1.7-.23 1.3-.4 1.83-.17.6-.38 1.16-.63 1.68s-.63.96-1.12 1.34c-.5.37-1.16.67-2 .88-.83.22-1.92.33-3.27.33-.4 0-.7 0-.98-.02-.26 0-.53-.03-.8-.08v-3.1l.7.08h.9zm21.8-15.74h4.52l4.9 13.98h.06l4.75-13.98h4.3l-7.27 19.74c-.33.84-.66 1.65-1 2.42-.32.78-.7 1.46-1.18 2.05-.48.6-1.06 1.06-1.76 1.4-.7.36-1.6.54-2.68.54-.97 0-1.92-.07-2.86-.2v-3.5l.98.18c.3.06.64.1.97.1.5 0 .9-.07 1.2-.2.3-.1.57-.3.78-.52.2-.23.38-.5.52-.8.15-.33.28-.7.4-1.1l.47-1.45-7.1-18.64zm25.88 8.88l-6.48-8.88h5l3.9 5.76 4.1-5.76h4.78l-6.37 8.66 7.17 10.06h-4.96l-4.75-6.9-4.6 6.9h-4.85l7.06-9.84zm-149.9 50.58c-1.5 0-2.83-.25-4-.74-1.17-.5-2.16-1.18-2.97-2.05-.8-.86-1.42-1.9-1.84-3.1-.43-1.22-.64-2.54-.64-4 0-1.42.2-2.73.64-3.94.42-1.22 1.03-2.25 1.84-3.12.8-.87 1.8-1.55 2.97-2.05 1.17-.5 2.5-.74 4-.74s2.83.24 4 .73c1.17.5 2.16 1.18 2.97 2.05.8.87 1.43 1.9 1.85 3.1.42 1.22.63 2.53.63 3.96 0 1.45-.2 2.77-.63 3.98-.42 1.2-1.04 2.25-1.85 3.1-.8.88-1.8 1.57-2.97 2.06-1.17.5-2.5.74-4 .74zm0-3.26c.92 0 1.72-.2 2.4-.58.67-.38 1.22-.9 1.66-1.52.42-.62.74-1.33.95-2.1.2-.8.3-1.6.3-2.42 0-.8-.1-1.6-.3-2.4-.2-.8-.53-1.5-.96-2.1-.45-.63-1-1.13-1.68-1.5-.67-.4-1.47-.6-2.4-.6-.9 0-1.7.2-2.38.6-.67.37-1.23.87-1.66 1.5-.44.6-.76 1.3-.96 2.1-.2.8-.3 1.6-.3 2.4 0 .82.1 1.62.3 2.4.2.8.52 1.5.96 2.12.43.63 1 1.14 1.66 1.52.68.4 1.47.58 2.4.58zm40.23 2.76h-27.23V144.6h4.13v15.64h7.67V144.6h4.13v15.64h7.64V144.6h4.13v15.64h3.33V169h-3.8v-5.68zm19.2-11c-.06-.66-.2-1.3-.43-1.9-.23-.6-.54-1.12-.94-1.57-.4-.45-.9-.8-1.46-1.1-.56-.26-1.2-.4-1.9-.4-.72 0-1.38.12-1.97.38-.6.25-1.1.6-1.52 1.05-.42.44-.76.97-1.02 1.57-.25.6-.4 1.26-.4 1.96h9.62zm-9.64 2.7c0 .73.1 1.43.3 2.1.2.68.52 1.27.93 1.78.4.5.93.9 1.56 1.2.63.3 1.38.46 2.25.46 1.2 0 2.18-.26 2.92-.77.73-.53 1.28-1.3 1.64-2.35h3.92c-.2 1-.6 1.92-1.12 2.72-.53.8-1.17 1.46-1.92 2-.75.55-1.58.96-2.5 1.24-.94.28-1.9.42-2.93.42-1.47 0-2.77-.24-3.9-.72-1.14-.48-2.1-1.16-2.9-2.03-.77-.87-1.36-1.9-1.76-3.1-.4-1.22-.6-2.55-.6-4 0-1.32.2-2.6.62-3.78.43-1.2 1.03-2.26 1.8-3.16.8-.9 1.75-1.62 2.86-2.15 1.1-.55 2.36-.8 3.76-.8 1.48 0 2.8.3 3.97.9 1.18.63 2.15 1.44 2.92 2.46.77 1 1.34 2.17 1.7 3.5.34 1.3.43 2.66.26 4.06h-13.76zM481.88 169h-3.8v-8.76h2.36c.36-.1.7-.28 1-.55.6-.44 1-1.07 1.24-1.9.15-.45.26-.9.35-1.35.08-.44.15-.92.2-1.43.07-.5.12-1.07.14-1.7l.07-2.17c.03-.82.04-1.76.06-2.8v-3.75h15.55v15.64h3.33V169h-3.8v-5.68h-16.7V169zm13.04-21.33h-7.24c0 1.57 0 2.95-.04 4.15-.02 1.2-.06 2.25-.12 3.17-.07.9-.14 1.7-.24 2.4-.1.68-.23 1.3-.4 1.82-.1.37-.2.7-.32 1.02h8.36v-12.57zm10.1-3.07h4.13v7.74h9.3v-7.74h4.13v18.72h-4.12v-7.9h-9.3v7.9H505V144.6zm34.87 7.7c-.06-.64-.2-1.27-.43-1.87-.23-.6-.54-1.13-.94-1.58-.4-.45-.88-.8-1.45-1.1-.56-.26-1.2-.4-1.9-.4-.72 0-1.38.12-1.97.38-.58.25-1.1.6-1.5 1.05-.43.44-.77.97-1.02 1.57-.26.6-.4 1.26-.42 1.96h9.63zm-9.64 2.72c0 .73.1 1.43.3 2.1.2.68.52 1.27.93 1.78.4.5.92.9 1.55 1.2.62.3 1.37.46 2.24.46 1.2 0 2.17-.26 2.9-.77.74-.53 1.3-1.3 1.65-2.35h3.9c-.2 1-.58 1.92-1.1 2.72-.54.8-1.18 1.46-1.93 2-.75.55-1.58.96-2.5 1.24-.94.28-1.9.42-2.93.42-1.48 0-2.78-.24-3.92-.72-1.13-.48-2.1-1.16-2.88-2.03-.78-.87-1.37-1.9-1.77-3.1-.4-1.22-.6-2.55-.6-4 0-1.32.2-2.6.64-3.78.42-1.2 1.02-2.26 1.8-3.16.8-.9 1.74-1.62 2.85-2.15 1.1-.55 2.36-.8 3.76-.8 1.48 0 2.8.3 3.97.9 1.17.63 2.14 1.44 2.9 2.46.8 1 1.35 2.17 1.7 3.5.35 1.3.44 2.66.27 4.06h-13.76zm29.54-4.16c-.16-1.16-.63-2.03-1.4-2.63-.75-.6-1.7-.88-2.87-.88-.53 0-1.1.1-1.7.27-.6.18-1.16.52-1.66 1-.5.5-.93 1.2-1.27 2.08-.34.88-.5 2.03-.5 3.45 0 .78.08 1.55.26 2.32.18.77.47 1.46.87 2.07.4.6.9 1.1 1.54 1.46.63.38 1.4.56 2.28.56 1.2 0 2.2-.37 3-1.12.77-.75 1.26-1.8 1.45-3.15h4.13c-.38 2.43-1.3 4.3-2.77 5.6-1.46 1.28-3.4 1.92-5.8 1.92-1.48 0-2.78-.25-3.9-.74-1.12-.5-2.07-1.17-2.84-2.03-.78-.85-1.36-1.87-1.76-3.06-.4-1.2-.6-2.47-.6-3.85 0-1.4.2-2.7.58-3.94.4-1.22.97-2.3 1.74-3.2.77-.9 1.73-1.6 2.88-2.13 1.15-.52 2.5-.78 4.04-.78 1.08 0 2.1.13 3.1.4.97.28 1.84.7 2.6 1.25.76.56 1.38 1.26 1.86 2.1.5.85.78 1.85.87 3h-4.13z" fill="#FFF"/>
      </g>
    </g>
  </g>
</svg>
