<svg xmlns="http://www.w3.org/2000/svg" width="25" height="25" viewBox="0 0 25 25"><g fill="none" fill-rule="evenodd"><circle cx="12.5" cy="12.5" r="12.5" fill="#1C9AD6"/><g fill="#FFF" fill-rule="nonzero"><path d="M10.8 13a.3.3 0 0 0-.3-.2h-1a.3.3 0 0 0-.2.3v1c0 .2 0 .3.3.3h1s.2 0 .2-.2v-1zm2.5 0a.3.3 0 0 0-.3-.2h-1a.3.3 0 0 0-.3.3v1c0 .2.2.3.3.3h1s.3 0 .3-.2v-1zm2.4 0a.3.3 0 0 0-.3-.2h-1a.3.3 0 0 0-.2.3v1c0 .2 0 .3.3.3h1s.2 0 .2-.2v-1zm-5 2.5a.3.3 0 0 0-.2-.3h-1a.3.3 0 0 0-.2.3v1s0 .2.3.2h1s.2 0 .2-.2v-1zm2.6 0a.3.3 0 0 0-.3-.3h-1a.3.3 0 0 0-.3.3v1l.3.2h1s.3 0 .3-.2v-1zm2.4 0a.3.3 0 0 0-.3-.3h-1a.3.3 0 0 0-.2.3v1s0 .2.3.2h1s.2 0 .2-.2v-1z"/><path d="M17.5 7.8v1.5c0 .6-.6 1-1.3 1h-.7c-.7 0-1.3-.4-1.3-1V7.8h-3.4v1.5c0 .6-.6 1-1.3 1h-.7c-.7 0-1.3-.4-1.3-1V7.8c-.6 0-1 .5-1 1v8.6a1 1 0 0 0 1 1h10c.5 0 1-.4 1-1V9c0-.7-.4-1.2-1-1.2zm-.4 9a.5.5 0 0 1-.4.6H8.4A.5.5 0 0 1 8 17v-4.5c0-.3 0-.5.4-.5h8.2c.3 0 .5.2.5.5V17z"/><path d="M8.8 9.7h.7c.3 0 .4-.2.4-.4V7a.4.4 0 0 0-.5-.5h-.7a.4.4 0 0 0-.5.4v2.3c0 .2.2.4.5.4zm6.7 0h.7c.3 0 .4-.2.4-.4V7a.4.4 0 0 0-.4-.5h-.7a.4.4 0 0 0-.5.4v2.3c0 .2.2.4.5.4z"/></g></g></svg>