<svg xmlns="http://www.w3.org/2000/svg" width="14" height="20" viewBox="0 0 14 20"><g fill="#FFF"><path d="M12 2.2C10.6.8 8.8 0 7 0 3 0 0 3 0 7c0 .5.4 1 1 1a1 1 0 0 0 .8-1C1.8 4 4 1.8 7 1.8c3 0 5.2 2.7 5.2 5.2 0 2.7-3 7-4 8.5-1 1-2 2.4-2.6 2.7H3.3a1 1 0 0 0-1 1c0 .4.5.8 1 .8h2.5c.5 0 1-.3 2.4-1.8l1.3-1.6C9.7 16.4 14 11 14 7c0-1.7-.7-3.5-2-4.8z"/><path d="M4.6 13.3a1 1 0 0 0-1 1c0 .4.5 1 1 1 1.5 0 2.7-1.4 2.7-3A2.7 2.7 0 0 0 5.5 10V7A1.5 1.5 0 0 1 7 5.5c.8 0 1.5.6 1.5 1.5 0 .5.4 1 1 1a1 1 0 0 0 .8-1A3.3 3.3 0 0 0 7 3.6 3.3 3.3 0 0 0 3.7 7v3.6c0 .5.4 1 1 1s.8.3.8.8-.4 1-1 1z"/></g></svg>