<svg width="38" height="38" viewBox="0 0 38 38" xmlns="http://www.w3.org/2000/svg">
  <title>
    C553D2F0-DE69-4B86-8E54-D00C0EB1B910
  </title>
  <g fill="none" fill-rule="evenodd">
    <g fill="#39579A">
      <g>
        <path d="M31 0c1.8 0 3.5.7 5 2 1.3 1.5 2 3.2 2 5v24c0 1.8-.7 3.5-2 5-1.5 1.3-3.2 2-5 2H26v-9.6h5l.6-5.7H26V19c0-1 .3-1.6.7-2 .4-.5 1.2-.7 2.3-.7h3V11h-4.4c-2.2 0-4 .5-5.4 2-1.3 1.2-2 3-2 5.5v4.2h-5v5.7h5V38h-13c-2 0-3.7-.7-5-2C.6 34.4 0 32.7 0 31V7c0-1.8.7-3.5 2-5C3.6.8 5.3 0 7 0h24z"/>
      </g>
    </g>
  </g>
</svg>
