<svg width="38" height="38" viewBox="0 0 38 38" xmlns="http://www.w3.org/2000/svg">
  <title>
    2CFA7655-0875-4798-A61C-34B334E71206
  </title>
  <g fill="none" fill-rule="evenodd">
    <g fill="#DF4A32">
      <g>
        <path d="M21.6 19.2V18H15v2.3H19l-.3 1-.7.8-1 1-1.8.2c-1.2 0-2-.4-3-1.2-.8-.8-1.2-1.8-1.2-3s.4-2.2 1.2-3c1-.8 1.8-1.2 3-1.2 1 0 2 .3 2.7 1l1.7-1.7c-1.3-1-2.8-1.7-4.5-1.7-2 0-3.4.7-4.7 2-1.3 1.3-2 3-2 4.7 0 1.8.7 3.4 2 4.7 1.3 1.3 2.8 2 4.7 2 2 0 3.4-.6 4.6-1.8 1.2-1.4 1.8-3 1.8-4.8zm6 .8h2v-2h-2v-2h-2v2H24v2h2v2h1.8v-2zM38 7v24c0 1.8-.7 3.5-2 5-1.5 1.3-3.2 2-5 2H7c-1.8 0-3.5-.7-5-2-1.3-1.5-2-3.2-2-5V7c0-1.8.7-3.5 2-5C3.6.8 5.3 0 7 0h24c1.8 0 3.5.7 5 2 1.3 1.5 2 3.2 2 5z"/>
      </g>
    </g>
  </g>
</svg>
