<?xml version="1.0" encoding="UTF-8"?>
<svg width="73px" height="73px" viewBox="0 0 73 73" version="1.1" xmlns="http://www.w3.org/2000/svg" xmlns:xlink="http://www.w3.org/1999/xlink">
    <!-- Generator: sketchtool 45.2 (43514) - http://www.bohemiancoding.com/sketch -->
    <title>D439A29B-D897-481A-B955-5FD64084CA0B</title>
    <desc>Created with sketchtool.</desc>
    <defs>
        <linearGradient x1="50%" y1="0%" x2="50%" y2="100%" id="linearGradient-1">
            <stop stop-color="#0086B1" offset="0%"></stop>
            <stop stop-color="#2AB447" offset="100%"></stop>
        </linearGradient>
        <circle id="path-2" cx="34.655975" cy="34.655975" r="34.1621983"></circle>
    </defs>
    <g id="Page-1" stroke="none" stroke-width="1" fill="none" fill-rule="evenodd">
        <g id="Question-Poll" transform="translate(-1043.000000, -244.000000)">
            <g id="Group-12" transform="translate(730.000000, 210.000000)">
                <g id="Group-8">
                    <g id="Group-2" transform="translate(315.000000, 36.000000)">
                        <g id="001-businessman-with-doubts">
                            <mask id="mask-3" fill="white">
                                <use xlink:href="#path-2"></use>
                            </mask>
                            <g id="Mask">
                                <use fill="url(#linearGradient-1)" fill-rule="evenodd" xlink:href="#path-2"></use>
                                <circle stroke="url(#linearGradient-1)" stroke-width="2" cx="34.655975" cy="34.655975" r="35.1621983"></circle>
                            </g>
                            <g mask="url(#mask-3)" id="Shape" fill-rule="nonzero" fill="#FFFFFF">
                                <g transform="translate(14.274235, 11.728949)">
                                    <path d="M39.2314408,48.8952393 L39.2314408,57.3474813 L1.47208566,57.3474813 L1.47208566,48.8919403 C1.47208566,45.7561651 3.72678591,41.8896438 6.48329446,40.3242305 L12.6163541,36.8255566 L16.8727883,47.4667379 L19.0504987,40.3786653 C19.4794417,40.4792873 19.9070099,40.6079514 20.3524507,40.6079514 C20.7992663,40.6079514 21.2254596,40.4792873 21.6557774,40.3786653 L23.7221277,47.1203345 L27.8919483,36.7084393 L34.220232,40.3192819 C36.9767406,41.8896438 39.2314408,45.7561651 39.2314408,48.8952393 Z M20.3538255,36.7070644 C25.7417342,36.7070644 30.1095285,30.0020808 30.1095285,23.8566478 C30.1095285,17.7057155 25.743109,14.4432742 20.3538255,14.4432742 C14.9659168,14.4432742 10.6008721,17.7057155 10.6008721,23.8566478 C10.5981224,30.0020808 14.9659168,36.7070644 20.3538255,36.7070644 Z M34.9282629,21.1592564 L32.8247926,20.4347277 C33.0461381,19.7926881 33.2399874,19.3225006 33.4049654,19.0200408 C33.5699435,18.7162062 33.8256595,18.4756132 34.167989,18.2982618 C34.5116933,18.1154111 35.0011282,18.0040509 35.6431679,17.9573071 C35.9415032,17.9490582 36.1972192,17.9408093 36.4158152,17.9339352 C36.6289118,17.9243115 36.8213862,17.905064 36.9877391,17.8734432 C37.154092,17.8418224 37.3011975,17.7827053 37.4194317,17.7002163 C37.7356397,17.4981181 37.9886061,17.1255427 38.1728316,16.5866143 C38.410675,15.8992057 38.4560439,15.4083959 38.3116881,15.1141851 C38.2360732,14.9079625 38.0834685,14.7374851 37.8483747,14.6055027 C37.6119062,14.4735202 37.2530789,14.32504 36.770518,14.1600619 C36.2247156,13.9895846 35.81502,13.8892229 35.5414314,13.8521028 C35.2747169,13.8149828 35.0492468,13.850728 34.8691458,13.9648378 C34.6766714,14.1078188 34.484197,14.4034045 34.2834736,14.8570942 C34.2862233,14.918961 34.2683507,15.0055745 34.2298558,15.1155599 L34.0580036,15.6104941 L31.9559081,14.888715 C32.2899887,13.9180941 32.6268189,13.2073136 32.9677736,12.7563735 C33.3114779,12.3068083 33.6950519,12.0332196 34.12262,11.9314832 C34.6134298,11.8132489 35.1207373,11.8063748 35.6390434,11.9108609 C36.1559747,12.015347 36.7773921,12.1926984 37.5019208,12.4415404 C39.1214555,12.9997162 40.0934512,13.6733766 40.4192829,14.4693958 C40.7107442,15.1691777 40.6475026,16.1205513 40.230933,17.3317652 C39.9408465,18.1704038 39.6273882,18.7492018 39.2850587,19.0654098 C38.9427292,19.3788681 38.5192855,19.5850907 38.0147276,19.6813279 C37.853874,19.7143235 37.5857846,19.7431947 37.2049603,19.7610673 C36.8296351,19.7789399 36.5464228,19.7940629 36.3594477,19.8146852 C36.1710977,19.8325578 35.9827477,19.8861757 35.7861489,19.9659151 C35.5428062,20.0387804 35.3819526,20.1515154 35.2994636,20.3013705 C35.2073508,20.4209796 35.0822425,20.7055667 34.9282629,21.1592564 Z M32.2459945,22.1092551 L34.3494649,22.832409 L33.5685687,25.1022322 L31.4664731,24.3790784 L32.2459945,22.1092551 Z M6.53966196,20.7179401 L4.75927365,21.4988363 C4.52005545,20.9544086 4.36470111,20.537839 4.29046098,20.2450029 C4.21897048,19.9521669 4.23821792,19.6442078 4.35095294,19.326625 C4.46368795,19.0090423 4.71390468,18.6447157 5.09610387,18.2336453 C5.28307902,18.0494198 5.44393263,17.8926907 5.57866472,17.7607082 C5.71064717,17.6273509 5.82338219,17.5022426 5.91137049,17.3826335 C5.99798398,17.2616496 6.0557263,17.137916 6.08597228,17.0141825 C6.16983613,16.6952249 6.11071899,16.3047768 5.91137049,15.8524619 C5.65427967,15.2681646 5.39306439,14.9244603 5.12360022,14.8227238 C4.9544977,14.7333607 4.75377438,14.7168629 4.52417991,14.7718556 C4.29458543,14.8254734 3.97700265,14.9437077 3.56730712,15.1238088 C3.11499225,15.3410299 2.7919102,15.5197561 2.59668615,15.655863 C2.40146211,15.7933448 2.27910337,15.9486991 2.22960995,16.1288002 C2.19248989,16.3322731 2.24335812,16.641607 2.3849643,17.0499277 C2.424834,17.0870478 2.4647037,17.1544138 2.50594821,17.2492762 L2.69017372,17.6713451 L0.909785412,18.4536161 C0.549583298,17.6314754 0.344735531,16.9756876 0.297991745,16.4807534 C0.249873142,15.9885688 0.333736993,15.5843725 0.548208481,15.2640401 C0.795675582,14.8969639 1.116008,14.5945041 1.51195536,14.3539111 C1.9065279,14.1146929 2.41108583,13.8617266 3.02562913,13.5881379 C4.3963219,12.985968 5.42193556,12.842987 6.1038449,13.159195 C6.70464003,13.4341584 7.22982021,14.0858218 7.67938545,15.1100606 C7.99284377,15.8235907 8.13307513,16.3803917 8.0987047,16.7859628 C8.06433427,17.1901591 7.91585401,17.5723583 7.64913947,17.93531 C7.5639008,18.0549191 7.40717164,18.2336453 7.17482752,18.4673643 C6.94248341,18.7010832 6.77338089,18.8811843 6.6620207,19.0049178 C6.55203532,19.1286514 6.46129738,19.2757568 6.38430762,19.4448593 C6.2715726,19.6332093 6.23445254,19.7995622 6.27019779,19.9452928 C6.28257114,20.0786501 6.37055944,20.3343661 6.53966196,20.7179401 Z M5.37931622,22.9190225 L7.16107935,22.1353766 L8.00659195,24.0587459 L6.22482882,24.8382673 L5.37931622,22.9190225 Z M18.4978222,9.58604497 L16.4947135,8.60580029 C16.7930489,7.99400662 17.0432656,7.54719102 17.2453637,7.26535349 C17.446087,6.98626559 17.732049,6.77729338 18.093626,6.63981165 C18.4565777,6.4995803 18.9597608,6.44871206 19.6031753,6.48308249 C19.9028854,6.51195365 20.1599762,6.53532554 20.3744477,6.55732262 C20.5889192,6.57519524 20.7827685,6.5793197 20.9532458,6.56557152 C21.1237231,6.55457299 21.2735782,6.51195365 21.4055607,6.45008688 C21.7478901,6.28373399 22.0448507,5.94690377 22.2936926,5.43547176 C22.6126502,4.77968394 22.7226356,4.29574828 22.6099006,3.98228995 C22.5631568,3.76919328 22.4284247,3.5794685 22.2112036,3.41861489 C21.9939824,3.2605109 21.6544026,3.06666168 21.1938388,2.84119165 C20.6714083,2.60472309 20.2754609,2.45761764 20.011496,2.38337751 C19.7489059,2.31601147 19.5206862,2.32151074 19.326837,2.41224867 C19.1192396,2.53185777 18.8896451,2.80407158 18.6353039,3.23438938 C18.6325543,3.29625615 18.6036831,3.37737037 18.5514401,3.48598093 L18.319096,3.95891806 L16.3146125,2.98004819 C16.7669273,2.0547962 17.1917459,1.38938466 17.5849436,0.985188391 C17.9836406,0.576867674 18.3988354,0.351397649 18.8360273,0.30602868 C19.3405852,0.249661174 19.8451431,0.30602868 20.3469514,0.471006748 C20.8487597,0.640109267 21.4454304,0.894450454 22.1383382,1.22990586 C23.6808832,1.98743015 24.5662655,2.77932487 24.7958599,3.60833966 C24.9965833,4.33561798 24.8206067,5.2787426 24.254182,6.4363387 C23.862359,7.2337327 23.478785,7.77128623 23.0979607,8.04212523 C22.7198859,8.3115894 22.2730703,8.46694375 21.7575139,8.50131418 C21.5897862,8.51506235 21.3189472,8.50956308 20.9394976,8.47794229 C20.5614229,8.44769631 20.2795853,8.4311985 20.0912354,8.42569923 C19.9015106,8.41882515 19.7049117,8.45319558 19.500064,8.51231272 C19.2525969,8.54805797 19.0766203,8.64292036 18.9748838,8.78315171 C18.8690229,8.88351337 18.7122937,9.15435236 18.4978222,9.58604497 Z M15.7138173,10.2005883 L17.7196757,11.1794581 L16.6610664,13.3434205 L14.6552081,12.361801 L15.7138173,10.2005883 Z"></path>
                                </g>
                            </g>
                        </g>
                    </g>
                </g>
            </g>
        </g>
    </g>
</svg>