<svg width="22" height="22" viewBox="0 0 22 22" xmlns="http://www.w3.org/2000/svg">
  <title>
    E4243339-1334-4800-BF3B-B993D9F978E7
  </title>
  <g fill="none" fill-rule="evenodd">
    <g>
      <g>
        <g>
          <g>
            <circle fill="#1C9AD6" cx="11" cy="11" r="11"/>
            <path d="M15.4536283 6.63970866H6.56599878c-.76271178 0-1.38323857.59976904-1.38323857 1.33696404v6.2348783c0 .737195.6205268 1.3369641 1.38323858 1.3369641h8.88762952c.7627118 0 1.3832081-.5997691 1.3832081-1.3369641V7.9766727c0-.737195-.6204963-1.33696404-1.3832081-1.33696404zm0 7.72848404H6.56599878c-.11211327 0-.2104411-.0731793-.2104411-.1566417V8.80113642l4.01963872 3.41554328c.0824075.0700483.1872011.1086025.2951055.1086025l.6788708.0000307c.1078435 0 .212698-.0385849.295136-.1086332l4.0198217-3.41566607v5.41059877c-.000061.083401-.0984193.1565803-.2105021.1565803zm-4.4438147-3.2148836L7.1002142 7.82003104h7.8191987l-3.9095993 3.33327806z" fill="#FFF" fill-rule="nonzero"/>
          </g>
        </g>
      </g>
    </g>
  </g>
</svg>
