<svg width="37" height="37" viewBox="0 0 37 37" xmlns="http://www.w3.org/2000/svg">
  <title>
    A7FA382E-9FA4-442C-8D08-A8D4731B2609
  </title>
  <g fill="none" fill-rule="evenodd">
    <g fill-rule="nonzero" fill="#FFF">
      <g>
        <g>
          <path d="M18.5 0C8.2991 0 0 8.26668164 0 18.4277344c0 1.4938027.97360784 2.7645215 2.32156863 3.2180605v7.3327207c0 3.1479629 2.5710647 5.7089844 5.73137255 5.7089844h.25167255C8.75993137 36.0301953 10.0356333 37 11.5352941 37c1.8801804 0 3.4098039-1.5236484 3.4098039-3.3964844v-9.25c0-1.8728359-1.5296235-3.3964843-3.4098039-3.3964843-1.4996608 0-2.77536273.9698046-3.23068037 2.3125h-.25167255c-1.34215687 0-2.57708628.4631503-3.55490196 1.2358867v-2.8595508C5.846 21.1923281 6.81960784 19.9216094 6.81960784 18.4278066c0-6.4154531 5.23978036-11.63476558 11.68039216-11.63476558 6.4405392 0 11.6803922 5.21931248 11.6803922 11.63476558 0 1.4938028.9736078 2.7645215 2.3215686 3.2180606v2.8595508c-.9778157-.7727364-2.2127451-1.2358867-3.554902-1.2358867h-.2516725c-.4553177-1.3426954-1.7310196-2.3125-3.2306804-2.3125-1.8801804 0-3.4098039 1.5236484-3.4098039 3.3964843v9.25C22.054902 35.4763516 23.5845255 37 25.4647059 37c1.4996608 0 2.7753627-.9698047 3.2306804-2.3125h.2516725c3.1603079 0 5.7313726-2.5610215 5.7313726-5.7089844v-7.3327207C36.0263922 21.1922559 37 19.9215371 37 18.4277344 37 8.26668164 28.7009 0 18.5 0zM8.05294118 25.4375h.07254902v7.0820312h-.07254902c-1.96020196 0-3.55490196-1.5884707-3.55490196-3.5410156 0-1.9525449 1.5947-3.5410156 3.55490196-3.5410156zm20.89411762 7.0820312h-.072549V25.4375h.072549c1.960202 0 3.554902 1.5884707 3.554902 3.5410156 0 1.9525449-1.5947 3.5410156-3.554902 3.5410156z"/>
        </g>
      </g>
    </g>
  </g>
</svg>
