<svg xmlns="http://www.w3.org/2000/svg" width="30" height="34" viewBox="0 0 30 34">
  <g fill="#FFF">
    <path d="M29.52 7.646a1.388 1.388 0 0 0-.956-.36h-6.8V1.822c0-.506-.199-.937-.595-1.29C20.772.176 20.289 0 19.723 0h-9.521c-.567 0-1.049.177-1.446.531-.396.354-.595.785-.595 1.29v5.465h-6.8c-.37 0-.688.12-.957.36-.27.24-.404.525-.404.854v24.286c0 .329.135.613.404.854.27.24.588.36.956.36h27.205c.368 0 .687-.12.956-.36.27-.24.404-.525.404-.854V8.5c0-.329-.134-.613-.404-.854zm-18.638-4.61c0-.165.068-.307.202-.427a.694.694 0 0 1 .478-.18h1.36c.185 0 .344.06.479.18.134.12.202.262.202.427v1.821h2.72V3.036c0-.165.067-.307.202-.427a.696.696 0 0 1 .478-.18h1.36c.185 0 .344.06.479.18.134.12.201.262.201.427v6.071a.556.556 0 0 1-.201.427.695.695 0 0 1-.479.18h-1.36a.695.695 0 0 1-.478-.18.556.556 0 0 1-.202-.427V7.286h-2.72v1.821a.555.555 0 0 1-.202.427.694.694 0 0 1-.478.18h-1.36a.694.694 0 0 1-.479-.18.555.555 0 0 1-.202-.427V3.036zm16.323 28.536h-8.162v-4.25a.556.556 0 0 0-.201-.427.696.696 0 0 0-.479-.18h-6.801a.695.695 0 0 0-.478.18.555.555 0 0 0-.202.427v4.25H2.72V9.714h5.442v.607c0 .506.198.936.595 1.29.397.355.879.532 1.445.532h9.522c.566 0 1.049-.177 1.445-.532.396-.354.595-.784.595-1.29v-.607h5.44v21.858z"/>
    <path d="M7.542 21.458h-1.36a.658.658 0 0 0-.478.2.639.639 0 0 0-.202.47v1.342a.64.64 0 0 0 .202.471.658.658 0 0 0 .478.2h1.36a.658.658 0 0 0 .478-.2.64.64 0 0 0 .202-.471v-1.342a.64.64 0 0 0-.202-.47.658.658 0 0 0-.478-.2zm5.441 0h-1.36a.658.658 0 0 0-.478.2.64.64 0 0 0-.202.47v1.342c0 .182.067.338.202.471a.658.658 0 0 0 .478.2h1.36a.658.658 0 0 0 .478-.2.641.641 0 0 0 .202-.471v-1.342a.641.641 0 0 0-.202-.47.659.659 0 0 0-.478-.2zm-5.441-5.364h-1.36a.658.658 0 0 0-.478.199.64.64 0 0 0-.202.471v1.341a.64.64 0 0 0 .202.472c.134.133.294.199.478.199h1.36a.658.658 0 0 0 .478-.2.64.64 0 0 0 .202-.47v-1.342a.64.64 0 0 0-.202-.471.658.658 0 0 0-.478-.2zm10.882 5.364h-1.36a.66.66 0 0 0-.479.2.642.642 0 0 0-.201.47v1.342c0 .182.067.338.201.471a.66.66 0 0 0 .479.2h1.36a.66.66 0 0 0 .479-.2.642.642 0 0 0 .2-.471v-1.342a.641.641 0 0 0-.2-.47.66.66 0 0 0-.479-.2zm-5.441-5.364h-1.36a.658.658 0 0 0-.478.199.64.64 0 0 0-.202.471v1.341a.64.64 0 0 0 .202.472c.134.133.294.199.478.199h1.36a.658.658 0 0 0 .478-.2.64.64 0 0 0 .202-.47v-1.342a.642.642 0 0 0-.202-.471.658.658 0 0 0-.478-.2zm10.882 5.364h-1.36a.658.658 0 0 0-.478.2.638.638 0 0 0-.202.47v1.342a.64.64 0 0 0 .202.471.658.658 0 0 0 .478.2h1.36a.659.659 0 0 0 .478-.2.64.64 0 0 0 .202-.471v-1.342a.64.64 0 0 0-.202-.47.66.66 0 0 0-.478-.2zm-5.441-5.364h-1.36a.659.659 0 0 0-.479.199.642.642 0 0 0-.201.471v1.341c0 .182.067.339.201.472a.66.66 0 0 0 .479.199h1.36a.659.659 0 0 0 .479-.2.642.642 0 0 0 .2-.47v-1.342a.642.642 0 0 0-.2-.471.659.659 0 0 0-.479-.2zm3.401 2.011a.64.64 0 0 0 .201.472c.135.133.294.199.478.199h1.36a.659.659 0 0 0 .479-.2.64.64 0 0 0 .202-.47v-1.342a.64.64 0 0 0-.202-.471.659.659 0 0 0-.478-.2h-1.36a.658.658 0 0 0-.479.2.64.64 0 0 0-.201.471v1.341z"/>
  </g>
</svg>
