<svg width="38" height="38" viewBox="0 0 38 38" xmlns="http://www.w3.org/2000/svg">
  <title>
    D3480BF1-B082-44FD-8322-FF3D3A1A4B49
  </title>
  <g fill="none" fill-rule="evenodd">
    <g fill="#007AB8">
      <g>
        <path d="M9.688 28.0635h4.0287v-12.104H9.688v12.104zm4.2903-15.8362c-.0116-.6046-.221-1.1046-.628-1.5-.4068-.3952-.9475-.593-1.6218-.593-.6744 0-1.2238.1978-1.6482.593-.4244.3954-.6366.8954-.6366 1.5 0 .593.2064 1.09.6192 1.4912.4126.401.9504.6017 1.613.6017h.0176c.686 0 1.2383-.2006 1.6568-.6017.4186-.401.628-.8982.628-1.4912zm5.9822 5.4386v.055h-.035l.035-.055zm0 0v-1.7064h-4.0288c.035.7674.035 4.802 0 12.104h4.0288v-6.767c0-.442.0407-.7675.122-.9768.1745-.407.436-.7528.785-1.0377.3487-.2848.779-.4272 1.2905-.4272 1.3488 0 2.023.9127 2.023 2.7382v6.4705h4.029V21.122c0-1.7905-.4245-3.145-1.2732-4.0636-.8488-.9186-1.9708-1.3778-3.366-1.3778-1.56 0-2.7633.6618-3.6103 1.9853zM38 7.125v23.75c0 1.9627-.6968 3.6408-2.0905 5.0345C34.5158 37.3032 32.8377 38 30.875 38H7.125c-1.9627 0-3.6408-.6968-5.0345-2.0905C.6968 34.5158 0 32.8377 0 30.875V7.125c0-1.9627.6968-3.6408 2.0905-5.0345C3.4842.6968 5.1623 0 7.125 0h23.75c1.9627 0 3.6408.6968 5.0345 2.0905C37.3032 3.4842 38 5.1623 38 7.125z"/>
      </g>
    </g>
  </g>
</svg>
