<svg width="28" height="37" viewBox="0 0 28 37" xmlns="http://www.w3.org/2000/svg">
  <title>
    4DECB66E-FFB9-4238-8301-B9CA96344B6D
  </title>
  <g fill="none" fill-rule="evenodd">
    <g fill-rule="nonzero" fill="#FFF">
      <path d="M13.6613 0C6.1288 0 0 6.087 0 13.569c0 1.9517.4022 3.815 1.1948 5.5388 3.4157 7.4235 9.9645 15.2612 11.8908 17.4863.1443.1664.3547.2622.576.2622.2215 0 .432-.0958.5762-.262 1.9255-2.2248 8.4743-10.062 11.8912-17.4864.793-1.7238 1.1947-3.587 1.1947-5.5387C27.323 6.087 21.1942 0 13.6613 0zm0 20.617c-3.9128 0-7.0965-3.162-7.0965-7.0483 0-3.8865 3.1837-7.0485 7.0965-7.0485s7.0965 3.162 7.0965 7.0485c.0004 3.8863-3.1833 7.0483-7.0965 7.0483z"/>
    </g>
  </g>
</svg>
