<svg xmlns="http://www.w3.org/2000/svg" width="33" height="36" viewBox="0 0 33 36">
  <path fill="#FFF" d="M5 18.8c0 .8.5 1.4 1.2 1.8a8.2 8.2 0 0 0 1.8.7A18 18 0 0 1 6 26c-1.2 1.6-1.3 3.6-.2 5.4C7.4 34.2 11 36 14.6 36c2.5 0 4.8-1 6.3-3 2-3 2.6-7 1.2-11.3-1.3-4 .5-6 1.6-6.8a5.3 5.3 0 0 0 3.6 1.2c2.8 0 5.2-2 5.2-4.8 0-2.7-2.4-5-5.2-5-3 0-5.2 2.3-5.2 5 0 .3 0 .7.2 1-2.2 1.5-4.7 5-3 10 1.2 3.4.8 6.8-.8 9-.7.8-2 1.8-4 1.8-2.6 0-5-1.3-6.2-3-.4-.8-.8-1.8 0-3a20.7 20.7 0 0 0 2.6-5.7 8 8 0 0 0 2.5-.8 2.3 2.3 0 0 0 1.3-1.7c3.4-3 5-8.2 5-8.5.2-.6 0-1.3-.7-1.6.6-4-1-6-2-6.8a1 1 0 0 0-.3-1L15 .2c-.5-.3-1-.2-1.3.3L13 2c-.3.4 0 1 .4 1l2 .6c.4 0 1 0 1.3-.5.8.8 2 2.5 1.5 5.8-.5 0-1 .5-1 1-.6 1.6-2 4.8-4 6.8a2.5 2.5 0 0 0-2 0c-.4.3-.8.4-1.2.4a3 3 0 0 1-1.4-.4 2.5 2.5 0 0 0-2 0c-2-2-3.3-5.3-3.7-6.8-.3-.5-.8-1-1.3-1-.4-3.3.8-5 1.5-5.7.3.5 1 .7 1.4.6l2-.6C7 3 7 2.4 7 2L6.2.4C6 0 5.4 0 5 0L3 1.3a1 1 0 0 0-.4 1C1.8 3 .3 5 .8 9c-.6.2-1 1-.7 1.5 0 .3 1.7 5.4 5 8.3zm22.4-9.3c1 0 2 .8 2 2 0 1-1 1.8-2 1.8s-2-1-2-2 1-1.8 2-1.8z"/>
</svg>
