<svg xmlns="http://www.w3.org/2000/svg" width="23" height="23" viewBox="0 0 23 23">
  <path fill="#29B34B" d="M19.4 3.7C15-.5 8-.5 3.8 3.7a10.7 10.7 0 0 0-.5 14.8l1.3 1.2 1.4 1c4.3 2.5 9.8 2 13.4-1.7a10.7 10.7 0 0 0 0-15.3zM15.2 16l-.7.7c-.3.4-.7.5-1.2.5-.7 0-1.4-.3-2-.6A10.6 10.6 0 0 1 7.8 14C7 13 6.4 12 6 11c0-.4-.3-1-.2-1.5a1.3 1.3 0 0 1 .4-1c.2 0 .5-.4.8-.7.3-.3.8-.3 1 0l.8.7.6.6c.4.5.4 1 0 1.2l-.8.8v.2c0 .4.4.8.7 1 .5.8 1.2 1.5 2 2 0 0 .3 0 .5.2h.2l.8-.8c.4-.4.8-.4 1.2 0l1.2 1.2c.4.4.4.8 0 1.2zm-4-7V8c1 .2 2 .6 2.6 1.3a4.2 4.2 0 0 1 1.2 2.3h-1a3.3 3.3 0 0 0-1-1.7 3.4 3.4 0 0 0-1.8-1zm5.4 2.6A6 6 0 0 0 15 8.2a6.3 6.3 0 0 0-3.7-1.7v-1a7.2 7.2 0 0 1 4.3 2 7 7 0 0 1 2 4h-1z"/>
</svg>
