<svg xmlns="http://www.w3.org/2000/svg" width="35" height="34" viewBox="0 0 35 34">
  <g fill="#FFF">
    <ellipse cx="5.4" cy="3.3" rx="3.4" ry="3.3"/>
    <path d="M1.7 18H2v6.6c0 1 .7 1.7 1.7 1.7h3.5c1 0 1.6-.8 1.6-1.7v-.3a4 4 0 0 1-.5-2V14c0-1.6 1-3 2.5-3.7v-.5c0-1-.7-1.7-1.6-1.7H1.7c-1 0-1.7.8-1.7 1.7v7c0 1 .7 1.6 1.7 1.6z"/>
    <ellipse cx="28.7" cy="3.3" rx="3.4" ry="3.3"/>
    <path d="M23.2 9.4v.7c1.5.7 2.5 2 2.5 3.8v8.5c0 .7-.2 1.3-.5 2v.3c0 1 .8 1.6 1.7 1.6h3.4c1 0 1.6-.7 1.6-1.6V18h.4c1 0 1.6-.7 1.6-1.6v-7c0-1-.7-1.6-1.6-1.6H25c-1 0-1.8.7-1.8 1.6zm-12.4 4.4v8.6c0 1 .8 1.6 1.7 1.6h.6v7.7c0 1 1 1.6 1.8 1.6h4.5c1 0 1.6-.7 1.6-1.6V24h.6c1 0 1.6-.8 1.6-1.7v-8.5c0-1-.7-1.6-1.6-1.6h-9c-1 0-1.8.7-1.8 1.6z"/>
    <ellipse cx="17" cy="7.1" rx="3.9" ry="3.8"/>
  </g>
</svg>
