<?xml version="1.0" encoding="UTF-8"?>
<svg width="18px" height="18px" viewBox="0 0 18 18" version="1.1" xmlns="http://www.w3.org/2000/svg" xmlns:xlink="http://www.w3.org/1999/xlink">
    <!-- Generator: sketchtool 45.2 (43514) - http://www.bohemiancoding.com/sketch -->
    <title>572A16DB-6F52-4755-BC99-32CF34EEE4A4</title>
    <desc>Created with sketchtool.</desc>
    <defs></defs>
    <g id="Page-1" stroke="none" stroke-width="1" fill="none" fill-rule="evenodd" opacity="0.400000006">
        <g id="Question-Poll-2" transform="translate(-1036.000000, -499.000000)" fill-rule="nonzero" fill="#000000">
            <g id="Group-9" transform="translate(730.000000, 210.000000)">
                <g id="thumbs-up-hand-symbol-copy-3" transform="translate(306.000000, 289.000000)">
                    <path d="M17.3402971,9.57908815 C17.7518004,9.1077541 17.9576307,8.55036916 17.9576307,7.90681539 C17.9576307,7.32321028 17.7440955,6.81822636 17.3184797,6.39150983 C16.891999,5.96483262 16.3870151,5.75161195 15.80341,5.75161195 L12.6946494,5.75161195 C12.7245255,5.64688852 12.7544802,5.55710312 12.7843562,5.48229506 C12.8139571,5.40748699 12.8555477,5.32509198 12.9077129,5.23530658 C12.9599174,5.14548187 12.997459,5.07810351 13.0198267,5.03328943 C13.1544655,4.77902849 13.2575379,4.56938508 13.3286901,4.40490955 C13.3997243,4.24011953 13.4704441,4.01573464 13.5417535,3.7314011 C13.612945,3.4472248 13.6483245,3.16277333 13.6483245,2.87843979 C13.6483245,2.6989476 13.6461624,2.55290874 13.6426245,2.44075561 C13.6391258,2.32852385 13.6200602,2.16011726 13.5866855,1.93561445 C13.5527998,1.71122956 13.5078284,1.52415044 13.4518502,1.37457362 C13.395636,1.22495749 13.305772,1.05647227 13.1825333,0.869550388 C13.0590194,0.682274708 12.9094425,0.530968223 12.733449,0.414923343 C12.5574948,0.298957084 12.3331099,0.201702669 12.0600192,0.123199408 C11.7866533,0.0446175267 11.4781831,0.00534624108 11.1337829,0.00534624108 C10.9392741,0.00534624108 10.771064,0.0764591096 10.6287597,0.218645536 C10.4791436,0.368261665 10.3517379,0.555301482 10.2470931,0.779686365 C10.1422911,1.00418918 10.0692913,1.19873732 10.0280938,1.36340941 C9.98693558,1.52800287 9.94011666,1.75627951 9.8879515,2.04800344 C9.82037659,2.36240959 9.77009834,2.58860276 9.7362126,2.72701537 C9.70260204,2.86542798 9.63695335,3.04684638 9.53977755,3.27127057 C9.44240521,3.49585201 9.32655688,3.67530488 9.19183947,3.8100616 C8.94496892,4.05693215 8.56715478,4.50589847 8.0582398,5.15680332 C7.69151125,5.63560638 7.31369711,6.0882679 6.92464014,6.51478786 C6.53550455,6.94138645 6.25121032,7.16207614 6.07167882,7.17705348 C5.88475694,7.19199151 5.72385867,7.26868648 5.58914126,7.40717771 C5.45442384,7.54559032 5.38708479,7.7083755 5.38708479,7.895376 L5.38708479,15.0896082 C5.38708479,15.2841564 5.45811904,15.4505581 5.60030547,15.5889707 C5.74241327,15.7275406 5.91078055,15.8004617 6.10532869,15.80797 C6.36717658,15.8154784 6.95829001,15.9799146 7.878669,16.301947 C8.45472648,16.4961807 8.90546177,16.644185 9.23095351,16.745056 C9.55636662,16.845927 10.0112295,16.9545029 10.5944022,17.0706264 C11.1781253,17.1865533 11.7167591,17.2446937 12.2104608,17.2446937 L12.4013138,17.2446937 L13.2543537,17.2446937 L13.6583094,17.2446937 C14.653693,17.2297557 15.3903736,16.9378352 15.8694125,16.3693254 C16.3032442,15.8529807 16.4864709,15.1758163 16.4193677,14.3377931 C16.711131,14.0609678 16.9133054,13.7094525 17.0253799,13.2828539 C17.1523924,12.8266937 17.1523924,12.3889309 17.0253799,11.9699979 C17.3695049,11.5135626 17.5304031,11.001031 17.5077995,10.4323639 C17.508743,10.1926872 17.4527647,9.90843232 17.3402971,9.57908815 Z" id="Shape"></path>
                    <path d="M3.95071492,7.18849286 L0.718440456,7.18849286 C0.523774384,7.18849286 0.3554071,7.25960573 0.213259984,7.40179216 C0.0711128685,7.54389996 0,7.71226725 0,7.90681539 L0,15.0901192 C0,15.2843922 0.0711128685,15.4528381 0.213299295,15.5951425 C0.355564343,15.737093 0.523931626,15.8082452 0.718479767,15.8082452 L3.95071492,15.8082452 C4.14522375,15.8082452 4.31351241,15.737093 4.45573815,15.5951425 C4.59788526,15.4528381 4.66895882,15.2844315 4.66895882,15.0901192 L4.66895882,7.90681539 C4.66895882,7.71226725 4.59784595,7.54393927 4.45573815,7.40179216 C4.31355172,7.25956642 4.14526306,7.18849286 3.95071492,7.18849286 Z M2.65995149,14.1639223 C2.51780438,14.3023349 2.3494764,14.3715216 2.15492826,14.3715216 C1.9528718,14.3715216 1.78261761,14.3023349 1.64428362,14.1639223 C1.50587101,14.0255097 1.43668436,13.8553341 1.43668436,13.6532776 C1.43668436,13.4587688 1.5058317,13.2903622 1.64428362,13.1482544 C1.78265692,13.006068 1.9528718,12.9348765 2.15492826,12.9348765 C2.3494764,12.9348765 2.51780438,13.006068 2.65995149,13.1482544 C2.80213792,13.2903229 2.87325079,13.4587295 2.87325079,13.6532776 C2.87325079,13.8553341 2.80229516,14.0254704 2.65995149,14.1639223 Z" id="Shape"></path>
                </g>
            </g>
        </g>
    </g>
</svg>