<svg width="38" height="38" viewBox="0 0 38 38" xmlns="http://www.w3.org/2000/svg">
  <title>
    7771F0EE-1FB0-4383-A205-07434B522FD1
  </title>
  <g fill="none" fill-rule="evenodd">
    <g fill="#00ABF0">
      <g>
        <path d="M27.8 14.3c-.6.3-1.3.5-2 .6.7-.6 1.3-1.2 1.6-2l-2.4.8c-.7-.8-1.5-1.2-2.6-1.2-1 0-2 .4-2.6 1-.7.8-1 1.6-1 2.6v1c-1.4-.2-2.8-.6-4-1.3-1.4-.7-2.5-1.6-3.4-2.7-.4.5-.5 1.2-.5 1.8 0 1.4.4 2.4 1.4 3-.5 0-1 0-1.7-.3 0 1 .3 1.6 1 2.3.5.7 1.2 1 2 1.3h-1-.5c.2.8.6 1.3 1.2 1.8.7.6 1.4.8 2 .8-1.2 1-2.7 1.6-4.4 1.6h-.8c1.7 1 3.5 1.6 5.5 1.6 1.3 0 2.5-.2 3.6-.6 1.2-.5 2-1 3-1.7l2-2.3c.6-1 1-2 1.3-2.8.3-1 .4-2 .4-3v-.4c.7-.5 1.4-1.2 1.8-2zM38 7v24c0 1.8-.7 3.5-2 5-1.5 1.3-3.2 2-5 2H7c-1.8 0-3.5-.7-5-2-1.3-1.5-2-3.2-2-5V7c0-1.8.7-3.5 2-5C3.6.8 5.3 0 7 0h24c1.8 0 3.5.7 5 2 1.3 1.5 2 3.2 2 5z"/>
      </g>
    </g>
  </g>
</svg>
